%TF.GenerationSoftware,KiCad,Pcbnew,(6.0.1)*%
%TF.CreationDate,2022-10-21T10:45:19+02:00*%
%TF.ProjectId,RKP2 - ReadoutsLayers,524b5032-202d-4205-9265-61646f757473,rev?*%
%TF.SameCoordinates,Original*%
%TF.FileFunction,Copper,L4,Bot*%
%TF.FilePolarity,Positive*%
%FSLAX46Y46*%
G04 Gerber Fmt 4.6, Leading zero omitted, Abs format (unit mm)*
G04 Created by KiCad (PCBNEW (6.0.1)) date 2022-10-21 10:45:19*
%MOMM*%
%LPD*%
G01*
G04 APERTURE LIST*
G04 Aperture macros list*
%AMRoundRect*
0 Rectangle with rounded corners*
0 $1 Rounding radius*
0 $2 $3 $4 $5 $6 $7 $8 $9 X,Y pos of 4 corners*
0 Add a 4 corners polygon primitive as box body*
4,1,4,$2,$3,$4,$5,$6,$7,$8,$9,$2,$3,0*
0 Add four circle primitives for the rounded corners*
1,1,$1+$1,$2,$3*
1,1,$1+$1,$4,$5*
1,1,$1+$1,$6,$7*
1,1,$1+$1,$8,$9*
0 Add four rect primitives between the rounded corners*
20,1,$1+$1,$2,$3,$4,$5,0*
20,1,$1+$1,$4,$5,$6,$7,0*
20,1,$1+$1,$6,$7,$8,$9,0*
20,1,$1+$1,$8,$9,$2,$3,0*%
G04 Aperture macros list end*
%TA.AperFunction,ComponentPad*%
%ADD10RoundRect,1.250000X-1.250000X-1.250000X1.250000X-1.250000X1.250000X1.250000X-1.250000X1.250000X0*%
%TD*%
%TA.AperFunction,ViaPad*%
%ADD11C,0.800000*%
%TD*%
%TA.AperFunction,ViaPad*%
%ADD12C,0.300000*%
%TD*%
%TA.AperFunction,Conductor*%
%ADD13C,0.125000*%
%TD*%
G04 APERTURE END LIST*
D10*
%TO.P,REF\u002A\u002A,1*%
%TO.N,N/C*%
X-113962000Y-136500000D03*
%TD*%
%TO.P,REF\u002A\u002A,1*%
%TO.N,N/C*%
X136500000Y-13962000D03*
%TD*%
%TO.P,REF\u002A\u002A,1*%
%TO.N,N/C*%
X13962000Y-136500000D03*
%TD*%
%TO.P,REF\u002A\u002A2,1*%
%TO.N,N/C*%
X136500000Y114038000D03*
%TD*%
%TO.P,REF\u002A\u002A,1*%
%TO.N,N/C*%
X-49962500Y-136500000D03*
%TD*%
%TO.P,REF\u002A\u002A1,1*%
%TO.N,N/C*%
X136500000Y50038000D03*
%TD*%
D11*
%TO.N,*%
X-81300000Y6300000D03*
D12*
X-64202000Y-2420000D03*
X-816000Y-2420000D03*
X-5050000Y95050000D03*
X-15050000Y75050000D03*
X-25050000Y55050000D03*
D11*
X-6300000Y18800000D03*
D12*
X-84400000Y-142500000D03*
X1707000Y71124000D03*
X142432860Y89186030D03*
X1707000Y72889000D03*
D11*
X-18800000Y31300000D03*
X-93800000Y18800000D03*
D12*
X-55050000Y55050000D03*
X-85200000Y-142500000D03*
D11*
X-31300000Y6300000D03*
X-93800000Y43800000D03*
D12*
X-26702000Y-2420000D03*
X-13316000Y-2420000D03*
X142432860Y91586030D03*
X1707000Y73778000D03*
D11*
X-43800000Y31300000D03*
D12*
X142432860Y79586030D03*
X142432860Y77186030D03*
X1707000Y91124000D03*
X142432860Y75586030D03*
X-45050000Y65050000D03*
X-63316000Y-2420000D03*
X-87600000Y-142500000D03*
D11*
X-81300000Y18800000D03*
D12*
X-55050000Y75050000D03*
D11*
X-68800000Y6300000D03*
D12*
X-25816000Y-2420000D03*
D11*
X-43800000Y18800000D03*
D12*
X-25050000Y95050000D03*
X-95050000Y65050000D03*
X-93200000Y-142500000D03*
X-92400000Y-142500000D03*
X-88400000Y-142500000D03*
X-25050000Y65050000D03*
D11*
X-56300000Y43800000D03*
D12*
X-14202000Y-2420000D03*
X142432860Y77986030D03*
X1707000Y52008000D03*
X-75050000Y95050000D03*
D11*
X-6300000Y31300000D03*
D12*
X-35050000Y55050000D03*
X-55050000Y65050000D03*
X1707000Y51124000D03*
X-50816000Y-2420000D03*
X1707000Y52889000D03*
X-65050000Y95050000D03*
D11*
X-68800000Y18800000D03*
D12*
X-90800000Y-142500000D03*
X-5050000Y75050000D03*
X1707000Y62889000D03*
X-86000000Y-142500000D03*
D11*
X-18800000Y6300000D03*
D12*
X142432860Y83586030D03*
D11*
X-6300000Y43800000D03*
D12*
X142432860Y85986030D03*
X-45050000Y55050000D03*
X-55050000Y95050000D03*
X1707000Y94676000D03*
X-5050000Y55050000D03*
X-89202000Y-2420000D03*
D11*
X-81300000Y43800000D03*
D12*
X-94000000Y-142500000D03*
D11*
X-56300000Y18800000D03*
D12*
X-76702000Y-2420000D03*
X1707000Y92889000D03*
X-83600000Y-142500000D03*
D11*
X-68800000Y31300000D03*
D12*
X-35050000Y75050000D03*
X1707000Y81124000D03*
X-85050000Y75050000D03*
X-65050000Y75050000D03*
X1707000Y64676000D03*
X-85050000Y95050000D03*
X-82800000Y-142500000D03*
X142432860Y82786030D03*
X-75050000Y55050000D03*
D11*
X-18800000Y43800000D03*
D12*
X1707000Y53778000D03*
X142432860Y94786030D03*
X1707000Y61124000D03*
X-88316000Y-2420000D03*
X-91600000Y-142500000D03*
D11*
X-43800000Y6300000D03*
D12*
X-35050000Y95050000D03*
X-15050000Y65050000D03*
X1707000Y82008000D03*
X142432860Y88386030D03*
X-55050000Y85050000D03*
X-95050000Y55050000D03*
X-15050000Y85050000D03*
X-45050000Y85050000D03*
X142432860Y93186030D03*
X142432860Y90786030D03*
X-65050000Y65050000D03*
X-25050000Y75050000D03*
D11*
X-56300000Y6300000D03*
D12*
X142432860Y76386030D03*
X-38316000Y-2420000D03*
X-1702000Y-2420000D03*
X-5050000Y85050000D03*
X-5050000Y65050000D03*
D11*
X-93800000Y6300000D03*
D12*
X-65050000Y85050000D03*
X-85050000Y85050000D03*
X-75816000Y-2420000D03*
X142432860Y81186030D03*
X-85050000Y55050000D03*
D11*
X-56300000Y31300000D03*
D12*
X142432860Y85186030D03*
X1707000Y82889000D03*
X142432860Y84386030D03*
X1707000Y63778000D03*
X1707000Y72008000D03*
D11*
X-31300000Y31300000D03*
D12*
X1707000Y93778000D03*
X1707000Y83778000D03*
X1707000Y84676000D03*
X1707000Y92008000D03*
X-45050000Y75050000D03*
X-75050000Y75050000D03*
X-39202000Y-2420000D03*
D11*
X-31300000Y43800000D03*
X-93800000Y31300000D03*
D12*
X-75050000Y65050000D03*
X-94800000Y-142500000D03*
X142432860Y74786030D03*
X-90000000Y-142500000D03*
D11*
X-31300000Y18800000D03*
D12*
X142432860Y78786030D03*
X-95050000Y75050000D03*
X1707000Y62008000D03*
X-89200000Y-142500000D03*
D11*
X-81300000Y31300000D03*
X-6300000Y6300000D03*
D12*
X142432860Y89986030D03*
D11*
X-68800000Y43800000D03*
D12*
X1707000Y54676000D03*
X-65050000Y55050000D03*
X142432860Y80386030D03*
X-95050000Y95050000D03*
X-15050000Y55050000D03*
D11*
X-43800000Y43800000D03*
D12*
X-95050000Y85050000D03*
X142432860Y86786030D03*
X-35050000Y65050000D03*
X-35050000Y85050000D03*
X-85050000Y65050000D03*
X-15050000Y95050000D03*
X-25050000Y85050000D03*
X142432860Y87586030D03*
X-86800000Y-142500000D03*
X142432860Y92386030D03*
X1707000Y74676000D03*
X142432860Y93986030D03*
X-75050000Y85050000D03*
X-51702000Y-2420000D03*
D11*
X-18800000Y18800000D03*
D12*
X-45050000Y95050000D03*
%TD*%
D13*
%TO.N,*%
X-35047000Y65050000D02*
X-33610000Y63613000D01*
X19008000Y51563000D02*
X1939000Y51563000D01*
X-88800000Y-130890000D02*
X-88800000Y-142100000D01*
X2071000Y73334000D02*
X2486000Y73334000D01*
X-75050000Y75050000D02*
X-71563000Y71563000D01*
X130402860Y83186030D02*
X130529030Y83186030D01*
X-4676000Y94676000D02*
X1707000Y94676000D01*
X-87200000Y-113131000D02*
X-87200000Y-131015000D01*
X-24188000Y54188000D02*
X-23778000Y53778000D01*
X117904030Y90386030D02*
X112482000Y84964000D01*
X-14202000Y14202000D02*
X-14202000Y8343000D01*
X-5050000Y55050000D02*
X-4676000Y54676000D01*
X-85232000Y-104869000D02*
X-91200000Y-110837000D01*
X-79667000Y-11655000D02*
X-79879000Y-11867000D01*
X114180000Y77832000D02*
X121134030Y84786030D01*
X2071000Y73334000D02*
X25635000Y73334000D01*
X-81124000Y81124000D02*
X1707000Y81124000D01*
X-65050000Y95050000D02*
X-62008000Y92008000D01*
X19376000Y50672000D02*
X1987000Y50672000D01*
X-95050000Y55050000D02*
X-91583000Y51583000D01*
X-13316000Y38316000D02*
X-13316000Y-2420000D01*
X121134030Y84786030D02*
X130422860Y84786030D01*
X34683000Y69761000D02*
X18256000Y53334000D01*
X-89610000Y-130490000D02*
X-89610000Y-130951000D01*
X27695000Y93334000D02*
X33354000Y87675000D01*
X1715000Y93334000D02*
X27695000Y93334000D01*
X-31530000Y53334000D02*
X1980000Y53334000D01*
X-90672000Y80672000D02*
X1449000Y80672000D01*
X-35050000Y55050000D02*
X-35047000Y55050000D01*
X115632030Y94386030D02*
X142032860Y94386030D01*
X142022860Y79176030D02*
X142432860Y79586030D01*
X111978000Y83200000D02*
X31538000Y83200000D01*
X-91583000Y51583000D02*
X-90672000Y50672000D01*
X1881000Y54227000D02*
X1956000Y54227000D01*
X130422860Y91986030D02*
X130548030Y91986030D01*
X-78979000Y-107422000D02*
X-85600000Y-114043000D01*
X122143030Y80776030D02*
X130420030Y80776030D01*
X111241000Y84992000D02*
X117435030Y91186030D01*
X-81665000Y-106339000D02*
X-88010000Y-112684000D01*
X130576030Y88776030D02*
X142022860Y88776030D01*
X1884000Y83334000D02*
X31404000Y83334000D01*
X116717000Y71548000D02*
X33956000Y71548000D01*
X-31300000Y31300000D02*
X-26262000Y26262000D01*
X2034000Y72452000D02*
X2740000Y72452000D01*
X-90672000Y50672000D02*
X1987000Y50672000D01*
X32347000Y84099000D02*
X31889000Y84099000D01*
X-86400000Y-130500000D02*
X-86400000Y-131025000D01*
X-64650000Y-813000D02*
X-64650000Y-968000D01*
X-84477000Y-6291000D02*
X-85232000Y-7046000D01*
X130558970Y75986030D02*
X124943030Y75986030D01*
X-93590000Y-142110000D02*
X-93200000Y-142500000D01*
X25250000Y74227000D02*
X1956000Y74227000D01*
X-5050000Y75050000D02*
X-4676000Y74676000D01*
X130422860Y86386030D02*
X130563970Y86386030D01*
X-15050000Y55050000D02*
X-14227000Y54227000D01*
X-4676000Y54676000D02*
X1707000Y54676000D01*
X-56300000Y43800000D02*
X-50816000Y38316000D01*
X-64650000Y-1520000D02*
X-64650000Y-2206000D01*
X-31300000Y6300000D02*
X-27150000Y2150000D01*
X130563970Y86386030D02*
X120223030Y86386030D01*
X-88762000Y26262000D02*
X-88762000Y-103410000D01*
X32625000Y85885000D02*
X110862000Y85885000D01*
X32246000Y84992000D02*
X111241000Y84992000D01*
X130548030Y91986030D02*
X142032860Y91986030D01*
X-84000000Y-114966000D02*
X-84000000Y-130939000D01*
X-22139000Y83778000D02*
X1707000Y83778000D01*
X130422860Y87186030D02*
X142032860Y87186030D01*
X-93800000Y43800000D02*
X-88316000Y38316000D01*
X-5050000Y85050000D02*
X-4676000Y84676000D01*
X33354000Y87675000D02*
X110124000Y87675000D01*
X130546970Y74386030D02*
X142032860Y74386030D01*
X18256000Y53334000D02*
X1980000Y53334000D01*
X-45050000Y95050000D02*
X-42889000Y92889000D01*
X-55050000Y75050000D02*
X-52452000Y72452000D01*
X-55050000Y55050000D02*
X-52452000Y52452000D01*
X-68800000Y31300000D02*
X-63762000Y26262000D01*
X-35047000Y55050000D02*
X-33610000Y53613000D01*
X-4676000Y84676000D02*
X1707000Y84676000D01*
X-39650000Y-2451000D02*
X-46165000Y-8966000D01*
X-24384000Y-13426000D02*
X-77436000Y-13426000D01*
X1449000Y80672000D02*
X30277000Y80672000D01*
X-77150000Y2150000D02*
X-77150000Y-2597000D01*
X-33331000Y63334000D02*
X-31530000Y63334000D01*
X-91583000Y91583000D02*
X-90672000Y90672000D01*
X-95200000Y-108616000D02*
X-95200000Y-130937000D01*
X-95050000Y85050000D02*
X-91583000Y81583000D01*
X-92800000Y-109972000D02*
X-92800000Y-130875000D01*
X120223030Y86386030D02*
X113464000Y79627000D01*
X-35047000Y75050000D02*
X-33610000Y73613000D01*
X-80777000Y-11146000D02*
X-80777000Y-106708000D01*
X-89610000Y-130951000D02*
X-89610000Y-142090000D01*
X142032860Y83986030D02*
X142432860Y84386030D01*
X31394000Y77832000D02*
X114180000Y77832000D01*
X-14227000Y74227000D02*
X-12770000Y74227000D01*
X130599030Y79976030D02*
X142022860Y79976030D01*
X-46165000Y-8966000D02*
X-81549000Y-8966000D01*
X-43800000Y43800000D02*
X-38316000Y38316000D01*
X130553970Y76776030D02*
X124466030Y76776030D01*
X-68522000Y-5392000D02*
X-68797000Y-5392000D01*
X-85050000Y55050000D02*
X-81124000Y51124000D01*
X-23778000Y93778000D02*
X-22139000Y93778000D01*
X130422860Y88776030D02*
X130576030Y88776030D01*
X-82524000Y-8079000D02*
X-83447000Y-9002000D01*
X-13641000Y-15222000D02*
X-75579000Y-15222000D01*
X-1262000Y-2843000D02*
X-13641000Y-15222000D01*
X-64202000Y8343000D02*
X-64202000Y-2420000D01*
X-26702000Y14202000D02*
X-26702000Y8343000D01*
X-38316000Y38316000D02*
X-38316000Y-2420000D01*
X-92010000Y-130470000D02*
X-92010000Y-130977000D01*
X130524030Y93586030D02*
X142032860Y93586030D01*
X33584000Y72447000D02*
X22700000Y61563000D01*
X-89202000Y8343000D02*
X-89202000Y-2420000D01*
X35422000Y67977000D02*
X19008000Y51563000D01*
X-76262000Y26262000D02*
X-76262000Y-2952000D01*
X26743000Y70672000D02*
X32105000Y76034000D01*
X-14227000Y64227000D02*
X-12770000Y64227000D01*
X-33331000Y93334000D02*
X-31530000Y93334000D01*
X-91583000Y81583000D02*
X-90672000Y80672000D01*
X1987000Y50672000D02*
X3393000Y50672000D01*
X-65050000Y85050000D02*
X-62008000Y82008000D01*
X117451000Y69761000D02*
X34683000Y69761000D01*
X-65050000Y55050000D02*
X-62008000Y52008000D01*
X122610030Y79976030D02*
X130599030Y79976030D01*
X-79879000Y-107061000D02*
X-86400000Y-113582000D01*
X142032860Y77586030D02*
X142432860Y77986030D01*
X32105000Y76034000D02*
X114873000Y76034000D01*
X-94400000Y-142100000D02*
X-94000000Y-142500000D01*
X-87014000Y-6326000D02*
X-87014000Y-104186000D01*
X-6300000Y31300000D02*
X-1262000Y26262000D01*
X-89650000Y2150000D02*
X-89650000Y-103066000D01*
X22700000Y61563000D02*
X1902000Y61563000D01*
X-87903000Y-103827000D02*
X-93590000Y-109514000D01*
X-79879000Y-11867000D02*
X-79879000Y-107061000D01*
X119756030Y87186030D02*
X130422860Y87186030D01*
X1939000Y51563000D02*
X3053000Y51563000D01*
X-88316000Y38316000D02*
X-88316000Y-2420000D01*
X-75579000Y-15222000D02*
X-76307000Y-15950000D01*
X1720000Y92452000D02*
X2740000Y92452000D01*
X-71563000Y61563000D02*
X1902000Y61563000D01*
X130422860Y78386030D02*
X142032860Y78386030D01*
X-92800000Y-130875000D02*
X-92800000Y-142100000D01*
X-83447000Y-9002000D02*
X-83447000Y-105585000D01*
X-81124000Y91124000D02*
X1707000Y91124000D01*
X142032860Y92786030D02*
X142432860Y93186030D01*
X31026000Y82452000D02*
X31171000Y82307000D01*
X-85184000Y-4496000D02*
X-87014000Y-6326000D01*
X121575030Y83986030D02*
X130492970Y83986030D01*
X1758000Y84227000D02*
X1956000Y84227000D01*
X-92010000Y-110401000D02*
X-92010000Y-130977000D01*
X-22139000Y73778000D02*
X1707000Y73778000D01*
X130675970Y87986030D02*
X142032860Y87986030D01*
X-76262000Y-2952000D02*
X-77806000Y-4496000D01*
X-12770000Y84227000D02*
X1758000Y84227000D01*
X27314000Y92452000D02*
X1720000Y92452000D01*
X142032860Y91186030D02*
X142432860Y91586030D01*
X130432860Y89586030D02*
X142032860Y89586030D01*
X109807000Y88561000D02*
X115632030Y94386030D01*
X142032860Y90386030D02*
X142432860Y90786030D01*
X-65050000Y65050000D02*
X-62008000Y62008000D01*
X-84800000Y-114507000D02*
X-84800000Y-131126000D01*
X118200000Y67977000D02*
X35422000Y67977000D01*
X-33610000Y53613000D02*
X-33331000Y53334000D01*
X-81665000Y-10780000D02*
X-81665000Y-106339000D01*
X-52150000Y2150000D02*
X-52150000Y-2439000D01*
X-42889000Y62889000D02*
X1707000Y62889000D01*
X-18800000Y18800000D02*
X-14202000Y14202000D01*
X117825000Y68868000D02*
X35056000Y68868000D01*
X-35050000Y75050000D02*
X-35047000Y75050000D01*
X1782000Y70672000D02*
X26743000Y70672000D01*
X130529030Y83186030D02*
X142032860Y83186030D01*
X-43800000Y6300000D02*
X-39650000Y2150000D01*
X-12770000Y74227000D02*
X1956000Y74227000D01*
X-88010000Y-142090000D02*
X-87600000Y-142500000D01*
X2020000Y90672000D02*
X3393000Y90672000D01*
X-31530000Y63334000D02*
X1447000Y63334000D01*
X-64650000Y2150000D02*
X-64650000Y-813000D01*
X-90672000Y90672000D02*
X2020000Y90672000D01*
X-68800000Y18800000D02*
X-64202000Y14202000D01*
X142032860Y87186030D02*
X142432860Y87586030D01*
X-15050000Y75050000D02*
X-14227000Y74227000D01*
X1975000Y81563000D02*
X3053000Y81563000D01*
X142032860Y83186030D02*
X142432860Y83586030D01*
X-86400000Y-142100000D02*
X-86000000Y-142500000D01*
X-95050000Y95050000D02*
X-91583000Y91583000D01*
X-85050000Y75050000D02*
X-81124000Y71124000D01*
X-35050000Y85050000D02*
X-35047000Y85050000D01*
X-78085000Y-107792000D02*
X-84800000Y-114507000D01*
X2249000Y71563000D02*
X3053000Y71563000D01*
X2034000Y72452000D02*
X26014000Y72452000D01*
X27986000Y94227000D02*
X33652000Y88561000D01*
X-88762000Y-103410000D02*
X-94400000Y-109048000D01*
X130597970Y75186030D02*
X125409030Y75186030D01*
X118552000Y67078000D02*
X35782000Y67078000D01*
X-22139000Y63778000D02*
X1707000Y63778000D01*
X130527030Y77586030D02*
X142032860Y77586030D01*
X-12770000Y54227000D02*
X1881000Y54227000D01*
X26014000Y72452000D02*
X31394000Y77832000D01*
X-42889000Y92889000D02*
X1782000Y92889000D01*
X-38762000Y26262000D02*
X-38762000Y21127000D01*
X31761000Y84227000D02*
X31889000Y84099000D01*
X-5050000Y65050000D02*
X-4676000Y64676000D01*
X-55050000Y85050000D02*
X-52452000Y82452000D01*
X-92800000Y-130480000D02*
X-92800000Y-130875000D01*
X-38762000Y-2420000D02*
X-38762000Y-2833000D01*
X1856000Y82452000D02*
X2740000Y82452000D01*
X1447000Y63334000D02*
X2486000Y63334000D01*
X1793000Y64227000D02*
X1956000Y64227000D01*
X-86124000Y-104515000D02*
X-92010000Y-110401000D01*
X-22139000Y53778000D02*
X1707000Y53778000D01*
X-12770000Y64227000D02*
X1793000Y64227000D01*
X30650000Y79627000D02*
X25250000Y74227000D01*
X-25050000Y65050000D02*
X-24188000Y64188000D01*
X26394000Y71563000D02*
X31761000Y76930000D01*
X142032860Y93586030D02*
X142432860Y93986030D01*
X120673030Y85586030D02*
X130524030Y85586030D01*
X-95050000Y65050000D02*
X-91583000Y61583000D01*
X-94400000Y-130879000D02*
X-94400000Y-142100000D01*
X-91200000Y-130480000D02*
X-91200000Y-130922000D01*
X-84000000Y-142100000D02*
X-83600000Y-142500000D01*
X142032860Y82386030D02*
X142432860Y82786030D01*
X-2150000Y2150000D02*
X-2150000Y-2460000D01*
X115236000Y75138000D02*
X32467000Y75138000D01*
X112482000Y84964000D02*
X111617000Y84099000D01*
X-63762000Y26262000D02*
X-63762000Y-2597000D01*
X31538000Y83200000D02*
X31404000Y83334000D01*
X-15050000Y85050000D02*
X-14227000Y84227000D01*
X-90390000Y-130520000D02*
X-90390000Y-130922000D01*
X117076000Y70651000D02*
X34309000Y70651000D01*
X26947000Y91563000D02*
X32625000Y85885000D01*
X-39650000Y2150000D02*
X-39650000Y-2451000D01*
X-33331000Y73334000D02*
X-31530000Y73334000D01*
X113087000Y80517000D02*
X119756030Y87186030D01*
X-23778000Y53778000D02*
X-22139000Y53778000D01*
X-80387000Y-10756000D02*
X-80777000Y-11146000D01*
X130472860Y82386030D02*
X142032860Y82386030D01*
X-31530000Y83334000D02*
X1884000Y83334000D01*
X-31530000Y73334000D02*
X2071000Y73334000D01*
X-45050000Y85050000D02*
X-42889000Y82889000D01*
X1800000Y60672000D02*
X3393000Y60672000D01*
X110862000Y85885000D02*
X116963030Y91986030D01*
X-88800000Y-130480000D02*
X-88800000Y-130890000D01*
X130492970Y83986030D02*
X142032860Y83986030D01*
X114519000Y76930000D02*
X121575030Y83986030D01*
X-43800000Y18800000D02*
X-39202000Y14202000D01*
X-24188000Y74188000D02*
X-23778000Y73778000D01*
X-75050000Y55050000D02*
X-71563000Y51563000D01*
X-23778000Y73778000D02*
X-22139000Y73778000D01*
X-87200000Y-142100000D02*
X-86800000Y-142500000D01*
X-84110000Y-7180000D02*
X-84337000Y-7407000D01*
X-25050000Y85050000D02*
X-24188000Y84188000D01*
X-93800000Y18800000D02*
X-89202000Y14202000D01*
X-86400000Y-113582000D02*
X-86400000Y-131025000D01*
X-62008000Y52008000D02*
X1707000Y52008000D01*
X130558970Y75986030D02*
X142032860Y75986030D01*
X-83210000Y-115436000D02*
X-83210000Y-130975000D01*
X30277000Y80672000D02*
X30432000Y80517000D01*
X-35008000Y-11655000D02*
X-79667000Y-11655000D01*
X123555030Y78386030D02*
X116717000Y71548000D01*
X-25050000Y55050000D02*
X-24188000Y54188000D01*
X-91583000Y71583000D02*
X-90672000Y70672000D01*
X-62008000Y72008000D02*
X1707000Y72008000D01*
X130422860Y75986030D02*
X130558970Y75986030D01*
X130412860Y74386030D02*
X130546970Y74386030D01*
X-84337000Y-7407000D02*
X-84337000Y-105217000D01*
X-78085000Y-14075000D02*
X-78085000Y-107792000D01*
X-76307000Y-15950000D02*
X-76307000Y-108533000D01*
X-85567000Y-3602000D02*
X-87903000Y-5938000D01*
X-51702000Y8343000D02*
X-51702000Y-2420000D01*
X130422860Y84786030D02*
X142032860Y84786030D01*
X130604970Y90386030D02*
X117904030Y90386030D01*
X30809000Y81414000D02*
X112709000Y81414000D01*
X-46460000Y-9862000D02*
X-80747000Y-9862000D01*
X122484030Y82386030D02*
X115236000Y75138000D01*
X-52452000Y82452000D02*
X1856000Y82452000D01*
X130546970Y74386030D02*
X125860030Y74386030D01*
X-85232000Y-7046000D02*
X-85232000Y-104869000D01*
X-81549000Y-8966000D02*
X-82557000Y-9974000D01*
X21922000Y63334000D02*
X32828000Y74240000D01*
X-33331000Y83334000D02*
X-31530000Y83334000D01*
X-78379000Y-12538000D02*
X-78979000Y-13138000D01*
X-75050000Y65050000D02*
X-71563000Y61563000D01*
X130392860Y93586030D02*
X130524030Y93586030D01*
X-85600000Y-142100000D02*
X-85200000Y-142500000D01*
X-76307000Y-108533000D02*
X-83210000Y-115436000D01*
X-76702000Y14202000D02*
X-76702000Y8343000D01*
X-14227000Y84227000D02*
X-12770000Y84227000D01*
X116495030Y92786030D02*
X110490000Y86781000D01*
X-26262000Y-2909000D02*
X-35008000Y-11655000D01*
X130422860Y85586030D02*
X130524030Y85586030D01*
X-81124000Y61124000D02*
X1707000Y61124000D01*
X-87903000Y-5938000D02*
X-87903000Y-103827000D01*
X-89202000Y14202000D02*
X-89202000Y8343000D01*
X-85050000Y95050000D02*
X-81124000Y91124000D01*
X-68800000Y43800000D02*
X-63316000Y38316000D01*
X111617000Y84099000D02*
X32347000Y84099000D01*
X-33331000Y53334000D02*
X-31530000Y53334000D01*
X-75050000Y85050000D02*
X-71563000Y81563000D01*
X142032860Y85586030D02*
X142432860Y85986030D01*
X1850000Y62452000D02*
X2740000Y62452000D01*
X116963030Y91986030D02*
X130548030Y91986030D01*
X-95200000Y-142100000D02*
X-94800000Y-142500000D01*
X-62008000Y82008000D02*
X1707000Y82008000D01*
X-816000Y38316000D02*
X-816000Y-2420000D01*
X32828000Y74240000D02*
X115607000Y74240000D01*
X25635000Y73334000D02*
X31030000Y78729000D01*
X-45050000Y55050000D02*
X-42889000Y52889000D01*
X-50816000Y38316000D02*
X-50816000Y-2420000D01*
X-14650000Y-2421000D02*
X-24767000Y-12538000D01*
X-15050000Y65050000D02*
X-14227000Y64227000D01*
X130534030Y79176030D02*
X142022860Y79176030D01*
X-52452000Y92452000D02*
X1720000Y92452000D01*
X-35050000Y65050000D02*
X-35047000Y65050000D01*
X118805030Y88776030D02*
X130576030Y88776030D01*
X-24767000Y-12538000D02*
X-78379000Y-12538000D01*
X-71563000Y91563000D02*
X1747000Y91563000D01*
X-83447000Y-105585000D02*
X-89610000Y-111748000D01*
X-62008000Y62008000D02*
X1707000Y62008000D01*
X17885000Y54227000D02*
X1881000Y54227000D01*
X-77188000Y-108154000D02*
X-84000000Y-114966000D01*
X-91200000Y-130922000D02*
X-91200000Y-142100000D01*
X-76702000Y8343000D02*
X-76702000Y-2420000D01*
X-85600000Y-130490000D02*
X-85600000Y-131077000D01*
X-83210000Y-130470000D02*
X-83210000Y-130975000D01*
X-93590000Y-130877000D02*
X-93590000Y-142110000D01*
X31171000Y82307000D02*
X112336000Y82307000D01*
X-62008000Y92008000D02*
X1707000Y92008000D01*
X130422860Y78386030D02*
X123555030Y78386030D01*
X-81124000Y71124000D02*
X1707000Y71124000D01*
X-84800000Y-131126000D02*
X-84800000Y-142100000D01*
X130472860Y82386030D02*
X122484030Y82386030D01*
X-24188000Y94188000D02*
X-23778000Y93778000D01*
X-90390000Y-130922000D02*
X-90390000Y-142110000D01*
X-64202000Y14202000D02*
X-64202000Y8343000D01*
X-38762000Y-2833000D02*
X-39531000Y-3602000D01*
X1884000Y83334000D02*
X2486000Y83334000D01*
X-95200000Y-130937000D02*
X-95200000Y-142100000D01*
X-1702000Y14202000D02*
X-1702000Y8343000D01*
X-23778000Y83778000D02*
X-22139000Y83778000D01*
X130524030Y85586030D02*
X142032860Y85586030D01*
X122025030Y83186030D02*
X130529030Y83186030D01*
X-90672000Y60672000D02*
X1800000Y60672000D01*
X-93800000Y31300000D02*
X-88762000Y26262000D01*
X113816000Y78729000D02*
X120673030Y85586030D01*
X-27150000Y2150000D02*
X-27150000Y-2529000D01*
X142032860Y91986030D02*
X142432860Y92386030D01*
X130422860Y90386030D02*
X130604970Y90386030D01*
X116350000Y72447000D02*
X33584000Y72447000D01*
X-33610000Y73613000D02*
X-33331000Y73334000D01*
X-92010000Y-142090000D02*
X-91600000Y-142500000D01*
X130484970Y91186030D02*
X142032860Y91186030D01*
X-81300000Y43800000D02*
X-75816000Y38316000D01*
X-18800000Y43800000D02*
X-13316000Y38316000D01*
X-33610000Y83613000D02*
X-33331000Y83334000D01*
X-85050000Y85050000D02*
X-81124000Y81124000D01*
X-14227000Y94227000D02*
X27986000Y94227000D01*
X22312000Y62452000D02*
X33214000Y73354000D01*
X-81300000Y31300000D02*
X-76262000Y26262000D01*
X-92800000Y-142100000D02*
X-92400000Y-142500000D01*
X142032860Y86386030D02*
X142432860Y86786030D01*
X130534030Y79176030D02*
X123079030Y79176030D01*
X32985000Y86781000D02*
X27314000Y92452000D01*
X31761000Y76930000D02*
X114519000Y76930000D01*
X112336000Y82307000D02*
X118805030Y88776030D01*
X-55050000Y65050000D02*
X-52452000Y62452000D01*
X-14650000Y2150000D02*
X-14650000Y-2421000D01*
X-67836000Y-5392000D02*
X-64650000Y-2206000D01*
X-88010000Y-131091000D02*
X-88010000Y-142090000D01*
X-25050000Y95050000D02*
X-24188000Y94188000D01*
X142032860Y89586030D02*
X142432860Y89986030D01*
X33956000Y71548000D02*
X23080000Y60672000D01*
X-35047000Y85050000D02*
X-33610000Y83613000D01*
X130422860Y92786030D02*
X142032860Y92786030D01*
X142022860Y79976030D02*
X142432860Y80386030D01*
X-84000000Y-130939000D02*
X-84000000Y-142100000D01*
X-52452000Y62452000D02*
X1850000Y62452000D01*
X130527030Y77586030D02*
X124011030Y77586030D01*
X-77188000Y-15169000D02*
X-77188000Y-108154000D01*
X130422860Y92786030D02*
X116495030Y92786030D01*
X-71563000Y51563000D02*
X1939000Y51563000D01*
X-84837000Y-5392000D02*
X-86124000Y-6679000D01*
X-90390000Y-142110000D02*
X-90000000Y-142500000D01*
X-15050000Y95050000D02*
X-14227000Y94227000D01*
X-26262000Y26262000D02*
X-26262000Y-2909000D01*
X33652000Y88561000D02*
X109807000Y88561000D01*
X-13762000Y26262000D02*
X-13762000Y-2804000D01*
X1782000Y70672000D02*
X3393000Y70672000D01*
X113464000Y79627000D02*
X30650000Y79627000D01*
X-35050000Y95050000D02*
X-35047000Y95050000D01*
X-91200000Y-142100000D02*
X-90800000Y-142500000D01*
X-33610000Y63613000D02*
X-33331000Y63334000D01*
X-52150000Y-2439000D02*
X-56891000Y-7180000D01*
X-52452000Y72452000D02*
X2034000Y72452000D01*
X-85600000Y-114043000D02*
X-85600000Y-131077000D01*
X-56519000Y-8079000D02*
X-82524000Y-8079000D01*
X119281030Y87986030D02*
X130675970Y87986030D01*
X32467000Y75138000D02*
X21556000Y64227000D01*
X-93590000Y-109514000D02*
X-93590000Y-130877000D01*
X-52452000Y52452000D02*
X1827000Y52452000D01*
X-84337000Y-105217000D02*
X-90390000Y-111270000D01*
X-42889000Y82889000D02*
X1707000Y82889000D01*
X115988000Y73354000D02*
X122610030Y79976030D01*
X-81124000Y51124000D02*
X1707000Y51124000D01*
X-82557000Y-9974000D02*
X-82557000Y-105959000D01*
X30432000Y80517000D02*
X113087000Y80517000D01*
X-90390000Y-111270000D02*
X-90390000Y-130922000D01*
X-56300000Y31300000D02*
X-51262000Y26262000D01*
X124943030Y75986030D02*
X117825000Y68868000D01*
X-25816000Y38316000D02*
X-25816000Y-2420000D01*
X-24188000Y64188000D02*
X-23778000Y63778000D01*
X1827000Y52452000D02*
X2740000Y52452000D01*
X142032860Y84786030D02*
X142432860Y85186030D01*
X-95200000Y-130720000D02*
X-95200000Y-130937000D01*
X-45050000Y65050000D02*
X-42889000Y62889000D01*
X142032860Y75186030D02*
X142432860Y75586030D01*
X-71563000Y71563000D02*
X2249000Y71563000D01*
X130597970Y75186030D02*
X142032860Y75186030D01*
X-88010000Y-130480000D02*
X-88010000Y-131091000D01*
X142032860Y78386030D02*
X142432860Y78786030D01*
X-89610000Y-142090000D02*
X-89200000Y-142500000D01*
X142032860Y94386030D02*
X142432860Y94786030D01*
X-27150000Y-2529000D02*
X-35377000Y-10756000D01*
X130412860Y91186030D02*
X130484970Y91186030D01*
X-68797000Y-5392000D02*
X-84837000Y-5392000D01*
X1449000Y80672000D02*
X3393000Y80672000D01*
X130432860Y89586030D02*
X118364030Y89586030D01*
X-31300000Y43800000D02*
X-25816000Y38316000D01*
X-82557000Y-105959000D02*
X-88800000Y-112202000D01*
X-2150000Y-2460000D02*
X-14016000Y-14326000D01*
X124466030Y76776030D02*
X117451000Y69761000D01*
X-67456000Y-6291000D02*
X-84477000Y-6291000D01*
X-86124000Y-6679000D02*
X-86124000Y-104515000D01*
X-64650000Y-968000D02*
X-64650000Y-1520000D01*
X130422860Y87986030D02*
X130675970Y87986030D01*
X-93590000Y-130510000D02*
X-93590000Y-130877000D01*
X-84000000Y-130490000D02*
X-84000000Y-130939000D01*
X35056000Y68868000D02*
X18640000Y52452000D01*
X-4676000Y64676000D02*
X1707000Y64676000D01*
X1747000Y91563000D02*
X3053000Y91563000D01*
X-4676000Y74676000D02*
X1707000Y74676000D01*
X-51262000Y-2822000D02*
X-56519000Y-8079000D01*
X23080000Y60672000D02*
X1800000Y60672000D01*
X130420030Y80776030D02*
X142022860Y80776030D01*
X114873000Y76034000D02*
X122025030Y83186030D01*
X-38762000Y21127000D02*
X-38762000Y-2420000D01*
X1758000Y84227000D02*
X31761000Y84227000D01*
X-68800000Y6300000D02*
X-64650000Y2150000D01*
X18640000Y52452000D02*
X1827000Y52452000D01*
X-63762000Y-2597000D02*
X-67456000Y-6291000D01*
X-87200000Y-131015000D02*
X-87200000Y-142100000D01*
X-35377000Y-10756000D02*
X-80387000Y-10756000D01*
X-1262000Y26262000D02*
X-1262000Y-2843000D01*
X-91583000Y61583000D02*
X-90672000Y60672000D01*
X-85600000Y-131077000D02*
X-85600000Y-142100000D01*
X2020000Y90672000D02*
X26566000Y90672000D01*
X112709000Y81414000D02*
X119281030Y87986030D01*
X142032860Y74386030D02*
X142432860Y74786030D01*
X-83210000Y-130975000D02*
X-83210000Y-142090000D01*
X35782000Y67078000D02*
X19376000Y50672000D01*
X118364030Y89586030D02*
X111978000Y83200000D01*
X-90672000Y70672000D02*
X1782000Y70672000D01*
X21556000Y64227000D02*
X1793000Y64227000D01*
X130553970Y76776030D02*
X142022860Y76776030D01*
X-39202000Y8343000D02*
X-39202000Y-2420000D01*
X-81300000Y6300000D02*
X-77150000Y2150000D01*
X-56300000Y6300000D02*
X-52150000Y2150000D01*
X142022860Y80776030D02*
X142432860Y81186030D01*
X-33610000Y93613000D02*
X-33331000Y93334000D01*
X115607000Y74240000D02*
X122143030Y80776030D01*
X-22139000Y93778000D02*
X1729000Y93778000D01*
X130422860Y79176030D02*
X130534030Y79176030D01*
X130604970Y90386030D02*
X142032860Y90386030D01*
X-35047000Y95050000D02*
X-33610000Y93613000D01*
X-77150000Y-2597000D02*
X-78155000Y-3602000D01*
X-56891000Y-7180000D02*
X-84110000Y-7180000D01*
X-87200000Y-130500000D02*
X-87200000Y-131015000D01*
X-5050000Y95050000D02*
X-4676000Y94676000D01*
X-88010000Y-112684000D02*
X-88010000Y-131091000D01*
X-14016000Y-14326000D02*
X-76345000Y-14326000D01*
X1447000Y63334000D02*
X21922000Y63334000D01*
X-85050000Y65050000D02*
X-81124000Y61124000D01*
X-68797000Y-5392000D02*
X-67836000Y-5392000D01*
X-42889000Y52889000D02*
X1707000Y52889000D01*
X2249000Y71563000D02*
X26394000Y71563000D01*
X-75816000Y38316000D02*
X-75816000Y-2420000D01*
X-94400000Y-130490000D02*
X-94400000Y-130879000D01*
X-6300000Y43800000D02*
X-816000Y38316000D01*
X-89610000Y-111748000D02*
X-89610000Y-130951000D01*
X-87014000Y-104186000D02*
X-92800000Y-109972000D01*
X31030000Y78729000D02*
X113816000Y78729000D01*
X-65050000Y75050000D02*
X-62008000Y72008000D01*
X-89650000Y-103066000D02*
X-95200000Y-108616000D01*
X-93800000Y6300000D02*
X-89650000Y2150000D01*
X-42889000Y72889000D02*
X1707000Y72889000D01*
X-63316000Y38316000D02*
X-63316000Y-2420000D01*
X-86400000Y-131025000D02*
X-86400000Y-142100000D01*
X-78979000Y-13138000D02*
X-78979000Y-107422000D01*
X-81300000Y18800000D02*
X-76702000Y14202000D01*
X-88800000Y-112202000D02*
X-88800000Y-130890000D01*
X125860030Y74386030D02*
X118552000Y67078000D01*
X-77806000Y-4496000D02*
X-85184000Y-4496000D01*
X-25050000Y75050000D02*
X-24188000Y74188000D01*
X-80777000Y-106708000D02*
X-87200000Y-113131000D01*
X-71563000Y81563000D02*
X1975000Y81563000D01*
X142032860Y75986030D02*
X142432860Y76386030D01*
X1975000Y81563000D02*
X30660000Y81563000D01*
X30660000Y81563000D02*
X30809000Y81414000D01*
X-18800000Y31300000D02*
X-13762000Y26262000D01*
X-1702000Y8343000D02*
X-1702000Y-2420000D01*
X-80747000Y-9862000D02*
X-81665000Y-10780000D01*
X-24188000Y84188000D02*
X-23778000Y83778000D01*
X-56300000Y18800000D02*
X-51702000Y14202000D01*
X-95050000Y75050000D02*
X-91583000Y71583000D01*
X-94400000Y-109048000D02*
X-94400000Y-130879000D01*
X33214000Y73354000D02*
X115988000Y73354000D01*
X130342860Y80776030D02*
X130420030Y80776030D01*
X1850000Y62452000D02*
X22312000Y62452000D01*
X1902000Y61563000D02*
X3053000Y61563000D01*
X31889000Y84099000D02*
X31779000Y84209000D01*
X34309000Y70651000D02*
X17885000Y54227000D01*
X124011030Y77586030D02*
X117076000Y70651000D01*
X130432860Y77586030D02*
X130527030Y77586030D01*
X-84800000Y-142100000D02*
X-84400000Y-142500000D01*
X-13762000Y-2804000D02*
X-24384000Y-13426000D01*
X-18800000Y6300000D02*
X-14650000Y2150000D01*
X-55050000Y95050000D02*
X-52452000Y92452000D01*
X142022860Y88776030D02*
X142432860Y89186030D01*
X130422860Y79976030D02*
X130599030Y79976030D01*
X-88800000Y-142100000D02*
X-88400000Y-142500000D01*
X1715000Y93334000D02*
X2486000Y93334000D01*
X-45791000Y-9862000D02*
X-46460000Y-9862000D01*
X26566000Y90672000D02*
X32246000Y84992000D01*
X-84800000Y-130500000D02*
X-84800000Y-131126000D01*
X-6300000Y18800000D02*
X-1702000Y14202000D01*
X117435030Y91186030D02*
X130484970Y91186030D01*
X130422860Y75186030D02*
X130597970Y75186030D01*
X130563970Y86386030D02*
X142032860Y86386030D01*
X-51262000Y26262000D02*
X-51262000Y-2822000D01*
X-6300000Y6300000D02*
X-2150000Y2150000D01*
X1980000Y53334000D02*
X2486000Y53334000D01*
X-45050000Y75050000D02*
X-42889000Y72889000D01*
X110124000Y87675000D02*
X116035030Y93586030D01*
X130412860Y76776030D02*
X130553970Y76776030D01*
X110490000Y86781000D02*
X32985000Y86781000D01*
X-76345000Y-14326000D02*
X-77188000Y-15169000D01*
X-39202000Y14202000D02*
X-39202000Y8343000D01*
X142022860Y76776030D02*
X142432860Y77186030D01*
X-78155000Y-3602000D02*
X-85567000Y-3602000D01*
X-26702000Y8343000D02*
X-26702000Y-2420000D01*
X-31300000Y18800000D02*
X-26702000Y14202000D01*
X-14202000Y8343000D02*
X-14202000Y-2420000D01*
X-77436000Y-13426000D02*
X-78085000Y-14075000D01*
X-23778000Y63778000D02*
X-22139000Y63778000D01*
X130422860Y83986030D02*
X130492970Y83986030D01*
X-43800000Y31300000D02*
X-38762000Y26262000D01*
X-31530000Y93334000D02*
X1715000Y93334000D01*
X-51702000Y14202000D02*
X-51702000Y8343000D01*
X-75050000Y95050000D02*
X-71563000Y91563000D01*
X-91200000Y-110837000D02*
X-91200000Y-130922000D01*
X116035030Y93586030D02*
X130524030Y93586030D01*
X-92010000Y-130977000D02*
X-92010000Y-142090000D01*
X1856000Y82452000D02*
X31026000Y82452000D01*
X125409030Y75186030D02*
X118200000Y67977000D01*
X123079030Y79176030D02*
X116350000Y72447000D01*
X1747000Y91563000D02*
X26947000Y91563000D01*
X142032860Y87986030D02*
X142432860Y88386030D01*
X-83210000Y-142090000D02*
X-82800000Y-142500000D01*
X-14227000Y54227000D02*
X-12770000Y54227000D01*
X-39531000Y-3602000D02*
X-45791000Y-9862000D01*
%TD*%
M02*
