%TF.GenerationSoftware,KiCad,Pcbnew,(6.0.1)*%
%TF.CreationDate,2022-10-21T10:45:19+02:00*%
%TF.ProjectId,RKP2 - ReadoutsLayers,524b5032-202d-4205-9265-61646f757473,rev?*%
%TF.SameCoordinates,Original*%
%TF.FileFunction,Soldermask,Top*%
%TF.FilePolarity,Negative*%
%FSLAX46Y46*%
G04 Gerber Fmt 4.6, Leading zero omitted, Abs format (unit mm)*
G04 Created by KiCad (PCBNEW (6.0.1)) date 2022-10-21 10:45:19*
%MOMM*%
%LPD*%
G01*
G04 APERTURE LIST*
G04 Aperture macros list*
%AMRoundRect*
0 Rectangle with rounded corners*
0 $1 Rounding radius*
0 $2 $3 $4 $5 $6 $7 $8 $9 X,Y pos of 4 corners*
0 Add a 4 corners polygon primitive as box body*
4,1,4,$2,$3,$4,$5,$6,$7,$8,$9,$2,$3,0*
0 Add four circle primitives for the rounded corners*
1,1,$1+$1,$2,$3*
1,1,$1+$1,$4,$5*
1,1,$1+$1,$6,$7*
1,1,$1+$1,$8,$9*
0 Add four rect primitives between the rounded corners*
20,1,$1+$1,$2,$3,$4,$5,0*
20,1,$1+$1,$4,$5,$6,$7,0*
20,1,$1+$1,$6,$7,$8,$9,0*
20,1,$1+$1,$8,$9,$2,$3,0*%
G04 Aperture macros list end*
%ADD10RoundRect,1.300000X-1.250000X-1.250000X1.250000X-1.250000X1.250000X1.250000X-1.250000X1.250000X0*%
%ADD11RoundRect,0.050000X-4.950000X-4.950000X4.950000X-4.950000X4.950000X4.950000X-4.950000X4.950000X0*%
%ADD12RoundRect,0.050000X-6.200000X-6.200000X6.200000X-6.200000X6.200000X6.200000X-6.200000X6.200000X0*%
%ADD13C,1.750000*%
%ADD14RoundRect,0.050000X-0.250000X-1.000000X0.250000X-1.000000X0.250000X1.000000X-0.250000X1.000000X0*%
%ADD15RoundRect,0.050000X1.000000X-0.250000X1.000000X0.250000X-1.000000X0.250000X-1.000000X-0.250000X0*%
%ADD16C,3.300000*%
%ADD17O,1.600000X1.100000*%
%ADD18O,1.290000X1.490000*%
%ADD19C,2.640000*%
G04 APERTURE END LIST*
D10*
%TO.C,REF\u002A\u002A*%
X-113962000Y-136500000D03*
%TD*%
D11*
%TO.C,REF\u002A\u002A*%
X-95050000Y95050000D03*
D12*
X-93800000Y43800000D03*
D11*
X-85050000Y95050000D03*
D12*
X-81300000Y43800000D03*
X-68800000Y43800000D03*
D11*
X-75050000Y95050000D03*
X-65050000Y95050000D03*
D12*
X-56300000Y43800000D03*
X-43800000Y43800000D03*
D11*
X-55050000Y95050000D03*
X-45050000Y95050000D03*
D12*
X-31300000Y43800000D03*
D11*
X-35050000Y95050000D03*
D12*
X-18800000Y43800000D03*
X-6300000Y43800000D03*
D11*
X-25050000Y95050000D03*
D12*
X-93800000Y31300000D03*
D11*
X-15050000Y95050000D03*
D12*
X-81300000Y31300000D03*
D11*
X-5050000Y95050000D03*
D12*
X-68800000Y31300000D03*
D11*
X-95050000Y85050000D03*
D12*
X-56300000Y31300000D03*
D11*
X-85050000Y85050000D03*
X-75050000Y85050000D03*
D12*
X-43800000Y31300000D03*
X-31300000Y31300000D03*
D11*
X-65050000Y85050000D03*
X-55050000Y85050000D03*
D12*
X-18800000Y31300000D03*
D11*
X-45050000Y85050000D03*
D12*
X-6300000Y31300000D03*
D11*
X-35050000Y85050000D03*
D12*
X-93800000Y18800000D03*
D11*
X-25050000Y85050000D03*
D12*
X-81300000Y18800000D03*
D11*
X-15050000Y85050000D03*
D12*
X-68800000Y18800000D03*
X-56300000Y18800000D03*
D11*
X-5050000Y85050000D03*
X-95050000Y75050000D03*
D12*
X-43800000Y18800000D03*
D11*
X-85050000Y75050000D03*
D12*
X-31300000Y18800000D03*
X-18800000Y18800000D03*
D11*
X-75050000Y75050000D03*
X-65050000Y75050000D03*
D12*
X-6300000Y18800000D03*
X-93800000Y6300000D03*
D11*
X-55050000Y75050000D03*
D12*
X-81300000Y6300000D03*
D11*
X-45050000Y75050000D03*
D12*
X-68800000Y6300000D03*
D11*
X-35050000Y75050000D03*
X-25050000Y75050000D03*
D12*
X-56300000Y6300000D03*
X-43800000Y6300000D03*
D11*
X-15050000Y75050000D03*
X-5050000Y75050000D03*
D12*
X-31300000Y6300000D03*
D11*
X-95050000Y65050000D03*
D12*
X-18800000Y6300000D03*
D11*
X-85050000Y65050000D03*
D12*
X-6300000Y6300000D03*
D11*
X-75050000Y65050000D03*
X-65050000Y65050000D03*
X-55050000Y65050000D03*
X-45050000Y65050000D03*
X-35050000Y65050000D03*
X-25050000Y65050000D03*
X-15050000Y65050000D03*
X-5050000Y65050000D03*
X-95050000Y55050000D03*
X-85050000Y55050000D03*
X-75050000Y55050000D03*
X-65050000Y55050000D03*
X-55050000Y55050000D03*
X-45050000Y55050000D03*
X-35050000Y55050000D03*
X-25050000Y55050000D03*
X-15050000Y55050000D03*
X-5050000Y55050000D03*
%TD*%
D10*
%TO.C,REF\u002A\u002A*%
X136500000Y-13962000D03*
%TD*%
%TO.C,REF\u002A\u002A*%
X13962000Y-136500000D03*
%TD*%
%TO.C,REF\u002A\u002A2*%
X136500000Y114038000D03*
%TD*%
D13*
%TO.C,REF\u002A\u002A*%
X-67200000Y-136500000D03*
X-96800000Y-136500000D03*
D14*
X-95600000Y-140500000D03*
X-95600000Y-132500000D03*
X-94800000Y-140500000D03*
X-94800000Y-132500000D03*
X-94000000Y-140500000D03*
X-94000000Y-132500000D03*
X-93200000Y-140500000D03*
X-93200000Y-132500000D03*
X-92400000Y-140500000D03*
X-92400000Y-132500000D03*
X-91600000Y-140500000D03*
X-91600000Y-132500000D03*
X-90800000Y-140500000D03*
X-90800000Y-132500000D03*
X-90000000Y-140500000D03*
X-90000000Y-132500000D03*
X-89200000Y-140500000D03*
X-89200000Y-132500000D03*
X-88400000Y-140500000D03*
X-88400000Y-132500000D03*
X-87600000Y-140500000D03*
X-87600000Y-132500000D03*
X-86800000Y-140500000D03*
X-86800000Y-132500000D03*
X-86000000Y-140500000D03*
X-86000000Y-132500000D03*
X-85200000Y-140500000D03*
X-85200000Y-132500000D03*
X-84400000Y-140500000D03*
X-84400000Y-132500000D03*
X-83600000Y-140500000D03*
X-83600000Y-132500000D03*
X-82800000Y-140500000D03*
X-82800000Y-132500000D03*
X-82000000Y-140500000D03*
X-82000000Y-132500000D03*
X-81200000Y-140500000D03*
X-81200000Y-132500000D03*
X-80400000Y-140500000D03*
X-80400000Y-132500000D03*
X-79600000Y-140500000D03*
X-79600000Y-132500000D03*
X-78800000Y-140500000D03*
X-78800000Y-132500000D03*
X-78000000Y-140500000D03*
X-78000000Y-132500000D03*
X-77200000Y-140500000D03*
X-77200000Y-132500000D03*
X-76400000Y-140500000D03*
X-76400000Y-132500000D03*
X-75600000Y-140500000D03*
X-75600000Y-132500000D03*
X-74800000Y-140500000D03*
X-74800000Y-132500000D03*
X-74000000Y-140500000D03*
X-74000000Y-132500000D03*
X-73200000Y-140500000D03*
X-73200000Y-132500000D03*
X-72400000Y-140500000D03*
X-72400000Y-132500000D03*
X-71600000Y-140500000D03*
X-71600000Y-132500000D03*
X-70800000Y-140500000D03*
X-70800000Y-132500000D03*
X-70000000Y-140500000D03*
X-70000000Y-132500000D03*
X-69200000Y-140500000D03*
X-69200000Y-132500000D03*
X-68400000Y-140500000D03*
X-68400000Y-132500000D03*
%TD*%
D13*
%TO.C,REF\u002A\u002A*%
X136500000Y96800000D03*
X136500000Y67200000D03*
D15*
X140500000Y68400000D03*
X132500000Y68400000D03*
X140500000Y69200000D03*
X132500000Y69200000D03*
X140500000Y70000000D03*
X132500000Y70000000D03*
X140500000Y70800000D03*
X132500000Y70800000D03*
X140500000Y71600000D03*
X132500000Y71600000D03*
X140500000Y72400000D03*
X132500000Y72400000D03*
X140500000Y73200000D03*
X132500000Y73200000D03*
X140500000Y74000000D03*
X132500000Y74000000D03*
X140500000Y74800000D03*
X132500000Y74800000D03*
X140500000Y75600000D03*
X132500000Y75600000D03*
X140500000Y76400000D03*
X132500000Y76400000D03*
X140500000Y77200000D03*
X132500000Y77200000D03*
X140500000Y78000000D03*
X132500000Y78000000D03*
X140500000Y78800000D03*
X132500000Y78800000D03*
X140500000Y79600000D03*
X132500000Y79600000D03*
X140500000Y80400000D03*
X132500000Y80400000D03*
X140500000Y81200000D03*
X132500000Y81200000D03*
X140500000Y82000000D03*
X132500000Y82000000D03*
X140500000Y82800000D03*
X132500000Y82800000D03*
X140500000Y83600000D03*
X132500000Y83600000D03*
X140500000Y84400000D03*
X132500000Y84400000D03*
X140500000Y85200000D03*
X132500000Y85200000D03*
X140500000Y86000000D03*
X132500000Y86000000D03*
X140500000Y86800000D03*
X132500000Y86800000D03*
X140500000Y87600000D03*
X132500000Y87600000D03*
X140500000Y88400000D03*
X132500000Y88400000D03*
X140500000Y89200000D03*
X132500000Y89200000D03*
X140500000Y90000000D03*
X132500000Y90000000D03*
X140500000Y90800000D03*
X132500000Y90800000D03*
X140500000Y91600000D03*
X132500000Y91600000D03*
X140500000Y92400000D03*
X132500000Y92400000D03*
X140500000Y93200000D03*
X132500000Y93200000D03*
X140500000Y94000000D03*
X132500000Y94000000D03*
X140500000Y94800000D03*
X132500000Y94800000D03*
X140500000Y95600000D03*
X132500000Y95600000D03*
%TD*%
D16*
%TO.C,REF\u002A\u002A*%
X98000000Y-47000000D03*
D17*
X101800000Y-69200000D03*
D18*
X92680000Y-101280000D03*
D17*
X101800000Y-49600000D03*
D16*
X98000000Y-71800000D03*
D17*
X101800000Y-62000000D03*
D19*
X79560000Y-29280000D03*
D17*
X101800000Y-74400000D03*
X101800000Y-44400000D03*
D16*
X98000000Y-59400000D03*
D19*
X96800000Y-101280000D03*
D18*
X83680000Y-29280000D03*
D17*
X101800000Y-56800000D03*
D18*
X83680000Y-101280000D03*
D19*
X79560000Y-101280000D03*
D18*
X92680000Y-29280000D03*
D19*
X96800000Y-29280000D03*
%TD*%
D10*
%TO.C,REF\u002A\u002A*%
X-49962500Y-136500000D03*
%TD*%
%TO.C,REF\u002A\u002A1*%
X136500000Y50038000D03*
%TD*%
M02*
