M48
; DRILL file {KiCad 9.0.2} date 2026-01-19T10:39:22+0100
; FORMAT={-:-/ absolute / metric / decimal}
; #@! TF.CreationDate,2026-01-19T10:39:22+01:00
; #@! TF.GenerationSoftware,Kicad,Pcbnew,9.0.2
; #@! TF.FileFunction,MixedPlating,1,2
FMAT,2
METRIC
; #@! TA.AperFunction,Plated,PTH,ViaDrill
T1C0.400
; #@! TA.AperFunction,Plated,PTH,ComponentDrill
T2C0.400
; #@! TA.AperFunction,Plated,PTH,ComponentDrill
T3C3.500
; #@! TA.AperFunction,NonPlated,NPTH,ComponentDrill
T4C2.200
; #@! TA.AperFunction,NonPlated,NPTH,ComponentDrill
T5C3.200
; #@! TA.AperFunction,NonPlated,NPTH,ComponentDrill
T6C3.500
%
G90
G05
T1
X333.161Y524.852
X333.191Y523.429
X334.536Y523.895
X334.566Y522.473
X335.911Y522.938
X335.941Y521.516
X337.285Y521.982
X337.316Y520.559
X338.66Y521.025
X338.691Y519.603
X340.035Y520.068
X340.066Y518.646
X341.41Y519.112
X341.441Y517.689
X342.785Y518.155
X342.816Y516.733
X344.16Y517.198
X344.191Y515.776
X345.535Y516.242
X345.566Y514.819
X346.91Y515.285
X346.941Y513.863
X348.285Y514.328
X348.316Y512.906
X349.66Y513.372
X349.691Y511.949
X350.469Y534.834
X350.644Y536.114
X351.035Y512.415
X351.065Y510.993
X351.434Y534.163
X351.609Y535.443
X352.398Y533.492
X352.41Y511.458
X352.44Y510.036
X352.573Y534.772
X353.363Y532.821
X353.538Y534.1
X353.785Y510.502
X353.815Y509.079
X354.327Y532.15
X354.502Y533.429
X355.16Y509.545
X355.19Y508.123
X355.292Y531.479
X355.467Y532.758
X356.257Y530.808
X356.431Y532.087
X356.535Y508.588
X356.565Y507.166
X357.221Y530.137
X357.396Y531.416
X357.909Y507.632
X357.94Y506.209
X358.186Y529.466
X358.36Y530.745
X359.15Y528.794
X359.284Y506.675
X359.315Y505.253
X359.325Y530.074
X360.115Y528.123
X360.289Y529.403
X360.659Y505.718
X360.69Y504.296
X361.079Y527.452
X361.254Y528.732
X362.034Y504.762
X362.044Y526.781
X362.065Y503.339
X362.218Y528.061
X363.008Y526.11
X363.183Y527.39
X363.409Y503.805
X363.44Y502.383
X363.973Y525.439
X364.147Y526.718
X364.784Y502.848
X364.815Y501.426
X364.937Y524.768
X365.112Y526.047
X365.902Y524.097
X366.076Y525.376
X366.159Y501.892
X366.19Y500.469
X366.866Y523.426
X367.041Y524.705
X367.534Y500.935
X367.565Y499.513
X367.831Y522.755
X368.005Y524.034
X368.795Y522.084
X368.909Y499.978
X368.94Y498.556
X368.97Y523.363
X369.76Y521.412
X369.934Y522.692
X370.284Y499.022
X370.314Y497.599
X370.724Y520.741
X370.899Y522.021
X371.659Y498.065
X371.689Y520.07
X371.689Y496.643
X371.863Y521.35
X372.653Y519.399
X372.828Y520.679
X373.034Y497.108
X373.064Y495.686
X373.618Y518.728
X373.792Y520.008
X374.409Y496.152
X374.439Y494.73
X374.582Y518.057
X374.757Y519.337
X375.547Y517.386
X375.721Y518.665
X375.784Y495.195
X375.814Y493.773
X376.511Y516.715
X376.686Y517.994
X377.476Y516.044
X377.65Y517.323
X378.44Y515.373
X378.615Y516.652
X379.405Y514.702
X379.579Y515.981
X380.369Y514.03
X380.544Y515.31
X382.676Y488.424
X382.785Y489.843
X383.951Y487.338
X384.059Y488.756
X385.226Y486.251
X385.334Y487.67
X386.5Y485.165
X386.609Y486.583
X387.775Y484.078
X387.884Y485.497
X389.05Y482.992
X389.159Y484.41
X390.325Y481.905
X390.433Y483.324
X391.599Y480.819
X391.708Y482.237
X392.874Y479.732
X392.983Y481.15
X394.149Y478.645
X394.258Y480.064
X395.424Y477.559
X395.532Y478.977
X396.699Y476.472
X396.807Y477.891
X397.973Y475.386
X398.082Y476.804
X399.248Y474.299
X399.357Y475.718
X400.523Y473.213
X400.631Y474.631
X400.987Y498.085
X401.286Y499.341
X401.798Y472.126
X401.881Y497.323
X401.906Y473.545
X402.18Y498.579
X402.775Y496.56
X403.072Y471.04
X403.074Y497.817
X403.181Y472.458
X403.67Y495.798
X403.968Y497.054
X404.347Y469.953
X404.456Y471.372
X404.564Y495.036
X404.863Y496.292
X405.458Y494.274
X405.622Y468.866
X405.731Y470.285
X405.757Y495.53
X406.352Y493.511
X406.651Y494.768
X406.897Y467.78
X407.005Y469.198
X407.247Y492.749
X407.545Y494.006
X408.141Y491.987
X408.171Y466.693
X408.28Y468.112
X408.44Y493.243
X409.035Y491.225
X409.334Y492.481
X409.446Y465.607
X409.555Y467.025
X409.929Y490.463
X410.228Y491.719
X410.721Y464.52
X410.824Y489.7
X410.83Y465.939
X411.122Y490.957
X411.718Y488.938
X411.996Y463.434
X412.017Y490.195
X412.104Y464.852
X412.612Y488.176
X412.911Y489.432
X413.271Y462.347
X413.379Y463.766
X413.506Y487.414
X413.805Y488.67
X414.4Y486.652
X414.545Y461.261
X414.654Y462.679
X414.699Y487.908
X415.295Y485.889
X415.594Y487.146
X415.82Y460.174
X415.929Y461.593
X416.189Y485.127
X416.488Y486.384
X417.083Y484.365
X417.095Y459.088
X417.203Y460.506
X417.382Y485.621
X417.977Y483.603
X418.276Y484.859
X418.37Y458.001
X418.478Y459.419
X418.872Y482.841
X419.171Y484.097
X419.644Y456.914
X419.753Y458.333
X419.766Y482.078
X420.065Y483.335
X420.66Y481.316
X420.919Y455.828
X420.959Y482.573
X421.028Y457.246
X421.554Y480.554
X421.853Y481.81
X422.194Y454.741
X422.303Y456.16
X422.449Y479.792
X422.748Y481.048
X423.343Y479.03
X423.642Y480.286
X424.237Y478.267
X424.536Y479.524
X425.131Y477.505
X425.43Y478.761
X426.026Y476.743
X426.324Y477.999
X426.92Y475.981
X427.219Y477.237
X427.814Y475.219
X428.113Y476.475
X428.508Y448.754
X428.708Y474.456
X428.755Y450.155
X429.007Y475.713
X429.671Y447.548
X429.917Y448.949
X430.834Y446.343
X431.08Y447.744
X431.997Y445.137
X432.243Y446.538
X433.16Y443.932
X433.406Y445.333
X434.322Y442.726
X434.569Y444.127
X435.485Y441.52
X435.732Y442.921
X436.648Y440.315
X436.894Y441.716
X437.811Y439.109
X438.057Y440.51
X438.974Y437.904
X439.22Y439.305
X440.136Y436.698
X440.383Y438.099
X441.299Y435.492
X441.546Y436.893
X442.462Y434.287
X442.708Y435.688
X443.625Y433.081
X443.871Y434.482
X444.788Y431.876
X445.034Y433.277
X445.951Y430.67
X446.197Y432.071
X447.113Y429.464
X447.36Y430.865
X447.673Y456.584
X448.093Y457.805
X448.276Y428.259
X448.489Y455.738
X448.523Y429.66
X448.909Y456.959
X449.305Y454.893
X449.439Y427.053
X449.685Y428.454
X449.725Y456.114
X450.12Y454.047
X450.54Y455.268
X450.602Y425.848
X450.848Y427.249
X450.936Y453.201
X451.356Y454.422
X451.752Y452.355
X451.765Y424.642
X452.011Y426.043
X452.172Y453.577
X452.568Y451.51
X452.928Y423.436
X452.987Y452.731
X453.174Y424.837
X453.383Y450.664
X453.803Y451.885
X454.09Y422.231
X454.199Y449.818
X454.337Y423.632
X454.619Y451.039
X455.015Y448.972
X455.253Y421.025
X455.435Y450.194
X455.499Y422.426
X455.83Y448.127
X456.25Y449.348
X456.416Y419.82
X456.646Y447.281
X456.662Y421.221
X457.066Y448.502
X457.462Y446.435
X457.579Y418.614
X457.825Y420.015
X457.882Y447.657
X458.277Y445.59
X458.697Y446.811
X458.742Y417.408
X458.988Y418.809
X459.093Y444.744
X459.513Y445.965
X459.904Y416.203
X459.909Y443.898
X460.151Y417.604
X460.329Y445.119
X460.725Y443.052
X461.067Y414.997
X461.144Y444.274
X461.314Y416.398
X461.54Y442.207
X461.96Y443.428
X462.23Y413.792
X462.356Y441.361
X462.476Y415.193
X462.776Y442.582
X463.172Y440.515
X463.393Y412.586
X463.592Y441.737
X463.639Y413.987
X463.987Y439.67
X464.407Y440.891
X464.556Y411.38
X464.802Y412.781
X464.803Y438.824
X465.223Y440.045
X465.619Y437.978
X466.039Y439.199
X466.435Y437.132
X466.854Y438.354
X467.25Y436.287
X467.67Y437.508
X468.066Y435.441
X468.486Y436.662
X468.882Y434.595
X469.302Y435.816
X469.697Y433.75
X470.117Y434.971
X470.249Y404.798
X470.513Y432.904
X470.631Y406.168
X470.933Y434.125
X471.288Y403.484
X471.329Y432.058
X471.67Y404.855
X471.749Y433.279
X472.145Y431.212
X472.328Y402.171
X472.564Y432.434
X472.71Y403.541
X472.96Y430.367
X473.368Y400.857
X473.38Y431.588
X473.75Y402.228
X474.407Y399.544
X474.789Y400.915
X475.447Y398.231
X475.829Y399.601
X476.486Y396.917
X476.868Y398.288
X477.526Y395.604
X477.908Y396.974
X478.565Y394.291
X478.947Y395.661
X479.605Y392.977
X479.987Y394.348
X480.645Y391.664
X481.027Y393.034
X481.684Y390.351
X482.066Y391.721
X482.724Y389.037
X483.106Y390.408
X483.763Y387.724
X484.145Y389.094
X484.803Y386.41
X485.185Y387.781
X485.842Y385.097
X486.224Y386.468
X486.882Y383.784
X487.264Y385.154
X487.922Y382.47
X488.304Y383.841
X488.961Y381.157
X489.343Y382.527
X490.001Y379.844
X490.087Y410.719
X490.383Y381.214
X490.624Y411.894
X490.816Y409.798
X491.04Y378.53
X491.353Y410.972
X491.422Y379.901
X491.545Y408.877
X492.08Y377.217
X492.082Y410.051
X492.275Y407.955
X492.462Y378.587
X492.812Y409.13
X493.004Y407.034
X493.119Y375.904
X493.501Y377.274
X493.541Y408.208
X493.733Y406.113
X494.159Y374.59
X494.27Y407.287
X494.462Y405.191
X494.541Y375.961
X494.999Y406.366
X495.192Y404.27
X495.199Y373.277
X495.58Y374.647
X495.729Y405.444
X495.921Y403.349
X496.238Y371.963
X496.458Y404.523
X496.62Y373.334
X496.65Y402.427
X497.187Y403.602
X497.278Y370.65
X497.379Y401.506
X497.66Y372.021
X497.916Y402.68
X498.109Y400.585
X498.317Y369.337
X498.646Y401.759
X498.699Y370.707
X498.838Y399.663
X499.357Y368.023
X499.375Y400.838
X499.567Y398.742
X499.739Y369.394
X500.104Y399.916
X500.296Y397.821
X500.396Y366.71
X500.778Y368.08
X500.833Y398.995
X501.026Y396.899
X501.436Y365.397
X501.563Y398.074
X501.755Y395.978
X501.818Y366.767
X502.292Y397.153
X502.476Y364.083
X502.484Y395.057
X502.857Y365.454
X503.021Y396.231
X503.213Y394.135
X503.75Y395.31
X503.943Y393.214
X504.48Y394.389
X504.672Y392.293
X505.209Y393.467
X505.401Y391.372
X505.938Y392.546
X506.13Y390.45
X506.667Y391.625
X506.86Y389.529
X507.397Y390.703
X507.505Y356.985
X507.589Y388.608
X508.019Y358.312
X508.126Y389.782
X508.318Y387.686
X508.412Y355.576
X508.855Y388.861
X508.926Y356.903
X509.047Y386.765
X509.318Y354.168
X509.584Y387.939
X509.777Y385.844
X509.832Y355.494
X510.225Y352.759
X510.314Y387.018
X510.506Y384.922
X510.739Y354.086
X511.043Y386.097
X511.131Y351.351
X511.235Y384.001
X511.645Y352.677
X511.772Y385.175
X511.964Y383.08
X512.038Y349.942
X512.501Y384.254
X512.551Y351.269
X512.694Y382.158
X512.944Y348.534
X513.231Y383.333
X513.458Y349.86
X513.851Y347.125
X514.364Y348.452
X514.757Y345.717
X515.271Y347.043
X515.663Y344.308
X516.177Y345.635
X516.57Y342.9
X517.084Y344.226
X517.476Y341.491
X517.99Y342.818
X518.383Y340.083
X518.897Y341.409
X519.289Y338.674
X519.803Y340.001
X520.196Y337.265
X520.71Y338.592
X521.102Y335.857
X521.616Y337.184
X522.009Y334.448
X522.522Y335.775
X522.915Y333.04
X523.429Y334.366
X523.822Y331.631
X524.335Y332.958
X524.728Y330.223
X525.242Y331.549
X525.634Y328.814
X526.148Y330.141
X526.541Y327.406
X527.055Y328.732
X527.447Y325.997
X527.826Y360.943
X527.961Y327.324
X528.354Y324.589
X528.462Y359.954
X528.476Y362.059
X528.868Y325.915
X529.098Y358.966
X529.111Y361.071
X529.26Y323.18
X529.734Y357.978
X529.747Y360.083
X529.774Y324.507
X530.167Y321.772
X530.37Y356.99
X530.383Y359.095
X530.681Y323.098
X531.006Y356.002
X531.019Y358.107
X531.073Y320.363
X531.587Y321.69
X531.642Y355.014
X531.655Y357.119
X531.98Y318.955
X532.278Y354.026
X532.291Y356.13
X532.493Y320.281
X532.886Y317.546
X532.913Y353.038
X532.927Y355.142
X533.4Y318.873
X533.549Y352.05
X533.563Y354.154
X533.793Y316.137
X534.185Y351.062
X534.198Y353.166
X534.306Y317.464
X534.699Y314.729
X534.821Y350.074
X534.834Y352.178
X535.213Y316.056
X535.457Y349.086
X535.47Y351.19
X535.605Y313.32
X536.093Y348.098
X536.106Y350.202
X536.119Y314.647
X536.729Y347.109
X536.742Y349.214
X537.364Y346.121
X537.378Y348.226
X538.0Y345.133
X538.014Y347.238
X538.636Y344.145
X538.649Y346.25
X539.272Y343.157
X539.285Y345.262
X539.531Y306.448
X539.908Y342.169
X539.921Y344.274
X540.17Y307.719
X540.297Y304.959
X540.544Y341.181
X540.557Y343.285
X540.936Y306.23
X541.063Y303.47
X541.18Y340.193
X541.193Y342.297
X541.703Y304.74
X541.816Y339.205
X541.829Y341.309
X541.83Y301.98
X542.451Y338.217
X542.465Y340.321
X542.469Y303.251
X542.596Y300.491
X543.087Y337.229
X543.101Y339.333
X543.235Y301.762
X543.363Y299.001
X543.723Y336.241
X543.736Y338.345
X544.002Y300.272
X544.129Y297.512
X544.359Y335.253
X544.372Y337.357
X544.768Y298.783
X544.895Y296.023
X544.995Y334.265
X545.008Y336.369
X545.535Y297.294
X545.631Y333.276
X545.644Y335.381
X545.662Y294.533
X546.267Y332.288
X546.28Y334.393
X546.301Y295.804
X546.428Y293.044
X546.903Y331.3
X546.916Y333.405
X547.068Y294.315
X547.195Y291.555
X547.538Y330.312
X547.552Y332.417
X547.834Y292.825
X547.961Y290.065
X548.187Y331.429
X548.6Y291.336
X548.727Y288.576
X549.367Y289.847
X549.494Y287.086
X550.133Y288.357
X550.26Y285.597
X550.9Y286.868
X551.027Y284.108
X551.666Y285.379
X551.793Y282.618
X552.432Y283.889
X552.559Y281.129
X553.199Y282.4
X553.326Y279.64
X553.965Y280.91
X554.092Y278.15
X554.732Y279.421
X554.859Y276.661
X555.498Y277.932
X555.625Y275.171
X556.264Y276.442
X556.391Y273.682
X557.031Y274.953
X557.158Y272.193
X557.797Y273.464
X557.924Y270.703
X558.564Y271.974
X558.691Y269.214
X559.33Y270.485
X559.457Y267.725
X560.096Y268.995
X560.138Y308.428
X560.224Y266.235
X560.676Y307.383
X560.863Y267.506
X560.892Y309.477
X560.99Y264.746
X561.214Y306.338
X561.43Y308.432
X561.629Y266.017
X561.751Y305.294
X561.756Y263.256
X561.967Y307.387
X562.289Y304.249
X562.396Y264.527
X562.505Y306.342
X562.523Y261.767
X562.827Y303.204
X563.043Y305.297
X563.162Y263.038
X563.289Y260.278
X563.364Y302.159
X563.58Y304.253
X563.902Y301.115
X563.929Y261.549
X564.118Y303.208
X564.439Y300.07
X564.656Y302.163
X564.977Y299.025
X565.193Y301.118
X565.515Y297.98
X565.731Y300.074
X566.052Y296.935
X566.268Y299.029
X566.59Y295.891
X566.806Y297.984
X566.853Y252.332
X567.128Y294.846
X567.344Y296.939
X567.471Y250.775
X567.613Y253.535
X567.665Y293.801
X567.881Y295.894
X568.088Y249.218
X568.203Y292.756
X568.231Y251.978
X568.419Y294.85
X568.706Y247.661
X568.741Y291.711
X568.848Y250.421
X568.957Y293.805
X569.278Y290.667
X569.324Y246.104
X569.466Y248.864
X569.494Y292.76
X569.816Y289.622
X569.941Y244.548
X570.032Y291.715
X570.084Y247.307
X570.353Y288.577
X570.559Y242.991
X570.57Y290.67
X570.701Y245.75
X570.891Y287.532
X571.107Y289.626
X571.177Y241.434
X571.319Y244.193
X571.429Y286.488
X571.645Y288.581
X571.795Y239.877
X571.937Y242.636
X571.966Y285.443
X572.182Y287.536
X572.412Y238.32
X572.504Y284.398
X572.555Y241.079
X572.72Y286.491
X573.03Y236.763
X573.042Y283.353
X573.172Y239.522
X573.258Y285.447
X573.579Y282.308
X573.648Y235.206
X573.79Y237.965
X573.795Y284.402
X574.117Y281.264
X574.265Y233.649
X574.333Y283.357
X574.408Y236.408
X574.654Y280.219
X574.871Y282.312
X574.883Y232.092
X575.025Y234.851
X575.192Y279.174
X575.408Y281.267
X575.501Y230.535
X575.643Y233.295
X575.73Y278.129
X575.946Y280.223
X576.118Y228.978
X576.261Y231.738
X576.267Y277.084
X576.483Y279.178
X576.736Y227.421
X576.805Y276.04
X576.879Y230.181
X577.021Y278.133
X577.354Y225.864
X577.496Y228.624
X577.559Y277.088
X577.972Y224.307
X578.114Y227.067
X578.589Y222.75
X578.732Y225.51
X579.207Y221.193
X579.349Y223.953
X579.825Y219.636
X579.967Y222.396
X580.442Y218.08
X580.585Y220.839
X581.06Y216.523
X581.203Y219.282
X581.678Y214.966
X581.82Y217.725
X582.296Y213.409
X582.438Y216.168
X582.913Y211.852
X583.056Y214.611
X583.531Y210.295
X583.673Y213.054
X584.149Y208.738
X584.291Y211.497
X584.766Y207.181
X584.909Y209.94
X585.384Y205.624
X585.526Y208.383
X586.002Y204.067
X586.144Y206.827
X586.762Y205.27
X587.556Y252.295
X587.989Y251.203
X588.408Y253.266
X588.422Y250.111
X588.772Y195.827
X588.841Y252.173
X588.856Y249.019
X589.235Y194.217
X589.275Y251.081
X589.289Y247.927
X589.646Y196.95
X589.698Y192.607
X589.708Y249.989
X589.722Y246.834
X590.109Y195.34
X590.141Y248.897
X590.156Y245.742
X590.16Y190.997
X590.572Y193.73
X590.575Y247.805
X590.589Y244.65
X590.623Y189.388
X591.008Y246.712
X591.022Y243.558
X591.034Y192.12
X591.086Y187.778
X591.441Y245.62
X591.455Y242.466
X591.497Y190.51
X591.548Y186.168
X591.874Y244.528
X591.889Y241.374
X591.96Y188.9
X592.011Y184.558
X592.308Y243.436
X592.322Y240.281
X592.422Y187.291
X592.474Y182.948
X592.741Y242.344
X592.755Y239.189
X592.885Y185.681
X592.936Y181.338
X593.174Y241.252
X593.189Y238.097
X593.348Y184.071
X593.399Y179.729
X593.608Y240.159
X593.622Y237.005
X593.81Y182.461
X593.862Y178.119
X594.041Y239.067
X594.055Y235.913
X594.273Y180.851
X594.324Y176.509
X594.474Y237.975
X594.489Y234.82
X594.736Y179.241
X594.787Y174.899
X594.908Y236.883
X594.922Y233.728
X595.198Y177.632
X595.25Y173.289
X595.341Y235.791
X595.355Y232.636
X595.661Y176.022
X595.712Y171.679
X595.774Y234.698
X595.789Y231.544
X596.124Y174.412
X596.175Y170.07
X596.208Y233.606
X596.222Y230.452
X596.586Y172.802
X596.638Y168.46
X596.641Y232.514
X596.655Y229.36
X597.049Y171.192
X597.074Y231.422
X597.089Y228.267
X597.1Y166.85
X597.508Y230.33
X597.512Y169.582
X597.522Y227.175
X597.563Y165.24
X597.941Y229.238
X597.955Y226.083
X597.974Y167.973
X598.026Y163.63
X598.374Y228.145
X598.389Y224.991
X598.437Y166.363
X598.488Y162.02
X598.808Y227.053
X598.822Y223.899
X598.9Y164.753
X598.951Y160.411
X599.241Y225.961
X599.255Y222.806
X599.362Y163.143
X599.414Y158.801
X599.674Y224.869
X599.689Y221.714
X599.825Y161.533
X599.877Y157.191
X600.107Y223.777
X600.122Y220.622
X600.288Y159.923
X600.339Y155.581
X600.541Y222.684
X600.555Y219.53
X600.75Y158.314
X600.802Y153.971
X600.974Y221.592
X600.988Y218.438
X601.213Y156.704
X601.265Y152.362
X601.407Y220.5
X601.676Y155.094
X601.727Y150.752
X601.841Y219.408
X602.138Y153.484
X602.19Y149.142
X602.601Y151.874
X602.653Y147.532
X603.064Y150.264
X603.115Y145.922
X603.527Y148.655
X603.989Y147.045
X605.072Y137.442
X605.376Y135.795
X605.679Y134.148
X605.982Y132.5
X606.052Y138.474
X606.286Y130.853
X606.355Y136.827
X606.589Y129.206
X606.658Y135.18
X606.893Y127.558
X606.962Y133.532
X607.196Y125.911
X607.265Y131.885
X607.499Y124.264
X607.568Y130.238
X607.803Y122.617
X607.872Y128.59
X608.106Y120.969
X608.175Y126.943
X608.41Y119.322
X608.479Y125.296
X608.713Y117.675
X608.782Y123.649
X609.016Y116.027
X609.085Y122.001
X609.32Y114.38
X609.372Y193.768
X609.389Y120.354
X609.623Y112.733
X609.692Y118.707
X609.697Y192.639
X609.927Y111.086
X609.996Y117.059
X610.022Y191.51
X610.23Y109.438
X610.299Y115.412
X610.315Y194.65
X610.346Y190.38
X610.533Y107.791
X610.602Y113.765
X610.64Y193.521
X610.671Y189.251
X610.837Y106.144
X610.906Y112.117
X610.965Y192.392
X610.995Y188.122
X611.14Y104.496
X611.209Y110.47
X611.289Y191.263
X611.32Y186.992
X611.444Y102.849
X611.513Y108.823
X611.614Y190.133
X611.644Y185.863
X611.747Y101.202
X611.816Y107.176
X611.938Y189.004
X611.969Y184.734
X612.05Y99.554
X612.119Y105.528
X612.263Y187.875
X612.294Y183.605
X612.354Y97.907
X612.423Y103.881
X612.587Y186.745
X612.618Y182.475
X612.657Y96.26
X612.726Y102.234
X612.912Y185.616
X612.943Y181.346
X612.961Y94.613
X613.03Y100.586
X613.236Y184.487
X613.264Y92.965
X613.267Y180.217
X613.333Y98.939
X613.561Y183.358
X613.567Y91.318
X613.592Y179.087
X613.636Y97.292
X613.871Y89.671
X613.886Y182.228
X613.916Y177.958
X613.94Y95.645
X614.174Y88.023
X614.21Y181.099
X614.241Y176.829
X614.243Y93.997
X614.478Y86.376
X614.535Y179.97
X614.547Y92.35
X614.565Y175.7
X614.85Y90.703
X614.859Y178.84
X614.89Y174.57
X615.153Y89.055
X615.184Y177.711
X615.215Y173.441
X615.457Y87.408
X615.508Y176.582
X615.539Y172.312
X615.595Y77.744
X615.736Y76.075
X615.833Y175.453
X615.864Y171.182
X615.877Y74.406
X616.018Y72.737
X616.158Y174.323
X616.159Y71.068
X616.188Y170.053
X616.301Y69.399
X616.442Y67.73
X616.482Y173.194
X616.513Y168.924
X616.583Y66.06
X616.67Y78.675
X616.724Y64.391
X616.807Y172.065
X616.811Y77.006
X616.837Y167.795
X616.865Y62.722
X616.952Y75.337
X617.007Y61.053
X617.093Y73.668
X617.131Y170.935
X617.148Y59.384
X617.162Y166.665
X617.235Y71.999
X617.289Y57.715
X617.376Y70.33
X617.43Y56.046
X617.456Y169.806
X617.487Y165.536
X617.517Y68.661
X617.571Y54.377
X617.658Y66.992
X617.713Y52.708
X617.78Y168.677
X617.799Y65.323
X617.811Y164.407
X617.854Y51.039
X617.941Y63.654
X617.995Y49.37
X618.082Y61.985
X618.105Y167.548
X618.136Y163.277
X618.136Y47.701
X618.223Y60.316
X618.277Y46.032
X618.364Y58.647
X618.419Y44.363
X618.43Y166.418
X618.46Y162.148
X618.505Y56.978
X618.56Y42.694
X618.647Y55.309
X618.701Y41.025
X618.754Y165.289
X618.785Y161.019
X618.788Y53.64
X618.842Y39.356
X618.929Y51.971
X618.983Y37.687
X619.07Y50.302
X619.079Y164.16
X619.109Y159.89
X619.125Y36.018
X619.211Y48.633
X619.266Y34.349
X619.353Y46.963
X619.403Y163.03
X619.407Y32.68
X619.434Y158.76
X619.494Y45.294
X619.548Y31.011
X619.635Y43.625
X619.689Y29.342
X619.728Y161.901
X619.776Y41.956
X619.831Y27.673
X619.917Y40.287
X619.972Y26.004
X620.052Y160.772
X620.059Y38.618
X620.2Y36.949
X620.341Y35.28
X620.377Y159.643
X620.482Y33.611
X620.623Y31.942
X620.765Y30.273
X620.906Y28.604
X621.047Y26.935
X625.373Y133.383
X625.586Y132.228
X625.799Y131.072
X626.012Y129.917
X626.225Y128.761
X626.398Y134.169
X626.437Y127.605
X626.611Y133.014
X626.65Y126.45
X626.823Y131.858
X626.863Y125.294
X627.036Y130.703
X627.076Y124.139
X627.249Y129.547
X627.289Y122.983
X627.462Y128.392
X627.502Y121.828
X627.675Y127.236
X627.714Y120.672
X627.888Y126.08
X627.927Y119.516
X628.1Y124.925
X628.14Y118.361
X628.313Y123.769
X628.353Y117.205
X628.526Y122.614
X628.566Y116.05
X628.739Y121.458
X628.779Y114.894
X628.952Y120.303
X628.991Y113.739
X629.165Y119.147
X629.204Y112.583
X629.377Y117.991
X629.417Y111.428
X629.59Y116.836
X629.63Y110.272
X629.803Y115.68
X629.843Y109.116
X630.016Y114.525
X630.056Y107.961
X630.229Y113.369
X630.268Y106.805
X630.442Y112.214
X630.481Y105.65
X630.654Y111.058
X630.694Y104.494
X630.867Y109.902
X630.907Y103.339
X631.08Y108.747
X631.12Y102.183
X631.293Y107.591
X631.332Y101.027
X631.506Y106.436
X631.545Y99.872
X631.719Y105.28
X631.758Y98.716
X631.931Y104.125
X631.971Y97.561
X632.144Y102.969
X632.357Y101.814
X632.57Y100.658
X632.783Y99.502
X632.996Y98.347
X635.403Y71.723
X635.502Y70.552
X635.601Y69.381
X635.7Y68.211
X635.799Y67.04
X635.898Y65.869
X635.997Y64.698
X636.096Y63.527
X636.195Y62.357
X636.294Y61.186
X636.393Y60.015
X636.492Y58.844
X636.499Y72.405
X636.591Y57.673
X636.598Y71.235
X636.69Y56.502
X636.697Y70.064
X636.789Y55.332
X636.796Y68.893
X636.888Y54.161
X636.895Y67.722
X636.987Y52.99
X636.994Y66.551
X637.086Y51.819
X637.093Y65.381
X637.185Y50.648
X637.192Y64.21
X637.285Y49.478
X637.291Y63.039
X637.384Y48.307
X637.39Y61.868
X637.483Y47.136
X637.489Y60.697
X637.582Y45.965
X637.589Y59.526
X637.681Y44.794
X637.688Y58.356
X637.78Y43.623
X637.787Y57.185
X637.879Y42.453
X637.886Y56.014
X637.978Y41.282
X637.985Y54.843
X638.077Y40.111
X638.084Y53.672
X638.176Y38.94
X638.183Y52.502
X638.275Y37.769
X638.282Y51.331
X638.374Y36.599
X638.381Y50.16
X638.473Y35.428
X638.48Y48.989
X638.579Y47.818
X638.678Y46.647
X638.777Y45.477
X638.876Y44.306
X638.975Y43.135
X639.074Y41.964
X639.173Y40.793
X639.272Y39.623
X639.371Y38.452
X639.47Y37.281
X639.57Y36.11
T2
X70.181Y98.217
X75.392Y108.526
X80.241Y90.185
X81.123Y118.456
X84.639Y101.479
X86.852Y128.381
X89.389Y81.127
X90.466Y111.484
X92.579Y138.303
X93.231Y93.647
X96.276Y121.474
X97.52Y71.147
X98.304Y148.221
X99.213Y103.776
X101.101Y85.09
X102.072Y131.452
X104.027Y158.137
X104.542Y60.357
X105.153Y113.876
X107.306Y95.385
X107.857Y141.422
X108.189Y75.874
X109.75Y168.051
X110.375Y48.881
X111.06Y123.952
X113.433Y105.631
X113.632Y151.383
X114.439Y66.071
X114.691Y86.364
X114.952Y36.849
X115.471Y177.964
X116.941Y134.007
X118.223Y24.398
X119.401Y161.337
X119.499Y115.838
X119.804Y55.757
X120.149Y11.67
X121.068Y96.787
X121.192Y187.874
X121.32Y76.775
X122.8Y144.046
X124.241Y45.011
X125.163Y171.286
X125.517Y126.011
X126.911Y197.784
X127.148Y66.679
X127.347Y107.151
X127.716Y33.917
X128.015Y87.392
X128.642Y154.07
X130.203Y22.56
X130.92Y181.23
X131.496Y136.154
X131.682Y11.028
X132.139Y56.143
X132.631Y207.692
X133.547Y117.466
X134.234Y77.5
X134.469Y164.081
X134.564Y97.934
X136.258Y45.237
X136.672Y191.169
X137.442Y146.273
X138.35Y217.6
X139.479Y34.033
X139.685Y127.739
X139.691Y67.168
X140.284Y174.082
X140.997Y108.411
X141.116Y88.232
X141.781Y22.604
X142.421Y201.105
X143.147Y11.027
X143.362Y156.371
X144.068Y227.506
X144.353Y56.454
X145.771Y137.975
X146.089Y184.073
X146.969Y78.094
X147.337Y118.832
X147.834Y98.885
X148.167Y211.038
X148.196Y45.42
X149.259Y166.451
X149.786Y237.412
X151.196Y34.127
X151.813Y148.18
X151.885Y194.057
X152.095Y67.569
X153.338Y22.641
X153.599Y129.204
X153.909Y220.968
X154.029Y88.929
X154.421Y109.468
X154.607Y11.026
X155.138Y176.514
X155.504Y247.317
X156.469Y56.71
X157.673Y204.033
X157.82Y158.357
X159.554Y78.586
X159.65Y230.895
X159.797Y139.533
X160.068Y45.57
X160.9Y119.989
X160.912Y99.682
X161.0Y186.564
X161.222Y257.222
X162.876Y34.205
X163.454Y214.003
X163.796Y168.511
X164.385Y67.902
X164.877Y22.671
X165.388Y240.82
X165.942Y149.824
X166.063Y11.024
X166.783Y89.513
X166.848Y196.601
X166.939Y267.126
X167.29Y130.456
X167.65Y110.362
X168.502Y56.922
X169.23Y223.968
X169.746Y178.643
X171.125Y250.743
X171.887Y45.696
X172.012Y78.999
X172.042Y160.083
X172.656Y277.03
X172.685Y206.627
X173.604Y140.875
X173.824Y100.357
X174.267Y120.978
X174.524Y34.27
X175.001Y233.928
X175.674Y188.756
X176.403Y22.696
X176.58Y68.181
X176.859Y260.664
X177.515Y11.023
X178.103Y170.312
X178.373Y286.933
X178.51Y216.644
X179.401Y90.008
X179.855Y151.252
X180.468Y57.101
X180.708Y111.127
X180.767Y243.883
X180.784Y131.535
X181.583Y198.853
X182.592Y270.584
X183.661Y45.801
X184.089Y296.836
X184.131Y180.516
X184.327Y226.652
X184.364Y79.349
X186.052Y161.591
X186.147Y34.325
X186.53Y253.834
X186.593Y100.934
X187.215Y142.04
X187.461Y121.829
X187.474Y208.935
X187.918Y22.717
X188.324Y280.502
X188.693Y68.419
X188.965Y11.022
X189.806Y306.739
X190.131Y190.696
X190.135Y236.652
X191.903Y90.431
X192.203Y171.897
X192.289Y263.782
X192.375Y57.253
X193.351Y219.004
X193.574Y152.5
X193.619Y111.786
X194.055Y290.419
X194.104Y132.471
X195.397Y45.892
X195.522Y316.641
X195.937Y246.645
X196.105Y200.856
X196.623Y79.649
X197.749Y34.373
X198.044Y273.726
X198.313Y182.172
X199.215Y229.061
X199.238Y101.432
X199.422Y22.735
X199.785Y300.335
X199.871Y162.917
X200.412Y11.02
X200.504Y122.569
X200.652Y143.058
X200.738Y68.622
X201.238Y326.543
X201.732Y256.632
X202.058Y210.998
X203.797Y283.667
X204.234Y57.384
X204.304Y90.796
X204.388Y192.421
X205.067Y239.108
X205.513Y310.249
X206.113Y173.298
X206.4Y112.357
X206.955Y336.444
X207.102Y45.969
X207.12Y153.596
X207.27Y133.289
X207.521Y266.613
X207.991Y221.123
X208.804Y79.908
X209.333Y34.413
X209.547Y293.606
X210.433Y202.646
X210.909Y249.145
X210.919Y22.751
X211.241Y320.163
X211.775Y101.863
X211.856Y11.019
X212.309Y183.645
X212.671Y346.346
X212.723Y68.798
X213.305Y276.589
X213.413Y123.214
X213.517Y164.089
X213.907Y231.233
X213.934Y143.953
X215.295Y303.543
X216.051Y57.497
X216.452Y212.848
X216.618Y91.113
X216.742Y259.173
X216.968Y330.076
X218.386Y356.247
X218.464Y193.961
X218.78Y46.037
X219.067Y112.857
X219.084Y286.561
X219.809Y241.329
X219.853Y174.542
X220.3Y134.008
X220.509Y154.565
X220.901Y34.449
X220.916Y80.133
X221.041Y313.477
X222.409Y22.765
X222.446Y223.031
X222.566Y269.193
X222.694Y339.988
X223.3Y11.018
X224.102Y366.148
X224.218Y102.241
X224.583Y204.25
X224.657Y68.951
X224.859Y296.528
X225.696Y251.413
X226.137Y184.959
X226.204Y123.782
X226.785Y323.409
X227.008Y165.13
X227.077Y144.743
X227.833Y57.596
X228.384Y279.205
X228.419Y233.196
X228.42Y349.899
X228.856Y91.39
X229.818Y376.049
X230.435Y46.096
X230.63Y306.491
X230.67Y214.514
X231.572Y261.486
X231.634Y113.296
X232.373Y195.342
X232.457Y34.48
X232.528Y333.339
X232.968Y80.33
X233.208Y134.643
X233.438Y175.653
X233.759Y155.426
X233.894Y22.777
X234.145Y359.809
X234.194Y289.212
X234.373Y243.345
X234.742Y11.017
X235.534Y385.95
X236.398Y316.45
X236.546Y69.086
X236.578Y102.573
X236.729Y224.756
X237.437Y271.549
X238.268Y343.268
X238.568Y205.694
X238.89Y124.283
X239.582Y57.683
X239.81Y186.136
X239.869Y369.719
X239.999Y299.212
X240.096Y145.445
X240.311Y253.478
X240.358Y166.059
X241.026Y91.634
X241.249Y395.85
X242.069Y46.148
X242.163Y326.407
X242.762Y234.977
X243.291Y281.602
X244.001Y34.508
X244.008Y353.195
X244.112Y113.684
X244.727Y216.02
X244.968Y80.504
X245.373Y22.788
X245.593Y379.628
X245.798Y309.206
X246.007Y135.207
X246.129Y196.584
X246.182Y11.016
X246.233Y263.598
X246.883Y176.648
X246.883Y156.193
X246.965Y405.75
X247.925Y336.36
X248.397Y69.205
X248.773Y245.179
X248.864Y102.866
X249.137Y291.646
X249.746Y363.12
X250.852Y226.32
X251.305Y57.76
X251.316Y389.537
X251.482Y124.729
X251.592Y319.196
X252.142Y273.706
X252.402Y206.999
X252.68Y415.651
X253.003Y146.071
X253.137Y91.851
X253.343Y187.196
X253.58Y166.891
X253.684Y346.31
X253.686Y46.195
X254.763Y255.363
X254.975Y301.683
X255.482Y373.044
X255.534Y34.532
X256.511Y114.029
X256.847Y22.797
X256.922Y80.658
X256.949Y236.597
X257.039Y399.445
X257.381Y329.18
X257.622Y11.015
X258.038Y283.802
X258.396Y425.551
X258.634Y217.384
X258.709Y135.71
X259.441Y356.258
X259.746Y197.706
X259.892Y156.881
X260.199Y177.543
X260.213Y69.31
X260.736Y265.532
X260.806Y311.712
X261.085Y103.128
X261.218Y382.967
X262.761Y409.352
X263.003Y57.829
X263.019Y246.852
X263.166Y339.16
X263.923Y293.887
X263.99Y125.126
X264.111Y435.451
X264.828Y227.742
X265.195Y366.203
X265.195Y92.043
X265.287Y46.236
X265.809Y146.633
X266.097Y208.182
X266.63Y321.735
X266.687Y167.64
X266.691Y275.686
X266.747Y188.153
X266.952Y392.889
X267.06Y34.554
X268.318Y22.806
X268.484Y419.259
X268.836Y80.795
X268.839Y114.337
X268.948Y349.136
X269.06Y11.014
X269.065Y257.088
X269.797Y303.963
X269.826Y445.351
X270.948Y376.146
X270.99Y238.075
X271.322Y136.161
X271.999Y69.404
X272.403Y218.625
X272.447Y331.751
X272.632Y285.827
X272.686Y402.809
X272.798Y157.5
X273.234Y198.723
X273.247Y103.361
X273.398Y178.352
X274.205Y429.166
X274.68Y57.89
X274.725Y359.109
X275.09Y267.306
X275.542Y455.25
X275.663Y314.03
X276.423Y125.483
X276.698Y386.087
X276.874Y46.273
X277.121Y248.384
X277.207Y92.215
X278.259Y341.762
X278.418Y412.729
X278.524Y147.137
X278.559Y295.955
X278.577Y34.574
X278.668Y229.04
X279.664Y209.257
X279.688Y168.316
X279.786Y22.813
X279.927Y439.072
X280.034Y189.02
X280.498Y11.013
X280.5Y369.078
X280.713Y80.918
X281.095Y277.508
X281.104Y114.613
X281.257Y465.15
X281.519Y324.088
X282.447Y396.026
X283.225Y258.671
X283.758Y69.488
X283.856Y136.567
X284.066Y351.767
X284.15Y422.647
X284.473Y306.071
X284.895Y239.426
X285.357Y103.57
X285.61Y158.059
X285.648Y448.978
X286.045Y219.757
X286.271Y379.043
X286.339Y57.945
X286.489Y179.084
X286.603Y199.647
X286.972Y475.05
X287.083Y287.694
X287.368Y334.139
X288.194Y405.963
X288.45Y46.306
X288.788Y125.803
X289.177Y92.369
X289.305Y268.938
X289.868Y361.767
X289.881Y432.565
X290.088Y34.592
X290.376Y316.177
X291.089Y249.788
X291.156Y147.593
X291.25Y22.82
X291.368Y458.884
X291.935Y11.012
X292.04Y389.006
X292.38Y230.226
X292.558Y81.028
X292.593Y168.929
X292.687Y484.949
X293.054Y297.865
X293.113Y210.237
X293.21Y344.182
X293.212Y189.808
X293.312Y114.862
X293.94Y415.898
X295.362Y279.187
X295.494Y69.564
X295.611Y442.482
X295.665Y371.762
X296.269Y326.273
X296.319Y136.933
X297.089Y468.789
X297.253Y260.126
X297.421Y103.759
X297.806Y398.965
X297.98Y57.994
X298.336Y158.565
X298.402Y494.849
X298.675Y240.666
X299.011Y308.024
X299.045Y354.218
X299.484Y179.75
X299.568Y220.792
X299.684Y425.832
X299.864Y200.49
X300.014Y46.336
X301.092Y126.093
X301.11Y92.509
X301.341Y452.398
X301.399Y289.419
X301.458Y381.753
X301.592Y34.608
X302.152Y336.359
X302.712Y22.827
X302.809Y478.694
X303.372Y11.011
X303.389Y270.443
X303.57Y408.922
X303.713Y148.006
X304.117Y504.748
X304.373Y81.128
X304.874Y364.249
X304.933Y251.08
X304.954Y318.17
X305.41Y169.485
X305.427Y435.764
X305.468Y115.087
X305.975Y231.314
X306.291Y190.527
X306.452Y211.134
X307.07Y462.313
X307.207Y69.633
X307.248Y391.74
X307.417Y299.635
X308.026Y346.437
X308.529Y488.599
X308.716Y137.266
X309.331Y418.877
X309.442Y103.93
X309.5Y280.739
X309.607Y58.039
X310.697Y374.273
X310.885Y328.304
X310.985Y159.025
X311.157Y261.468
X311.169Y445.695
X311.569Y46.364
X312.338Y241.806
X312.388Y180.357
X312.798Y472.228
X312.982Y221.741
X313.009Y92.635
X313.025Y201.261
X313.034Y401.724
X313.091Y34.623
X313.339Y126.356
X313.418Y309.836
X313.891Y356.507
X314.171Y22.832
X314.249Y498.503
X314.808Y11.01
X315.09Y428.829
X315.587Y291.017
X316.163Y81.219
X316.201Y148.382
X316.514Y384.292
X316.804Y338.428
X316.909Y455.625
X317.351Y271.833
X317.577Y115.291
X318.147Y169.993
X318.525Y482.142
X318.66Y252.27
X318.816Y411.703
X318.902Y69.695
X319.279Y191.184
X319.403Y320.023
X319.461Y232.314
X319.69Y211.955
X319.749Y366.569
X320.847Y438.779
X321.054Y137.568
X321.22Y58.08
X321.425Y104.085
X321.654Y301.277
X322.327Y394.306
X322.648Y465.553
X322.713Y348.542
X323.116Y46.389
X323.516Y282.176
X323.562Y159.445
X324.253Y492.055
X324.586Y34.636
X324.596Y421.679
X324.877Y92.75
X324.946Y262.707
X325.209Y180.912
X325.374Y330.197
X325.537Y126.595
X325.601Y376.625
X325.629Y22.838
X325.891Y242.856
X326.092Y201.967
X326.243Y11.009
X326.295Y222.613
X326.603Y448.727
X327.701Y311.521
X327.929Y81.301
X328.135Y404.315
X328.387Y475.48
X328.611Y358.647
X328.627Y148.724
X329.645Y115.477
X329.656Y292.499
X330.373Y431.652
X330.578Y69.752
X330.809Y170.457
X331.198Y273.119
X331.332Y340.359
X331.445Y386.673
X332.183Y191.786
X332.278Y253.369
X332.356Y458.673
X332.821Y58.118
X332.835Y212.711
X332.844Y233.236
X333.338Y137.843
X333.373Y104.226
X333.731Y321.749
X333.939Y414.319
X334.124Y485.406
X334.501Y368.742
X334.654Y46.412
X335.773Y302.803
X336.073Y159.828
X336.076Y34.648
X336.147Y441.623
X336.717Y92.854
X337.084Y22.843
X337.277Y350.51
X337.283Y396.716
X337.419Y283.509
X337.678Y11.009
X337.688Y126.814
X337.955Y181.421
X338.109Y468.617
X338.626Y263.853
X339.075Y202.616
X339.343Y243.826
X339.513Y223.416
X339.674Y81.376
X339.739Y424.319
X339.743Y331.963
X340.382Y378.83
X340.996Y149.038
X341.673Y115.647
X341.868Y313.089
X341.918Y451.59
X342.24Y69.804
X343.116Y406.752
X343.211Y360.65
X343.404Y170.882
X343.613Y293.876
X343.859Y478.559
X344.411Y58.152
X344.937Y274.312
X345.008Y192.339
X345.29Y104.355
X345.536Y434.316
X345.572Y138.096
X345.741Y342.164
X345.795Y254.386
X345.893Y213.406
X346.133Y234.087
X346.186Y46.433
X346.256Y388.909
X347.562Y34.66
X347.687Y461.555
X347.942Y323.359
X348.524Y160.18
X348.533Y92.95
X348.538Y22.847
X348.944Y416.783
X349.112Y11.008
X349.134Y370.78
X349.78Y304.224
X349.797Y127.013
X350.63Y181.888
X351.215Y284.747
X351.329Y444.308
X351.399Y81.445
X351.725Y352.351
X351.977Y203.214
X352.122Y398.982
X352.205Y264.917
X352.644Y224.158
X352.699Y244.723
X353.312Y149.325
X353.454Y471.517
X353.667Y115.802
X353.886Y69.852
X353.999Y333.613
X354.766Y426.809
X355.047Y380.9
X355.924Y314.553
X355.936Y171.273
X355.991Y58.183
X357.118Y454.297
X357.177Y104.473
X357.463Y295.159
X357.695Y362.528
X357.711Y46.452
X357.761Y138.327
X357.762Y192.849
X357.981Y409.047
X358.576Y275.421
X358.87Y214.049
X359.044Y34.67
X359.216Y255.329
X359.333Y234.874
X359.99Y22.851
X360.038Y343.852
X360.325Y93.038
X360.546Y11.007
X360.584Y436.83
X360.92Y160.504
X360.951Y391.012
X361.867Y127.197
X362.045Y324.863
X362.905Y464.282
X363.107Y81.508
X363.241Y182.319
X363.653Y372.693
X363.682Y305.549
X363.834Y419.106
X364.807Y203.766
X364.911Y285.9
X365.52Y69.896
X365.579Y149.589
X365.628Y115.945
X365.688Y265.905
X365.693Y224.844
X365.967Y245.555
X366.061Y354.078
X366.398Y446.846
X366.846Y401.115
X367.562Y58.212
X368.146Y335.157
X368.41Y171.634
X369.039Y104.582
X369.23Y46.47
X369.6Y382.847
X369.681Y429.159
X369.875Y315.919
X369.908Y138.54
X370.449Y193.32
X370.523Y34.68
X371.213Y296.355
X371.44Y22.855
X371.772Y214.643
X371.98Y11.007
X372.07Y364.29
X372.097Y93.118
X372.119Y276.453
X372.207Y456.858
X372.451Y235.604
X372.548Y256.205
X372.734Y411.211
X373.265Y160.802
X373.902Y127.365
X374.228Y345.435
X374.799Y81.566
X375.522Y439.206
X375.536Y392.991
X375.791Y182.717
X376.044Y326.271
X377.142Y69.936
X377.484Y306.787
X377.56Y116.076
X377.567Y204.277
X377.802Y149.833
X378.065Y374.491
X378.511Y286.974
X378.614Y421.299
X378.666Y225.481
X379.082Y266.824
X379.124Y58.239
X379.151Y246.328
X380.292Y355.698
X380.744Y46.486
X380.831Y171.966
X380.876Y104.682
X381.358Y449.248
X381.463Y403.127
X382.0Y34.689
X382.016Y138.736
X382.191Y336.604
X382.89Y22.859
X383.073Y193.755
X383.413Y11.006
X383.728Y317.198
X383.849Y93.193
X384.046Y384.679
X384.487Y431.38
X384.605Y215.194
X384.868Y297.471
X385.492Y236.281
X385.563Y161.077
X385.572Y277.415
X385.797Y257.02
X385.905Y127.521
X386.34Y365.947
X386.475Y81.62
X387.38Y413.253
X388.286Y183.085
X388.316Y346.92
X388.753Y69.974
X389.464Y116.197
X389.945Y327.589
X389.984Y150.058
X390.016Y394.857
X390.264Y204.751
X390.353Y441.455
X390.679Y58.264
X391.193Y307.945
X391.567Y226.071
X392.022Y287.978
X392.253Y46.502
X392.258Y247.047
X392.373Y376.183
X392.392Y267.681
X392.691Y104.774
X393.202Y172.274
X393.289Y423.371
X393.473Y34.697
X394.089Y138.917
X394.338Y22.862
X394.423Y357.221
X394.847Y11.006
X395.584Y93.262
X395.641Y194.159
X395.975Y405.025
X396.138Y337.962
X397.372Y215.705
X397.487Y318.396
X397.817Y161.332
X397.877Y127.665
X398.138Y81.67
X398.391Y386.406
X398.434Y298.516
X398.461Y236.912
X398.942Y278.313
X398.967Y257.78
X399.189Y433.481
X400.354Y70.008
X400.511Y367.506
X400.729Y183.426
X401.344Y116.309
X401.924Y415.182
X402.127Y150.266
X402.227Y58.287
X402.308Y348.316
X402.902Y205.19
X403.753Y328.827
X403.758Y46.516
X404.396Y396.617
X404.402Y226.621
X404.486Y104.86
X404.812Y309.03
X404.944Y34.705
X405.291Y247.718
X405.449Y288.917
X405.527Y172.56
X405.624Y268.481
X405.785Y22.865
X406.13Y139.085
X406.28Y11.005
X406.582Y377.778
X407.302Y93.326
X407.862Y425.331
X408.154Y194.534
X408.457Y358.654
X409.789Y81.716
X409.822Y127.798
X409.993Y339.238
X410.03Y161.568
X410.078Y216.182
X410.388Y406.817
X411.157Y319.52
X411.362Y237.5
X411.916Y299.494
X411.945Y70.041
X412.063Y258.49
X412.232Y279.153
X412.638Y388.035
X413.124Y183.743
X413.2Y116.413
X413.769Y58.308
X414.235Y150.459
X414.587Y368.975
X415.258Y46.529
X415.484Y205.6
X416.208Y349.629
X416.262Y104.939
X416.369Y417.007
X416.413Y34.713
X417.175Y227.134
X417.231Y22.868
X417.472Y329.989
X417.712Y11.005
X417.809Y172.825
X418.14Y139.241
X418.256Y248.343
X418.347Y310.047
X418.679Y398.28
X418.781Y269.23
X418.796Y289.796
X419.005Y93.385
X420.618Y194.883
X420.698Y379.282
X421.428Y81.759
X421.74Y127.922
X422.206Y161.788
X422.401Y360.004
X422.727Y216.625
X423.528Y70.071
X423.759Y340.438
X424.2Y238.049
X424.706Y408.513
X424.743Y320.576
X425.035Y116.51
X425.09Y259.153
X425.305Y58.328
X425.319Y300.412
X425.448Y279.94
X425.474Y184.038
X426.311Y150.639
X426.755Y46.542
X426.792Y389.574
X427.879Y34.719
X428.015Y205.981
X428.02Y105.013
X428.572Y370.361
X428.676Y22.871
X429.145Y11.004
X429.89Y227.612
X430.021Y350.866
X430.052Y173.072
X430.122Y139.386
X430.695Y93.44
X431.108Y331.083
X431.157Y248.929
X431.802Y311.003
X431.867Y269.931
X432.068Y290.621
X432.869Y399.852
X433.034Y195.208
X433.057Y81.799
X433.635Y128.037
X434.347Y161.993
X434.724Y380.702
X435.104Y70.099
X435.323Y217.04
X436.257Y361.277
X436.835Y58.347
X436.85Y116.6
X436.978Y238.562
X437.443Y341.568
X437.783Y184.313
X438.052Y259.774
X438.249Y46.553
X438.25Y321.569
X438.356Y150.807
X438.593Y280.677
X438.645Y301.274
X439.344Y34.726
X439.762Y105.082
X440.12Y22.873
X440.497Y206.338
X440.577Y11.004
X440.857Y391.028
X442.077Y139.521
X442.257Y173.302
X442.371Y93.491
X442.471Y371.669
X442.55Y228.06
X443.75Y352.033
X443.997Y249.477
X444.664Y332.113
X444.675Y81.836
X444.888Y270.588
X445.182Y311.902
X445.269Y291.395
X445.407Y195.512
X445.508Y128.145
X446.454Y162.183
X446.672Y70.125
X447.87Y217.427
X448.36Y58.365
X448.646Y116.684
X448.664Y382.045
X449.7Y239.043
X449.739Y46.564
X450.031Y362.479
X450.052Y184.57
X450.372Y150.963
X450.807Y34.732
X450.952Y260.357
X451.047Y342.634
X451.489Y105.146
X451.564Y22.876
X451.671Y281.37
X451.681Y322.505
X451.901Y302.085
X452.009Y11.003
X452.934Y206.671
X454.008Y139.648
X454.036Y93.539
X454.428Y173.518
X455.159Y228.479
X456.285Y81.871
X456.288Y372.906
X456.78Y249.991
X457.36Y128.245
X457.4Y353.134
X457.74Y195.796
X457.847Y271.205
X458.145Y333.084
X458.233Y70.149
X458.403Y292.124
X458.49Y312.748
X458.532Y162.362
X459.881Y58.381
X460.369Y217.79
X460.425Y116.762
X461.226Y46.575
X462.268Y34.738
X462.284Y184.81
X462.362Y151.109
X462.37Y239.494
X463.007Y22.878
X463.203Y105.206
X463.441Y11.003
X463.726Y363.615
X463.794Y260.904
X464.575Y343.64
X464.686Y282.022
X465.04Y323.387
X465.089Y302.849
X465.328Y206.983
X465.69Y93.584
X465.917Y139.765
X466.566Y173.719
X467.719Y228.872
X467.885Y81.904
X469.193Y128.339
X469.509Y250.473
X469.788Y70.172
X470.033Y196.063
X470.581Y162.528
X470.747Y271.786
X470.975Y354.175
X471.397Y58.397
X471.474Y292.809
X471.553Y334.0
X471.731Y313.547
X472.189Y116.835
X472.71Y46.584
X472.824Y218.131
X473.728Y34.743
X474.328Y151.245
X474.449Y22.88
X474.483Y185.035
X474.873Y11.003
X474.903Y105.262
X474.99Y239.917
X476.582Y261.419
X477.333Y93.626
X477.642Y282.636
X477.682Y207.275
X477.804Y139.876
X478.032Y344.591
X478.213Y303.568
X478.331Y324.219
X478.673Y173.908
X479.478Y81.935
X480.234Y229.241
X481.008Y128.427
X481.337Y70.194
X482.188Y250.927
X482.291Y196.312
X482.603Y162.685
X482.909Y58.411
X483.591Y272.332
X483.937Y116.904
X484.192Y46.594
X484.484Y293.456
X484.894Y334.867
X484.907Y314.3
X485.186Y34.748
X485.238Y218.45
X485.89Y22.882
X486.27Y151.373
X486.304Y11.002
X486.591Y105.315
X486.649Y185.247
X487.564Y240.315
X488.967Y93.666
X489.317Y261.904
X489.671Y139.979
X489.999Y207.55
X490.542Y283.214
X490.752Y174.085
X491.064Y81.963
X491.276Y304.248
X491.558Y325.005
X492.706Y229.588
X492.806Y128.509
X492.881Y70.214
X494.417Y58.425
X494.515Y196.547
X494.6Y162.832
X494.819Y251.355
X495.671Y116.969
X495.671Y46.602
X496.382Y272.848
X496.643Y34.753
X497.331Y22.884
X497.437Y294.066
X497.612Y218.751
X497.736Y11.002
X498.021Y315.012
X498.19Y151.494
X498.267Y105.365
X498.785Y185.445
X500.093Y240.69
X500.591Y93.703
X501.52Y140.077
X502.004Y262.36
X502.28Y207.809
X502.642Y81.991
X502.805Y174.251
X503.388Y283.76
X504.282Y304.889
X504.42Y70.233
X504.588Y128.587
X505.138Y229.915
X505.922Y58.438
X506.574Y162.97
X506.707Y196.768
X507.148Y46.61
X507.393Y117.03
X507.405Y251.757
X508.098Y34.757
X508.771Y22.886
X509.124Y273.334
X509.167Y11.001
X509.933Y105.411
X509.95Y219.034
X510.09Y151.607
X510.336Y294.643
X510.892Y185.632
X512.207Y93.738
X512.581Y241.043
X513.351Y140.168
X514.215Y82.016
X514.528Y208.053
X514.645Y262.792
X514.832Y174.407
X515.954Y70.251
X516.183Y284.276
X516.355Y128.66
X517.423Y58.45
X517.531Y230.223
X518.525Y163.099
X518.623Y46.618
X518.87Y196.976
X519.102Y117.087
X519.553Y34.762
X519.948Y252.138
X520.211Y22.887
X520.598Y11.001
X521.589Y105.455
X521.819Y273.793
X521.97Y151.713
X522.253Y219.301
X522.973Y185.808
X523.816Y93.771
X525.03Y241.377
X525.165Y140.254
X525.781Y82.04
X526.745Y208.282
X526.835Y174.555
X527.242Y263.199
X527.483Y70.269
X528.109Y128.728
X528.922Y58.462
X529.889Y230.514
X530.096Y46.625
X530.456Y163.222
X530.799Y117.141
X531.003Y197.172
X531.006Y34.766
X531.65Y22.889
X532.029Y11.001
X532.45Y252.497
X533.236Y105.497
X533.833Y151.814
X534.523Y219.553
X535.028Y185.974
X535.417Y93.803
X536.965Y140.336
X537.341Y82.063
X537.441Y241.692
X538.817Y174.694
X538.931Y208.499
X539.008Y70.285
X539.849Y128.793
X540.417Y58.473
X541.567Y46.632
X542.212Y230.789
X542.367Y163.337
X542.458Y34.77
X542.486Y117.192
X543.089Y22.891
X543.111Y197.357
X543.46Y11.0
X544.874Y105.536
X545.679Y151.908
X546.763Y219.791
X547.011Y93.832
X547.06Y186.131
X548.749Y140.412
X548.896Y82.085
X550.53Y70.3
X550.777Y174.826
X551.09Y208.704
X551.578Y128.854
X551.91Y58.483
X553.037Y46.639
X553.91Y34.774
X554.163Y117.24
X554.26Y163.446
X554.528Y22.892
X554.891Y11.0
X555.193Y197.532
X556.503Y105.573
X557.508Y151.998
X558.598Y93.86
X559.069Y186.279
X560.446Y82.105
X560.52Y140.485
X562.047Y70.315
X562.717Y174.95
X563.294Y128.912
X563.4Y58.493
X564.505Y46.645
X565.36Y34.777
X565.83Y117.285
X565.966Y22.894
X566.135Y163.55
X566.322Y11.0
X568.125Y105.608
X569.323Y152.083
X570.179Y93.886
X571.992Y82.125
X572.278Y140.554
X573.561Y70.329
X574.888Y58.502
X575.0Y128.967
X575.971Y46.651
X576.809Y34.78
X577.403Y22.895
X577.487Y117.328
X577.752Y11.0
X579.739Y105.642
X581.754Y93.912
X583.532Y82.143
X585.072Y70.342
X586.374Y58.511
X587.436Y46.657
X588.258Y34.784
X588.841Y22.896
X589.183Y10.999
T3
X52.19Y105.37
X55.44Y82.62
X79.67Y152.97
X86.17Y49.75
X99.27Y6.69
X116.16Y216.19
X117.3Y-7.5
X152.66Y279.42
X172.31Y-7.5
X189.16Y342.63
X225.66Y405.85
X245.31Y-7.5
X262.17Y469.07
X289.67Y516.7
X317.71Y521.29
X318.29Y-7.5
X372.81Y483.44
X391.31Y-7.5
X459.59Y401.83
X464.31Y-7.5
X528.71Y305.25
X537.3Y-7.5
X577.78Y197.11
X592.34Y-7.5
X605.08Y81.14
X610.3Y14.5
T4
X310.73Y536.37
X336.88Y536.4
X340.139Y533.25
X381.913Y504.186
X390.551Y497.519
X429.281Y464.508
X437.232Y457.037
X472.562Y420.41
X479.74Y412.19
X511.324Y372.288
X517.672Y363.416
X545.212Y320.622
X550.27Y311.869
X573.556Y266.619
X578.069Y256.681
X596.837Y209.378
X600.36Y199.06
X614.418Y150.15
X616.919Y139.529
X620.18Y0.76
X626.139Y89.481
X627.589Y78.664
X631.88Y27.956
X633.03Y23.42
T5
X358.06Y537.22
X378.64Y522.96
X408.84Y499.75
X427.82Y483.52
X455.64Y457.52
X473.0Y439.42
X498.07Y410.81
X513.59Y391.16
X535.77Y360.26
X549.34Y339.24
X567.96Y306.96
X579.44Y284.7
X595.2Y250.06
X604.44Y226.82
X616.79Y190.82
X623.7Y166.77
X632.43Y129.68
X636.99Y105.14
X642.1Y67.37
X644.19Y42.49
T6
X44.46Y89.01
X97.91Y184.58
X99.31Y-6.01
X170.91Y311.02
X208.8Y-7.5
X243.91Y437.46
X297.52Y527.33
X354.81Y-7.5
X418.21Y444.76
X496.63Y355.07
X500.81Y-7.5
X555.82Y252.56
X594.28Y139.8
X610.43Y-6.0
M30
