M48
; DRILL file {KiCad 8.0.0} date 2024-05-02T10:16:04+0200
; FORMAT={-:-/ absolute / metric / decimal}
; #@! TF.CreationDate,2024-05-02T10:16:04+02:00
; #@! TF.GenerationSoftware,Kicad,Pcbnew,8.0.0
; #@! TF.FileFunction,MixedPlating,1,6
FMAT,2
METRIC
; #@! TA.AperFunction,Plated,PTH,ViaDrill
T1C0.300
; #@! TA.AperFunction,Plated,PTH,ComponentDrill
T2C0.500
; #@! TA.AperFunction,Plated,PTH,ComponentDrill
T3C3.200
; #@! TA.AperFunction,NonPlated,NPTH,ComponentDrill
T4C1.650
%
G90
G05
T1
X68.37Y-63.5
X68.37Y-78.05
X68.38Y-83.51
X68.39Y-68.53
X68.39Y-73.5
X68.5Y-38.5
X68.5Y-43.5
X68.5Y-48.5
X68.5Y-88.5
X68.5Y-93.5
X68.5Y-98.5
X68.5Y-103.5
X68.5Y-108.5
X68.5Y-113.5
X68.5Y-118.5
X68.5Y-123.5
X68.5Y-128.5
X68.5Y-133.5
X68.5Y-138.5
X68.5Y-143.5
X68.5Y-148.5
X71.25Y-44.41
X71.75Y-40.24
X72.25Y-39.3
X72.75Y-40.24
X73.25Y-39.3
X73.5Y-73.5
X73.5Y-78.5
X73.5Y-88.5
X73.5Y-93.5
X73.5Y-98.5
X73.5Y-103.5
X73.5Y-108.5
X73.5Y-113.5
X73.5Y-118.5
X73.5Y-123.5
X73.5Y-128.5
X73.5Y-133.5
X73.5Y-138.5
X73.5Y-153.5
X73.5Y-158.5
X73.78Y-40.23
X74.25Y-39.3
X74.75Y-40.23
X75.25Y-39.3
X75.7Y-74.0
X75.7Y-126.5
X75.7Y-130.0
X75.7Y-137.5
X75.75Y-40.23
X76.25Y-39.3
X76.5Y-74.8
X76.5Y-138.3
X76.75Y-40.23
X77.25Y-39.3
X77.3Y-74.0
X77.3Y-126.5
X77.3Y-130.03
X77.3Y-137.5
X77.75Y-40.23
X78.1Y-74.8
X78.1Y-138.3
X78.25Y-39.3
X78.5Y-143.5
X78.5Y-148.5
X78.5Y-158.5
X78.75Y-40.23
X78.9Y-74.0
X78.9Y-126.5
X78.9Y-130.04
X78.9Y-137.5
X79.25Y-39.3
X79.7Y-74.8
X79.7Y-138.3
X79.74Y-38.59
X79.74Y-44.41
X79.75Y-47.04
X80.25Y-39.3
X80.5Y-74.0
X80.5Y-126.5
X80.5Y-130.06
X80.5Y-137.5
X80.75Y-40.22
X81.25Y-39.3
X81.3Y-74.8
X81.3Y-138.3
X81.75Y-40.21
X82.1Y-74.0
X82.1Y-126.5
X82.1Y-130.07
X82.1Y-137.5
X82.25Y-39.3
X82.75Y-40.21
X82.9Y-74.8
X82.9Y-138.3
X83.25Y-39.3
X83.5Y-148.5
X83.5Y-153.5
X83.5Y-158.5
X83.7Y-74.0
X83.7Y-126.5
X83.7Y-130.08
X83.7Y-137.5
X83.75Y-40.2
X84.25Y-39.3
X84.5Y-74.8
X84.5Y-138.3
X84.75Y-40.19
X85.25Y-39.3
X85.3Y-74.0
X85.3Y-126.5
X85.3Y-130.08
X85.3Y-137.5
X85.75Y-40.18
X86.1Y-74.8
X86.1Y-138.3
X86.25Y-39.3
X86.75Y-40.17
X86.9Y-74.0
X86.9Y-126.5
X86.9Y-130.08
X86.9Y-137.5
X87.25Y-39.3
X87.7Y-74.8
X87.7Y-138.3
X87.75Y-40.16
X88.5Y-38.62
X88.5Y-46.92
X88.5Y-68.5
X88.5Y-74.0
X88.5Y-126.5
X88.5Y-130.09
X88.5Y-137.5
X88.5Y-148.5
X88.5Y-158.5
X88.51Y-63.06
X88.51Y-66.03
X88.52Y-44.55
X89.25Y-39.3
X89.25Y-48.44
X89.3Y-74.8
X89.3Y-138.3
X89.75Y-40.21
X89.75Y-44.28
X90.1Y-74.0
X90.1Y-126.5
X90.1Y-130.09
X90.1Y-137.5
X90.25Y-39.3
X90.25Y-47.6
X90.74Y-40.2
X90.75Y-48.43
X90.9Y-74.8
X90.9Y-138.3
X91.25Y-39.3
X91.25Y-44.02
X91.7Y-74.0
X91.7Y-126.5
X91.7Y-130.11
X91.7Y-137.5
X91.75Y-40.19
X91.75Y-47.6
X92.25Y-39.3
X92.5Y-74.8
X92.5Y-138.3
X92.75Y-40.21
X92.75Y-42.66
X92.75Y-43.52
X92.75Y-44.37
X93.25Y-39.3
X93.3Y-74.0
X93.3Y-126.5
X93.3Y-130.1
X93.3Y-137.5
X93.5Y-148.5
X93.5Y-158.5
X93.75Y-47.6
X93.76Y-40.21
X94.1Y-74.8
X94.1Y-138.3
X94.25Y-39.3
X94.75Y-40.23
X94.75Y-44.38
X94.78Y-43.54
X94.9Y-74.0
X94.9Y-126.5
X94.9Y-130.1
X94.9Y-137.5
X95.25Y-39.3
X95.25Y-47.6
X95.7Y-74.8
X95.7Y-138.3
X95.75Y-40.24
X96.25Y-39.3
X96.5Y-130.13
X96.5Y-74.0
X96.5Y-126.5
X96.5Y-137.5
X96.75Y-40.25
X96.75Y-48.05
X97.0Y-41.14
X97.01Y-41.96
X97.02Y-42.76
X97.02Y-43.58
X97.24Y-44.43
X97.25Y-39.3
X97.28Y-47.04
X97.3Y-74.8
X97.3Y-138.3
X97.75Y-40.27
X98.1Y-74.0
X98.1Y-126.5
X98.1Y-130.12
X98.1Y-137.5
X98.25Y-39.3
X98.5Y-143.5
X98.5Y-148.5
X98.5Y-158.5
X98.75Y-47.6
X98.76Y-40.29
X98.9Y-74.8
X98.9Y-138.3
X99.25Y-39.3
X99.7Y-74.0
X99.7Y-126.5
X99.7Y-130.12
X99.7Y-137.5
X99.74Y-43.53
X99.75Y-40.31
X99.75Y-44.4
X100.25Y-39.3
X100.25Y-47.6
X100.5Y-74.8
X100.5Y-138.3
X100.75Y-40.33
X100.75Y-44.38
X101.25Y-39.3
X101.26Y-43.51
X101.3Y-74.0
X101.3Y-126.5
X101.3Y-137.5
X101.75Y-40.34
X101.75Y-47.6
X101.92Y-42.68
X102.25Y-39.3
X102.75Y-40.34
X102.75Y-44.39
X103.25Y-39.3
X103.25Y-43.33
X103.5Y-63.5
X103.5Y-73.5
X103.5Y-78.5
X103.5Y-83.5
X103.5Y-88.5
X103.5Y-93.5
X103.5Y-98.5
X103.5Y-103.5
X103.5Y-108.5
X103.5Y-113.5
X103.5Y-118.5
X103.5Y-123.5
X103.5Y-128.5
X103.5Y-133.5
X103.5Y-138.5
X103.5Y-143.5
X103.5Y-148.5
X103.5Y-158.5
X103.72Y-40.35
X103.75Y-47.82
X104.25Y-39.3
X104.25Y-44.01
X104.75Y-47.11
X104.77Y-40.36
X105.25Y-39.3
X105.25Y-47.81
X105.75Y-44.44
X108.5Y-38.5
X108.5Y-58.5
X108.5Y-63.5
X108.5Y-68.5
X108.5Y-73.5
X108.5Y-78.5
X108.5Y-88.5
X108.5Y-93.5
X108.5Y-98.5
X108.5Y-108.5
X108.5Y-113.5
X108.5Y-118.5
X108.5Y-123.5
X108.5Y-128.5
X108.5Y-133.5
X108.5Y-138.5
T2
X108.5Y-103.5
T3
X68.5Y-53.5
X68.5Y-156.5
X73.4Y-82.2
X73.4Y-145.7
X107.4Y-82.2
X107.4Y-145.7
X108.5Y-53.5
X108.5Y-156.5
T4
X73.7Y-68.5
X73.7Y-132.0
X103.3Y-68.5
X103.3Y-132.0
M30
