G04 #@! TF.GenerationSoftware,KiCad,Pcbnew,8.0.0*
G04 #@! TF.CreationDate,2024-05-02T10:20:30+02:00*
G04 #@! TF.ProjectId,Fx2Mec8,4678324d-6563-4382-9e6b-696361645f70,rev?*
G04 #@! TF.SameCoordinates,Original*
G04 #@! TF.FileFunction,Soldermask,Bot*
G04 #@! TF.FilePolarity,Negative*
%FSLAX46Y46*%
G04 Gerber Fmt 4.6, Leading zero omitted, Abs format (unit mm)*
G04 Created by KiCad (PCBNEW 8.0.0) date 2024-05-02 10:20:30*
%MOMM*%
%LPD*%
G01*
G04 APERTURE LIST*
G04 Aperture macros list*
%AMRoundRect*
0 Rectangle with rounded corners*
0 $1 Rounding radius*
0 $2 $3 $4 $5 $6 $7 $8 $9 X,Y pos of 4 corners*
0 Add a 4 corners polygon primitive as box body*
4,1,4,$2,$3,$4,$5,$6,$7,$8,$9,$2,$3,0*
0 Add four circle primitives for the rounded corners*
1,1,$1+$1,$2,$3*
1,1,$1+$1,$4,$5*
1,1,$1+$1,$6,$7*
1,1,$1+$1,$8,$9*
0 Add four rect primitives between the rounded corners*
20,1,$1+$1,$2,$3,$4,$5,0*
20,1,$1+$1,$4,$5,$6,$7,0*
20,1,$1+$1,$6,$7,$8,$9,0*
20,1,$1+$1,$8,$9,$2,$3,0*%
G04 Aperture macros list end*
%ADD10C,0.520000*%
%ADD11C,0.300000*%
%ADD12C,6.400000*%
%ADD13C,1.000000*%
%ADD14C,1.650000*%
%ADD15RoundRect,0.050000X-0.150000X-0.900000X0.150000X-0.900000X0.150000X0.900000X-0.150000X0.900000X0*%
%ADD16RoundRect,0.050000X-1.500000X-1.600000X1.500000X-1.600000X1.500000X1.600000X-1.500000X1.600000X0*%
%ADD17C,0.550000*%
G04 #@! TA.AperFunction,Profile*
%ADD18C,0.010000*%
G04 #@! TD*
G04 APERTURE END LIST*
D10*
X63500000Y-35500000D02*
X113500000Y-35500000D01*
X113500000Y-161500000D01*
X63500000Y-161500000D01*
X63500000Y-35500000D01*
D11*
X63663571Y-24573328D02*
X64163571Y-26073328D01*
X64163571Y-26073328D02*
X64663571Y-24573328D01*
X65163570Y-25287614D02*
X65663570Y-25287614D01*
X65877856Y-26073328D02*
X65163570Y-26073328D01*
X65163570Y-26073328D02*
X65163570Y-24573328D01*
X65163570Y-24573328D02*
X65877856Y-24573328D01*
X67377856Y-26073328D02*
X66877856Y-25359042D01*
X66520713Y-26073328D02*
X66520713Y-24573328D01*
X66520713Y-24573328D02*
X67092142Y-24573328D01*
X67092142Y-24573328D02*
X67234999Y-24644757D01*
X67234999Y-24644757D02*
X67306428Y-24716185D01*
X67306428Y-24716185D02*
X67377856Y-24859042D01*
X67377856Y-24859042D02*
X67377856Y-25073328D01*
X67377856Y-25073328D02*
X67306428Y-25216185D01*
X67306428Y-25216185D02*
X67234999Y-25287614D01*
X67234999Y-25287614D02*
X67092142Y-25359042D01*
X67092142Y-25359042D02*
X66520713Y-25359042D01*
X68020713Y-26073328D02*
X68020713Y-24573328D01*
X68020713Y-24573328D02*
X68877856Y-26073328D01*
X68877856Y-26073328D02*
X68877856Y-24573328D01*
X69592142Y-26073328D02*
X69592142Y-24573328D01*
X70235000Y-26001900D02*
X70449286Y-26073328D01*
X70449286Y-26073328D02*
X70806428Y-26073328D01*
X70806428Y-26073328D02*
X70949286Y-26001900D01*
X70949286Y-26001900D02*
X71020714Y-25930471D01*
X71020714Y-25930471D02*
X71092143Y-25787614D01*
X71092143Y-25787614D02*
X71092143Y-25644757D01*
X71092143Y-25644757D02*
X71020714Y-25501900D01*
X71020714Y-25501900D02*
X70949286Y-25430471D01*
X70949286Y-25430471D02*
X70806428Y-25359042D01*
X70806428Y-25359042D02*
X70520714Y-25287614D01*
X70520714Y-25287614D02*
X70377857Y-25216185D01*
X70377857Y-25216185D02*
X70306428Y-25144757D01*
X70306428Y-25144757D02*
X70235000Y-25001900D01*
X70235000Y-25001900D02*
X70235000Y-24859042D01*
X70235000Y-24859042D02*
X70306428Y-24716185D01*
X70306428Y-24716185D02*
X70377857Y-24644757D01*
X70377857Y-24644757D02*
X70520714Y-24573328D01*
X70520714Y-24573328D02*
X70877857Y-24573328D01*
X70877857Y-24573328D02*
X71092143Y-24644757D01*
X72877856Y-25287614D02*
X73377856Y-25287614D01*
X73592142Y-26073328D02*
X72877856Y-26073328D01*
X72877856Y-26073328D02*
X72877856Y-24573328D01*
X72877856Y-24573328D02*
X73592142Y-24573328D01*
X74234999Y-26073328D02*
X74234999Y-24573328D01*
X74234999Y-24573328D02*
X74806428Y-24573328D01*
X74806428Y-24573328D02*
X74949285Y-24644757D01*
X74949285Y-24644757D02*
X75020714Y-24716185D01*
X75020714Y-24716185D02*
X75092142Y-24859042D01*
X75092142Y-24859042D02*
X75092142Y-25073328D01*
X75092142Y-25073328D02*
X75020714Y-25216185D01*
X75020714Y-25216185D02*
X74949285Y-25287614D01*
X74949285Y-25287614D02*
X74806428Y-25359042D01*
X74806428Y-25359042D02*
X74234999Y-25359042D01*
X75663571Y-25644757D02*
X76377857Y-25644757D01*
X75520714Y-26073328D02*
X76020714Y-24573328D01*
X76020714Y-24573328D02*
X76520714Y-26073328D01*
X77877856Y-26073328D02*
X77377856Y-25359042D01*
X77020713Y-26073328D02*
X77020713Y-24573328D01*
X77020713Y-24573328D02*
X77592142Y-24573328D01*
X77592142Y-24573328D02*
X77734999Y-24644757D01*
X77734999Y-24644757D02*
X77806428Y-24716185D01*
X77806428Y-24716185D02*
X77877856Y-24859042D01*
X77877856Y-24859042D02*
X77877856Y-25073328D01*
X77877856Y-25073328D02*
X77806428Y-25216185D01*
X77806428Y-25216185D02*
X77734999Y-25287614D01*
X77734999Y-25287614D02*
X77592142Y-25359042D01*
X77592142Y-25359042D02*
X77020713Y-25359042D01*
X79306428Y-24644757D02*
X79163571Y-24573328D01*
X79163571Y-24573328D02*
X78949285Y-24573328D01*
X78949285Y-24573328D02*
X78734999Y-24644757D01*
X78734999Y-24644757D02*
X78592142Y-24787614D01*
X78592142Y-24787614D02*
X78520713Y-24930471D01*
X78520713Y-24930471D02*
X78449285Y-25216185D01*
X78449285Y-25216185D02*
X78449285Y-25430471D01*
X78449285Y-25430471D02*
X78520713Y-25716185D01*
X78520713Y-25716185D02*
X78592142Y-25859042D01*
X78592142Y-25859042D02*
X78734999Y-26001900D01*
X78734999Y-26001900D02*
X78949285Y-26073328D01*
X78949285Y-26073328D02*
X79092142Y-26073328D01*
X79092142Y-26073328D02*
X79306428Y-26001900D01*
X79306428Y-26001900D02*
X79377856Y-25930471D01*
X79377856Y-25930471D02*
X79377856Y-25430471D01*
X79377856Y-25430471D02*
X79092142Y-25430471D01*
X80020713Y-26073328D02*
X80020713Y-24573328D01*
X80020713Y-24573328D02*
X80877856Y-26073328D01*
X80877856Y-26073328D02*
X80877856Y-24573328D01*
X81592142Y-25287614D02*
X82092142Y-25287614D01*
X82306428Y-26073328D02*
X81592142Y-26073328D01*
X81592142Y-26073328D02*
X81592142Y-24573328D01*
X81592142Y-24573328D02*
X82306428Y-24573328D01*
X84592142Y-25287614D02*
X84806428Y-25359042D01*
X84806428Y-25359042D02*
X84877857Y-25430471D01*
X84877857Y-25430471D02*
X84949285Y-25573328D01*
X84949285Y-25573328D02*
X84949285Y-25787614D01*
X84949285Y-25787614D02*
X84877857Y-25930471D01*
X84877857Y-25930471D02*
X84806428Y-26001900D01*
X84806428Y-26001900D02*
X84663571Y-26073328D01*
X84663571Y-26073328D02*
X84092142Y-26073328D01*
X84092142Y-26073328D02*
X84092142Y-24573328D01*
X84092142Y-24573328D02*
X84592142Y-24573328D01*
X84592142Y-24573328D02*
X84735000Y-24644757D01*
X84735000Y-24644757D02*
X84806428Y-24716185D01*
X84806428Y-24716185D02*
X84877857Y-24859042D01*
X84877857Y-24859042D02*
X84877857Y-25001900D01*
X84877857Y-25001900D02*
X84806428Y-25144757D01*
X84806428Y-25144757D02*
X84735000Y-25216185D01*
X84735000Y-25216185D02*
X84592142Y-25287614D01*
X84592142Y-25287614D02*
X84092142Y-25287614D01*
X85877857Y-24573328D02*
X86163571Y-24573328D01*
X86163571Y-24573328D02*
X86306428Y-24644757D01*
X86306428Y-24644757D02*
X86449285Y-24787614D01*
X86449285Y-24787614D02*
X86520714Y-25073328D01*
X86520714Y-25073328D02*
X86520714Y-25573328D01*
X86520714Y-25573328D02*
X86449285Y-25859042D01*
X86449285Y-25859042D02*
X86306428Y-26001900D01*
X86306428Y-26001900D02*
X86163571Y-26073328D01*
X86163571Y-26073328D02*
X85877857Y-26073328D01*
X85877857Y-26073328D02*
X85735000Y-26001900D01*
X85735000Y-26001900D02*
X85592142Y-25859042D01*
X85592142Y-25859042D02*
X85520714Y-25573328D01*
X85520714Y-25573328D02*
X85520714Y-25073328D01*
X85520714Y-25073328D02*
X85592142Y-24787614D01*
X85592142Y-24787614D02*
X85735000Y-24644757D01*
X85735000Y-24644757D02*
X85877857Y-24573328D01*
X86949286Y-24573328D02*
X87806429Y-24573328D01*
X87377857Y-26073328D02*
X87377857Y-24573328D01*
X88092143Y-24573328D02*
X88949286Y-24573328D01*
X88520714Y-26073328D02*
X88520714Y-24573328D01*
X89735000Y-24573328D02*
X90020714Y-24573328D01*
X90020714Y-24573328D02*
X90163571Y-24644757D01*
X90163571Y-24644757D02*
X90306428Y-24787614D01*
X90306428Y-24787614D02*
X90377857Y-25073328D01*
X90377857Y-25073328D02*
X90377857Y-25573328D01*
X90377857Y-25573328D02*
X90306428Y-25859042D01*
X90306428Y-25859042D02*
X90163571Y-26001900D01*
X90163571Y-26001900D02*
X90020714Y-26073328D01*
X90020714Y-26073328D02*
X89735000Y-26073328D01*
X89735000Y-26073328D02*
X89592143Y-26001900D01*
X89592143Y-26001900D02*
X89449285Y-25859042D01*
X89449285Y-25859042D02*
X89377857Y-25573328D01*
X89377857Y-25573328D02*
X89377857Y-25073328D01*
X89377857Y-25073328D02*
X89449285Y-24787614D01*
X89449285Y-24787614D02*
X89592143Y-24644757D01*
X89592143Y-24644757D02*
X89735000Y-24573328D01*
X91020714Y-26073328D02*
X91020714Y-24573328D01*
X91020714Y-24573328D02*
X91520714Y-25644757D01*
X91520714Y-25644757D02*
X92020714Y-24573328D01*
X92020714Y-24573328D02*
X92020714Y-26073328D01*
X93877857Y-26073328D02*
X93877857Y-24573328D01*
X93877857Y-24573328D02*
X94735000Y-26073328D01*
X94735000Y-26073328D02*
X94735000Y-24573328D01*
X95449286Y-25930471D02*
X95520715Y-26001900D01*
X95520715Y-26001900D02*
X95449286Y-26073328D01*
X95449286Y-26073328D02*
X95377858Y-26001900D01*
X95377858Y-26001900D02*
X95449286Y-25930471D01*
X95449286Y-25930471D02*
X95449286Y-26073328D01*
X95449286Y-25144757D02*
X95520715Y-25216185D01*
X95520715Y-25216185D02*
X95449286Y-25287614D01*
X95449286Y-25287614D02*
X95377858Y-25216185D01*
X95377858Y-25216185D02*
X95449286Y-25144757D01*
X95449286Y-25144757D02*
X95449286Y-25287614D01*
X96163572Y-26073328D02*
X96163572Y-24573328D01*
X97020715Y-26073328D02*
X96377858Y-25216185D01*
X97020715Y-24573328D02*
X96163572Y-25430471D01*
X98377858Y-24573328D02*
X97663572Y-24573328D01*
X97663572Y-24573328D02*
X97592144Y-25287614D01*
X97592144Y-25287614D02*
X97663572Y-25216185D01*
X97663572Y-25216185D02*
X97806430Y-25144757D01*
X97806430Y-25144757D02*
X98163572Y-25144757D01*
X98163572Y-25144757D02*
X98306430Y-25216185D01*
X98306430Y-25216185D02*
X98377858Y-25287614D01*
X98377858Y-25287614D02*
X98449287Y-25430471D01*
X98449287Y-25430471D02*
X98449287Y-25787614D01*
X98449287Y-25787614D02*
X98377858Y-25930471D01*
X98377858Y-25930471D02*
X98306430Y-26001900D01*
X98306430Y-26001900D02*
X98163572Y-26073328D01*
X98163572Y-26073328D02*
X97806430Y-26073328D01*
X97806430Y-26073328D02*
X97663572Y-26001900D01*
X97663572Y-26001900D02*
X97592144Y-25930471D01*
X99163572Y-26073328D02*
X99449286Y-26073328D01*
X99449286Y-26073328D02*
X99592143Y-26001900D01*
X99592143Y-26001900D02*
X99663572Y-25930471D01*
X99663572Y-25930471D02*
X99806429Y-25716185D01*
X99806429Y-25716185D02*
X99877858Y-25430471D01*
X99877858Y-25430471D02*
X99877858Y-24859042D01*
X99877858Y-24859042D02*
X99806429Y-24716185D01*
X99806429Y-24716185D02*
X99735001Y-24644757D01*
X99735001Y-24644757D02*
X99592143Y-24573328D01*
X99592143Y-24573328D02*
X99306429Y-24573328D01*
X99306429Y-24573328D02*
X99163572Y-24644757D01*
X99163572Y-24644757D02*
X99092143Y-24716185D01*
X99092143Y-24716185D02*
X99020715Y-24859042D01*
X99020715Y-24859042D02*
X99020715Y-25216185D01*
X99020715Y-25216185D02*
X99092143Y-25359042D01*
X99092143Y-25359042D02*
X99163572Y-25430471D01*
X99163572Y-25430471D02*
X99306429Y-25501900D01*
X99306429Y-25501900D02*
X99592143Y-25501900D01*
X99592143Y-25501900D02*
X99735001Y-25430471D01*
X99735001Y-25430471D02*
X99806429Y-25359042D01*
X99806429Y-25359042D02*
X99877858Y-25216185D01*
X100306429Y-24573328D02*
X100806429Y-26073328D01*
X100806429Y-26073328D02*
X101306429Y-24573328D01*
D12*
X107400000Y-145700000D03*
X108500000Y-53500000D03*
X68500000Y-156500000D03*
D13*
X108500000Y-103500000D03*
D12*
X108500000Y-156500000D03*
X73400000Y-145700000D03*
X107400000Y-82200000D03*
X73400000Y-82200000D03*
X68500000Y-53500000D03*
D14*
X73700000Y-132000000D03*
X103300000Y-132000000D03*
X73700000Y-68500000D03*
X103300000Y-68500000D03*
D13*
X68500000Y-58500000D03*
D15*
X71250000Y-45725000D03*
X71250000Y-37425000D03*
X71750000Y-45725000D03*
X71750000Y-37425000D03*
X72250000Y-45725000D03*
X72250000Y-37425000D03*
X72750000Y-45725000D03*
X72750000Y-37425000D03*
X73250000Y-45725000D03*
X73250000Y-37425000D03*
X73750000Y-45725000D03*
X73750000Y-37425000D03*
X74250000Y-45725000D03*
X74250000Y-37425000D03*
X74750000Y-45725000D03*
X74750000Y-37425000D03*
X75250000Y-45725000D03*
X75250000Y-37425000D03*
X75750000Y-45725000D03*
X75750000Y-37425000D03*
X76250000Y-45725000D03*
X76250000Y-37425000D03*
X76750000Y-45725000D03*
X76750000Y-37425000D03*
X77250000Y-45725000D03*
X77250000Y-37425000D03*
X77750000Y-45725000D03*
X77750000Y-37425000D03*
X78250000Y-45725000D03*
X78250000Y-37425000D03*
X78750000Y-45725000D03*
X78750000Y-37425000D03*
X79250000Y-45725000D03*
X79250000Y-37425000D03*
X79750000Y-45725000D03*
X79750000Y-37425000D03*
X80250000Y-45725000D03*
X80250000Y-37425000D03*
X80750000Y-45725000D03*
X80750000Y-37425000D03*
X81250000Y-45725000D03*
X81250000Y-37425000D03*
X81750000Y-45725000D03*
X81750000Y-37425000D03*
X82250000Y-45725000D03*
X82250000Y-37425000D03*
X82750000Y-45725000D03*
X82750000Y-37425000D03*
X83250000Y-45725000D03*
X83250000Y-37425000D03*
X83750000Y-45725000D03*
X83750000Y-37425000D03*
X84250000Y-45725000D03*
X84250000Y-37425000D03*
X84750000Y-45725000D03*
X84750000Y-37425000D03*
X85250000Y-45725000D03*
X85250000Y-37425000D03*
X85750000Y-45725000D03*
X85750000Y-37425000D03*
X86250000Y-45725000D03*
X86250000Y-37425000D03*
X86750000Y-45725000D03*
X86750000Y-37425000D03*
X87250000Y-45725000D03*
X87250000Y-37425000D03*
X87750000Y-45725000D03*
X87750000Y-37425000D03*
X88250000Y-45725000D03*
X88250000Y-37425000D03*
X88750000Y-45725000D03*
X88750000Y-37425000D03*
X89250000Y-45725000D03*
X89250000Y-37425000D03*
X89750000Y-45725000D03*
X89750000Y-37425000D03*
X90250000Y-45725000D03*
X90250000Y-37425000D03*
X90750000Y-45725000D03*
X90750000Y-37425000D03*
X91250000Y-45725000D03*
X91250000Y-37425000D03*
X91750000Y-45725000D03*
X91750000Y-37425000D03*
X92250000Y-45725000D03*
X92250000Y-37425000D03*
X92750000Y-45725000D03*
X92750000Y-37425000D03*
X93250000Y-45725000D03*
X93250000Y-37425000D03*
X93750000Y-45725000D03*
X93750000Y-37425000D03*
X94250000Y-45725000D03*
X94250000Y-37425000D03*
X94750000Y-45725000D03*
X94750000Y-37425000D03*
X95250000Y-45725000D03*
X95250000Y-37425000D03*
X95750000Y-45725000D03*
X95750000Y-37425000D03*
X96250000Y-45725000D03*
X96250000Y-37425000D03*
X96750000Y-45725000D03*
X96750000Y-37425000D03*
X97250000Y-45725000D03*
X97250000Y-37425000D03*
X97750000Y-45725000D03*
X97750000Y-37425000D03*
X98250000Y-45725000D03*
X98250000Y-37425000D03*
X98750000Y-45725000D03*
X98750000Y-37425000D03*
X99250000Y-45725000D03*
X99250000Y-37425000D03*
X99750000Y-45725000D03*
X99750000Y-37425000D03*
X100250000Y-45725000D03*
X100250000Y-37425000D03*
X100750000Y-45725000D03*
X100750000Y-37425000D03*
X101250000Y-45725000D03*
X101250000Y-37425000D03*
X101750000Y-45725000D03*
X101750000Y-37425000D03*
X102250000Y-45725000D03*
X102250000Y-37425000D03*
X102750000Y-45725000D03*
X102750000Y-37425000D03*
X103250000Y-45725000D03*
X103250000Y-37425000D03*
X103750000Y-45725000D03*
X103750000Y-37425000D03*
X104250000Y-45725000D03*
X104250000Y-37425000D03*
X104750000Y-45725000D03*
X104750000Y-37425000D03*
X105250000Y-45725000D03*
X105250000Y-37425000D03*
X105750000Y-45725000D03*
X105750000Y-37425000D03*
D16*
X65500000Y-39875000D03*
X111500000Y-39875000D03*
D13*
X68500000Y-151500000D03*
X108500000Y-151500000D03*
D17*
X79750000Y-47040000D03*
X79740000Y-44410000D03*
X88500000Y-68500000D03*
X98500000Y-148500000D03*
X108500000Y-123500000D03*
X103500000Y-78500000D03*
X68500000Y-108500000D03*
X73500000Y-73500000D03*
X88510000Y-66030000D03*
X68500000Y-103500000D03*
X103500000Y-88500000D03*
X73500000Y-128500000D03*
X105750000Y-44440000D03*
X83500000Y-148500000D03*
X97240000Y-44430000D03*
X108500000Y-58500000D03*
X79740000Y-38590000D03*
X68500000Y-148500000D03*
X88500000Y-74000000D03*
X108500000Y-93500000D03*
X88520000Y-44550000D03*
X68500000Y-118500000D03*
X108500000Y-108500000D03*
X93500000Y-148500000D03*
X78500000Y-158500000D03*
X103500000Y-103500000D03*
X68500000Y-143500000D03*
X88500000Y-148500000D03*
X103500000Y-93500000D03*
X73500000Y-98500000D03*
X103500000Y-138500000D03*
X73500000Y-123500000D03*
X71250000Y-44410000D03*
X108500000Y-68500000D03*
X103500000Y-148500000D03*
X108500000Y-128500000D03*
X78500000Y-148500000D03*
X73500000Y-138500000D03*
X68500000Y-133500000D03*
X108500000Y-88500000D03*
X73500000Y-103500000D03*
X68500000Y-88500000D03*
X88500000Y-158500000D03*
X108500000Y-78500000D03*
X73500000Y-78500000D03*
X88500000Y-38620000D03*
X103500000Y-133500000D03*
X108500000Y-113500000D03*
X88510000Y-63060000D03*
X108500000Y-38500000D03*
X73500000Y-153500000D03*
X68390000Y-68530000D03*
X97250000Y-39300000D03*
X68500000Y-93500000D03*
X68500000Y-38500000D03*
X68500000Y-138500000D03*
X103500000Y-158500000D03*
X88500000Y-126500000D03*
X103500000Y-98500000D03*
X68370000Y-78050000D03*
X68500000Y-113500000D03*
X88500000Y-46920000D03*
X83500000Y-158500000D03*
X103500000Y-143500000D03*
X73500000Y-133500000D03*
X68500000Y-43500000D03*
X73500000Y-158500000D03*
X108500000Y-98500000D03*
X98500000Y-143500000D03*
X73500000Y-93500000D03*
X103500000Y-123500000D03*
X108500000Y-118500000D03*
X108500000Y-73500000D03*
X68500000Y-123500000D03*
X83500000Y-153500000D03*
X108500000Y-133500000D03*
X73500000Y-113500000D03*
X108500000Y-63500000D03*
X68380000Y-83510000D03*
X68370000Y-63500000D03*
X73500000Y-108500000D03*
X103500000Y-108500000D03*
X103500000Y-63500000D03*
X98500000Y-158500000D03*
X103500000Y-128500000D03*
X68500000Y-48500000D03*
X97280000Y-47040000D03*
X88500000Y-137500000D03*
X103500000Y-83500000D03*
X78500000Y-143500000D03*
X103500000Y-73500000D03*
X73500000Y-118500000D03*
X103500000Y-113500000D03*
X93500000Y-158500000D03*
X68390000Y-73500000D03*
X103500000Y-118500000D03*
X108500000Y-138500000D03*
X68500000Y-98500000D03*
X73500000Y-88500000D03*
X68500000Y-128500000D03*
X96499999Y-130130000D03*
X73250000Y-39300000D03*
X78100000Y-138300000D03*
X100250000Y-47600000D03*
X101300000Y-126500000D03*
X91250000Y-44020000D03*
X104250000Y-44010000D03*
X105250000Y-47810000D03*
X94750000Y-44380000D03*
X94900000Y-74000000D03*
X101250000Y-39300000D03*
X76500000Y-74800000D03*
X89750000Y-40210000D03*
X98760000Y-40290000D03*
X90900000Y-74800000D03*
X83250000Y-39300000D03*
X94100000Y-138300000D03*
X93300000Y-130100000D03*
X78900000Y-126500000D03*
X75700000Y-130000000D03*
X101920000Y-42680000D03*
X77300000Y-137500000D03*
X72750000Y-40240000D03*
X82900000Y-74800000D03*
X93760000Y-40210000D03*
X101750000Y-47600000D03*
X74750000Y-40230000D03*
X80500000Y-137500000D03*
X102250000Y-39300000D03*
X96500000Y-74000000D03*
X95250000Y-47600000D03*
X97010000Y-41960000D03*
X80500000Y-130060000D03*
X85300000Y-130080000D03*
X78100000Y-74800000D03*
X90740000Y-40200000D03*
X91750000Y-47600000D03*
X90100000Y-130090000D03*
X90250000Y-47600000D03*
X77300000Y-74000000D03*
X90250000Y-39300000D03*
X104750000Y-47110000D03*
X83700000Y-126500000D03*
X99250000Y-39300000D03*
X91700000Y-74000000D03*
X77250000Y-39300000D03*
X84500000Y-138300001D03*
X92750000Y-42660000D03*
X94100000Y-74800000D03*
X100750000Y-40330000D03*
X86900000Y-130080000D03*
X96750000Y-40250000D03*
X87700000Y-74800000D03*
X83700000Y-130080000D03*
X86100000Y-138300001D03*
X78250000Y-39300000D03*
X90750000Y-48430000D03*
X75700000Y-126500000D03*
X85250000Y-39300000D03*
X97299999Y-138300000D03*
X89250000Y-39300000D03*
X75700000Y-74000000D03*
X102750000Y-40340000D03*
X97299999Y-74800000D03*
X85300000Y-126500000D03*
X99740000Y-43530000D03*
X103250000Y-39300000D03*
X98100000Y-74000000D03*
X91700000Y-130110000D03*
X81300000Y-74800000D03*
X92750000Y-40210000D03*
X80750000Y-40220000D03*
X90100000Y-137500000D03*
X98100000Y-126500000D03*
X103250000Y-43330000D03*
X85300000Y-137500000D03*
X77750000Y-40230000D03*
X98100000Y-130120000D03*
X74250000Y-39300000D03*
X79700000Y-138300000D03*
X78750000Y-40230000D03*
X86900000Y-137500000D03*
X94900000Y-130100000D03*
X94780000Y-43540000D03*
X81250000Y-39300000D03*
X90900000Y-138300000D03*
X93750000Y-47600000D03*
X91250000Y-39300000D03*
X78900000Y-74000000D03*
X95700000Y-138300001D03*
X84250000Y-39300000D03*
X82100000Y-126500000D03*
X73780000Y-40230000D03*
X78900000Y-137500000D03*
X97020000Y-42760000D03*
X92750000Y-44370000D03*
X99750000Y-44400000D03*
X82750000Y-40210000D03*
X93300000Y-137500000D03*
X99700000Y-130120000D03*
X101300000Y-137500000D03*
X87750000Y-40160000D03*
X89250000Y-48440000D03*
X86250000Y-39300000D03*
X98900000Y-138300000D03*
X86100000Y-74800001D03*
X95750000Y-40240000D03*
X93300000Y-126500000D03*
X103750000Y-47820000D03*
X99700000Y-137500000D03*
X86750000Y-40170000D03*
X91700000Y-126500000D03*
X94750000Y-40230000D03*
X84500000Y-74800001D03*
X77300000Y-126500000D03*
X100500000Y-138300000D03*
X87250000Y-39300000D03*
X82100000Y-130070000D03*
X82900000Y-138300000D03*
X76250000Y-39300000D03*
X85300000Y-74000000D03*
X95250000Y-39300000D03*
X102750000Y-44390000D03*
X88500000Y-130090000D03*
X90100000Y-74000000D03*
X98250000Y-39300000D03*
X100250000Y-39300000D03*
X93300000Y-74000000D03*
X89750000Y-44280000D03*
X75250000Y-39300000D03*
X81300000Y-138300000D03*
X99700000Y-126500000D03*
X78900000Y-130040000D03*
X83750000Y-40200000D03*
X94900000Y-137500000D03*
X87700000Y-138300000D03*
X79250000Y-39300000D03*
X92250000Y-39300000D03*
X80500000Y-74000000D03*
X81750000Y-40210000D03*
X91700000Y-137500000D03*
X83700000Y-137500000D03*
X76750000Y-40230000D03*
X104770000Y-40360000D03*
X100500000Y-74800000D03*
X86900000Y-126500000D03*
X75700000Y-137500000D03*
X71750000Y-40240000D03*
X99700000Y-74000000D03*
X104250000Y-39300000D03*
X105250000Y-39300000D03*
X101300000Y-74000000D03*
X82100000Y-74000000D03*
X93250000Y-39300000D03*
X96750000Y-48050000D03*
X94900000Y-126500000D03*
X100750000Y-44380000D03*
X83700000Y-74000000D03*
X94250000Y-39300000D03*
X85750000Y-40180000D03*
X98100000Y-137500000D03*
X97020000Y-43580000D03*
X101750000Y-40340000D03*
X95700000Y-74800001D03*
X72250000Y-39300000D03*
X76500000Y-138300000D03*
X75750000Y-40230000D03*
X82100000Y-137500000D03*
X77300000Y-130030000D03*
X98900000Y-74800000D03*
X103720000Y-40350000D03*
X96500000Y-126500000D03*
X92750000Y-43520000D03*
X80250000Y-39300000D03*
X89300000Y-138300000D03*
X101260000Y-43510000D03*
X90100000Y-126500000D03*
X86900000Y-74000000D03*
X96250000Y-39300000D03*
X80500000Y-126500000D03*
X89300000Y-74800000D03*
X97750000Y-40270000D03*
X92500000Y-138300000D03*
X82250000Y-39300000D03*
X84750000Y-40190000D03*
X96500000Y-137500000D03*
X91750000Y-40190000D03*
X79700000Y-74800000D03*
X92500000Y-74800000D03*
X99750000Y-40310000D03*
X98750000Y-47600000D03*
X97000000Y-41140000D03*
D18*
X63500000Y-35500000D02*
X113500000Y-35500000D01*
X113500000Y-161500000D01*
X63500000Y-161500000D01*
X63500000Y-35500000D01*
M02*
