G04 #@! TF.GenerationSoftware,KiCad,Pcbnew,8.0.0*
G04 #@! TF.CreationDate,2024-05-02T10:20:30+02:00*
G04 #@! TF.ProjectId,Fx2Mec8,4678324d-6563-4382-9e6b-696361645f70,rev?*
G04 #@! TF.SameCoordinates,Original*
G04 #@! TF.FileFunction,Copper,L2,Inr*
G04 #@! TF.FilePolarity,Positive*
%FSLAX46Y46*%
G04 Gerber Fmt 4.6, Leading zero omitted, Abs format (unit mm)*
G04 Created by KiCad (PCBNEW 8.0.0) date 2024-05-02 10:20:30*
%MOMM*%
%LPD*%
G01*
G04 APERTURE LIST*
G04 #@! TA.AperFunction,NonConductor*
%ADD10C,0.200000*%
G04 #@! TD*
%ADD11C,0.150000*%
G04 #@! TA.AperFunction,NonConductor*
%ADD12C,0.150000*%
G04 #@! TD*
G04 #@! TA.AperFunction,ComponentPad*
%ADD13C,6.400000*%
G04 #@! TD*
G04 #@! TA.AperFunction,ComponentPad*
%ADD14C,1.000000*%
G04 #@! TD*
G04 #@! TA.AperFunction,ViaPad*
%ADD15C,0.550000*%
G04 #@! TD*
G04 #@! TA.AperFunction,Conductor*
%ADD16C,0.125000*%
G04 #@! TD*
G04 #@! TA.AperFunction,Profile*
%ADD17C,0.010000*%
G04 #@! TD*
G04 APERTURE END LIST*
D10*
X98820000Y-152745000D02*
X100620000Y-152745000D01*
X97020000Y-154545000D02*
X95220000Y-154545000D01*
X95220000Y-152745000D02*
X97020000Y-152745000D01*
X102420000Y-154545000D02*
X100620000Y-154545000D01*
X100620000Y-152745000D02*
X102420000Y-152745000D01*
X104220000Y-154545000D02*
X102420000Y-154545000D01*
X102420000Y-152745000D02*
X102420000Y-154545000D01*
X95220000Y-154545000D02*
X93420000Y-154545000D01*
X97020000Y-152745000D02*
X97020000Y-154545000D01*
X93420000Y-154545000D02*
X93420000Y-152745000D01*
X97020000Y-152745000D02*
X98820000Y-152745000D01*
X104220000Y-152745000D02*
X104220000Y-154545000D01*
X100620000Y-154545000D02*
X98820000Y-154545000D01*
X98820000Y-152745000D02*
X98820000Y-154545000D01*
X95220000Y-152745000D02*
X95220000Y-154545000D01*
X98820000Y-154545000D02*
X97020000Y-154545000D01*
X93420000Y-152745000D02*
X95220000Y-152745000D01*
X100620000Y-152745000D02*
X100620000Y-154545000D01*
X102420000Y-152745000D02*
X104220000Y-152745000D01*
D11*
D12*
X86699160Y-156892200D02*
X86842017Y-156939819D01*
X86842017Y-156939819D02*
X87080112Y-156939819D01*
X87080112Y-156939819D02*
X87175350Y-156892200D01*
X87175350Y-156892200D02*
X87222969Y-156844580D01*
X87222969Y-156844580D02*
X87270588Y-156749342D01*
X87270588Y-156749342D02*
X87270588Y-156654104D01*
X87270588Y-156654104D02*
X87222969Y-156558866D01*
X87222969Y-156558866D02*
X87175350Y-156511247D01*
X87175350Y-156511247D02*
X87080112Y-156463628D01*
X87080112Y-156463628D02*
X86889636Y-156416009D01*
X86889636Y-156416009D02*
X86794398Y-156368390D01*
X86794398Y-156368390D02*
X86746779Y-156320771D01*
X86746779Y-156320771D02*
X86699160Y-156225533D01*
X86699160Y-156225533D02*
X86699160Y-156130295D01*
X86699160Y-156130295D02*
X86746779Y-156035057D01*
X86746779Y-156035057D02*
X86794398Y-155987438D01*
X86794398Y-155987438D02*
X86889636Y-155939819D01*
X86889636Y-155939819D02*
X87127731Y-155939819D01*
X87127731Y-155939819D02*
X87270588Y-155987438D01*
X87699160Y-156939819D02*
X87699160Y-155939819D01*
X88699159Y-155987438D02*
X88603921Y-155939819D01*
X88603921Y-155939819D02*
X88461064Y-155939819D01*
X88461064Y-155939819D02*
X88318207Y-155987438D01*
X88318207Y-155987438D02*
X88222969Y-156082676D01*
X88222969Y-156082676D02*
X88175350Y-156177914D01*
X88175350Y-156177914D02*
X88127731Y-156368390D01*
X88127731Y-156368390D02*
X88127731Y-156511247D01*
X88127731Y-156511247D02*
X88175350Y-156701723D01*
X88175350Y-156701723D02*
X88222969Y-156796961D01*
X88222969Y-156796961D02*
X88318207Y-156892200D01*
X88318207Y-156892200D02*
X88461064Y-156939819D01*
X88461064Y-156939819D02*
X88556302Y-156939819D01*
X88556302Y-156939819D02*
X88699159Y-156892200D01*
X88699159Y-156892200D02*
X88746778Y-156844580D01*
X88746778Y-156844580D02*
X88746778Y-156511247D01*
X88746778Y-156511247D02*
X88556302Y-156511247D01*
X88937255Y-157035057D02*
X89699159Y-157035057D01*
X90461064Y-156939819D02*
X89889636Y-156939819D01*
X90175350Y-156939819D02*
X90175350Y-155939819D01*
X90175350Y-155939819D02*
X90080112Y-156082676D01*
X90080112Y-156082676D02*
X89984874Y-156177914D01*
X89984874Y-156177914D02*
X89889636Y-156225533D01*
D11*
D12*
X95879160Y-153240057D02*
X95926779Y-153192438D01*
X95926779Y-153192438D02*
X96022017Y-153144819D01*
X96022017Y-153144819D02*
X96260112Y-153144819D01*
X96260112Y-153144819D02*
X96355350Y-153192438D01*
X96355350Y-153192438D02*
X96402969Y-153240057D01*
X96402969Y-153240057D02*
X96450588Y-153335295D01*
X96450588Y-153335295D02*
X96450588Y-153430533D01*
X96450588Y-153430533D02*
X96402969Y-153573390D01*
X96402969Y-153573390D02*
X95831541Y-154144819D01*
X95831541Y-154144819D02*
X96450588Y-154144819D01*
D11*
D12*
X76551779Y-155284819D02*
X76551779Y-154284819D01*
X76551779Y-154284819D02*
X77123207Y-155284819D01*
X77123207Y-155284819D02*
X77123207Y-154284819D01*
X77599398Y-155189580D02*
X77647017Y-155237200D01*
X77647017Y-155237200D02*
X77599398Y-155284819D01*
X77599398Y-155284819D02*
X77551779Y-155237200D01*
X77551779Y-155237200D02*
X77599398Y-155189580D01*
X77599398Y-155189580D02*
X77599398Y-155284819D01*
X77599398Y-154665771D02*
X77647017Y-154713390D01*
X77647017Y-154713390D02*
X77599398Y-154761009D01*
X77599398Y-154761009D02*
X77551779Y-154713390D01*
X77551779Y-154713390D02*
X77599398Y-154665771D01*
X77599398Y-154665771D02*
X77599398Y-154761009D01*
X78075588Y-155284819D02*
X78075588Y-154284819D01*
X78647016Y-155284819D02*
X78218445Y-154713390D01*
X78647016Y-154284819D02*
X78075588Y-154856247D01*
X79551778Y-154284819D02*
X79075588Y-154284819D01*
X79075588Y-154284819D02*
X79027969Y-154761009D01*
X79027969Y-154761009D02*
X79075588Y-154713390D01*
X79075588Y-154713390D02*
X79170826Y-154665771D01*
X79170826Y-154665771D02*
X79408921Y-154665771D01*
X79408921Y-154665771D02*
X79504159Y-154713390D01*
X79504159Y-154713390D02*
X79551778Y-154761009D01*
X79551778Y-154761009D02*
X79599397Y-154856247D01*
X79599397Y-154856247D02*
X79599397Y-155094342D01*
X79599397Y-155094342D02*
X79551778Y-155189580D01*
X79551778Y-155189580D02*
X79504159Y-155237200D01*
X79504159Y-155237200D02*
X79408921Y-155284819D01*
X79408921Y-155284819D02*
X79170826Y-155284819D01*
X79170826Y-155284819D02*
X79075588Y-155237200D01*
X79075588Y-155237200D02*
X79027969Y-155189580D01*
X80075588Y-155284819D02*
X80266064Y-155284819D01*
X80266064Y-155284819D02*
X80361302Y-155237200D01*
X80361302Y-155237200D02*
X80408921Y-155189580D01*
X80408921Y-155189580D02*
X80504159Y-155046723D01*
X80504159Y-155046723D02*
X80551778Y-154856247D01*
X80551778Y-154856247D02*
X80551778Y-154475295D01*
X80551778Y-154475295D02*
X80504159Y-154380057D01*
X80504159Y-154380057D02*
X80456540Y-154332438D01*
X80456540Y-154332438D02*
X80361302Y-154284819D01*
X80361302Y-154284819D02*
X80170826Y-154284819D01*
X80170826Y-154284819D02*
X80075588Y-154332438D01*
X80075588Y-154332438D02*
X80027969Y-154380057D01*
X80027969Y-154380057D02*
X79980350Y-154475295D01*
X79980350Y-154475295D02*
X79980350Y-154713390D01*
X79980350Y-154713390D02*
X80027969Y-154808628D01*
X80027969Y-154808628D02*
X80075588Y-154856247D01*
X80075588Y-154856247D02*
X80170826Y-154903866D01*
X80170826Y-154903866D02*
X80361302Y-154903866D01*
X80361302Y-154903866D02*
X80456540Y-154856247D01*
X80456540Y-154856247D02*
X80504159Y-154808628D01*
X80504159Y-154808628D02*
X80551778Y-154713390D01*
X80837493Y-154284819D02*
X81170826Y-155284819D01*
X81170826Y-155284819D02*
X81504159Y-154284819D01*
D13*
X107400000Y-145700000D03*
X108500000Y-53500000D03*
X68500000Y-156500000D03*
D14*
X108500000Y-103500000D03*
D13*
X108500000Y-156500000D03*
X73400000Y-145700000D03*
X107400000Y-82200000D03*
X73400000Y-82200000D03*
X68500000Y-53500000D03*
D15*
X79750000Y-47040000D03*
X79740000Y-44410000D03*
X88500000Y-68500000D03*
X98500000Y-148500000D03*
X108500000Y-123500000D03*
X103500000Y-78500000D03*
X68500000Y-108500000D03*
X73500000Y-73500000D03*
X88510000Y-66030000D03*
X68500000Y-103500000D03*
X103500000Y-88500000D03*
X73500000Y-128500000D03*
X105750000Y-44440000D03*
X83500000Y-148500000D03*
X97240000Y-44430000D03*
X108500000Y-58500000D03*
X79740000Y-38590000D03*
X68500000Y-148500000D03*
X88500000Y-74000000D03*
X108500000Y-93500000D03*
X88520000Y-44550000D03*
X68500000Y-118500000D03*
X108500000Y-108500000D03*
X93500000Y-148500000D03*
X78500000Y-158500000D03*
X103500000Y-103500000D03*
X68500000Y-143500000D03*
X88500000Y-148500000D03*
X103500000Y-93500000D03*
X73500000Y-98500000D03*
X103500000Y-138500000D03*
X73500000Y-123500000D03*
X71250000Y-44410000D03*
X108500000Y-68500000D03*
X103500000Y-148500000D03*
X108500000Y-128500000D03*
X78500000Y-148500000D03*
X73500000Y-138500000D03*
X68500000Y-133500000D03*
X108500000Y-88500000D03*
X73500000Y-103500000D03*
X68500000Y-88500000D03*
X88500000Y-158500000D03*
X108500000Y-78500000D03*
X73500000Y-78500000D03*
X88500000Y-38620000D03*
X103500000Y-133500000D03*
X108500000Y-113500000D03*
X88510000Y-63060000D03*
X108500000Y-38500000D03*
X73500000Y-153500000D03*
X68390000Y-68530000D03*
X97250000Y-39300000D03*
X68500000Y-93500000D03*
X68500000Y-38500000D03*
X68500000Y-138500000D03*
X103500000Y-158500000D03*
X88500000Y-126500000D03*
X103500000Y-98500000D03*
X68370000Y-78050000D03*
X68500000Y-113500000D03*
X88500000Y-46920000D03*
X83500000Y-158500000D03*
X103500000Y-143500000D03*
X73500000Y-133500000D03*
X68500000Y-43500000D03*
X73500000Y-158500000D03*
X108500000Y-98500000D03*
X98500000Y-143500000D03*
X73500000Y-93500000D03*
X103500000Y-123500000D03*
X108500000Y-118500000D03*
X108500000Y-73500000D03*
X68500000Y-123500000D03*
X83500000Y-153500000D03*
X108500000Y-133500000D03*
X73500000Y-113500000D03*
X108500000Y-63500000D03*
X68380000Y-83510000D03*
X68370000Y-63500000D03*
X73500000Y-108500000D03*
X103500000Y-108500000D03*
X103500000Y-63500000D03*
X98500000Y-158500000D03*
X103500000Y-128500000D03*
X68500000Y-48500000D03*
X97280000Y-47040000D03*
X88500000Y-137500000D03*
X103500000Y-83500000D03*
X78500000Y-143500000D03*
X103500000Y-73500000D03*
X73500000Y-118500000D03*
X103500000Y-113500000D03*
X93500000Y-158500000D03*
X68390000Y-73500000D03*
X103500000Y-118500000D03*
X108500000Y-138500000D03*
X68500000Y-98500000D03*
X73500000Y-88500000D03*
X68500000Y-128500000D03*
X96499999Y-130130000D03*
X73250000Y-39300000D03*
X78100000Y-138300000D03*
X100250000Y-47600000D03*
X101300000Y-126500000D03*
X91250000Y-44020000D03*
X104250000Y-44010000D03*
X105250000Y-47810000D03*
X94750000Y-44380000D03*
X94900000Y-74000000D03*
X101250000Y-39300000D03*
X76500000Y-74800000D03*
X89750000Y-40210000D03*
X98760000Y-40290000D03*
X90900000Y-74800000D03*
X83250000Y-39300000D03*
X94100000Y-138300000D03*
X93300000Y-130100000D03*
X78900000Y-126500000D03*
X75700000Y-130000000D03*
X101920000Y-42680000D03*
X77300000Y-137500000D03*
X72750000Y-40240000D03*
X82900000Y-74800000D03*
X93760000Y-40210000D03*
X101750000Y-47600000D03*
X74750000Y-40230000D03*
X80500000Y-137500000D03*
X102250000Y-39300000D03*
X96500000Y-74000000D03*
X95250000Y-47600000D03*
X97010000Y-41960000D03*
X80500000Y-130060000D03*
X85300000Y-130080000D03*
X78100000Y-74800000D03*
X90740000Y-40200000D03*
X91750000Y-47600000D03*
X90100000Y-130090000D03*
X90250000Y-47600000D03*
X77300000Y-74000000D03*
X90250000Y-39300000D03*
X104750000Y-47110000D03*
X83700000Y-126500000D03*
X99250000Y-39300000D03*
X91700000Y-74000000D03*
X77250000Y-39300000D03*
X84500000Y-138300001D03*
X92750000Y-42660000D03*
X94100000Y-74800000D03*
X100750000Y-40330000D03*
X86900000Y-130080000D03*
X96750000Y-40250000D03*
X87700000Y-74800000D03*
X83700000Y-130080000D03*
X86100000Y-138300001D03*
X78250000Y-39300000D03*
X90750000Y-48430000D03*
X75700000Y-126500000D03*
X85250000Y-39300000D03*
X97299999Y-138300000D03*
X89250000Y-39300000D03*
X75700000Y-74000000D03*
X102750000Y-40340000D03*
X97299999Y-74800000D03*
X85300000Y-126500000D03*
X99740000Y-43530000D03*
X103250000Y-39300000D03*
X98100000Y-74000000D03*
X91700000Y-130110000D03*
X81300000Y-74800000D03*
X92750000Y-40210000D03*
X80750000Y-40220000D03*
X90100000Y-137500000D03*
X98100000Y-126500000D03*
X103250000Y-43330000D03*
X85300000Y-137500000D03*
X77750000Y-40230000D03*
X98100000Y-130120000D03*
X74250000Y-39300000D03*
X79700000Y-138300000D03*
X78750000Y-40230000D03*
X86900000Y-137500000D03*
X94900000Y-130100000D03*
X94780000Y-43540000D03*
X81250000Y-39300000D03*
X90900000Y-138300000D03*
X93750000Y-47600000D03*
X91250000Y-39300000D03*
X78900000Y-74000000D03*
X95700000Y-138300001D03*
X84250000Y-39300000D03*
X82100000Y-126500000D03*
X73780000Y-40230000D03*
X78900000Y-137500000D03*
X97020000Y-42760000D03*
X92750000Y-44370000D03*
X99750000Y-44400000D03*
X82750000Y-40210000D03*
X93300000Y-137500000D03*
X99700000Y-130120000D03*
X101300000Y-137500000D03*
X87750000Y-40160000D03*
X89250000Y-48440000D03*
X86250000Y-39300000D03*
X98900000Y-138300000D03*
X86100000Y-74800001D03*
X95750000Y-40240000D03*
X93300000Y-126500000D03*
X103750000Y-47820000D03*
X99700000Y-137500000D03*
X86750000Y-40170000D03*
X91700000Y-126500000D03*
X94750000Y-40230000D03*
X84500000Y-74800001D03*
X77300000Y-126500000D03*
X100500000Y-138300000D03*
X87250000Y-39300000D03*
X82100000Y-130070000D03*
X82900000Y-138300000D03*
X76250000Y-39300000D03*
X85300000Y-74000000D03*
X95250000Y-39300000D03*
X102750000Y-44390000D03*
X88500000Y-130090000D03*
X90100000Y-74000000D03*
X98250000Y-39300000D03*
X100250000Y-39300000D03*
X93300000Y-74000000D03*
X89750000Y-44280000D03*
X75250000Y-39300000D03*
X81300000Y-138300000D03*
X99700000Y-126500000D03*
X78900000Y-130040000D03*
X83750000Y-40200000D03*
X94900000Y-137500000D03*
X87700000Y-138300000D03*
X79250000Y-39300000D03*
X92250000Y-39300000D03*
X80500000Y-74000000D03*
X81750000Y-40210000D03*
X91700000Y-137500000D03*
X83700000Y-137500000D03*
X76750000Y-40230000D03*
X104770000Y-40360000D03*
X100500000Y-74800000D03*
X86900000Y-126500000D03*
X75700000Y-137500000D03*
X71750000Y-40240000D03*
X99700000Y-74000000D03*
X104250000Y-39300000D03*
X105250000Y-39300000D03*
X101300000Y-74000000D03*
X82100000Y-74000000D03*
X93250000Y-39300000D03*
X96750000Y-48050000D03*
X94900000Y-126500000D03*
X100750000Y-44380000D03*
X83700000Y-74000000D03*
X94250000Y-39300000D03*
X85750000Y-40180000D03*
X98100000Y-137500000D03*
X97020000Y-43580000D03*
X101750000Y-40340000D03*
X95700000Y-74800001D03*
X72250000Y-39300000D03*
X76500000Y-138300000D03*
X75750000Y-40230000D03*
X82100000Y-137500000D03*
X77300000Y-130030000D03*
X98900000Y-74800000D03*
X103720000Y-40350000D03*
X96500000Y-126500000D03*
X92750000Y-43520000D03*
X80250000Y-39300000D03*
X89300000Y-138300000D03*
X101260000Y-43510000D03*
X90100000Y-126500000D03*
X86900000Y-74000000D03*
X96250000Y-39300000D03*
X80500000Y-126500000D03*
X89300000Y-74800000D03*
X97750000Y-40270000D03*
X92500000Y-138300000D03*
X82250000Y-39300000D03*
X84750000Y-40190000D03*
X96500000Y-137500000D03*
X91750000Y-40190000D03*
X79700000Y-74800000D03*
X92500000Y-74800000D03*
X99750000Y-40310000D03*
X98750000Y-47600000D03*
X97000000Y-41140000D03*
D16*
X79250000Y-49441117D02*
X79250000Y-39345000D01*
X83237500Y-53428617D02*
X79250000Y-49441117D01*
X79250000Y-39345000D02*
X79205000Y-39300000D01*
X83365000Y-75015000D02*
X83365000Y-74319074D01*
X83365000Y-74319074D02*
X83237500Y-74191574D01*
X87362500Y-79012500D02*
X83365000Y-75015000D01*
X87360000Y-131160000D02*
X87360000Y-130274074D01*
X87362500Y-130271574D02*
X87362500Y-79012500D01*
X83237500Y-74191574D02*
X83237500Y-53428617D01*
X87700000Y-131500000D02*
X87360000Y-131160000D01*
X87700000Y-138300000D02*
X87700000Y-131500000D01*
X87360000Y-130274074D02*
X87362500Y-130271574D01*
X71340000Y-65500000D02*
X71340000Y-73020000D01*
X77762500Y-136152500D02*
X78100000Y-136490000D01*
X77650000Y-79330000D02*
X77650000Y-125910000D01*
X78100000Y-136490000D02*
X78100000Y-138300000D01*
X77650000Y-125910000D02*
X77762500Y-126022500D01*
X71340000Y-73020000D02*
X77650000Y-79330000D01*
X73970000Y-62870000D02*
X71340000Y-65500000D01*
X73250000Y-39300000D02*
X73250000Y-50269010D01*
X77762500Y-126022500D02*
X77762500Y-136152500D01*
X73250000Y-50269010D02*
X73970000Y-50989010D01*
X73970000Y-50989010D02*
X73970000Y-62870000D01*
X93637500Y-125891574D02*
X93770000Y-126024074D01*
X89080000Y-74074074D02*
X88837500Y-74316574D01*
X93770000Y-133860000D02*
X94100000Y-134190000D01*
X93637500Y-79791574D02*
X93637500Y-125891574D01*
X88837500Y-74316574D02*
X88837500Y-74991574D01*
X83250000Y-49454283D02*
X89080000Y-55284283D01*
X93770000Y-126024074D02*
X93770000Y-133860000D01*
X83250000Y-39300000D02*
X83250000Y-49454283D01*
X88837500Y-74991574D02*
X93637500Y-79791574D01*
X89080000Y-55284283D02*
X89080000Y-74074074D01*
X94100000Y-134190000D02*
X94100000Y-138300000D01*
X77300000Y-136950000D02*
X77300000Y-137500000D01*
X70510000Y-73350000D02*
X76960000Y-79800000D01*
X73380000Y-61510000D02*
X70510000Y-64380000D01*
X76837500Y-126062500D02*
X76837500Y-136487500D01*
X72687500Y-50286876D02*
X73380000Y-50979376D01*
X76960000Y-125940000D02*
X76837500Y-126062500D01*
X73380000Y-50979376D02*
X73380000Y-61510000D01*
X70510000Y-64380000D02*
X70510000Y-73350000D01*
X72750000Y-40240000D02*
X72687500Y-40302500D01*
X76837500Y-136487500D02*
X77300000Y-136950000D01*
X76960000Y-79800000D02*
X76960000Y-125940000D01*
X72687500Y-40302500D02*
X72687500Y-50286876D01*
X80037500Y-126016574D02*
X80037500Y-134547500D01*
X76170000Y-51471127D02*
X76170000Y-74300000D01*
X80165000Y-125889074D02*
X80037500Y-126016574D01*
X76170000Y-74300000D02*
X76037500Y-74432500D01*
X74750000Y-40230000D02*
X74750000Y-50051127D01*
X80165000Y-79248676D02*
X80165000Y-125889074D01*
X80500000Y-135010000D02*
X80500000Y-137500000D01*
X76037500Y-74432500D02*
X76037500Y-75121176D01*
X74750000Y-50051127D02*
X76170000Y-51471127D01*
X76037500Y-75121176D02*
X80165000Y-79248676D01*
X80037500Y-134547500D02*
X80500000Y-135010000D01*
X84500000Y-138300001D02*
X84500000Y-133140000D01*
X80037500Y-52494835D02*
X77250000Y-49707335D01*
X80162500Y-74412500D02*
X80037500Y-74287500D01*
X84500000Y-133140000D02*
X84190000Y-132830000D01*
X84037500Y-125891574D02*
X84037500Y-78912500D01*
X80162500Y-75037500D02*
X80162500Y-74412500D01*
X84190000Y-126044074D02*
X84037500Y-125891574D01*
X77250000Y-49707335D02*
X77250000Y-39300000D01*
X84190000Y-132830000D02*
X84190000Y-126044074D01*
X80037500Y-74287500D02*
X80037500Y-52494835D01*
X84037500Y-78912500D02*
X80162500Y-75037500D01*
X85637500Y-78932500D02*
X81762500Y-75057500D01*
X81762500Y-75057500D02*
X81762500Y-74392500D01*
X81637500Y-52961186D02*
X78250000Y-49573686D01*
X85780000Y-132250000D02*
X85780000Y-126034074D01*
X78250000Y-49573686D02*
X78250000Y-39300000D01*
X86100000Y-138300001D02*
X86090000Y-138290001D01*
X81637500Y-74267500D02*
X81637500Y-52961186D01*
X86090000Y-138290001D02*
X86090000Y-132560000D01*
X86090000Y-132560000D02*
X85780000Y-132250000D01*
X85637500Y-125891574D02*
X85637500Y-78932500D01*
X85780000Y-126034074D02*
X85637500Y-125891574D01*
X81762500Y-74392500D02*
X81637500Y-74267500D01*
X92037500Y-74991574D02*
X92037500Y-74316574D01*
X85250000Y-49171444D02*
X85250000Y-39300000D01*
X92162500Y-56083944D02*
X85250000Y-49171444D01*
X97299999Y-132079999D02*
X96980000Y-131760000D01*
X92162500Y-74191574D02*
X92162500Y-56083944D01*
X96980000Y-131760000D02*
X96980000Y-126034074D01*
X96980000Y-126034074D02*
X96837500Y-125891574D01*
X96837500Y-79791574D02*
X92037500Y-74991574D01*
X97299999Y-138300000D02*
X97299999Y-132079999D01*
X92037500Y-74316574D02*
X92162500Y-74191574D01*
X96837500Y-125891574D02*
X96837500Y-79791574D01*
X80750000Y-49803600D02*
X84837500Y-53891100D01*
X89762500Y-79797500D02*
X89762500Y-125891574D01*
X84965000Y-75000000D02*
X89762500Y-79797500D01*
X89762500Y-125891574D02*
X89637500Y-126016574D01*
X89637500Y-136367500D02*
X90100000Y-136830000D01*
X89637500Y-126016574D02*
X89637500Y-136367500D01*
X80750000Y-40220000D02*
X80750000Y-49803600D01*
X84965000Y-74319074D02*
X84965000Y-75000000D01*
X84837500Y-53891100D02*
X84837500Y-74191574D01*
X84837500Y-74191574D02*
X84965000Y-74319074D01*
X90100000Y-136830000D02*
X90100000Y-137500000D01*
X84962500Y-125891574D02*
X84837500Y-126016574D01*
X80962500Y-52851076D02*
X80962500Y-74297500D01*
X80837500Y-74991574D02*
X84962500Y-79116574D01*
X80962500Y-74297500D02*
X80837500Y-74422500D01*
X85300000Y-132890000D02*
X85300000Y-137500001D01*
X80837500Y-74422500D02*
X80837500Y-74991574D01*
X84962500Y-79116574D02*
X84962500Y-125891574D01*
X77750000Y-40230000D02*
X77750000Y-49638576D01*
X77750000Y-49638576D02*
X80962500Y-52851076D01*
X84837500Y-126016574D02*
X84837500Y-132427500D01*
X84837500Y-132427500D02*
X85300000Y-132890000D01*
X75212500Y-75097500D02*
X75212500Y-51090123D01*
X79380000Y-126034074D02*
X79237500Y-125891574D01*
X79380000Y-135100000D02*
X79380000Y-126034074D01*
X79237500Y-79122500D02*
X75212500Y-75097500D01*
X79237500Y-125891574D02*
X79237500Y-79122500D01*
X79700000Y-138300000D02*
X79700000Y-135420000D01*
X75212500Y-51090123D02*
X74250000Y-50127623D01*
X79700000Y-135420000D02*
X79380000Y-135100000D01*
X74250000Y-50127623D02*
X74250000Y-39300000D01*
X82562500Y-53319603D02*
X82562500Y-74191574D01*
X78750000Y-49507103D02*
X82562500Y-53319603D01*
X86562500Y-79116574D02*
X86562500Y-125891574D01*
X82562500Y-74191574D02*
X82437500Y-74316574D01*
X78750000Y-40230000D02*
X78750000Y-49507103D01*
X82437500Y-74991574D02*
X86562500Y-79116574D01*
X86900000Y-132100000D02*
X86900000Y-137500000D01*
X86437500Y-131637500D02*
X86900000Y-132100000D01*
X86562500Y-125891574D02*
X86437500Y-126016574D01*
X86437500Y-126016574D02*
X86437500Y-131637500D01*
X82437500Y-74316574D02*
X82437500Y-74991574D01*
X85637500Y-74316574D02*
X85762500Y-74191574D01*
X90900000Y-138300000D02*
X90900000Y-136360000D01*
X90590000Y-126044074D02*
X90437500Y-125891574D01*
X85637500Y-74991575D02*
X85637500Y-74316574D01*
X90437500Y-79791575D02*
X85637500Y-74991575D01*
X90437500Y-125891574D02*
X90437500Y-79791575D01*
X85762500Y-54247342D02*
X81250000Y-49734842D01*
X90590000Y-136050000D02*
X90590000Y-126044074D01*
X90900000Y-136360000D02*
X90590000Y-136050000D01*
X81250000Y-49734842D02*
X81250000Y-39300000D01*
X85762500Y-74191574D02*
X85762500Y-54247342D01*
X95362500Y-130291574D02*
X95362500Y-79916574D01*
X95360000Y-130294074D02*
X95362500Y-130291574D01*
X84250000Y-49320569D02*
X84250000Y-39300000D01*
X90435000Y-74330000D02*
X90562500Y-74202500D01*
X95360000Y-132750000D02*
X95360000Y-130294074D01*
X90435000Y-74989074D02*
X90435000Y-74330000D01*
X95700000Y-138300001D02*
X95700000Y-133090000D01*
X95362500Y-79916574D02*
X90435000Y-74989074D01*
X95700000Y-133090000D02*
X95360000Y-132750000D01*
X90562500Y-74202500D02*
X90562500Y-55633069D01*
X90562500Y-55633069D02*
X84250000Y-49320569D01*
X74550000Y-51000251D02*
X74550000Y-64340000D01*
X73750000Y-50200251D02*
X74550000Y-51000251D01*
X78562500Y-79312500D02*
X78562500Y-125891574D01*
X72170000Y-72920000D02*
X78562500Y-79312500D01*
X78380000Y-135350000D02*
X78900000Y-135870000D01*
X78900000Y-135870000D02*
X78900000Y-137500000D01*
X73780000Y-40230000D02*
X73750000Y-40260000D01*
X72170000Y-66720000D02*
X72170000Y-72920000D01*
X74550000Y-64340000D02*
X72170000Y-66720000D01*
X78380000Y-126074074D02*
X78380000Y-135350000D01*
X73750000Y-40260000D02*
X73750000Y-50200251D01*
X78562500Y-125891574D02*
X78380000Y-126074074D01*
X88037500Y-74191574D02*
X88162500Y-74316574D01*
X88162500Y-74316574D02*
X88162500Y-75197500D01*
X82750000Y-40210000D02*
X82750000Y-49516958D01*
X93300000Y-134770000D02*
X93300000Y-137500000D01*
X82750000Y-49516958D02*
X88037500Y-54804458D01*
X92837500Y-126016574D02*
X92837500Y-134307500D01*
X92962500Y-125891574D02*
X92837500Y-126016574D01*
X92962500Y-79997500D02*
X92962500Y-125891574D01*
X92837500Y-134307500D02*
X93300000Y-134770000D01*
X88037500Y-54804458D02*
X88037500Y-74191574D01*
X88162500Y-75197500D02*
X92962500Y-79997500D01*
X87750000Y-48860000D02*
X96035000Y-57145000D01*
X87750000Y-40160000D02*
X87750000Y-48860000D01*
X96035000Y-74189074D02*
X96165000Y-74319074D01*
X96035000Y-57145000D02*
X96035000Y-74189074D01*
X96165000Y-74965000D02*
X101810000Y-80610000D01*
X96165000Y-74319074D02*
X96165000Y-74965000D01*
X101810000Y-80610000D02*
X101810000Y-136990000D01*
X101810000Y-136990000D02*
X101300000Y-137500000D01*
X98570000Y-131070000D02*
X98570000Y-126024074D01*
X86250000Y-49038772D02*
X86250000Y-39300000D01*
X98570000Y-126024074D02*
X98437500Y-125891574D01*
X98900000Y-138300000D02*
X98900000Y-131400000D01*
X98900000Y-131400000D02*
X98570000Y-131070000D01*
X93637500Y-74991574D02*
X93637500Y-74316574D01*
X93762500Y-56551272D02*
X86250000Y-49038772D01*
X98437500Y-125891574D02*
X98437500Y-79791574D01*
X98437500Y-79791574D02*
X93637500Y-74991574D01*
X93637500Y-74316574D02*
X93762500Y-74191574D01*
X93762500Y-74191574D02*
X93762500Y-56551272D01*
X99237500Y-130727500D02*
X99700000Y-131190000D01*
X86750000Y-40170000D02*
X86750000Y-48976462D01*
X94562500Y-74316574D02*
X94562500Y-75017500D01*
X99700000Y-131190000D02*
X99700000Y-137500000D01*
X94437500Y-56663962D02*
X94437500Y-74191574D01*
X86750000Y-48976462D02*
X94437500Y-56663962D01*
X99362500Y-79817500D02*
X99362500Y-125891574D01*
X99362500Y-125891574D02*
X99237500Y-126016574D01*
X94562500Y-75017500D02*
X99362500Y-79817500D01*
X94437500Y-74191574D02*
X94562500Y-74316574D01*
X99237500Y-126016574D02*
X99237500Y-130727500D01*
X100500000Y-80254075D02*
X95237500Y-74991575D01*
X100500000Y-138300000D02*
X100500000Y-80254075D01*
X95362500Y-74191574D02*
X95362500Y-57030091D01*
X95362500Y-57030091D02*
X87250000Y-48917591D01*
X95237500Y-74991575D02*
X95237500Y-74316574D01*
X87250000Y-48917591D02*
X87250000Y-39300000D01*
X95237500Y-74316574D02*
X95362500Y-74191574D01*
X78562500Y-75077500D02*
X78562500Y-74422500D01*
X82570000Y-126024074D02*
X82437500Y-125891574D01*
X78437500Y-74297500D02*
X78437500Y-52024613D01*
X82437500Y-78952500D02*
X78562500Y-75077500D01*
X82890000Y-133830000D02*
X82570000Y-133510000D01*
X78437500Y-52024613D02*
X76250000Y-49837113D01*
X76250000Y-49837113D02*
X76250000Y-39300000D01*
X78562500Y-74422500D02*
X78437500Y-74297500D01*
X82890000Y-138290000D02*
X82890000Y-133830000D01*
X82900000Y-138300000D02*
X82890000Y-138290000D01*
X82570000Y-133510000D02*
X82570000Y-126024074D01*
X82437500Y-125891574D02*
X82437500Y-78952500D01*
X80837500Y-125891574D02*
X80837500Y-78902500D01*
X76962500Y-75027500D02*
X76962500Y-74422500D01*
X81300000Y-134580000D02*
X80980000Y-134260000D01*
X76837500Y-74297500D02*
X76837500Y-51573737D01*
X75250000Y-49986237D02*
X75250000Y-39300000D01*
X80980000Y-134260000D02*
X80980000Y-126034074D01*
X76962500Y-74422500D02*
X76837500Y-74297500D01*
X76837500Y-51573737D02*
X75250000Y-49986237D01*
X80837500Y-78902500D02*
X76962500Y-75027500D01*
X80980000Y-126034074D02*
X80837500Y-125891574D01*
X81300000Y-138300000D02*
X81300000Y-134580000D01*
X83750000Y-49393196D02*
X89637500Y-55280696D01*
X94562500Y-125891574D02*
X94437500Y-126016574D01*
X94900000Y-133640000D02*
X94900000Y-137500001D01*
X89765000Y-74319074D02*
X89765000Y-75205000D01*
X94562500Y-80002500D02*
X94562500Y-125891574D01*
X89765000Y-75205000D02*
X94562500Y-80002500D01*
X89637500Y-55280696D02*
X89637500Y-74191574D01*
X94437500Y-126016574D02*
X94437500Y-133177500D01*
X89637500Y-74191574D02*
X89765000Y-74319074D01*
X94437500Y-133177500D02*
X94900000Y-133640000D01*
X83750000Y-40200000D02*
X83750000Y-49393196D01*
X91237500Y-126016574D02*
X91237500Y-135717500D01*
X91700000Y-136180000D02*
X91700000Y-137500000D01*
X81750000Y-40210000D02*
X81750000Y-49662213D01*
X86560000Y-75180000D02*
X91362500Y-79982500D01*
X86437500Y-74191574D02*
X86562500Y-74316574D01*
X91362500Y-125891574D02*
X91237500Y-126016574D01*
X91237500Y-135717500D02*
X91700000Y-136180000D01*
X86562500Y-74316574D02*
X86562500Y-75177500D01*
X86437500Y-54349713D02*
X86437500Y-74191574D01*
X91362500Y-79982500D02*
X91362500Y-125891574D01*
X86562500Y-75177500D02*
X86560000Y-75180000D01*
X81750000Y-49662213D02*
X86437500Y-54349713D01*
X79237500Y-74452500D02*
X79237500Y-74992500D01*
X79362500Y-52384724D02*
X79362500Y-74327500D01*
X83362500Y-79116574D02*
X83362500Y-125891574D01*
X83237500Y-126016574D02*
X83237500Y-133007500D01*
X76750000Y-40230000D02*
X76750000Y-49772224D01*
X79237500Y-74992500D02*
X79240000Y-74995000D01*
X79240000Y-74995000D02*
X79240926Y-74995000D01*
X83362500Y-125891574D02*
X83237500Y-126016574D01*
X83700000Y-133470000D02*
X83700000Y-137500001D01*
X79240926Y-74995000D02*
X83362500Y-79116574D01*
X83237500Y-133007500D02*
X83700000Y-133470000D01*
X79362500Y-74327500D02*
X79237500Y-74452500D01*
X76750000Y-49772224D02*
X79362500Y-52384724D01*
X72170000Y-50900000D02*
X72170000Y-59150000D01*
X71750000Y-40240000D02*
X71750000Y-50480000D01*
X75237500Y-137037500D02*
X75700000Y-137500000D01*
X69110000Y-62210000D02*
X69110000Y-87390000D01*
X72170000Y-59150000D02*
X69110000Y-62210000D01*
X69110000Y-87390000D02*
X75237500Y-93517500D01*
X75237500Y-93517500D02*
X75237500Y-137037500D01*
X71750000Y-50480000D02*
X72170000Y-50900000D01*
X92837500Y-74191574D02*
X92965000Y-74319074D01*
X97762500Y-125891574D02*
X97637500Y-126016574D01*
X97637500Y-131357500D02*
X98100000Y-131820000D01*
X97637500Y-126016574D02*
X97637500Y-131357500D01*
X92965000Y-74319074D02*
X92965000Y-75055000D01*
X98100000Y-131820000D02*
X98100000Y-137500000D01*
X85750000Y-40180000D02*
X85750000Y-49106555D01*
X97762500Y-79852500D02*
X97762500Y-125891574D01*
X85750000Y-49106555D02*
X92837500Y-56194055D01*
X92837500Y-56194055D02*
X92837500Y-74191574D01*
X92965000Y-75055000D02*
X97762500Y-79852500D01*
X76070000Y-125970000D02*
X76170000Y-126070000D01*
X72760000Y-60430000D02*
X69720000Y-63470000D01*
X76170000Y-126070000D02*
X76170000Y-136800000D01*
X69720000Y-86720000D02*
X76070000Y-93070000D01*
X69720000Y-63470000D02*
X69720000Y-86720000D01*
X76070000Y-93070000D02*
X76070000Y-125970000D01*
X72760000Y-50920396D02*
X72760000Y-60430000D01*
X76500000Y-137130000D02*
X76500000Y-138300000D01*
X72250000Y-50410396D02*
X72760000Y-50920396D01*
X72250000Y-39300000D02*
X72250000Y-50410396D01*
X76170000Y-136800000D02*
X76500000Y-137130000D01*
X77762500Y-51922241D02*
X77762500Y-74307500D01*
X75750000Y-40230000D02*
X75750000Y-49909741D01*
X82100000Y-134100000D02*
X82100000Y-137500000D01*
X75750000Y-49909741D02*
X77762500Y-51922241D01*
X81637500Y-133637500D02*
X82100000Y-134100000D01*
X81637500Y-126016574D02*
X81637500Y-133637500D01*
X77637500Y-74991574D02*
X81762500Y-79116574D01*
X77637500Y-74432500D02*
X77637500Y-74991574D01*
X81762500Y-125891574D02*
X81637500Y-126016574D01*
X81762500Y-79116574D02*
X81762500Y-125891574D01*
X77762500Y-74307500D02*
X77637500Y-74432500D01*
X88990000Y-126044074D02*
X88837500Y-125891574D01*
X89300000Y-138300000D02*
X89300000Y-137130000D01*
X80250000Y-49868490D02*
X80250000Y-39300000D01*
X84037500Y-74316574D02*
X84162500Y-74191574D01*
X89300000Y-137130000D02*
X88990000Y-136820000D01*
X88837500Y-79791575D02*
X84037500Y-74991575D01*
X84162500Y-74191574D02*
X84162500Y-53780990D01*
X84162500Y-53780990D02*
X80250000Y-49868490D01*
X88990000Y-136820000D02*
X88990000Y-126044074D01*
X88837500Y-125891574D02*
X88837500Y-79791575D01*
X84037500Y-74991575D02*
X84037500Y-74316574D01*
X92162500Y-130301574D02*
X92162500Y-79922500D01*
X92160000Y-130304074D02*
X92162500Y-130301574D01*
X87237500Y-74316574D02*
X87362500Y-74191574D01*
X87362500Y-74191574D02*
X87362500Y-54705955D01*
X92160000Y-135210000D02*
X92160000Y-130304074D01*
X92162500Y-79922500D02*
X87237500Y-74997500D01*
X92500000Y-138300000D02*
X92500000Y-135550000D01*
X87237500Y-74997500D02*
X87237500Y-74316574D01*
X92500000Y-135550000D02*
X92160000Y-135210000D01*
X87362500Y-54705955D02*
X82250000Y-49593455D01*
X82250000Y-49593455D02*
X82250000Y-39300000D01*
X96037499Y-132117499D02*
X96499999Y-132579999D01*
X96162500Y-125891574D02*
X96037499Y-126016575D01*
X96037499Y-126016575D02*
X96037499Y-132117499D01*
X91237500Y-74191574D02*
X91370000Y-74324074D01*
X96499999Y-132579999D02*
X96499999Y-137500000D01*
X84750000Y-40190000D02*
X84750000Y-49247940D01*
X91370000Y-74324074D02*
X91370000Y-75200000D01*
X84750000Y-49247940D02*
X91237500Y-55735440D01*
X91237500Y-55735440D02*
X91237500Y-74191574D01*
X91370000Y-75200000D02*
X96162500Y-79992500D01*
X96162500Y-79992500D02*
X96162500Y-125891574D01*
G04 #@! TA.AperFunction,Conductor*
G36*
X72179588Y-83242330D02*
G01*
X72357670Y-83420412D01*
X72381486Y-83437715D01*
X71160576Y-84658625D01*
X71244274Y-84737907D01*
X71531309Y-84956106D01*
X71840252Y-85141991D01*
X72167485Y-85293385D01*
X72167489Y-85293387D01*
X72509155Y-85408507D01*
X72509171Y-85408512D01*
X72861288Y-85486018D01*
X72861285Y-85486018D01*
X73219714Y-85524999D01*
X73219716Y-85525000D01*
X73580284Y-85525000D01*
X73580285Y-85524999D01*
X73938712Y-85486018D01*
X74290828Y-85408512D01*
X74290844Y-85408507D01*
X74632510Y-85293387D01*
X74632514Y-85293385D01*
X74959747Y-85141991D01*
X75268690Y-84956106D01*
X75555718Y-84737912D01*
X75555723Y-84737908D01*
X75639422Y-84658625D01*
X74418513Y-83437716D01*
X74442330Y-83420412D01*
X74620412Y-83242330D01*
X74637716Y-83218513D01*
X75859587Y-84440384D01*
X76050900Y-84215155D01*
X76050901Y-84215155D01*
X76253236Y-83916732D01*
X76422121Y-83598180D01*
X76428368Y-83582502D01*
X76461197Y-83548771D01*
X76508263Y-83548133D01*
X76541994Y-83580962D01*
X76547000Y-83605265D01*
X76547000Y-92690575D01*
X76528987Y-92734062D01*
X76527613Y-92735394D01*
X76463746Y-92795406D01*
X76419720Y-92812057D01*
X76378146Y-92794074D01*
X70151013Y-86566941D01*
X70133000Y-86523454D01*
X70133000Y-83304089D01*
X70151013Y-83260602D01*
X70194500Y-83242589D01*
X70237987Y-83260602D01*
X70251632Y-83281325D01*
X70377880Y-83598183D01*
X70546763Y-83916732D01*
X70749098Y-84215155D01*
X70749106Y-84215165D01*
X70940410Y-84440385D01*
X72162283Y-83218511D01*
X72179588Y-83242330D01*
G37*
G04 #@! TD.AperFunction*
G04 #@! TA.AperFunction,Conductor*
G36*
X70237985Y-73662056D02*
G01*
X75450930Y-78875000D01*
X76528987Y-79953057D01*
X76547000Y-79996544D01*
X76547000Y-80794734D01*
X76528987Y-80838221D01*
X76485500Y-80856234D01*
X76442013Y-80838221D01*
X76428368Y-80817498D01*
X76422119Y-80801816D01*
X76253236Y-80483267D01*
X76050901Y-80184844D01*
X76050893Y-80184834D01*
X75859588Y-79959613D01*
X74637715Y-81181486D01*
X74620412Y-81157670D01*
X74442330Y-80979588D01*
X74418511Y-80962283D01*
X75639422Y-79741373D01*
X75555725Y-79662092D01*
X75268690Y-79443893D01*
X74959747Y-79258008D01*
X74632514Y-79106614D01*
X74632510Y-79106612D01*
X74290844Y-78991492D01*
X74290828Y-78991487D01*
X73938711Y-78913981D01*
X73938714Y-78913981D01*
X73580285Y-78875000D01*
X73219714Y-78875000D01*
X72861287Y-78913981D01*
X72509171Y-78991487D01*
X72509155Y-78991492D01*
X72167489Y-79106612D01*
X72167485Y-79106614D01*
X71840252Y-79258008D01*
X71531309Y-79443893D01*
X71244274Y-79662092D01*
X71160576Y-79741373D01*
X72381486Y-80962283D01*
X72357670Y-80979588D01*
X72179588Y-81157670D01*
X72162283Y-81181486D01*
X70940410Y-79959613D01*
X70749106Y-80184834D01*
X70749098Y-80184844D01*
X70546763Y-80483267D01*
X70377880Y-80801816D01*
X70251632Y-81118674D01*
X70218802Y-81152405D01*
X70171736Y-81153042D01*
X70138005Y-81120212D01*
X70133000Y-81095910D01*
X70133000Y-73705544D01*
X70151013Y-73662057D01*
X70194500Y-73644044D01*
X70237985Y-73662056D01*
G37*
G04 #@! TD.AperFunction*
G04 #@! TA.AperFunction,Conductor*
G36*
X112981487Y-36018513D02*
G01*
X112999500Y-36062000D01*
X112999500Y-160938000D01*
X112981487Y-160981487D01*
X112938000Y-160999500D01*
X64062000Y-160999500D01*
X64018513Y-160981487D01*
X64000500Y-160938000D01*
X64000500Y-156500000D01*
X65170116Y-156500000D01*
X65189635Y-156860017D01*
X65247968Y-157215834D01*
X65344423Y-157563232D01*
X65344424Y-157563235D01*
X65477880Y-157898183D01*
X65646763Y-158216732D01*
X65849098Y-158515155D01*
X65849106Y-158515165D01*
X66040410Y-158740385D01*
X67262283Y-157518511D01*
X67279588Y-157542330D01*
X67457670Y-157720412D01*
X67481486Y-157737715D01*
X66260576Y-158958625D01*
X66344274Y-159037907D01*
X66631309Y-159256106D01*
X66940252Y-159441991D01*
X67267485Y-159593385D01*
X67267489Y-159593387D01*
X67609155Y-159708507D01*
X67609171Y-159708512D01*
X67961288Y-159786018D01*
X67961285Y-159786018D01*
X68319714Y-159824999D01*
X68319716Y-159825000D01*
X68680284Y-159825000D01*
X68680285Y-159824999D01*
X69038712Y-159786018D01*
X69390828Y-159708512D01*
X69390844Y-159708507D01*
X69732510Y-159593387D01*
X69732514Y-159593385D01*
X70059747Y-159441991D01*
X70368690Y-159256106D01*
X70655718Y-159037912D01*
X70655723Y-159037908D01*
X70739422Y-158958625D01*
X69518513Y-157737716D01*
X69542330Y-157720412D01*
X69720412Y-157542330D01*
X69737716Y-157518513D01*
X70959587Y-158740384D01*
X71150900Y-158515155D01*
X71150901Y-158515155D01*
X71353236Y-158216732D01*
X71522119Y-157898183D01*
X71655575Y-157563235D01*
X71655576Y-157563232D01*
X71752031Y-157215834D01*
X71810364Y-156860017D01*
X71829883Y-156500000D01*
X71810364Y-156139982D01*
X71752031Y-155784165D01*
X71655576Y-155436767D01*
X71655575Y-155436764D01*
X71522119Y-155101816D01*
X71353236Y-154783267D01*
X71150901Y-154484844D01*
X71150893Y-154484834D01*
X70959588Y-154259613D01*
X69737715Y-155481486D01*
X69720412Y-155457670D01*
X69542330Y-155279588D01*
X69518511Y-155262283D01*
X70739422Y-154041373D01*
X70655725Y-153962092D01*
X70512317Y-153853076D01*
X76120036Y-153853076D01*
X76120036Y-155716625D01*
X81935515Y-155716625D01*
X81935515Y-155507944D01*
X86267804Y-155507944D01*
X86267804Y-157465557D01*
X90891564Y-157465557D01*
X90891564Y-156500000D01*
X105170116Y-156500000D01*
X105189635Y-156860017D01*
X105247968Y-157215834D01*
X105344423Y-157563232D01*
X105344424Y-157563235D01*
X105477880Y-157898183D01*
X105646763Y-158216732D01*
X105849098Y-158515155D01*
X105849106Y-158515165D01*
X106040410Y-158740385D01*
X107262283Y-157518511D01*
X107279588Y-157542330D01*
X107457670Y-157720412D01*
X107481486Y-157737715D01*
X106260576Y-158958625D01*
X106344274Y-159037907D01*
X106631309Y-159256106D01*
X106940252Y-159441991D01*
X107267485Y-159593385D01*
X107267489Y-159593387D01*
X107609155Y-159708507D01*
X107609171Y-159708512D01*
X107961288Y-159786018D01*
X107961285Y-159786018D01*
X108319714Y-159824999D01*
X108319716Y-159825000D01*
X108680284Y-159825000D01*
X108680285Y-159824999D01*
X109038712Y-159786018D01*
X109390828Y-159708512D01*
X109390844Y-159708507D01*
X109732510Y-159593387D01*
X109732514Y-159593385D01*
X110059747Y-159441991D01*
X110368690Y-159256106D01*
X110655718Y-159037912D01*
X110655723Y-159037908D01*
X110739422Y-158958625D01*
X109518513Y-157737716D01*
X109542330Y-157720412D01*
X109720412Y-157542330D01*
X109737716Y-157518513D01*
X110959587Y-158740384D01*
X111150900Y-158515155D01*
X111150901Y-158515155D01*
X111353236Y-158216732D01*
X111522119Y-157898183D01*
X111655575Y-157563235D01*
X111655576Y-157563232D01*
X111752031Y-157215834D01*
X111810364Y-156860017D01*
X111829883Y-156500000D01*
X111810364Y-156139982D01*
X111752031Y-155784165D01*
X111655576Y-155436767D01*
X111655575Y-155436764D01*
X111522119Y-155101816D01*
X111353236Y-154783267D01*
X111150901Y-154484844D01*
X111150893Y-154484834D01*
X110959588Y-154259613D01*
X109737715Y-155481486D01*
X109720412Y-155457670D01*
X109542330Y-155279588D01*
X109518511Y-155262283D01*
X110739422Y-154041373D01*
X110655725Y-153962092D01*
X110368690Y-153743893D01*
X110059747Y-153558008D01*
X109732514Y-153406614D01*
X109732510Y-153406612D01*
X109390844Y-153291492D01*
X109390828Y-153291487D01*
X109038711Y-153213981D01*
X109038714Y-153213981D01*
X108680285Y-153175000D01*
X108319714Y-153175000D01*
X107961287Y-153213981D01*
X107609171Y-153291487D01*
X107609155Y-153291492D01*
X107267489Y-153406612D01*
X107267485Y-153406614D01*
X106940252Y-153558008D01*
X106631309Y-153743893D01*
X106344274Y-153962092D01*
X106260576Y-154041373D01*
X107481486Y-155262283D01*
X107457670Y-155279588D01*
X107279588Y-155457670D01*
X107262283Y-155481486D01*
X106040410Y-154259613D01*
X105849106Y-154484834D01*
X105849098Y-154484844D01*
X105646763Y-154783267D01*
X105477880Y-155101816D01*
X105344424Y-155436764D01*
X105344423Y-155436767D01*
X105247968Y-155784165D01*
X105189635Y-156139982D01*
X105170116Y-156500000D01*
X90891564Y-156500000D01*
X90891564Y-155507944D01*
X86267804Y-155507944D01*
X81935515Y-155507944D01*
X81935515Y-154604311D01*
X92969500Y-154604311D01*
X93000199Y-154718881D01*
X93000203Y-154718891D01*
X93059506Y-154821606D01*
X93059509Y-154821610D01*
X93059511Y-154821613D01*
X93143387Y-154905489D01*
X93143390Y-154905491D01*
X93143393Y-154905493D01*
X93246108Y-154964796D01*
X93246110Y-154964797D01*
X93246114Y-154964799D01*
X93246118Y-154964800D01*
X93360689Y-154995500D01*
X93360691Y-154995500D01*
X104279310Y-154995500D01*
X104329826Y-154981963D01*
X104393886Y-154964799D01*
X104496613Y-154905489D01*
X104580489Y-154821613D01*
X104639799Y-154718886D01*
X104651711Y-154674427D01*
X104670500Y-154604311D01*
X104670500Y-152685688D01*
X104639800Y-152571118D01*
X104639799Y-152571114D01*
X104639796Y-152571108D01*
X104580493Y-152468393D01*
X104580491Y-152468390D01*
X104580489Y-152468387D01*
X104496613Y-152384511D01*
X104496610Y-152384509D01*
X104496606Y-152384506D01*
X104393891Y-152325203D01*
X104393881Y-152325199D01*
X104279311Y-152294500D01*
X104279309Y-152294500D01*
X102479309Y-152294500D01*
X100679309Y-152294500D01*
X98879309Y-152294500D01*
X97079309Y-152294500D01*
X95279309Y-152294500D01*
X93479309Y-152294500D01*
X93360691Y-152294500D01*
X93360689Y-152294500D01*
X93246118Y-152325199D01*
X93246108Y-152325203D01*
X93143393Y-152384506D01*
X93143383Y-152384514D01*
X93059514Y-152468383D01*
X93059506Y-152468393D01*
X93000203Y-152571108D01*
X93000199Y-152571118D01*
X92969500Y-152685688D01*
X92969500Y-154604311D01*
X81935515Y-154604311D01*
X81935515Y-153853076D01*
X76120036Y-153853076D01*
X70512317Y-153853076D01*
X70368690Y-153743893D01*
X70059747Y-153558008D01*
X69732514Y-153406614D01*
X69732510Y-153406612D01*
X69390844Y-153291492D01*
X69390828Y-153291487D01*
X69038711Y-153213981D01*
X69038714Y-153213981D01*
X68680285Y-153175000D01*
X68319714Y-153175000D01*
X67961287Y-153213981D01*
X67609171Y-153291487D01*
X67609155Y-153291492D01*
X67267489Y-153406612D01*
X67267485Y-153406614D01*
X66940252Y-153558008D01*
X66631309Y-153743893D01*
X66344274Y-153962092D01*
X66260576Y-154041373D01*
X67481486Y-155262283D01*
X67457670Y-155279588D01*
X67279588Y-155457670D01*
X67262283Y-155481486D01*
X66040410Y-154259613D01*
X65849106Y-154484834D01*
X65849098Y-154484844D01*
X65646763Y-154783267D01*
X65477880Y-155101816D01*
X65344424Y-155436764D01*
X65344423Y-155436767D01*
X65247968Y-155784165D01*
X65189635Y-156139982D01*
X65170116Y-156500000D01*
X64000500Y-156500000D01*
X64000500Y-145700000D01*
X70070116Y-145700000D01*
X70089635Y-146060017D01*
X70147968Y-146415834D01*
X70244423Y-146763232D01*
X70244424Y-146763235D01*
X70377880Y-147098183D01*
X70546763Y-147416732D01*
X70749098Y-147715155D01*
X70749106Y-147715165D01*
X70940410Y-147940385D01*
X72162283Y-146718511D01*
X72179588Y-146742330D01*
X72357670Y-146920412D01*
X72381486Y-146937715D01*
X71160576Y-148158625D01*
X71244274Y-148237907D01*
X71531309Y-148456106D01*
X71840252Y-148641991D01*
X72167485Y-148793385D01*
X72167489Y-148793387D01*
X72509155Y-148908507D01*
X72509171Y-148908512D01*
X72861288Y-148986018D01*
X72861285Y-148986018D01*
X73219714Y-149024999D01*
X73219716Y-149025000D01*
X73580284Y-149025000D01*
X73580285Y-149024999D01*
X73938712Y-148986018D01*
X74290828Y-148908512D01*
X74290844Y-148908507D01*
X74632510Y-148793387D01*
X74632514Y-148793385D01*
X74959747Y-148641991D01*
X75268690Y-148456106D01*
X75555718Y-148237912D01*
X75555723Y-148237908D01*
X75639422Y-148158625D01*
X74418513Y-146937716D01*
X74442330Y-146920412D01*
X74620412Y-146742330D01*
X74637716Y-146718513D01*
X75859587Y-147940384D01*
X76050900Y-147715155D01*
X76050901Y-147715155D01*
X76253236Y-147416732D01*
X76422119Y-147098183D01*
X76555575Y-146763235D01*
X76555576Y-146763232D01*
X76652031Y-146415834D01*
X76710364Y-146060017D01*
X76729883Y-145700000D01*
X104070116Y-145700000D01*
X104089635Y-146060017D01*
X104147968Y-146415834D01*
X104244423Y-146763232D01*
X104244424Y-146763235D01*
X104377880Y-147098183D01*
X104546763Y-147416732D01*
X104749098Y-147715155D01*
X104749106Y-147715165D01*
X104940410Y-147940385D01*
X106162283Y-146718511D01*
X106179588Y-146742330D01*
X106357670Y-146920412D01*
X106381486Y-146937715D01*
X105160576Y-148158625D01*
X105244274Y-148237907D01*
X105531309Y-148456106D01*
X105840252Y-148641991D01*
X106167485Y-148793385D01*
X106167489Y-148793387D01*
X106509155Y-148908507D01*
X106509171Y-148908512D01*
X106861288Y-148986018D01*
X106861285Y-148986018D01*
X107219714Y-149024999D01*
X107219716Y-149025000D01*
X107580284Y-149025000D01*
X107580285Y-149024999D01*
X107938712Y-148986018D01*
X108290828Y-148908512D01*
X108290844Y-148908507D01*
X108632510Y-148793387D01*
X108632514Y-148793385D01*
X108959747Y-148641991D01*
X109268690Y-148456106D01*
X109555718Y-148237912D01*
X109555723Y-148237908D01*
X109639422Y-148158625D01*
X108418513Y-146937716D01*
X108442330Y-146920412D01*
X108620412Y-146742330D01*
X108637716Y-146718513D01*
X109859587Y-147940384D01*
X110050900Y-147715155D01*
X110050901Y-147715155D01*
X110253236Y-147416732D01*
X110422119Y-147098183D01*
X110555575Y-146763235D01*
X110555576Y-146763232D01*
X110652031Y-146415834D01*
X110710364Y-146060017D01*
X110729883Y-145700000D01*
X110710364Y-145339982D01*
X110652031Y-144984165D01*
X110555576Y-144636767D01*
X110555575Y-144636764D01*
X110422119Y-144301816D01*
X110253236Y-143983267D01*
X110050901Y-143684844D01*
X110050893Y-143684834D01*
X109859588Y-143459613D01*
X108637715Y-144681486D01*
X108620412Y-144657670D01*
X108442330Y-144479588D01*
X108418511Y-144462283D01*
X109639422Y-143241373D01*
X109555725Y-143162092D01*
X109268690Y-142943893D01*
X108959747Y-142758008D01*
X108632514Y-142606614D01*
X108632510Y-142606612D01*
X108290844Y-142491492D01*
X108290828Y-142491487D01*
X107938711Y-142413981D01*
X107938714Y-142413981D01*
X107580285Y-142375000D01*
X107219714Y-142375000D01*
X106861287Y-142413981D01*
X106509171Y-142491487D01*
X106509155Y-142491492D01*
X106167489Y-142606612D01*
X106167485Y-142606614D01*
X105840252Y-142758008D01*
X105531309Y-142943893D01*
X105244274Y-143162092D01*
X105160576Y-143241373D01*
X106381486Y-144462283D01*
X106357670Y-144479588D01*
X106179588Y-144657670D01*
X106162283Y-144681486D01*
X104940410Y-143459613D01*
X104749106Y-143684834D01*
X104749098Y-143684844D01*
X104546763Y-143983267D01*
X104377880Y-144301816D01*
X104244424Y-144636764D01*
X104244423Y-144636767D01*
X104147968Y-144984165D01*
X104089635Y-145339982D01*
X104070116Y-145700000D01*
X76729883Y-145700000D01*
X76710364Y-145339982D01*
X76652031Y-144984165D01*
X76555576Y-144636767D01*
X76555575Y-144636764D01*
X76422119Y-144301816D01*
X76253236Y-143983267D01*
X76050901Y-143684844D01*
X76050893Y-143684834D01*
X75859588Y-143459613D01*
X74637715Y-144681486D01*
X74620412Y-144657670D01*
X74442330Y-144479588D01*
X74418511Y-144462283D01*
X75639422Y-143241373D01*
X75555725Y-143162092D01*
X75268690Y-142943893D01*
X74959747Y-142758008D01*
X74632514Y-142606614D01*
X74632510Y-142606612D01*
X74290844Y-142491492D01*
X74290828Y-142491487D01*
X73938711Y-142413981D01*
X73938714Y-142413981D01*
X73580285Y-142375000D01*
X73219714Y-142375000D01*
X72861287Y-142413981D01*
X72509171Y-142491487D01*
X72509155Y-142491492D01*
X72167489Y-142606612D01*
X72167485Y-142606614D01*
X71840252Y-142758008D01*
X71531309Y-142943893D01*
X71244274Y-143162092D01*
X71160576Y-143241373D01*
X72381486Y-144462283D01*
X72357670Y-144479588D01*
X72179588Y-144657670D01*
X72162283Y-144681486D01*
X70940410Y-143459613D01*
X70749106Y-143684834D01*
X70749098Y-143684844D01*
X70546763Y-143983267D01*
X70377880Y-144301816D01*
X70244424Y-144636764D01*
X70244423Y-144636767D01*
X70147968Y-144984165D01*
X70089635Y-145339982D01*
X70070116Y-145700000D01*
X64000500Y-145700000D01*
X64000500Y-132093619D01*
X72749500Y-132093619D01*
X72786025Y-132277245D01*
X72786030Y-132277261D01*
X72857675Y-132450224D01*
X72857678Y-132450231D01*
X72857679Y-132450233D01*
X72857683Y-132450240D01*
X72961692Y-132605901D01*
X72961697Y-132605907D01*
X73094092Y-132738302D01*
X73094098Y-132738307D01*
X73249759Y-132842316D01*
X73249763Y-132842318D01*
X73249769Y-132842322D01*
X73330355Y-132875702D01*
X73422738Y-132913969D01*
X73422743Y-132913970D01*
X73422749Y-132913973D01*
X73606380Y-132950499D01*
X73606381Y-132950500D01*
X73606384Y-132950500D01*
X73793619Y-132950500D01*
X73793619Y-132950499D01*
X73977251Y-132913973D01*
X74150231Y-132842322D01*
X74305908Y-132738302D01*
X74438302Y-132605908D01*
X74542322Y-132450231D01*
X74613973Y-132277251D01*
X74650499Y-132093619D01*
X74650500Y-132093619D01*
X74650500Y-131906381D01*
X74650499Y-131906380D01*
X74613974Y-131722754D01*
X74613973Y-131722753D01*
X74613973Y-131722749D01*
X74613970Y-131722743D01*
X74613969Y-131722738D01*
X74542324Y-131549775D01*
X74542322Y-131549769D01*
X74542318Y-131549763D01*
X74542316Y-131549759D01*
X74438307Y-131394098D01*
X74438302Y-131394092D01*
X74305907Y-131261697D01*
X74305901Y-131261692D01*
X74150240Y-131157683D01*
X74150233Y-131157679D01*
X74150231Y-131157678D01*
X74150224Y-131157675D01*
X73977261Y-131086030D01*
X73977245Y-131086025D01*
X73793619Y-131049500D01*
X73793616Y-131049500D01*
X73606384Y-131049500D01*
X73606381Y-131049500D01*
X73422754Y-131086025D01*
X73422738Y-131086030D01*
X73249775Y-131157675D01*
X73249759Y-131157683D01*
X73094098Y-131261692D01*
X73094092Y-131261697D01*
X72961697Y-131394092D01*
X72961692Y-131394098D01*
X72857683Y-131549759D01*
X72857675Y-131549775D01*
X72786030Y-131722738D01*
X72786025Y-131722754D01*
X72749500Y-131906380D01*
X72749500Y-132093619D01*
X64000500Y-132093619D01*
X64000500Y-53500000D01*
X65170116Y-53500000D01*
X65189635Y-53860017D01*
X65247968Y-54215834D01*
X65344423Y-54563232D01*
X65344424Y-54563235D01*
X65477880Y-54898183D01*
X65646763Y-55216732D01*
X65849098Y-55515155D01*
X65849106Y-55515165D01*
X66040410Y-55740385D01*
X67262283Y-54518511D01*
X67279588Y-54542330D01*
X67457670Y-54720412D01*
X67481486Y-54737715D01*
X66260576Y-55958625D01*
X66344274Y-56037907D01*
X66631309Y-56256106D01*
X66940252Y-56441991D01*
X67267485Y-56593385D01*
X67267489Y-56593387D01*
X67609155Y-56708507D01*
X67609171Y-56708512D01*
X67961288Y-56786018D01*
X67961285Y-56786018D01*
X68319714Y-56824999D01*
X68319716Y-56825000D01*
X68680284Y-56825000D01*
X68680285Y-56824999D01*
X69038712Y-56786018D01*
X69390828Y-56708512D01*
X69390844Y-56708507D01*
X69732510Y-56593387D01*
X69732514Y-56593385D01*
X70059747Y-56441991D01*
X70368690Y-56256106D01*
X70655718Y-56037912D01*
X70655723Y-56037908D01*
X70739422Y-55958625D01*
X69518513Y-54737716D01*
X69542330Y-54720412D01*
X69720412Y-54542330D01*
X69737716Y-54518513D01*
X70959587Y-55740384D01*
X71150900Y-55515155D01*
X71150901Y-55515155D01*
X71353236Y-55216732D01*
X71522121Y-54898180D01*
X71602000Y-54697700D01*
X71634830Y-54663968D01*
X71681895Y-54663331D01*
X71715627Y-54696161D01*
X71720632Y-54720371D01*
X71727016Y-58983346D01*
X71709068Y-59026860D01*
X68779520Y-61956408D01*
X68779516Y-61956413D01*
X68725145Y-62050588D01*
X68725143Y-62050592D01*
X68697000Y-62155624D01*
X68697000Y-87444375D01*
X68725142Y-87549405D01*
X68725144Y-87549409D01*
X68725145Y-87549412D01*
X68779517Y-87643588D01*
X68779519Y-87643590D01*
X68779520Y-87643591D01*
X74806487Y-93670557D01*
X74824500Y-93714044D01*
X74824500Y-137091875D01*
X74834259Y-137128293D01*
X74840204Y-137150482D01*
X74852645Y-137196912D01*
X74907017Y-137291088D01*
X74907019Y-137291090D01*
X74907020Y-137291091D01*
X75038492Y-137422562D01*
X75055514Y-137455055D01*
X75073483Y-137553959D01*
X75073485Y-137553967D01*
X75075987Y-137561262D01*
X75078864Y-137573797D01*
X75088214Y-137650787D01*
X75088216Y-137650798D01*
X75142076Y-137792814D01*
X75142081Y-137792823D01*
X75228365Y-137917827D01*
X75228367Y-137917829D01*
X75228368Y-137917830D01*
X75342066Y-138018557D01*
X75476566Y-138089148D01*
X75624051Y-138125500D01*
X75624052Y-138125500D01*
X75775949Y-138125500D01*
X75808136Y-138117566D01*
X75854670Y-138124647D01*
X75882567Y-138162558D01*
X75883906Y-138184689D01*
X75869906Y-138300000D01*
X75888215Y-138450791D01*
X75888215Y-138450792D01*
X75888216Y-138450795D01*
X75888216Y-138450798D01*
X75942076Y-138592814D01*
X75942081Y-138592823D01*
X76028365Y-138717827D01*
X76028367Y-138717829D01*
X76028368Y-138717830D01*
X76142066Y-138818557D01*
X76276566Y-138889148D01*
X76424051Y-138925500D01*
X76424052Y-138925500D01*
X76575948Y-138925500D01*
X76575949Y-138925500D01*
X76723434Y-138889148D01*
X76857934Y-138818557D01*
X76971632Y-138717830D01*
X77057921Y-138592819D01*
X77057923Y-138592814D01*
X77111783Y-138450798D01*
X77111783Y-138450795D01*
X77111785Y-138450791D01*
X77123527Y-138354087D01*
X77146651Y-138313088D01*
X77184579Y-138300000D01*
X77415421Y-138300000D01*
X77458908Y-138318013D01*
X77476473Y-138354087D01*
X77488215Y-138450791D01*
X77488215Y-138450792D01*
X77488216Y-138450795D01*
X77488216Y-138450798D01*
X77542076Y-138592814D01*
X77542081Y-138592823D01*
X77628365Y-138717827D01*
X77628367Y-138717829D01*
X77628368Y-138717830D01*
X77742066Y-138818557D01*
X77876566Y-138889148D01*
X78024051Y-138925500D01*
X78024052Y-138925500D01*
X78175948Y-138925500D01*
X78175949Y-138925500D01*
X78323434Y-138889148D01*
X78457934Y-138818557D01*
X78571632Y-138717830D01*
X78657921Y-138592819D01*
X78657923Y-138592814D01*
X78711783Y-138450798D01*
X78711783Y-138450795D01*
X78711785Y-138450791D01*
X78723527Y-138354087D01*
X78746651Y-138313088D01*
X78784579Y-138300000D01*
X79015421Y-138300000D01*
X79058908Y-138318013D01*
X79076473Y-138354087D01*
X79088215Y-138450791D01*
X79088215Y-138450792D01*
X79088216Y-138450795D01*
X79088216Y-138450798D01*
X79142076Y-138592814D01*
X79142081Y-138592823D01*
X79228365Y-138717827D01*
X79228367Y-138717829D01*
X79228368Y-138717830D01*
X79342066Y-138818557D01*
X79476566Y-138889148D01*
X79624051Y-138925500D01*
X79624052Y-138925500D01*
X79775948Y-138925500D01*
X79775949Y-138925500D01*
X79923434Y-138889148D01*
X80057934Y-138818557D01*
X80171632Y-138717830D01*
X80257921Y-138592819D01*
X80257923Y-138592814D01*
X80311783Y-138450798D01*
X80311783Y-138450795D01*
X80311785Y-138450791D01*
X80323527Y-138354087D01*
X80346651Y-138313088D01*
X80384579Y-138300000D01*
X80615421Y-138300000D01*
X80658908Y-138318013D01*
X80676473Y-138354087D01*
X80688215Y-138450791D01*
X80688215Y-138450792D01*
X80688216Y-138450795D01*
X80688216Y-138450798D01*
X80742076Y-138592814D01*
X80742081Y-138592823D01*
X80828365Y-138717827D01*
X80828367Y-138717829D01*
X80828368Y-138717830D01*
X80942066Y-138818557D01*
X81076566Y-138889148D01*
X81224051Y-138925500D01*
X81224052Y-138925500D01*
X81375948Y-138925500D01*
X81375949Y-138925500D01*
X81523434Y-138889148D01*
X81657934Y-138818557D01*
X81771632Y-138717830D01*
X81857921Y-138592819D01*
X81857923Y-138592814D01*
X81911783Y-138450798D01*
X81911783Y-138450795D01*
X81911785Y-138450791D01*
X81923527Y-138354087D01*
X81946651Y-138313088D01*
X81984579Y-138300000D01*
X82215421Y-138300000D01*
X82258908Y-138318013D01*
X82276473Y-138354087D01*
X82288215Y-138450791D01*
X82288215Y-138450792D01*
X82288216Y-138450795D01*
X82288216Y-138450798D01*
X82342076Y-138592814D01*
X82342081Y-138592823D01*
X82428365Y-138717827D01*
X82428367Y-138717829D01*
X82428368Y-138717830D01*
X82542066Y-138818557D01*
X82676566Y-138889148D01*
X82824051Y-138925500D01*
X82824052Y-138925500D01*
X82975948Y-138925500D01*
X82975949Y-138925500D01*
X83123434Y-138889148D01*
X83257934Y-138818557D01*
X83371632Y-138717830D01*
X83457921Y-138592819D01*
X83457923Y-138592814D01*
X83511783Y-138450798D01*
X83511783Y-138450795D01*
X83511785Y-138450791D01*
X83523527Y-138354087D01*
X83546651Y-138313088D01*
X83584579Y-138300000D01*
X83815421Y-138300000D01*
X83858908Y-138318013D01*
X83876473Y-138354087D01*
X83888215Y-138450792D01*
X83888215Y-138450793D01*
X83888216Y-138450796D01*
X83888216Y-138450799D01*
X83942076Y-138592815D01*
X83942081Y-138592824D01*
X84028365Y-138717828D01*
X84028367Y-138717830D01*
X84028368Y-138717831D01*
X84142066Y-138818558D01*
X84276566Y-138889149D01*
X84424051Y-138925501D01*
X84424052Y-138925501D01*
X84575948Y-138925501D01*
X84575949Y-138925501D01*
X84723434Y-138889149D01*
X84857934Y-138818558D01*
X84971632Y-138717831D01*
X85057921Y-138592820D01*
X85057923Y-138592814D01*
X85111783Y-138450799D01*
X85111783Y-138450796D01*
X85111785Y-138450792D01*
X85123527Y-138354087D01*
X85146651Y-138313088D01*
X85184579Y-138300000D01*
X85415421Y-138300000D01*
X85458908Y-138318013D01*
X85476473Y-138354087D01*
X85488215Y-138450792D01*
X85488215Y-138450793D01*
X85488216Y-138450796D01*
X85488216Y-138450799D01*
X85542076Y-138592815D01*
X85542081Y-138592824D01*
X85628365Y-138717828D01*
X85628367Y-138717830D01*
X85628368Y-138717831D01*
X85742066Y-138818558D01*
X85876566Y-138889149D01*
X86024051Y-138925501D01*
X86024052Y-138925501D01*
X86175948Y-138925501D01*
X86175949Y-138925501D01*
X86323434Y-138889149D01*
X86457934Y-138818558D01*
X86571632Y-138717831D01*
X86657921Y-138592820D01*
X86657923Y-138592814D01*
X86711783Y-138450799D01*
X86711783Y-138450796D01*
X86711785Y-138450792D01*
X86723527Y-138354087D01*
X86746651Y-138313088D01*
X86784579Y-138300000D01*
X87015421Y-138300000D01*
X87058908Y-138318013D01*
X87076473Y-138354087D01*
X87088215Y-138450791D01*
X87088215Y-138450792D01*
X87088216Y-138450795D01*
X87088216Y-138450798D01*
X87142076Y-138592814D01*
X87142081Y-138592823D01*
X87228365Y-138717827D01*
X87228367Y-138717829D01*
X87228368Y-138717830D01*
X87342066Y-138818557D01*
X87476566Y-138889148D01*
X87624051Y-138925500D01*
X87624052Y-138925500D01*
X87775948Y-138925500D01*
X87775949Y-138925500D01*
X87923434Y-138889148D01*
X88057934Y-138818557D01*
X88171632Y-138717830D01*
X88257921Y-138592819D01*
X88257923Y-138592814D01*
X88311783Y-138450798D01*
X88311783Y-138450795D01*
X88311785Y-138450791D01*
X88323527Y-138354087D01*
X88346651Y-138313088D01*
X88384579Y-138300000D01*
X88615421Y-138300000D01*
X88658908Y-138318013D01*
X88676473Y-138354087D01*
X88688215Y-138450791D01*
X88688215Y-138450792D01*
X88688216Y-138450795D01*
X88688216Y-138450798D01*
X88742076Y-138592814D01*
X88742081Y-138592823D01*
X88828365Y-138717827D01*
X88828367Y-138717829D01*
X88828368Y-138717830D01*
X88942066Y-138818557D01*
X89076566Y-138889148D01*
X89224051Y-138925500D01*
X89224052Y-138925500D01*
X89375948Y-138925500D01*
X89375949Y-138925500D01*
X89523434Y-138889148D01*
X89657934Y-138818557D01*
X89771632Y-138717830D01*
X89857921Y-138592819D01*
X89857923Y-138592814D01*
X89911783Y-138450798D01*
X89911783Y-138450795D01*
X89911785Y-138450791D01*
X89923527Y-138354087D01*
X89946651Y-138313088D01*
X89984579Y-138300000D01*
X90215421Y-138300000D01*
X90258908Y-138318013D01*
X90276473Y-138354087D01*
X90288215Y-138450791D01*
X90288215Y-138450792D01*
X90288216Y-138450795D01*
X90288216Y-138450798D01*
X90342076Y-138592814D01*
X90342081Y-138592823D01*
X90428365Y-138717827D01*
X90428367Y-138717829D01*
X90428368Y-138717830D01*
X90542066Y-138818557D01*
X90676566Y-138889148D01*
X90824051Y-138925500D01*
X90824052Y-138925500D01*
X90975948Y-138925500D01*
X90975949Y-138925500D01*
X91123434Y-138889148D01*
X91257934Y-138818557D01*
X91371632Y-138717830D01*
X91457921Y-138592819D01*
X91457923Y-138592814D01*
X91511783Y-138450798D01*
X91511783Y-138450795D01*
X91511785Y-138450791D01*
X91523527Y-138354087D01*
X91546651Y-138313088D01*
X91584579Y-138300000D01*
X91815421Y-138300000D01*
X91858908Y-138318013D01*
X91876473Y-138354087D01*
X91888215Y-138450791D01*
X91888215Y-138450792D01*
X91888216Y-138450795D01*
X91888216Y-138450798D01*
X91942076Y-138592814D01*
X91942081Y-138592823D01*
X92028365Y-138717827D01*
X92028367Y-138717829D01*
X92028368Y-138717830D01*
X92142066Y-138818557D01*
X92276566Y-138889148D01*
X92424051Y-138925500D01*
X92424052Y-138925500D01*
X92575948Y-138925500D01*
X92575949Y-138925500D01*
X92723434Y-138889148D01*
X92857934Y-138818557D01*
X92971632Y-138717830D01*
X93057921Y-138592819D01*
X93057923Y-138592814D01*
X93111783Y-138450798D01*
X93111783Y-138450795D01*
X93111785Y-138450791D01*
X93123527Y-138354087D01*
X93146651Y-138313088D01*
X93184579Y-138300000D01*
X93415421Y-138300000D01*
X93458908Y-138318013D01*
X93476473Y-138354087D01*
X93488215Y-138450791D01*
X93488215Y-138450792D01*
X93488216Y-138450795D01*
X93488216Y-138450798D01*
X93542076Y-138592814D01*
X93542081Y-138592823D01*
X93628365Y-138717827D01*
X93628367Y-138717829D01*
X93628368Y-138717830D01*
X93742066Y-138818557D01*
X93876566Y-138889148D01*
X94024051Y-138925500D01*
X94024052Y-138925500D01*
X94175948Y-138925500D01*
X94175949Y-138925500D01*
X94323434Y-138889148D01*
X94457934Y-138818557D01*
X94571632Y-138717830D01*
X94657921Y-138592819D01*
X94657923Y-138592814D01*
X94711783Y-138450798D01*
X94711783Y-138450795D01*
X94711785Y-138450791D01*
X94723527Y-138354087D01*
X94746651Y-138313088D01*
X94784579Y-138300000D01*
X95015421Y-138300000D01*
X95058908Y-138318013D01*
X95076473Y-138354087D01*
X95088215Y-138450792D01*
X95088215Y-138450793D01*
X95088216Y-138450796D01*
X95088216Y-138450799D01*
X95142076Y-138592815D01*
X95142081Y-138592824D01*
X95228365Y-138717828D01*
X95228367Y-138717830D01*
X95228368Y-138717831D01*
X95342066Y-138818558D01*
X95476566Y-138889149D01*
X95624051Y-138925501D01*
X95624052Y-138925501D01*
X95775948Y-138925501D01*
X95775949Y-138925501D01*
X95923434Y-138889149D01*
X96057934Y-138818558D01*
X96171632Y-138717831D01*
X96257921Y-138592820D01*
X96257923Y-138592814D01*
X96311783Y-138450799D01*
X96311783Y-138450796D01*
X96311785Y-138450792D01*
X96323527Y-138354087D01*
X96346651Y-138313088D01*
X96384579Y-138300000D01*
X96615420Y-138300000D01*
X96658907Y-138318013D01*
X96676472Y-138354087D01*
X96688214Y-138450791D01*
X96688214Y-138450792D01*
X96688215Y-138450795D01*
X96688215Y-138450798D01*
X96742075Y-138592814D01*
X96742080Y-138592823D01*
X96828364Y-138717827D01*
X96828366Y-138717829D01*
X96828367Y-138717830D01*
X96942065Y-138818557D01*
X97076565Y-138889148D01*
X97224050Y-138925500D01*
X97224051Y-138925500D01*
X97375947Y-138925500D01*
X97375948Y-138925500D01*
X97523433Y-138889148D01*
X97657933Y-138818557D01*
X97771631Y-138717830D01*
X97857920Y-138592819D01*
X97857922Y-138592814D01*
X97911782Y-138450798D01*
X97911782Y-138450795D01*
X97911784Y-138450791D01*
X97923526Y-138354087D01*
X97946650Y-138313088D01*
X97984578Y-138300000D01*
X98215421Y-138300000D01*
X98258908Y-138318013D01*
X98276473Y-138354087D01*
X98288215Y-138450791D01*
X98288215Y-138450792D01*
X98288216Y-138450795D01*
X98288216Y-138450798D01*
X98342076Y-138592814D01*
X98342081Y-138592823D01*
X98428365Y-138717827D01*
X98428367Y-138717829D01*
X98428368Y-138717830D01*
X98542066Y-138818557D01*
X98676566Y-138889148D01*
X98824051Y-138925500D01*
X98824052Y-138925500D01*
X98975948Y-138925500D01*
X98975949Y-138925500D01*
X99123434Y-138889148D01*
X99257934Y-138818557D01*
X99371632Y-138717830D01*
X99457921Y-138592819D01*
X99457923Y-138592814D01*
X99511783Y-138450798D01*
X99511783Y-138450795D01*
X99511785Y-138450791D01*
X99523527Y-138354087D01*
X99546651Y-138313088D01*
X99584579Y-138300000D01*
X99815421Y-138300000D01*
X99858908Y-138318013D01*
X99876473Y-138354087D01*
X99888215Y-138450791D01*
X99888215Y-138450792D01*
X99888216Y-138450795D01*
X99888216Y-138450798D01*
X99942076Y-138592814D01*
X99942081Y-138592823D01*
X100028365Y-138717827D01*
X100028367Y-138717829D01*
X100028368Y-138717830D01*
X100142066Y-138818557D01*
X100276566Y-138889148D01*
X100424051Y-138925500D01*
X100424052Y-138925500D01*
X100575948Y-138925500D01*
X100575949Y-138925500D01*
X100723434Y-138889148D01*
X100857934Y-138818557D01*
X100971632Y-138717830D01*
X101057921Y-138592819D01*
X101057923Y-138592814D01*
X101111783Y-138450798D01*
X101111783Y-138450795D01*
X101111785Y-138450791D01*
X101130094Y-138300000D01*
X101116092Y-138184687D01*
X101128732Y-138139350D01*
X101169731Y-138116226D01*
X101191856Y-138117564D01*
X101224051Y-138125500D01*
X101224053Y-138125500D01*
X101375948Y-138125500D01*
X101375949Y-138125500D01*
X101523434Y-138089148D01*
X101657934Y-138018557D01*
X101771632Y-137917830D01*
X101857921Y-137792819D01*
X101857923Y-137792814D01*
X101911783Y-137650798D01*
X101911783Y-137650795D01*
X101911785Y-137650791D01*
X101921191Y-137573320D01*
X101924367Y-137559934D01*
X101926516Y-137553959D01*
X101944483Y-137455055D01*
X101961504Y-137422565D01*
X102140483Y-137243588D01*
X102194855Y-137149412D01*
X102200514Y-137128293D01*
X102210273Y-137091873D01*
X102223000Y-137044375D01*
X102223000Y-132093619D01*
X102349500Y-132093619D01*
X102386025Y-132277245D01*
X102386030Y-132277261D01*
X102457675Y-132450224D01*
X102457678Y-132450231D01*
X102457679Y-132450233D01*
X102457683Y-132450240D01*
X102561692Y-132605901D01*
X102561697Y-132605907D01*
X102694092Y-132738302D01*
X102694098Y-132738307D01*
X102849759Y-132842316D01*
X102849763Y-132842318D01*
X102849769Y-132842322D01*
X102930355Y-132875702D01*
X103022738Y-132913969D01*
X103022743Y-132913970D01*
X103022749Y-132913973D01*
X103206380Y-132950499D01*
X103206381Y-132950500D01*
X103206384Y-132950500D01*
X103393619Y-132950500D01*
X103393619Y-132950499D01*
X103577251Y-132913973D01*
X103750231Y-132842322D01*
X103905908Y-132738302D01*
X104038302Y-132605908D01*
X104142322Y-132450231D01*
X104213973Y-132277251D01*
X104250499Y-132093619D01*
X104250500Y-132093619D01*
X104250500Y-131906381D01*
X104250499Y-131906380D01*
X104213974Y-131722754D01*
X104213973Y-131722753D01*
X104213973Y-131722749D01*
X104213970Y-131722743D01*
X104213969Y-131722738D01*
X104142324Y-131549775D01*
X104142322Y-131549769D01*
X104142318Y-131549763D01*
X104142316Y-131549759D01*
X104038307Y-131394098D01*
X104038302Y-131394092D01*
X103905907Y-131261697D01*
X103905901Y-131261692D01*
X103750240Y-131157683D01*
X103750233Y-131157679D01*
X103750231Y-131157678D01*
X103750224Y-131157675D01*
X103577261Y-131086030D01*
X103577245Y-131086025D01*
X103393619Y-131049500D01*
X103393616Y-131049500D01*
X103206384Y-131049500D01*
X103206381Y-131049500D01*
X103022754Y-131086025D01*
X103022738Y-131086030D01*
X102849775Y-131157675D01*
X102849759Y-131157683D01*
X102694098Y-131261692D01*
X102694092Y-131261697D01*
X102561697Y-131394092D01*
X102561692Y-131394098D01*
X102457683Y-131549759D01*
X102457675Y-131549775D01*
X102386030Y-131722738D01*
X102386025Y-131722754D01*
X102349500Y-131906380D01*
X102349500Y-132093619D01*
X102223000Y-132093619D01*
X102223000Y-103500000D01*
X107870410Y-103500000D01*
X107888706Y-103650675D01*
X107942526Y-103792584D01*
X107942528Y-103792588D01*
X107961181Y-103819614D01*
X107961182Y-103819614D01*
X108250000Y-103530795D01*
X108250000Y-103549728D01*
X108288060Y-103641614D01*
X108358386Y-103711940D01*
X108450272Y-103750000D01*
X108469203Y-103750000D01*
X108180853Y-104038348D01*
X108276744Y-104088677D01*
X108424112Y-104125000D01*
X108575888Y-104125000D01*
X108723255Y-104088677D01*
X108819145Y-104038349D01*
X108819145Y-104038348D01*
X108530797Y-103750000D01*
X108549728Y-103750000D01*
X108641614Y-103711940D01*
X108711940Y-103641614D01*
X108750000Y-103549728D01*
X108750000Y-103530797D01*
X109038816Y-103819613D01*
X109038817Y-103819613D01*
X109057473Y-103792586D01*
X109057475Y-103792582D01*
X109111293Y-103650678D01*
X109111293Y-103650675D01*
X109129589Y-103500000D01*
X109111293Y-103349324D01*
X109057473Y-103207415D01*
X109057471Y-103207411D01*
X109038817Y-103180385D01*
X109038816Y-103180385D01*
X108750000Y-103469201D01*
X108750000Y-103450272D01*
X108711940Y-103358386D01*
X108641614Y-103288060D01*
X108549728Y-103250000D01*
X108530795Y-103250000D01*
X108819146Y-102961650D01*
X108819145Y-102961649D01*
X108723253Y-102911322D01*
X108575888Y-102875000D01*
X108424112Y-102875000D01*
X108276747Y-102911321D01*
X108180853Y-102961650D01*
X108469203Y-103250000D01*
X108450272Y-103250000D01*
X108358386Y-103288060D01*
X108288060Y-103358386D01*
X108250000Y-103450272D01*
X108250000Y-103469203D01*
X107961181Y-103180384D01*
X107942525Y-103207414D01*
X107942522Y-103207420D01*
X107888706Y-103349321D01*
X107888706Y-103349324D01*
X107870410Y-103500000D01*
X102223000Y-103500000D01*
X102223000Y-82200000D01*
X104070116Y-82200000D01*
X104089635Y-82560017D01*
X104147968Y-82915834D01*
X104244423Y-83263232D01*
X104244424Y-83263235D01*
X104377880Y-83598183D01*
X104546763Y-83916732D01*
X104749098Y-84215155D01*
X104749106Y-84215165D01*
X104940410Y-84440385D01*
X106162283Y-83218511D01*
X106179588Y-83242330D01*
X106357670Y-83420412D01*
X106381486Y-83437715D01*
X105160576Y-84658625D01*
X105244274Y-84737907D01*
X105531309Y-84956106D01*
X105840252Y-85141991D01*
X106167485Y-85293385D01*
X106167489Y-85293387D01*
X106509155Y-85408507D01*
X106509171Y-85408512D01*
X106861288Y-85486018D01*
X106861285Y-85486018D01*
X107219714Y-85524999D01*
X107219716Y-85525000D01*
X107580284Y-85525000D01*
X107580285Y-85524999D01*
X107938712Y-85486018D01*
X108290828Y-85408512D01*
X108290844Y-85408507D01*
X108632510Y-85293387D01*
X108632514Y-85293385D01*
X108959747Y-85141991D01*
X109268690Y-84956106D01*
X109555718Y-84737912D01*
X109555723Y-84737908D01*
X109639422Y-84658625D01*
X108418513Y-83437716D01*
X108442330Y-83420412D01*
X108620412Y-83242330D01*
X108637716Y-83218513D01*
X109859587Y-84440384D01*
X110050900Y-84215155D01*
X110050901Y-84215155D01*
X110253236Y-83916732D01*
X110422119Y-83598183D01*
X110555575Y-83263235D01*
X110555576Y-83263232D01*
X110652031Y-82915834D01*
X110710364Y-82560017D01*
X110729883Y-82200000D01*
X110710364Y-81839982D01*
X110652031Y-81484165D01*
X110555576Y-81136767D01*
X110555575Y-81136764D01*
X110422119Y-80801816D01*
X110253236Y-80483267D01*
X110050901Y-80184844D01*
X110050893Y-80184834D01*
X109859588Y-79959613D01*
X108637715Y-81181486D01*
X108620412Y-81157670D01*
X108442330Y-80979588D01*
X108418511Y-80962283D01*
X109639422Y-79741373D01*
X109555725Y-79662092D01*
X109268690Y-79443893D01*
X108959747Y-79258008D01*
X108632514Y-79106614D01*
X108632510Y-79106612D01*
X108290844Y-78991492D01*
X108290828Y-78991487D01*
X107938711Y-78913981D01*
X107938714Y-78913981D01*
X107580285Y-78875000D01*
X107219714Y-78875000D01*
X106861287Y-78913981D01*
X106509171Y-78991487D01*
X106509155Y-78991492D01*
X106167489Y-79106612D01*
X106167485Y-79106614D01*
X105840252Y-79258008D01*
X105531309Y-79443893D01*
X105244274Y-79662092D01*
X105160576Y-79741373D01*
X106381486Y-80962283D01*
X106357670Y-80979588D01*
X106179588Y-81157670D01*
X106162283Y-81181486D01*
X104940410Y-79959613D01*
X104749106Y-80184834D01*
X104749098Y-80184844D01*
X104546763Y-80483267D01*
X104377880Y-80801816D01*
X104244424Y-81136764D01*
X104244423Y-81136767D01*
X104147968Y-81484165D01*
X104089635Y-81839982D01*
X104070116Y-82200000D01*
X102223000Y-82200000D01*
X102223000Y-80555624D01*
X102194856Y-80450592D01*
X102194855Y-80450588D01*
X102158347Y-80387355D01*
X102158346Y-80387354D01*
X102158346Y-80387352D01*
X102140487Y-80356419D01*
X102140485Y-80356416D01*
X102140483Y-80356413D01*
X97314558Y-75530487D01*
X97296545Y-75487000D01*
X97314558Y-75443513D01*
X97358045Y-75425500D01*
X97375947Y-75425500D01*
X97375948Y-75425500D01*
X97523433Y-75389148D01*
X97657933Y-75318557D01*
X97771631Y-75217830D01*
X97857920Y-75092819D01*
X97857922Y-75092814D01*
X97911782Y-74950798D01*
X97911782Y-74950795D01*
X97911784Y-74950791D01*
X97930093Y-74800000D01*
X97916091Y-74684687D01*
X97928731Y-74639350D01*
X97969730Y-74616226D01*
X97991856Y-74617564D01*
X98024051Y-74625500D01*
X98024053Y-74625500D01*
X98175949Y-74625500D01*
X98208136Y-74617566D01*
X98254670Y-74624647D01*
X98282567Y-74662558D01*
X98283906Y-74684689D01*
X98269906Y-74800000D01*
X98288215Y-74950791D01*
X98288215Y-74950792D01*
X98288216Y-74950795D01*
X98288216Y-74950798D01*
X98342076Y-75092814D01*
X98342081Y-75092823D01*
X98428365Y-75217827D01*
X98428367Y-75217829D01*
X98428368Y-75217830D01*
X98542066Y-75318557D01*
X98676566Y-75389148D01*
X98824051Y-75425500D01*
X98824052Y-75425500D01*
X98975948Y-75425500D01*
X98975949Y-75425500D01*
X99123434Y-75389148D01*
X99257934Y-75318557D01*
X99371632Y-75217830D01*
X99457921Y-75092819D01*
X99457923Y-75092814D01*
X99511783Y-74950798D01*
X99511783Y-74950795D01*
X99511785Y-74950791D01*
X99530094Y-74800000D01*
X99516092Y-74684687D01*
X99528732Y-74639350D01*
X99569731Y-74616226D01*
X99591856Y-74617564D01*
X99624051Y-74625500D01*
X99624053Y-74625500D01*
X99775949Y-74625500D01*
X99808136Y-74617566D01*
X99854670Y-74624647D01*
X99882567Y-74662558D01*
X99883906Y-74684689D01*
X99869906Y-74800000D01*
X99888215Y-74950791D01*
X99888215Y-74950792D01*
X99888216Y-74950795D01*
X99888216Y-74950798D01*
X99942076Y-75092814D01*
X99942081Y-75092823D01*
X100028365Y-75217827D01*
X100028367Y-75217829D01*
X100028368Y-75217830D01*
X100142066Y-75318557D01*
X100276566Y-75389148D01*
X100424051Y-75425500D01*
X100424052Y-75425500D01*
X100575948Y-75425500D01*
X100575949Y-75425500D01*
X100723434Y-75389148D01*
X100857934Y-75318557D01*
X100971632Y-75217830D01*
X101057921Y-75092819D01*
X101057923Y-75092814D01*
X101111783Y-74950798D01*
X101111783Y-74950795D01*
X101111785Y-74950791D01*
X101130094Y-74800000D01*
X101116092Y-74684687D01*
X101128732Y-74639350D01*
X101169731Y-74616226D01*
X101191856Y-74617564D01*
X101224051Y-74625500D01*
X101224053Y-74625500D01*
X101375948Y-74625500D01*
X101375949Y-74625500D01*
X101523434Y-74589148D01*
X101657934Y-74518557D01*
X101771632Y-74417830D01*
X101857921Y-74292819D01*
X101899277Y-74183773D01*
X101911783Y-74150798D01*
X101911783Y-74150795D01*
X101911785Y-74150791D01*
X101930094Y-74000000D01*
X101911785Y-73849209D01*
X101911783Y-73849203D01*
X101911783Y-73849201D01*
X101857923Y-73707185D01*
X101857918Y-73707176D01*
X101771634Y-73582172D01*
X101771632Y-73582170D01*
X101657934Y-73481443D01*
X101523434Y-73410852D01*
X101523431Y-73410851D01*
X101447641Y-73392170D01*
X101375949Y-73374500D01*
X101224051Y-73374500D01*
X101175809Y-73386390D01*
X101076568Y-73410851D01*
X100942069Y-73481441D01*
X100942067Y-73481442D01*
X100942066Y-73481443D01*
X100895138Y-73523017D01*
X100828365Y-73582172D01*
X100742081Y-73707176D01*
X100742076Y-73707185D01*
X100688216Y-73849201D01*
X100688216Y-73849204D01*
X100669906Y-74000000D01*
X100683907Y-74115307D01*
X100671267Y-74160648D01*
X100630268Y-74183772D01*
X100608139Y-74182433D01*
X100575950Y-74174500D01*
X100575949Y-74174500D01*
X100424051Y-74174500D01*
X100424050Y-74174500D01*
X100391860Y-74182433D01*
X100345326Y-74175350D01*
X100317431Y-74137436D01*
X100316092Y-74115315D01*
X100330094Y-74000000D01*
X100311785Y-73849209D01*
X100311783Y-73849203D01*
X100311783Y-73849201D01*
X100257923Y-73707185D01*
X100257918Y-73707176D01*
X100171634Y-73582172D01*
X100171632Y-73582170D01*
X100057934Y-73481443D01*
X99923434Y-73410852D01*
X99923431Y-73410851D01*
X99847641Y-73392170D01*
X99775949Y-73374500D01*
X99624051Y-73374500D01*
X99575809Y-73386390D01*
X99476568Y-73410851D01*
X99342069Y-73481441D01*
X99342067Y-73481442D01*
X99342066Y-73481443D01*
X99295138Y-73523017D01*
X99228365Y-73582172D01*
X99142081Y-73707176D01*
X99142076Y-73707185D01*
X99088216Y-73849201D01*
X99088216Y-73849204D01*
X99069906Y-74000000D01*
X99083907Y-74115307D01*
X99071267Y-74160648D01*
X99030268Y-74183772D01*
X99008139Y-74182433D01*
X98975950Y-74174500D01*
X98975949Y-74174500D01*
X98824051Y-74174500D01*
X98824050Y-74174500D01*
X98791860Y-74182433D01*
X98745326Y-74175350D01*
X98717431Y-74137436D01*
X98716092Y-74115315D01*
X98730094Y-74000000D01*
X98711785Y-73849209D01*
X98711783Y-73849203D01*
X98711783Y-73849201D01*
X98657923Y-73707185D01*
X98657918Y-73707176D01*
X98571634Y-73582172D01*
X98571632Y-73582170D01*
X98457934Y-73481443D01*
X98323434Y-73410852D01*
X98323431Y-73410851D01*
X98247641Y-73392170D01*
X98175949Y-73374500D01*
X98024051Y-73374500D01*
X97975809Y-73386390D01*
X97876568Y-73410851D01*
X97742069Y-73481441D01*
X97742067Y-73481442D01*
X97742066Y-73481443D01*
X97695138Y-73523017D01*
X97628365Y-73582172D01*
X97542081Y-73707176D01*
X97542076Y-73707185D01*
X97488216Y-73849201D01*
X97488216Y-73849204D01*
X97469906Y-74000000D01*
X97483907Y-74115308D01*
X97471267Y-74160649D01*
X97430268Y-74183773D01*
X97408138Y-74182434D01*
X97375948Y-74174500D01*
X97224050Y-74174500D01*
X97224049Y-74174500D01*
X97191860Y-74182433D01*
X97145326Y-74175350D01*
X97117431Y-74137436D01*
X97116092Y-74115315D01*
X97130094Y-74000000D01*
X97111785Y-73849209D01*
X97111783Y-73849203D01*
X97111783Y-73849201D01*
X97057923Y-73707185D01*
X97057918Y-73707176D01*
X96971634Y-73582172D01*
X96971632Y-73582170D01*
X96857934Y-73481443D01*
X96723434Y-73410852D01*
X96723431Y-73410851D01*
X96647641Y-73392170D01*
X96575949Y-73374500D01*
X96575948Y-73374500D01*
X96509500Y-73374500D01*
X96466013Y-73356487D01*
X96448000Y-73313000D01*
X96448000Y-68593619D01*
X102349500Y-68593619D01*
X102386025Y-68777245D01*
X102386030Y-68777261D01*
X102457675Y-68950224D01*
X102457678Y-68950231D01*
X102457679Y-68950233D01*
X102457683Y-68950240D01*
X102561692Y-69105901D01*
X102561697Y-69105907D01*
X102694092Y-69238302D01*
X102694098Y-69238307D01*
X102849759Y-69342316D01*
X102849763Y-69342318D01*
X102849769Y-69342322D01*
X102930355Y-69375702D01*
X103022738Y-69413969D01*
X103022743Y-69413970D01*
X103022749Y-69413973D01*
X103206380Y-69450499D01*
X103206381Y-69450500D01*
X103206384Y-69450500D01*
X103393619Y-69450500D01*
X103393619Y-69450499D01*
X103577251Y-69413973D01*
X103750231Y-69342322D01*
X103905908Y-69238302D01*
X104038302Y-69105908D01*
X104142322Y-68950231D01*
X104213973Y-68777251D01*
X104250499Y-68593619D01*
X104250500Y-68593619D01*
X104250500Y-68406381D01*
X104250499Y-68406380D01*
X104213974Y-68222754D01*
X104213973Y-68222753D01*
X104213973Y-68222749D01*
X104213970Y-68222743D01*
X104213969Y-68222738D01*
X104142324Y-68049775D01*
X104142322Y-68049769D01*
X104142318Y-68049763D01*
X104142316Y-68049759D01*
X104038307Y-67894098D01*
X104038302Y-67894092D01*
X103905907Y-67761697D01*
X103905901Y-67761692D01*
X103750240Y-67657683D01*
X103750233Y-67657679D01*
X103750231Y-67657678D01*
X103750224Y-67657675D01*
X103577261Y-67586030D01*
X103577245Y-67586025D01*
X103393619Y-67549500D01*
X103393616Y-67549500D01*
X103206384Y-67549500D01*
X103206381Y-67549500D01*
X103022754Y-67586025D01*
X103022738Y-67586030D01*
X102849775Y-67657675D01*
X102849759Y-67657683D01*
X102694098Y-67761692D01*
X102694092Y-67761697D01*
X102561697Y-67894092D01*
X102561692Y-67894098D01*
X102457683Y-68049759D01*
X102457675Y-68049775D01*
X102386030Y-68222738D01*
X102386025Y-68222754D01*
X102349500Y-68406380D01*
X102349500Y-68593619D01*
X96448000Y-68593619D01*
X96448000Y-57090628D01*
X96448000Y-57090627D01*
X96446349Y-57084464D01*
X96419855Y-56985587D01*
X96365482Y-56891412D01*
X92974070Y-53500000D01*
X105170116Y-53500000D01*
X105189635Y-53860017D01*
X105247968Y-54215834D01*
X105344423Y-54563232D01*
X105344424Y-54563235D01*
X105477880Y-54898183D01*
X105646763Y-55216732D01*
X105849098Y-55515155D01*
X105849106Y-55515165D01*
X106040410Y-55740385D01*
X107262283Y-54518511D01*
X107279588Y-54542330D01*
X107457670Y-54720412D01*
X107481486Y-54737715D01*
X106260576Y-55958625D01*
X106344274Y-56037907D01*
X106631309Y-56256106D01*
X106940252Y-56441991D01*
X107267485Y-56593385D01*
X107267489Y-56593387D01*
X107609155Y-56708507D01*
X107609171Y-56708512D01*
X107961288Y-56786018D01*
X107961285Y-56786018D01*
X108319714Y-56824999D01*
X108319716Y-56825000D01*
X108680284Y-56825000D01*
X108680285Y-56824999D01*
X109038712Y-56786018D01*
X109390828Y-56708512D01*
X109390844Y-56708507D01*
X109732510Y-56593387D01*
X109732514Y-56593385D01*
X110059747Y-56441991D01*
X110368690Y-56256106D01*
X110655718Y-56037912D01*
X110655723Y-56037908D01*
X110739422Y-55958625D01*
X109518513Y-54737716D01*
X109542330Y-54720412D01*
X109720412Y-54542330D01*
X109737716Y-54518513D01*
X110959587Y-55740384D01*
X111150900Y-55515155D01*
X111150901Y-55515155D01*
X111353236Y-55216732D01*
X111522119Y-54898183D01*
X111655575Y-54563235D01*
X111655576Y-54563232D01*
X111752031Y-54215834D01*
X111810364Y-53860017D01*
X111829883Y-53500000D01*
X111810364Y-53139982D01*
X111752031Y-52784165D01*
X111655576Y-52436767D01*
X111655575Y-52436764D01*
X111522119Y-52101816D01*
X111353236Y-51783267D01*
X111150901Y-51484844D01*
X111150893Y-51484834D01*
X110959588Y-51259613D01*
X109737715Y-52481486D01*
X109720412Y-52457670D01*
X109542330Y-52279588D01*
X109518511Y-52262283D01*
X110739422Y-51041373D01*
X110655725Y-50962092D01*
X110368690Y-50743893D01*
X110059747Y-50558008D01*
X109732514Y-50406614D01*
X109732510Y-50406612D01*
X109390844Y-50291492D01*
X109390828Y-50291487D01*
X109038711Y-50213981D01*
X109038714Y-50213981D01*
X108680285Y-50175000D01*
X108319714Y-50175000D01*
X107961287Y-50213981D01*
X107609171Y-50291487D01*
X107609155Y-50291492D01*
X107267489Y-50406612D01*
X107267485Y-50406614D01*
X106940252Y-50558008D01*
X106631309Y-50743893D01*
X106344274Y-50962092D01*
X106260576Y-51041373D01*
X107481486Y-52262283D01*
X107457670Y-52279588D01*
X107279588Y-52457670D01*
X107262283Y-52481486D01*
X106040410Y-51259613D01*
X105849106Y-51484834D01*
X105849098Y-51484844D01*
X105646763Y-51783267D01*
X105477880Y-52101816D01*
X105344424Y-52436764D01*
X105344423Y-52436767D01*
X105247968Y-52784165D01*
X105189635Y-53139982D01*
X105170116Y-53500000D01*
X92974070Y-53500000D01*
X88181013Y-48706942D01*
X88163000Y-48663455D01*
X88163000Y-48440000D01*
X88619906Y-48440000D01*
X88638215Y-48590791D01*
X88638215Y-48590792D01*
X88638216Y-48590795D01*
X88638216Y-48590798D01*
X88692076Y-48732814D01*
X88692081Y-48732823D01*
X88778365Y-48857827D01*
X88778367Y-48857829D01*
X88778368Y-48857830D01*
X88892066Y-48958557D01*
X89026566Y-49029148D01*
X89174051Y-49065500D01*
X89174052Y-49065500D01*
X89325948Y-49065500D01*
X89325949Y-49065500D01*
X89473434Y-49029148D01*
X89607934Y-48958557D01*
X89721632Y-48857830D01*
X89807921Y-48732819D01*
X89811712Y-48722823D01*
X89861783Y-48590798D01*
X89861783Y-48590795D01*
X89861785Y-48590791D01*
X89880094Y-48440000D01*
X89861785Y-48289209D01*
X89830960Y-48207929D01*
X89832381Y-48160881D01*
X89866654Y-48128618D01*
X89913703Y-48130039D01*
X89917005Y-48131646D01*
X90026566Y-48189148D01*
X90026570Y-48189149D01*
X90026572Y-48189150D01*
X90061675Y-48197801D01*
X90093033Y-48205530D01*
X90130946Y-48233426D01*
X90137333Y-48275354D01*
X90138664Y-48275516D01*
X90138215Y-48279206D01*
X90138215Y-48279209D01*
X90119906Y-48430000D01*
X90138215Y-48580791D01*
X90138215Y-48580792D01*
X90138216Y-48580795D01*
X90138216Y-48580798D01*
X90192076Y-48722814D01*
X90192081Y-48722823D01*
X90278365Y-48847827D01*
X90278367Y-48847829D01*
X90278368Y-48847830D01*
X90392066Y-48948557D01*
X90526566Y-49019148D01*
X90674051Y-49055500D01*
X90674052Y-49055500D01*
X90825948Y-49055500D01*
X90825949Y-49055500D01*
X90973434Y-49019148D01*
X91107934Y-48948557D01*
X91221632Y-48847830D01*
X91307921Y-48722819D01*
X91307923Y-48722814D01*
X91361783Y-48580798D01*
X91361783Y-48580795D01*
X91361785Y-48580791D01*
X91380094Y-48430000D01*
X91361785Y-48279209D01*
X91335695Y-48210415D01*
X91337116Y-48163367D01*
X91371389Y-48131104D01*
X91418438Y-48132525D01*
X91421776Y-48134150D01*
X91526566Y-48189148D01*
X91674051Y-48225500D01*
X91674052Y-48225500D01*
X91825948Y-48225500D01*
X91825949Y-48225500D01*
X91973434Y-48189148D01*
X92107934Y-48118557D01*
X92221632Y-48017830D01*
X92307921Y-47892819D01*
X92307923Y-47892814D01*
X92361783Y-47750798D01*
X92361783Y-47750795D01*
X92361785Y-47750791D01*
X92380094Y-47600000D01*
X93119906Y-47600000D01*
X93138215Y-47750791D01*
X93138215Y-47750792D01*
X93138216Y-47750795D01*
X93138216Y-47750798D01*
X93192076Y-47892814D01*
X93192081Y-47892823D01*
X93278365Y-48017827D01*
X93278367Y-48017829D01*
X93278368Y-48017830D01*
X93392066Y-48118557D01*
X93526566Y-48189148D01*
X93674051Y-48225500D01*
X93674052Y-48225500D01*
X93825948Y-48225500D01*
X93825949Y-48225500D01*
X93973434Y-48189148D01*
X94107934Y-48118557D01*
X94221632Y-48017830D01*
X94307921Y-47892819D01*
X94307923Y-47892814D01*
X94361783Y-47750798D01*
X94361783Y-47750795D01*
X94361785Y-47750791D01*
X94380094Y-47600000D01*
X94619906Y-47600000D01*
X94638215Y-47750791D01*
X94638215Y-47750792D01*
X94638216Y-47750795D01*
X94638216Y-47750798D01*
X94692076Y-47892814D01*
X94692081Y-47892823D01*
X94778365Y-48017827D01*
X94778367Y-48017829D01*
X94778368Y-48017830D01*
X94892066Y-48118557D01*
X95026566Y-48189148D01*
X95174051Y-48225500D01*
X95174052Y-48225500D01*
X95325948Y-48225500D01*
X95325949Y-48225500D01*
X95473434Y-48189148D01*
X95607934Y-48118557D01*
X95685319Y-48050000D01*
X96119906Y-48050000D01*
X96138215Y-48200791D01*
X96138215Y-48200792D01*
X96138216Y-48200795D01*
X96138216Y-48200798D01*
X96192076Y-48342814D01*
X96192081Y-48342823D01*
X96278365Y-48467827D01*
X96278367Y-48467829D01*
X96278368Y-48467830D01*
X96392066Y-48568557D01*
X96526566Y-48639148D01*
X96674051Y-48675500D01*
X96674052Y-48675500D01*
X96825948Y-48675500D01*
X96825949Y-48675500D01*
X96973434Y-48639148D01*
X97107934Y-48568557D01*
X97221632Y-48467830D01*
X97307921Y-48342819D01*
X97309537Y-48338557D01*
X97361783Y-48200798D01*
X97361783Y-48200795D01*
X97361785Y-48200791D01*
X97380094Y-48050000D01*
X97361785Y-47899209D01*
X97361783Y-47899203D01*
X97361783Y-47899201D01*
X97307923Y-47757185D01*
X97307918Y-47757176D01*
X97221634Y-47632172D01*
X97221632Y-47632170D01*
X97185319Y-47600000D01*
X98119906Y-47600000D01*
X98138215Y-47750791D01*
X98138215Y-47750792D01*
X98138216Y-47750795D01*
X98138216Y-47750798D01*
X98192076Y-47892814D01*
X98192081Y-47892823D01*
X98278365Y-48017827D01*
X98278367Y-48017829D01*
X98278368Y-48017830D01*
X98392066Y-48118557D01*
X98526566Y-48189148D01*
X98674051Y-48225500D01*
X98674052Y-48225500D01*
X98825948Y-48225500D01*
X98825949Y-48225500D01*
X98973434Y-48189148D01*
X99107934Y-48118557D01*
X99221632Y-48017830D01*
X99307921Y-47892819D01*
X99307923Y-47892814D01*
X99361783Y-47750798D01*
X99361783Y-47750795D01*
X99361785Y-47750791D01*
X99380094Y-47600000D01*
X99619906Y-47600000D01*
X99638215Y-47750791D01*
X99638215Y-47750792D01*
X99638216Y-47750795D01*
X99638216Y-47750798D01*
X99692076Y-47892814D01*
X99692081Y-47892823D01*
X99778365Y-48017827D01*
X99778367Y-48017829D01*
X99778368Y-48017830D01*
X99892066Y-48118557D01*
X100026566Y-48189148D01*
X100174051Y-48225500D01*
X100174052Y-48225500D01*
X100325948Y-48225500D01*
X100325949Y-48225500D01*
X100473434Y-48189148D01*
X100607934Y-48118557D01*
X100721632Y-48017830D01*
X100807921Y-47892819D01*
X100807923Y-47892814D01*
X100861783Y-47750798D01*
X100861783Y-47750795D01*
X100861785Y-47750791D01*
X100880094Y-47600000D01*
X101119906Y-47600000D01*
X101138215Y-47750791D01*
X101138215Y-47750792D01*
X101138216Y-47750795D01*
X101138216Y-47750798D01*
X101192076Y-47892814D01*
X101192081Y-47892823D01*
X101278365Y-48017827D01*
X101278367Y-48017829D01*
X101278368Y-48017830D01*
X101392066Y-48118557D01*
X101526566Y-48189148D01*
X101674051Y-48225500D01*
X101674052Y-48225500D01*
X101825948Y-48225500D01*
X101825949Y-48225500D01*
X101973434Y-48189148D01*
X102107934Y-48118557D01*
X102221632Y-48017830D01*
X102307921Y-47892819D01*
X102307923Y-47892814D01*
X102335538Y-47820000D01*
X103119906Y-47820000D01*
X103138215Y-47970791D01*
X103138215Y-47970792D01*
X103138216Y-47970795D01*
X103138216Y-47970798D01*
X103192076Y-48112814D01*
X103192081Y-48112823D01*
X103278365Y-48237827D01*
X103278367Y-48237829D01*
X103278368Y-48237830D01*
X103392066Y-48338557D01*
X103526566Y-48409148D01*
X103674051Y-48445500D01*
X103674052Y-48445500D01*
X103825948Y-48445500D01*
X103825949Y-48445500D01*
X103973434Y-48409148D01*
X104107934Y-48338557D01*
X104221632Y-48237830D01*
X104307921Y-48112819D01*
X104311712Y-48102823D01*
X104361783Y-47970798D01*
X104361783Y-47970795D01*
X104361785Y-47970791D01*
X104380094Y-47820000D01*
X104368575Y-47725136D01*
X104381215Y-47679798D01*
X104422214Y-47656674D01*
X104458205Y-47663269D01*
X104526566Y-47699148D01*
X104577360Y-47711667D01*
X104615273Y-47739563D01*
X104623695Y-47778792D01*
X104619906Y-47809999D01*
X104619906Y-47810000D01*
X104638215Y-47960791D01*
X104638215Y-47960792D01*
X104638216Y-47960795D01*
X104638216Y-47960798D01*
X104692076Y-48102814D01*
X104692081Y-48102823D01*
X104778365Y-48227827D01*
X104778367Y-48227829D01*
X104778368Y-48227830D01*
X104892066Y-48328557D01*
X105026566Y-48399148D01*
X105174051Y-48435500D01*
X105174052Y-48435500D01*
X105325948Y-48435500D01*
X105325949Y-48435500D01*
X105473434Y-48399148D01*
X105607934Y-48328557D01*
X105721632Y-48227830D01*
X105807921Y-48102819D01*
X105827953Y-48050000D01*
X105861783Y-47960798D01*
X105861783Y-47960795D01*
X105861785Y-47960791D01*
X105880094Y-47810000D01*
X105861785Y-47659209D01*
X105861783Y-47659203D01*
X105861783Y-47659201D01*
X105807923Y-47517185D01*
X105807918Y-47517176D01*
X105721634Y-47392172D01*
X105721632Y-47392170D01*
X105607934Y-47291443D01*
X105473434Y-47220852D01*
X105473433Y-47220851D01*
X105473432Y-47220851D01*
X105422637Y-47208331D01*
X105384725Y-47180434D01*
X105376305Y-47141204D01*
X105380094Y-47110003D01*
X105380094Y-47110000D01*
X105361785Y-46959209D01*
X105361783Y-46959203D01*
X105361783Y-46959201D01*
X105307923Y-46817185D01*
X105307918Y-46817176D01*
X105221634Y-46692172D01*
X105221632Y-46692170D01*
X105107934Y-46591443D01*
X104973434Y-46520852D01*
X104973431Y-46520851D01*
X104897641Y-46502170D01*
X104825949Y-46484500D01*
X104674051Y-46484500D01*
X104625809Y-46496390D01*
X104526568Y-46520851D01*
X104392069Y-46591441D01*
X104392067Y-46591442D01*
X104392066Y-46591443D01*
X104335217Y-46641806D01*
X104278365Y-46692172D01*
X104192081Y-46817176D01*
X104192076Y-46817185D01*
X104138216Y-46959201D01*
X104138216Y-46959204D01*
X104138215Y-46959207D01*
X104138215Y-46959209D01*
X104131945Y-47010851D01*
X104119906Y-47110000D01*
X104131424Y-47204860D01*
X104118784Y-47250201D01*
X104077785Y-47273325D01*
X104041792Y-47266729D01*
X103973432Y-47230851D01*
X103867981Y-47204860D01*
X103825949Y-47194500D01*
X103674051Y-47194500D01*
X103632019Y-47204860D01*
X103526568Y-47230851D01*
X103392069Y-47301441D01*
X103392067Y-47301442D01*
X103392066Y-47301443D01*
X103385585Y-47307185D01*
X103278365Y-47402172D01*
X103192081Y-47527176D01*
X103192076Y-47527185D01*
X103138216Y-47669201D01*
X103138216Y-47669204D01*
X103138215Y-47669207D01*
X103138215Y-47669209D01*
X103119906Y-47820000D01*
X102335538Y-47820000D01*
X102361783Y-47750798D01*
X102361783Y-47750795D01*
X102361785Y-47750791D01*
X102380094Y-47600000D01*
X102361785Y-47449209D01*
X102361783Y-47449203D01*
X102361783Y-47449201D01*
X102307923Y-47307185D01*
X102307918Y-47307176D01*
X102221634Y-47182172D01*
X102219672Y-47180434D01*
X102107934Y-47081443D01*
X101973434Y-47010852D01*
X101973431Y-47010851D01*
X101897641Y-46992170D01*
X101825949Y-46974500D01*
X101674051Y-46974500D01*
X101625809Y-46986390D01*
X101526568Y-47010851D01*
X101392069Y-47081441D01*
X101392067Y-47081442D01*
X101392066Y-47081443D01*
X101335217Y-47131806D01*
X101278365Y-47182172D01*
X101192081Y-47307176D01*
X101192076Y-47307185D01*
X101138216Y-47449201D01*
X101138216Y-47449204D01*
X101138215Y-47449207D01*
X101138215Y-47449209D01*
X101119906Y-47600000D01*
X100880094Y-47600000D01*
X100861785Y-47449209D01*
X100861783Y-47449203D01*
X100861783Y-47449201D01*
X100807923Y-47307185D01*
X100807918Y-47307176D01*
X100721634Y-47182172D01*
X100719672Y-47180434D01*
X100607934Y-47081443D01*
X100473434Y-47010852D01*
X100473431Y-47010851D01*
X100397641Y-46992170D01*
X100325949Y-46974500D01*
X100174051Y-46974500D01*
X100125809Y-46986390D01*
X100026568Y-47010851D01*
X99892069Y-47081441D01*
X99892067Y-47081442D01*
X99892066Y-47081443D01*
X99835217Y-47131806D01*
X99778365Y-47182172D01*
X99692081Y-47307176D01*
X99692076Y-47307185D01*
X99638216Y-47449201D01*
X99638216Y-47449204D01*
X99638215Y-47449207D01*
X99638215Y-47449209D01*
X99619906Y-47600000D01*
X99380094Y-47600000D01*
X99361785Y-47449209D01*
X99361783Y-47449203D01*
X99361783Y-47449201D01*
X99307923Y-47307185D01*
X99307918Y-47307176D01*
X99221634Y-47182172D01*
X99219672Y-47180434D01*
X99107934Y-47081443D01*
X98973434Y-47010852D01*
X98973431Y-47010851D01*
X98897641Y-46992170D01*
X98825949Y-46974500D01*
X98674051Y-46974500D01*
X98625809Y-46986390D01*
X98526568Y-47010851D01*
X98392069Y-47081441D01*
X98392067Y-47081442D01*
X98392066Y-47081443D01*
X98335217Y-47131806D01*
X98278365Y-47182172D01*
X98192081Y-47307176D01*
X98192076Y-47307185D01*
X98138216Y-47449201D01*
X98138216Y-47449204D01*
X98138215Y-47449207D01*
X98138215Y-47449209D01*
X98119906Y-47600000D01*
X97185319Y-47600000D01*
X97107934Y-47531443D01*
X96973434Y-47460852D01*
X96973431Y-47460851D01*
X96897641Y-47442170D01*
X96825949Y-47424500D01*
X96674051Y-47424500D01*
X96625809Y-47436390D01*
X96526568Y-47460851D01*
X96392069Y-47531441D01*
X96392067Y-47531442D01*
X96392066Y-47531443D01*
X96351268Y-47567587D01*
X96278365Y-47632172D01*
X96192081Y-47757176D01*
X96192076Y-47757185D01*
X96138216Y-47899201D01*
X96138216Y-47899204D01*
X96138215Y-47899207D01*
X96138215Y-47899209D01*
X96119906Y-48050000D01*
X95685319Y-48050000D01*
X95721632Y-48017830D01*
X95807921Y-47892819D01*
X95807923Y-47892814D01*
X95861783Y-47750798D01*
X95861783Y-47750795D01*
X95861785Y-47750791D01*
X95880094Y-47600000D01*
X95861785Y-47449209D01*
X95861783Y-47449203D01*
X95861783Y-47449201D01*
X95807923Y-47307185D01*
X95807918Y-47307176D01*
X95721634Y-47182172D01*
X95719672Y-47180434D01*
X95607934Y-47081443D01*
X95473434Y-47010852D01*
X95473431Y-47010851D01*
X95397641Y-46992170D01*
X95325949Y-46974500D01*
X95174051Y-46974500D01*
X95125809Y-46986390D01*
X95026568Y-47010851D01*
X94892069Y-47081441D01*
X94892067Y-47081442D01*
X94892066Y-47081443D01*
X94835217Y-47131806D01*
X94778365Y-47182172D01*
X94692081Y-47307176D01*
X94692076Y-47307185D01*
X94638216Y-47449201D01*
X94638216Y-47449204D01*
X94638215Y-47449207D01*
X94638215Y-47449209D01*
X94619906Y-47600000D01*
X94380094Y-47600000D01*
X94361785Y-47449209D01*
X94361783Y-47449203D01*
X94361783Y-47449201D01*
X94307923Y-47307185D01*
X94307918Y-47307176D01*
X94221634Y-47182172D01*
X94219672Y-47180434D01*
X94107934Y-47081443D01*
X93973434Y-47010852D01*
X93973431Y-47010851D01*
X93897641Y-46992170D01*
X93825949Y-46974500D01*
X93674051Y-46974500D01*
X93625809Y-46986390D01*
X93526568Y-47010851D01*
X93392069Y-47081441D01*
X93392067Y-47081442D01*
X93392066Y-47081443D01*
X93335217Y-47131806D01*
X93278365Y-47182172D01*
X93192081Y-47307176D01*
X93192076Y-47307185D01*
X93138216Y-47449201D01*
X93138216Y-47449204D01*
X93138215Y-47449207D01*
X93138215Y-47449209D01*
X93119906Y-47600000D01*
X92380094Y-47600000D01*
X92361785Y-47449209D01*
X92361783Y-47449203D01*
X92361783Y-47449201D01*
X92307923Y-47307185D01*
X92307918Y-47307176D01*
X92221634Y-47182172D01*
X92219672Y-47180434D01*
X92107934Y-47081443D01*
X91973434Y-47010852D01*
X91973431Y-47010851D01*
X91897641Y-46992170D01*
X91825949Y-46974500D01*
X91674051Y-46974500D01*
X91625809Y-46986390D01*
X91526568Y-47010851D01*
X91392069Y-47081441D01*
X91392067Y-47081442D01*
X91392066Y-47081443D01*
X91335217Y-47131806D01*
X91278365Y-47182172D01*
X91192081Y-47307176D01*
X91192076Y-47307185D01*
X91138216Y-47449201D01*
X91138216Y-47449204D01*
X91138215Y-47449207D01*
X91138215Y-47449209D01*
X91119906Y-47600000D01*
X91138215Y-47750791D01*
X91138215Y-47750792D01*
X91138216Y-47750795D01*
X91138216Y-47750798D01*
X91164304Y-47819584D01*
X91162883Y-47866632D01*
X91128609Y-47898895D01*
X91081561Y-47897474D01*
X91078221Y-47895848D01*
X90992487Y-47850852D01*
X90973434Y-47840852D01*
X90973431Y-47840851D01*
X90906965Y-47824468D01*
X90869052Y-47796571D01*
X90862671Y-47754646D01*
X90861336Y-47754484D01*
X90861784Y-47750793D01*
X90861785Y-47750791D01*
X90880094Y-47600000D01*
X90861785Y-47449209D01*
X90861783Y-47449203D01*
X90861783Y-47449201D01*
X90807923Y-47307185D01*
X90807918Y-47307176D01*
X90721634Y-47182172D01*
X90719672Y-47180434D01*
X90607934Y-47081443D01*
X90473434Y-47010852D01*
X90473431Y-47010851D01*
X90397641Y-46992170D01*
X90325949Y-46974500D01*
X90174051Y-46974500D01*
X90125809Y-46986390D01*
X90026568Y-47010851D01*
X89892069Y-47081441D01*
X89892067Y-47081442D01*
X89892066Y-47081443D01*
X89835217Y-47131806D01*
X89778365Y-47182172D01*
X89692081Y-47307176D01*
X89692076Y-47307185D01*
X89638216Y-47449201D01*
X89638216Y-47449204D01*
X89638215Y-47449207D01*
X89638215Y-47449209D01*
X89619906Y-47600000D01*
X89638215Y-47750791D01*
X89638215Y-47750792D01*
X89638216Y-47750795D01*
X89638216Y-47750798D01*
X89669039Y-47832069D01*
X89667618Y-47879117D01*
X89633344Y-47911380D01*
X89586296Y-47909959D01*
X89582956Y-47908333D01*
X89473432Y-47850851D01*
X89374190Y-47826390D01*
X89325949Y-47814500D01*
X89174051Y-47814500D01*
X89125809Y-47826390D01*
X89026568Y-47850851D01*
X88892069Y-47921441D01*
X88892067Y-47921442D01*
X88892066Y-47921443D01*
X88847643Y-47960798D01*
X88778365Y-48022172D01*
X88692081Y-48147176D01*
X88692076Y-48147185D01*
X88638216Y-48289201D01*
X88638216Y-48289204D01*
X88638215Y-48289207D01*
X88638215Y-48289209D01*
X88619906Y-48440000D01*
X88163000Y-48440000D01*
X88163000Y-44280000D01*
X89119906Y-44280000D01*
X89138215Y-44430791D01*
X89138215Y-44430792D01*
X89138216Y-44430795D01*
X89138216Y-44430798D01*
X89192076Y-44572814D01*
X89192081Y-44572823D01*
X89278365Y-44697827D01*
X89278367Y-44697829D01*
X89278368Y-44697830D01*
X89392066Y-44798557D01*
X89526566Y-44869148D01*
X89674051Y-44905500D01*
X89674052Y-44905500D01*
X89825948Y-44905500D01*
X89825949Y-44905500D01*
X89973434Y-44869148D01*
X90107934Y-44798557D01*
X90221632Y-44697830D01*
X90307921Y-44572819D01*
X90307923Y-44572814D01*
X90361783Y-44430798D01*
X90361783Y-44430795D01*
X90361785Y-44430791D01*
X90380094Y-44280000D01*
X90361785Y-44129209D01*
X90361783Y-44129203D01*
X90361783Y-44129201D01*
X90320368Y-44020000D01*
X90619906Y-44020000D01*
X90638215Y-44170791D01*
X90638215Y-44170792D01*
X90638216Y-44170795D01*
X90638216Y-44170798D01*
X90692076Y-44312814D01*
X90692081Y-44312823D01*
X90778365Y-44437827D01*
X90778367Y-44437829D01*
X90778368Y-44437830D01*
X90892066Y-44538557D01*
X91026566Y-44609148D01*
X91174051Y-44645500D01*
X91174052Y-44645500D01*
X91325948Y-44645500D01*
X91325949Y-44645500D01*
X91473434Y-44609148D01*
X91607934Y-44538557D01*
X91721632Y-44437830D01*
X91768452Y-44370000D01*
X92119906Y-44370000D01*
X92138215Y-44520791D01*
X92138215Y-44520792D01*
X92138216Y-44520795D01*
X92138216Y-44520798D01*
X92192076Y-44662814D01*
X92192081Y-44662823D01*
X92278365Y-44787827D01*
X92278367Y-44787829D01*
X92278368Y-44787830D01*
X92392066Y-44888557D01*
X92526566Y-44959148D01*
X92674051Y-44995500D01*
X92674052Y-44995500D01*
X92825948Y-44995500D01*
X92825949Y-44995500D01*
X92973434Y-44959148D01*
X93107934Y-44888557D01*
X93221632Y-44787830D01*
X93307921Y-44662819D01*
X93328276Y-44609148D01*
X93361783Y-44520798D01*
X93361783Y-44520795D01*
X93361785Y-44520791D01*
X93378880Y-44380000D01*
X94119906Y-44380000D01*
X94138215Y-44530791D01*
X94138215Y-44530792D01*
X94138216Y-44530795D01*
X94138216Y-44530798D01*
X94192076Y-44672814D01*
X94192081Y-44672823D01*
X94278365Y-44797827D01*
X94278367Y-44797829D01*
X94278368Y-44797830D01*
X94392066Y-44898557D01*
X94526566Y-44969148D01*
X94674051Y-45005500D01*
X94674052Y-45005500D01*
X94825948Y-45005500D01*
X94825949Y-45005500D01*
X94973434Y-44969148D01*
X95107934Y-44898557D01*
X95221632Y-44797830D01*
X95307921Y-44672819D01*
X95311712Y-44662823D01*
X95361783Y-44530798D01*
X95361783Y-44530795D01*
X95361785Y-44530791D01*
X95380094Y-44380000D01*
X95361785Y-44229209D01*
X95361783Y-44229203D01*
X95361783Y-44229201D01*
X95307922Y-44087183D01*
X95307920Y-44087179D01*
X95283593Y-44051936D01*
X95259247Y-44016666D01*
X95249368Y-43970646D01*
X95259246Y-43946798D01*
X95337921Y-43832819D01*
X95338423Y-43831495D01*
X95391783Y-43690798D01*
X95391783Y-43690795D01*
X95391785Y-43690791D01*
X95410094Y-43540000D01*
X95391785Y-43389209D01*
X95391783Y-43389203D01*
X95391783Y-43389201D01*
X95337923Y-43247185D01*
X95337918Y-43247176D01*
X95251634Y-43122172D01*
X95251632Y-43122170D01*
X95137934Y-43021443D01*
X95003434Y-42950852D01*
X95003431Y-42950851D01*
X94927641Y-42932170D01*
X94855949Y-42914500D01*
X94704051Y-42914500D01*
X94655809Y-42926390D01*
X94556568Y-42950851D01*
X94422069Y-43021441D01*
X94422067Y-43021442D01*
X94422066Y-43021443D01*
X94365217Y-43071806D01*
X94308365Y-43122172D01*
X94222081Y-43247176D01*
X94222076Y-43247185D01*
X94168216Y-43389201D01*
X94168216Y-43389204D01*
X94168215Y-43389207D01*
X94168215Y-43389209D01*
X94149906Y-43540000D01*
X94168215Y-43690791D01*
X94168215Y-43690792D01*
X94168216Y-43690795D01*
X94168216Y-43690798D01*
X94222077Y-43832816D01*
X94222079Y-43832820D01*
X94232942Y-43848557D01*
X94270751Y-43903332D01*
X94280631Y-43949353D01*
X94270752Y-43973203D01*
X94253756Y-43997827D01*
X94192078Y-44087182D01*
X94192076Y-44087185D01*
X94138216Y-44229201D01*
X94138216Y-44229204D01*
X94138215Y-44229207D01*
X94138215Y-44229209D01*
X94119906Y-44380000D01*
X93378880Y-44380000D01*
X93380094Y-44370000D01*
X93361785Y-44219209D01*
X93361783Y-44219203D01*
X93361783Y-44219201D01*
X93307923Y-44077185D01*
X93307918Y-44077176D01*
X93240798Y-43979936D01*
X93230918Y-43933914D01*
X93240798Y-43910064D01*
X93307918Y-43812823D01*
X93307921Y-43812819D01*
X93311712Y-43802823D01*
X93361783Y-43670798D01*
X93361783Y-43670795D01*
X93361785Y-43670791D01*
X93380094Y-43520000D01*
X93361785Y-43369209D01*
X93361783Y-43369203D01*
X93361783Y-43369201D01*
X93307923Y-43227185D01*
X93307918Y-43227176D01*
X93237346Y-43124936D01*
X93227466Y-43078915D01*
X93237346Y-43055064D01*
X93238897Y-43052818D01*
X93307921Y-42952819D01*
X93308667Y-42950851D01*
X93361783Y-42810798D01*
X93361783Y-42810795D01*
X93361785Y-42810791D01*
X93380094Y-42660000D01*
X93361785Y-42509209D01*
X93361783Y-42509203D01*
X93361783Y-42509201D01*
X93307923Y-42367185D01*
X93307918Y-42367176D01*
X93221634Y-42242172D01*
X93221632Y-42242170D01*
X93107934Y-42141443D01*
X92973434Y-42070852D01*
X92973431Y-42070851D01*
X92897641Y-42052170D01*
X92825949Y-42034500D01*
X92674051Y-42034500D01*
X92625809Y-42046390D01*
X92526568Y-42070851D01*
X92392069Y-42141441D01*
X92392067Y-42141442D01*
X92392066Y-42141443D01*
X92369493Y-42161441D01*
X92278365Y-42242172D01*
X92192081Y-42367176D01*
X92192076Y-42367185D01*
X92138216Y-42509201D01*
X92138216Y-42509204D01*
X92138215Y-42509207D01*
X92138215Y-42509209D01*
X92119906Y-42660000D01*
X92138215Y-42810791D01*
X92138215Y-42810792D01*
X92138216Y-42810795D01*
X92138216Y-42810798D01*
X92192076Y-42952814D01*
X92192078Y-42952817D01*
X92192079Y-42952819D01*
X92261104Y-43052819D01*
X92262654Y-43055064D01*
X92272533Y-43101086D01*
X92262654Y-43124936D01*
X92192078Y-43227182D01*
X92192076Y-43227185D01*
X92138216Y-43369201D01*
X92138216Y-43369204D01*
X92138215Y-43369207D01*
X92138215Y-43369209D01*
X92119906Y-43520000D01*
X92138215Y-43670791D01*
X92138215Y-43670792D01*
X92138216Y-43670795D01*
X92138216Y-43670798D01*
X92192076Y-43812814D01*
X92192081Y-43812823D01*
X92259202Y-43910064D01*
X92269082Y-43956086D01*
X92259202Y-43979936D01*
X92192081Y-44077176D01*
X92192076Y-44077185D01*
X92138216Y-44219201D01*
X92138216Y-44219204D01*
X92138215Y-44219207D01*
X92138215Y-44219209D01*
X92119906Y-44370000D01*
X91768452Y-44370000D01*
X91807921Y-44312819D01*
X91811712Y-44302823D01*
X91861783Y-44170798D01*
X91861783Y-44170795D01*
X91861785Y-44170791D01*
X91880094Y-44020000D01*
X91861785Y-43869209D01*
X91861783Y-43869203D01*
X91861783Y-43869201D01*
X91807922Y-43727183D01*
X91807918Y-43727176D01*
X91721634Y-43602172D01*
X91721632Y-43602170D01*
X91607934Y-43501443D01*
X91473434Y-43430852D01*
X91473431Y-43430851D01*
X91397641Y-43412170D01*
X91325949Y-43394500D01*
X91174051Y-43394500D01*
X91125809Y-43406390D01*
X91026568Y-43430851D01*
X90892069Y-43501441D01*
X90892067Y-43501442D01*
X90892066Y-43501443D01*
X90859832Y-43530000D01*
X90778365Y-43602172D01*
X90692081Y-43727176D01*
X90692078Y-43727183D01*
X90638216Y-43869201D01*
X90638216Y-43869204D01*
X90638215Y-43869207D01*
X90638215Y-43869209D01*
X90619906Y-44020000D01*
X90320368Y-44020000D01*
X90307923Y-43987185D01*
X90307918Y-43987176D01*
X90221634Y-43862172D01*
X90220811Y-43861443D01*
X90107934Y-43761443D01*
X89973434Y-43690852D01*
X89973431Y-43690851D01*
X89880980Y-43668064D01*
X89825949Y-43654500D01*
X89674051Y-43654500D01*
X89625809Y-43666390D01*
X89526568Y-43690851D01*
X89392069Y-43761441D01*
X89392067Y-43761442D01*
X89392066Y-43761443D01*
X89345362Y-43802819D01*
X89278365Y-43862172D01*
X89192081Y-43987176D01*
X89192076Y-43987185D01*
X89138216Y-44129201D01*
X89138216Y-44129204D01*
X89138215Y-44129207D01*
X89138215Y-44129209D01*
X89119906Y-44280000D01*
X88163000Y-44280000D01*
X88163000Y-40682510D01*
X88173940Y-40647497D01*
X88177236Y-40642737D01*
X88231172Y-40564852D01*
X88231176Y-40564842D01*
X88232348Y-40562845D01*
X88232438Y-40562897D01*
X88235191Y-40558184D01*
X88307921Y-40452819D01*
X88317283Y-40428131D01*
X88361783Y-40310798D01*
X88361783Y-40310795D01*
X88361785Y-40310791D01*
X88380094Y-40160000D01*
X88361785Y-40009209D01*
X88361783Y-40009203D01*
X88361783Y-40009201D01*
X88307923Y-39867185D01*
X88307918Y-39867176D01*
X88221634Y-39742172D01*
X88212974Y-39734500D01*
X88107934Y-39641443D01*
X87973434Y-39570852D01*
X87973431Y-39570851D01*
X87897090Y-39552034D01*
X87859177Y-39524137D01*
X87852095Y-39477603D01*
X87854306Y-39470510D01*
X87861783Y-39450795D01*
X87861785Y-39450791D01*
X87880094Y-39300000D01*
X88619906Y-39300000D01*
X88638215Y-39450791D01*
X88638215Y-39450792D01*
X88638216Y-39450795D01*
X88638216Y-39450798D01*
X88692076Y-39592814D01*
X88692081Y-39592823D01*
X88778365Y-39717827D01*
X88778367Y-39717829D01*
X88778368Y-39717830D01*
X88892066Y-39818557D01*
X89026566Y-39889148D01*
X89120250Y-39912239D01*
X89158162Y-39940136D01*
X89165245Y-39986670D01*
X89163036Y-39993760D01*
X89138215Y-40059206D01*
X89134573Y-40089201D01*
X89119906Y-40210000D01*
X89138215Y-40360791D01*
X89138215Y-40360792D01*
X89138216Y-40360795D01*
X89138216Y-40360798D01*
X89192076Y-40502814D01*
X89192081Y-40502823D01*
X89278365Y-40627827D01*
X89278367Y-40627829D01*
X89278368Y-40627830D01*
X89392066Y-40728557D01*
X89526566Y-40799148D01*
X89674051Y-40835500D01*
X89674052Y-40835500D01*
X89825948Y-40835500D01*
X89825949Y-40835500D01*
X89973434Y-40799148D01*
X90107934Y-40728557D01*
X90209862Y-40638256D01*
X90254358Y-40622903D01*
X90291424Y-40638256D01*
X90382066Y-40718557D01*
X90516566Y-40789148D01*
X90664051Y-40825500D01*
X90664052Y-40825500D01*
X90815948Y-40825500D01*
X90815949Y-40825500D01*
X90963434Y-40789148D01*
X91097934Y-40718557D01*
X91209862Y-40619397D01*
X91254356Y-40604043D01*
X91291424Y-40619396D01*
X91392066Y-40708557D01*
X91526566Y-40779148D01*
X91674051Y-40815500D01*
X91674052Y-40815500D01*
X91825948Y-40815500D01*
X91825949Y-40815500D01*
X91973434Y-40779148D01*
X92107934Y-40708557D01*
X92197931Y-40628826D01*
X92242426Y-40613473D01*
X92279492Y-40628826D01*
X92392066Y-40728557D01*
X92526566Y-40799148D01*
X92674051Y-40835500D01*
X92674052Y-40835500D01*
X92825948Y-40835500D01*
X92825949Y-40835500D01*
X92973434Y-40799148D01*
X93107934Y-40728557D01*
X93214220Y-40634396D01*
X93258713Y-40619043D01*
X93295779Y-40634395D01*
X93402066Y-40728557D01*
X93536566Y-40799148D01*
X93684051Y-40835500D01*
X93684052Y-40835500D01*
X93835948Y-40835500D01*
X93835949Y-40835500D01*
X93983434Y-40799148D01*
X94117934Y-40728557D01*
X94202931Y-40653256D01*
X94247425Y-40637902D01*
X94284491Y-40653255D01*
X94392066Y-40748557D01*
X94526566Y-40819148D01*
X94674051Y-40855500D01*
X94674052Y-40855500D01*
X94825948Y-40855500D01*
X94825949Y-40855500D01*
X94973434Y-40819148D01*
X95107934Y-40748557D01*
X95203575Y-40663826D01*
X95248070Y-40648473D01*
X95285136Y-40663826D01*
X95392066Y-40758557D01*
X95526566Y-40829148D01*
X95674051Y-40865500D01*
X95674052Y-40865500D01*
X95825948Y-40865500D01*
X95825949Y-40865500D01*
X95973434Y-40829148D01*
X96107934Y-40758557D01*
X96203575Y-40673826D01*
X96248070Y-40658473D01*
X96285136Y-40673826D01*
X96392066Y-40768557D01*
X96394918Y-40770053D01*
X96410402Y-40778181D01*
X96440536Y-40814340D01*
X96439324Y-40854444D01*
X96388216Y-40989201D01*
X96388216Y-40989204D01*
X96388216Y-40989206D01*
X96388215Y-40989209D01*
X96369906Y-41140000D01*
X96388215Y-41290791D01*
X96388215Y-41290792D01*
X96388216Y-41290795D01*
X96388216Y-41290798D01*
X96442076Y-41432814D01*
X96442081Y-41432822D01*
X96503848Y-41522306D01*
X96513728Y-41568327D01*
X96503849Y-41592177D01*
X96452081Y-41667177D01*
X96452077Y-41667184D01*
X96398216Y-41809201D01*
X96398216Y-41809204D01*
X96398215Y-41809207D01*
X96398215Y-41809209D01*
X96379906Y-41960000D01*
X96398215Y-42110791D01*
X96398215Y-42110792D01*
X96398216Y-42110795D01*
X96398216Y-42110798D01*
X96448040Y-42242170D01*
X96452079Y-42252819D01*
X96452080Y-42252820D01*
X96506945Y-42332307D01*
X96516824Y-42378329D01*
X96506945Y-42402178D01*
X96462081Y-42467177D01*
X96462077Y-42467184D01*
X96408216Y-42609201D01*
X96408216Y-42609204D01*
X96408215Y-42609207D01*
X96408215Y-42609209D01*
X96389906Y-42760000D01*
X96408215Y-42910791D01*
X96408215Y-42910792D01*
X96408216Y-42910795D01*
X96408216Y-42910798D01*
X96462077Y-43052815D01*
X96462079Y-43052819D01*
X96462080Y-43052820D01*
X96518848Y-43135064D01*
X96528727Y-43181086D01*
X96518848Y-43204936D01*
X96462079Y-43287181D01*
X96462077Y-43287184D01*
X96408216Y-43429201D01*
X96408216Y-43429204D01*
X96408215Y-43429207D01*
X96408215Y-43429209D01*
X96389906Y-43580000D01*
X96408215Y-43730791D01*
X96408215Y-43730792D01*
X96408216Y-43730795D01*
X96408216Y-43730798D01*
X96462076Y-43872814D01*
X96462081Y-43872823D01*
X96548365Y-43997827D01*
X96548367Y-43997829D01*
X96548368Y-43997830D01*
X96662066Y-44098557D01*
X96796566Y-44169148D01*
X96944051Y-44205500D01*
X96944052Y-44205500D01*
X97095948Y-44205500D01*
X97095949Y-44205500D01*
X97243434Y-44169148D01*
X97377934Y-44098557D01*
X97491632Y-43997830D01*
X97577921Y-43872819D01*
X97581960Y-43862170D01*
X97631783Y-43730798D01*
X97631783Y-43730795D01*
X97631785Y-43730791D01*
X97650094Y-43580000D01*
X97644023Y-43530000D01*
X99109906Y-43530000D01*
X99128215Y-43680791D01*
X99128215Y-43680792D01*
X99128216Y-43680795D01*
X99128216Y-43680798D01*
X99182076Y-43822814D01*
X99182078Y-43822817D01*
X99182079Y-43822819D01*
X99215642Y-43871443D01*
X99261105Y-43937308D01*
X99270984Y-43983330D01*
X99261105Y-44007180D01*
X99192078Y-44107182D01*
X99192076Y-44107185D01*
X99138216Y-44249201D01*
X99138216Y-44249204D01*
X99138215Y-44249207D01*
X99138215Y-44249209D01*
X99119906Y-44400000D01*
X99138215Y-44550791D01*
X99138215Y-44550792D01*
X99138216Y-44550795D01*
X99138216Y-44550798D01*
X99192076Y-44692814D01*
X99192081Y-44692823D01*
X99278365Y-44817827D01*
X99278367Y-44817829D01*
X99278368Y-44817830D01*
X99392066Y-44918557D01*
X99526566Y-44989148D01*
X99674051Y-45025500D01*
X99674052Y-45025500D01*
X99825948Y-45025500D01*
X99825949Y-45025500D01*
X99973434Y-44989148D01*
X100107934Y-44918557D01*
X100220507Y-44818826D01*
X100265002Y-44803473D01*
X100302067Y-44818826D01*
X100392066Y-44898557D01*
X100526566Y-44969148D01*
X100674051Y-45005500D01*
X100674052Y-45005500D01*
X100825948Y-45005500D01*
X100825949Y-45005500D01*
X100973434Y-44969148D01*
X101107934Y-44898557D01*
X101221632Y-44797830D01*
X101307921Y-44672819D01*
X101311712Y-44662823D01*
X101361783Y-44530798D01*
X101361783Y-44530795D01*
X101361785Y-44530791D01*
X101378880Y-44390000D01*
X102119906Y-44390000D01*
X102138215Y-44540791D01*
X102138215Y-44540792D01*
X102138216Y-44540795D01*
X102138216Y-44540798D01*
X102192076Y-44682814D01*
X102192081Y-44682823D01*
X102278365Y-44807827D01*
X102278367Y-44807829D01*
X102278368Y-44807830D01*
X102392066Y-44908557D01*
X102526566Y-44979148D01*
X102674051Y-45015500D01*
X102674052Y-45015500D01*
X102825948Y-45015500D01*
X102825949Y-45015500D01*
X102973434Y-44979148D01*
X103107934Y-44908557D01*
X103221632Y-44807830D01*
X103307921Y-44682819D01*
X103311712Y-44672823D01*
X103361783Y-44540798D01*
X103361783Y-44540795D01*
X103361785Y-44540791D01*
X103380094Y-44390000D01*
X103361785Y-44239209D01*
X103361783Y-44239203D01*
X103361783Y-44239201D01*
X103307923Y-44097185D01*
X103307918Y-44097176D01*
X103276691Y-44051936D01*
X103266811Y-44005914D01*
X103292368Y-43966387D01*
X103322386Y-43957032D01*
X103322255Y-43955949D01*
X103325943Y-43955501D01*
X103325947Y-43955500D01*
X103325949Y-43955500D01*
X103473434Y-43919148D01*
X103537901Y-43885312D01*
X103584777Y-43881052D01*
X103620936Y-43911187D01*
X103627533Y-43947180D01*
X103620402Y-44005914D01*
X103619906Y-44010000D01*
X103638215Y-44160791D01*
X103638215Y-44160792D01*
X103638216Y-44160795D01*
X103638216Y-44160798D01*
X103692076Y-44302814D01*
X103692081Y-44302823D01*
X103778365Y-44427827D01*
X103778367Y-44427829D01*
X103778368Y-44427830D01*
X103892066Y-44528557D01*
X104026566Y-44599148D01*
X104174051Y-44635500D01*
X104174052Y-44635500D01*
X104325948Y-44635500D01*
X104325949Y-44635500D01*
X104473434Y-44599148D01*
X104607934Y-44528557D01*
X104721632Y-44427830D01*
X104807921Y-44302819D01*
X104828253Y-44249209D01*
X104861783Y-44160798D01*
X104861783Y-44160795D01*
X104861785Y-44160791D01*
X104880094Y-44010000D01*
X104861785Y-43859209D01*
X104861783Y-43859203D01*
X104861783Y-43859201D01*
X104807923Y-43717185D01*
X104807918Y-43717176D01*
X104721634Y-43592172D01*
X104721632Y-43592170D01*
X104607934Y-43491443D01*
X104473434Y-43420852D01*
X104473431Y-43420851D01*
X104359696Y-43392818D01*
X104325949Y-43384500D01*
X104174051Y-43384500D01*
X104154946Y-43389209D01*
X104026567Y-43420851D01*
X103962098Y-43454687D01*
X103915221Y-43458946D01*
X103879062Y-43428811D01*
X103872466Y-43392820D01*
X103880094Y-43330000D01*
X103861785Y-43179209D01*
X103861783Y-43179203D01*
X103861783Y-43179201D01*
X103807923Y-43037185D01*
X103807918Y-43037176D01*
X103721634Y-42912172D01*
X103712974Y-42904500D01*
X103607934Y-42811443D01*
X103473434Y-42740852D01*
X103473431Y-42740851D01*
X103397641Y-42722170D01*
X103325949Y-42704500D01*
X103174051Y-42704500D01*
X103125809Y-42716390D01*
X103026568Y-42740851D01*
X102892069Y-42811441D01*
X102892067Y-42811442D01*
X102892066Y-42811443D01*
X102870222Y-42830795D01*
X102778365Y-42912172D01*
X102692081Y-43037176D01*
X102692076Y-43037185D01*
X102638216Y-43179201D01*
X102638216Y-43179204D01*
X102638215Y-43179207D01*
X102638215Y-43179209D01*
X102619906Y-43330000D01*
X102638215Y-43480791D01*
X102638215Y-43480792D01*
X102638216Y-43480795D01*
X102638216Y-43480798D01*
X102692076Y-43622814D01*
X102692081Y-43622823D01*
X102723309Y-43668064D01*
X102733189Y-43714086D01*
X102707632Y-43753613D01*
X102677613Y-43762967D01*
X102677745Y-43764051D01*
X102674056Y-43764498D01*
X102526568Y-43800851D01*
X102392069Y-43871441D01*
X102392067Y-43871442D01*
X102392066Y-43871443D01*
X102381220Y-43881052D01*
X102278365Y-43972172D01*
X102192081Y-44097176D01*
X102192076Y-44097185D01*
X102138216Y-44239201D01*
X102138216Y-44239204D01*
X102138215Y-44239207D01*
X102138215Y-44239209D01*
X102119906Y-44390000D01*
X101378880Y-44390000D01*
X101380094Y-44380000D01*
X101361785Y-44229209D01*
X101357991Y-44219204D01*
X101351692Y-44202595D01*
X101353113Y-44155546D01*
X101387386Y-44123283D01*
X101394465Y-44121076D01*
X101461838Y-44104470D01*
X101483431Y-44099149D01*
X101483431Y-44099148D01*
X101483434Y-44099148D01*
X101617934Y-44028557D01*
X101731632Y-43927830D01*
X101817921Y-43802819D01*
X101818667Y-43800851D01*
X101871783Y-43660798D01*
X101871783Y-43660795D01*
X101871785Y-43660791D01*
X101890094Y-43510000D01*
X101873630Y-43374410D01*
X101886270Y-43329072D01*
X101927269Y-43305948D01*
X101934682Y-43305500D01*
X101995948Y-43305500D01*
X101995949Y-43305500D01*
X102143434Y-43269148D01*
X102277934Y-43198557D01*
X102391632Y-43097830D01*
X102477921Y-42972819D01*
X102477923Y-42972814D01*
X102531783Y-42830798D01*
X102531783Y-42830795D01*
X102531785Y-42830791D01*
X102550094Y-42680000D01*
X102531785Y-42529209D01*
X102531783Y-42529203D01*
X102531783Y-42529201D01*
X102477923Y-42387185D01*
X102477918Y-42387176D01*
X102391634Y-42262172D01*
X102381078Y-42252820D01*
X102277934Y-42161443D01*
X102143434Y-42090852D01*
X102143431Y-42090851D01*
X102062287Y-42070851D01*
X101995949Y-42054500D01*
X101844051Y-42054500D01*
X101795809Y-42066390D01*
X101696568Y-42090851D01*
X101562069Y-42161441D01*
X101562067Y-42161442D01*
X101562066Y-42161443D01*
X101505217Y-42211806D01*
X101448365Y-42262172D01*
X101362081Y-42387176D01*
X101362076Y-42387185D01*
X101308216Y-42529201D01*
X101308216Y-42529204D01*
X101308215Y-42529207D01*
X101308215Y-42529209D01*
X101289906Y-42680000D01*
X101306369Y-42815589D01*
X101293730Y-42860928D01*
X101252731Y-42884052D01*
X101245318Y-42884500D01*
X101184051Y-42884500D01*
X101135809Y-42896390D01*
X101036568Y-42920851D01*
X100902069Y-42991441D01*
X100902067Y-42991442D01*
X100902066Y-42991443D01*
X100879493Y-43011441D01*
X100788365Y-43092172D01*
X100702081Y-43217176D01*
X100702076Y-43217185D01*
X100648216Y-43359201D01*
X100648216Y-43359204D01*
X100648215Y-43359207D01*
X100648215Y-43359209D01*
X100639764Y-43428811D01*
X100629906Y-43510000D01*
X100648215Y-43660793D01*
X100658308Y-43687405D01*
X100656886Y-43734454D01*
X100622612Y-43766717D01*
X100615522Y-43768926D01*
X100526567Y-43790851D01*
X100399823Y-43857371D01*
X100352946Y-43861630D01*
X100316787Y-43831495D01*
X100312528Y-43784618D01*
X100313733Y-43781124D01*
X100351785Y-43680791D01*
X100370094Y-43530000D01*
X100351785Y-43379209D01*
X100351783Y-43379203D01*
X100351783Y-43379201D01*
X100297923Y-43237185D01*
X100297918Y-43237176D01*
X100211634Y-43112172D01*
X100200344Y-43102170D01*
X100097934Y-43011443D01*
X99963434Y-42940852D01*
X99963431Y-42940851D01*
X99847067Y-42912170D01*
X99815949Y-42904500D01*
X99664051Y-42904500D01*
X99632933Y-42912170D01*
X99516568Y-42940851D01*
X99382069Y-43011441D01*
X99382067Y-43011442D01*
X99382066Y-43011443D01*
X99335365Y-43052816D01*
X99268365Y-43112172D01*
X99182081Y-43237176D01*
X99182076Y-43237185D01*
X99128216Y-43379201D01*
X99128216Y-43379204D01*
X99128215Y-43379207D01*
X99128215Y-43379209D01*
X99109906Y-43530000D01*
X97644023Y-43530000D01*
X97631785Y-43429209D01*
X97631783Y-43429203D01*
X97631783Y-43429201D01*
X97577922Y-43287183D01*
X97577920Y-43287179D01*
X97536506Y-43227182D01*
X97521150Y-43204935D01*
X97511271Y-43158915D01*
X97521150Y-43135064D01*
X97577921Y-43052819D01*
X97601199Y-42991441D01*
X97631783Y-42910798D01*
X97631783Y-42910795D01*
X97631785Y-42910791D01*
X97650094Y-42760000D01*
X97631785Y-42609209D01*
X97631783Y-42609203D01*
X97631783Y-42609201D01*
X97577923Y-42467185D01*
X97577918Y-42467177D01*
X97523052Y-42387690D01*
X97513173Y-42341671D01*
X97523050Y-42317824D01*
X97567921Y-42252819D01*
X97577283Y-42228131D01*
X97621783Y-42110798D01*
X97621783Y-42110795D01*
X97621785Y-42110791D01*
X97640094Y-41960000D01*
X97621785Y-41809209D01*
X97621783Y-41809203D01*
X97621783Y-41809201D01*
X97567922Y-41667183D01*
X97567918Y-41667175D01*
X97506151Y-41577692D01*
X97496271Y-41531671D01*
X97506150Y-41507821D01*
X97557921Y-41432819D01*
X97567283Y-41408131D01*
X97611783Y-41290798D01*
X97611783Y-41290795D01*
X97611785Y-41290791D01*
X97630094Y-41140000D01*
X97611785Y-40989209D01*
X97607600Y-40978174D01*
X97609020Y-40931127D01*
X97643293Y-40898862D01*
X97670331Y-40895579D01*
X97670331Y-40895500D01*
X97670986Y-40895500D01*
X97672518Y-40895314D01*
X97674049Y-40895500D01*
X97674051Y-40895500D01*
X97825948Y-40895500D01*
X97825949Y-40895500D01*
X97973434Y-40859148D01*
X98107934Y-40788557D01*
X98203063Y-40704280D01*
X98247556Y-40688927D01*
X98284299Y-40706812D01*
X98285584Y-40705363D01*
X98288366Y-40707828D01*
X98288368Y-40707830D01*
X98402066Y-40808557D01*
X98536566Y-40879148D01*
X98684051Y-40915500D01*
X98684052Y-40915500D01*
X98835948Y-40915500D01*
X98835949Y-40915500D01*
X98983434Y-40879148D01*
X99117934Y-40808557D01*
X99202931Y-40733256D01*
X99247425Y-40717902D01*
X99284491Y-40733255D01*
X99392066Y-40828557D01*
X99526566Y-40899148D01*
X99674051Y-40935500D01*
X99674052Y-40935500D01*
X99825948Y-40935500D01*
X99825949Y-40935500D01*
X99973434Y-40899148D01*
X100107934Y-40828557D01*
X100197931Y-40748826D01*
X100242426Y-40733473D01*
X100279492Y-40748826D01*
X100392066Y-40848557D01*
X100526566Y-40919148D01*
X100674051Y-40955500D01*
X100674052Y-40955500D01*
X100825948Y-40955500D01*
X100825949Y-40955500D01*
X100973434Y-40919148D01*
X101107934Y-40848557D01*
X101203575Y-40763826D01*
X101248070Y-40748473D01*
X101285136Y-40763826D01*
X101392066Y-40858557D01*
X101526566Y-40929148D01*
X101674051Y-40965500D01*
X101674052Y-40965500D01*
X101825948Y-40965500D01*
X101825949Y-40965500D01*
X101973434Y-40929148D01*
X102107934Y-40858557D01*
X102209219Y-40768826D01*
X102253714Y-40753473D01*
X102290780Y-40768826D01*
X102392066Y-40858557D01*
X102526566Y-40929148D01*
X102674051Y-40965500D01*
X102674052Y-40965500D01*
X102825948Y-40965500D01*
X102825949Y-40965500D01*
X102973434Y-40929148D01*
X103107934Y-40858557D01*
X103188575Y-40787115D01*
X103233069Y-40771761D01*
X103270135Y-40787113D01*
X103362066Y-40868557D01*
X103496566Y-40939148D01*
X103644051Y-40975500D01*
X103644052Y-40975500D01*
X103795948Y-40975500D01*
X103795949Y-40975500D01*
X103943434Y-40939148D01*
X104077934Y-40868557D01*
X104191632Y-40767830D01*
X104191636Y-40767823D01*
X104194092Y-40765052D01*
X104195233Y-40766062D01*
X104230454Y-40743284D01*
X104276477Y-40753157D01*
X104292161Y-40768838D01*
X104298366Y-40777828D01*
X104298367Y-40777829D01*
X104298368Y-40777830D01*
X104412066Y-40878557D01*
X104546566Y-40949148D01*
X104694051Y-40985500D01*
X104694052Y-40985500D01*
X104845948Y-40985500D01*
X104845949Y-40985500D01*
X104993434Y-40949148D01*
X105127934Y-40878557D01*
X105241632Y-40777830D01*
X105327921Y-40652819D01*
X105331745Y-40642737D01*
X105381783Y-40510798D01*
X105381783Y-40510795D01*
X105381785Y-40510791D01*
X105400094Y-40360000D01*
X105381785Y-40209209D01*
X105381783Y-40209203D01*
X105381783Y-40209201D01*
X105327923Y-40067185D01*
X105327918Y-40067176D01*
X105294671Y-40019010D01*
X105284791Y-39972989D01*
X105310348Y-39933461D01*
X105330563Y-39924362D01*
X105436905Y-39898151D01*
X105473431Y-39889149D01*
X105473431Y-39889148D01*
X105473434Y-39889148D01*
X105607934Y-39818557D01*
X105721632Y-39717830D01*
X105807921Y-39592819D01*
X105816252Y-39570852D01*
X105861783Y-39450798D01*
X105861783Y-39450795D01*
X105861785Y-39450791D01*
X105880094Y-39300000D01*
X105861785Y-39149209D01*
X105861783Y-39149203D01*
X105861783Y-39149201D01*
X105807923Y-39007185D01*
X105807918Y-39007176D01*
X105721634Y-38882172D01*
X105721632Y-38882170D01*
X105607934Y-38781443D01*
X105473434Y-38710852D01*
X105473431Y-38710851D01*
X105397641Y-38692170D01*
X105325949Y-38674500D01*
X105174051Y-38674500D01*
X105125809Y-38686390D01*
X105026568Y-38710851D01*
X104892068Y-38781441D01*
X104790782Y-38871172D01*
X104746286Y-38886526D01*
X104709218Y-38871172D01*
X104683368Y-38848271D01*
X104607934Y-38781443D01*
X104607932Y-38781442D01*
X104607931Y-38781441D01*
X104550704Y-38751406D01*
X104473434Y-38710852D01*
X104473431Y-38710851D01*
X104397641Y-38692170D01*
X104325949Y-38674500D01*
X104174051Y-38674500D01*
X104125809Y-38686390D01*
X104026568Y-38710851D01*
X103892068Y-38781441D01*
X103790782Y-38871172D01*
X103746286Y-38886526D01*
X103709218Y-38871172D01*
X103683368Y-38848271D01*
X103607934Y-38781443D01*
X103607932Y-38781442D01*
X103607931Y-38781441D01*
X103550704Y-38751406D01*
X103473434Y-38710852D01*
X103473431Y-38710851D01*
X103397641Y-38692170D01*
X103325949Y-38674500D01*
X103174051Y-38674500D01*
X103125809Y-38686390D01*
X103026568Y-38710851D01*
X102892068Y-38781441D01*
X102790782Y-38871172D01*
X102746286Y-38886526D01*
X102709218Y-38871172D01*
X102683368Y-38848271D01*
X102607934Y-38781443D01*
X102607932Y-38781442D01*
X102607931Y-38781441D01*
X102550704Y-38751406D01*
X102473434Y-38710852D01*
X102473431Y-38710851D01*
X102397641Y-38692170D01*
X102325949Y-38674500D01*
X102174051Y-38674500D01*
X102125809Y-38686390D01*
X102026568Y-38710851D01*
X101892068Y-38781441D01*
X101790782Y-38871172D01*
X101746286Y-38886526D01*
X101709218Y-38871172D01*
X101683368Y-38848271D01*
X101607934Y-38781443D01*
X101607932Y-38781442D01*
X101607931Y-38781441D01*
X101550704Y-38751406D01*
X101473434Y-38710852D01*
X101473431Y-38710851D01*
X101397641Y-38692170D01*
X101325949Y-38674500D01*
X101174051Y-38674500D01*
X101125809Y-38686390D01*
X101026568Y-38710851D01*
X100892068Y-38781441D01*
X100790782Y-38871172D01*
X100746286Y-38886526D01*
X100709218Y-38871172D01*
X100683368Y-38848271D01*
X100607934Y-38781443D01*
X100607932Y-38781442D01*
X100607931Y-38781441D01*
X100550704Y-38751406D01*
X100473434Y-38710852D01*
X100473431Y-38710851D01*
X100397641Y-38692170D01*
X100325949Y-38674500D01*
X100174051Y-38674500D01*
X100125809Y-38686390D01*
X100026568Y-38710851D01*
X99892068Y-38781441D01*
X99790782Y-38871172D01*
X99746286Y-38886526D01*
X99709218Y-38871172D01*
X99683368Y-38848271D01*
X99607934Y-38781443D01*
X99607932Y-38781442D01*
X99607931Y-38781441D01*
X99550704Y-38751406D01*
X99473434Y-38710852D01*
X99473431Y-38710851D01*
X99397641Y-38692170D01*
X99325949Y-38674500D01*
X99174051Y-38674500D01*
X99125809Y-38686390D01*
X99026568Y-38710851D01*
X98892068Y-38781441D01*
X98790782Y-38871172D01*
X98746286Y-38886526D01*
X98709218Y-38871172D01*
X98683368Y-38848271D01*
X98607934Y-38781443D01*
X98607932Y-38781442D01*
X98607931Y-38781441D01*
X98550704Y-38751406D01*
X98473434Y-38710852D01*
X98473431Y-38710851D01*
X98397641Y-38692170D01*
X98325949Y-38674500D01*
X98174051Y-38674500D01*
X98125809Y-38686390D01*
X98026568Y-38710851D01*
X97892069Y-38781441D01*
X97892067Y-38781442D01*
X97892066Y-38781443D01*
X97835217Y-38831806D01*
X97778365Y-38882172D01*
X97692081Y-39007176D01*
X97692076Y-39007185D01*
X97638216Y-39149201D01*
X97638216Y-39149204D01*
X97619906Y-39300000D01*
X97638215Y-39450793D01*
X97683846Y-39571110D01*
X97682424Y-39618158D01*
X97648150Y-39650422D01*
X97641060Y-39652631D01*
X97526568Y-39680851D01*
X97392068Y-39751441D01*
X97302070Y-39831172D01*
X97257574Y-39846526D01*
X97220506Y-39831172D01*
X97130507Y-39751441D01*
X97107934Y-39731443D01*
X97107932Y-39731442D01*
X97107931Y-39731441D01*
X97050704Y-39701406D01*
X96973434Y-39660852D01*
X96973431Y-39660851D01*
X96865876Y-39634341D01*
X96827963Y-39606444D01*
X96820881Y-39559910D01*
X96823091Y-39552820D01*
X96861783Y-39450798D01*
X96861783Y-39450795D01*
X96861785Y-39450791D01*
X96880094Y-39300000D01*
X96861785Y-39149209D01*
X96861783Y-39149203D01*
X96861783Y-39149201D01*
X96807923Y-39007185D01*
X96807918Y-39007176D01*
X96721634Y-38882172D01*
X96721632Y-38882170D01*
X96607934Y-38781443D01*
X96473434Y-38710852D01*
X96473431Y-38710851D01*
X96397641Y-38692170D01*
X96325949Y-38674500D01*
X96174051Y-38674500D01*
X96125809Y-38686390D01*
X96026568Y-38710851D01*
X95892068Y-38781441D01*
X95790782Y-38871172D01*
X95746286Y-38886526D01*
X95709218Y-38871172D01*
X95683368Y-38848271D01*
X95607934Y-38781443D01*
X95607932Y-38781442D01*
X95607931Y-38781441D01*
X95550704Y-38751406D01*
X95473434Y-38710852D01*
X95473431Y-38710851D01*
X95397641Y-38692170D01*
X95325949Y-38674500D01*
X95174051Y-38674500D01*
X95125809Y-38686390D01*
X95026568Y-38710851D01*
X94892068Y-38781441D01*
X94790782Y-38871172D01*
X94746286Y-38886526D01*
X94709218Y-38871172D01*
X94683368Y-38848271D01*
X94607934Y-38781443D01*
X94607932Y-38781442D01*
X94607931Y-38781441D01*
X94550704Y-38751406D01*
X94473434Y-38710852D01*
X94473431Y-38710851D01*
X94397641Y-38692170D01*
X94325949Y-38674500D01*
X94174051Y-38674500D01*
X94125809Y-38686390D01*
X94026568Y-38710851D01*
X93892068Y-38781441D01*
X93790782Y-38871172D01*
X93746286Y-38886526D01*
X93709218Y-38871172D01*
X93683368Y-38848271D01*
X93607934Y-38781443D01*
X93607932Y-38781442D01*
X93607931Y-38781441D01*
X93550704Y-38751406D01*
X93473434Y-38710852D01*
X93473431Y-38710851D01*
X93397641Y-38692170D01*
X93325949Y-38674500D01*
X93174051Y-38674500D01*
X93125809Y-38686390D01*
X93026568Y-38710851D01*
X92892068Y-38781441D01*
X92790782Y-38871172D01*
X92746286Y-38886526D01*
X92709218Y-38871172D01*
X92683368Y-38848271D01*
X92607934Y-38781443D01*
X92607932Y-38781442D01*
X92607931Y-38781441D01*
X92550704Y-38751406D01*
X92473434Y-38710852D01*
X92473431Y-38710851D01*
X92397641Y-38692170D01*
X92325949Y-38674500D01*
X92174051Y-38674500D01*
X92125809Y-38686390D01*
X92026568Y-38710851D01*
X91892068Y-38781441D01*
X91790782Y-38871172D01*
X91746286Y-38886526D01*
X91709218Y-38871172D01*
X91683368Y-38848271D01*
X91607934Y-38781443D01*
X91607932Y-38781442D01*
X91607931Y-38781441D01*
X91550704Y-38751406D01*
X91473434Y-38710852D01*
X91473431Y-38710851D01*
X91397641Y-38692170D01*
X91325949Y-38674500D01*
X91174051Y-38674500D01*
X91125809Y-38686390D01*
X91026568Y-38710851D01*
X90892068Y-38781441D01*
X90790782Y-38871172D01*
X90746286Y-38886526D01*
X90709218Y-38871172D01*
X90683368Y-38848271D01*
X90607934Y-38781443D01*
X90607932Y-38781442D01*
X90607931Y-38781441D01*
X90550704Y-38751406D01*
X90473434Y-38710852D01*
X90473431Y-38710851D01*
X90397641Y-38692170D01*
X90325949Y-38674500D01*
X90174051Y-38674500D01*
X90125809Y-38686390D01*
X90026568Y-38710851D01*
X89892068Y-38781441D01*
X89790782Y-38871172D01*
X89746286Y-38886526D01*
X89709218Y-38871172D01*
X89683368Y-38848271D01*
X89607934Y-38781443D01*
X89607932Y-38781442D01*
X89607931Y-38781441D01*
X89550704Y-38751406D01*
X89473434Y-38710852D01*
X89473431Y-38710851D01*
X89397641Y-38692170D01*
X89325949Y-38674500D01*
X89174051Y-38674500D01*
X89125809Y-38686390D01*
X89026568Y-38710851D01*
X88892069Y-38781441D01*
X88892067Y-38781442D01*
X88892066Y-38781443D01*
X88835217Y-38831806D01*
X88778365Y-38882172D01*
X88692081Y-39007176D01*
X88692076Y-39007185D01*
X88638216Y-39149201D01*
X88638216Y-39149204D01*
X88638215Y-39149207D01*
X88638215Y-39149209D01*
X88619906Y-39300000D01*
X87880094Y-39300000D01*
X87861785Y-39149209D01*
X87861783Y-39149203D01*
X87861783Y-39149201D01*
X87807923Y-39007185D01*
X87807918Y-39007176D01*
X87721634Y-38882172D01*
X87721632Y-38882170D01*
X87607934Y-38781443D01*
X87473434Y-38710852D01*
X87473431Y-38710851D01*
X87397641Y-38692170D01*
X87325949Y-38674500D01*
X87174051Y-38674500D01*
X87125809Y-38686390D01*
X87026568Y-38710851D01*
X86892068Y-38781441D01*
X86790782Y-38871172D01*
X86746286Y-38886526D01*
X86709218Y-38871172D01*
X86683368Y-38848271D01*
X86607934Y-38781443D01*
X86607932Y-38781442D01*
X86607931Y-38781441D01*
X86550704Y-38751406D01*
X86473434Y-38710852D01*
X86473431Y-38710851D01*
X86397641Y-38692170D01*
X86325949Y-38674500D01*
X86174051Y-38674500D01*
X86125809Y-38686390D01*
X86026568Y-38710851D01*
X85892068Y-38781441D01*
X85790782Y-38871172D01*
X85746286Y-38886526D01*
X85709218Y-38871172D01*
X85683368Y-38848271D01*
X85607934Y-38781443D01*
X85607932Y-38781442D01*
X85607931Y-38781441D01*
X85550704Y-38751406D01*
X85473434Y-38710852D01*
X85473431Y-38710851D01*
X85397641Y-38692170D01*
X85325949Y-38674500D01*
X85174051Y-38674500D01*
X85125809Y-38686390D01*
X85026568Y-38710851D01*
X84892068Y-38781441D01*
X84790782Y-38871172D01*
X84746286Y-38886526D01*
X84709218Y-38871172D01*
X84683368Y-38848271D01*
X84607934Y-38781443D01*
X84607932Y-38781442D01*
X84607931Y-38781441D01*
X84550704Y-38751406D01*
X84473434Y-38710852D01*
X84473431Y-38710851D01*
X84397641Y-38692170D01*
X84325949Y-38674500D01*
X84174051Y-38674500D01*
X84125809Y-38686390D01*
X84026568Y-38710851D01*
X83892068Y-38781441D01*
X83790782Y-38871172D01*
X83746286Y-38886526D01*
X83709218Y-38871172D01*
X83683368Y-38848271D01*
X83607934Y-38781443D01*
X83607932Y-38781442D01*
X83607931Y-38781441D01*
X83550704Y-38751406D01*
X83473434Y-38710852D01*
X83473431Y-38710851D01*
X83397641Y-38692170D01*
X83325949Y-38674500D01*
X83174051Y-38674500D01*
X83125809Y-38686390D01*
X83026568Y-38710851D01*
X82892068Y-38781441D01*
X82790782Y-38871172D01*
X82746286Y-38886526D01*
X82709218Y-38871172D01*
X82683368Y-38848271D01*
X82607934Y-38781443D01*
X82607932Y-38781442D01*
X82607931Y-38781441D01*
X82550704Y-38751406D01*
X82473434Y-38710852D01*
X82473431Y-38710851D01*
X82397641Y-38692170D01*
X82325949Y-38674500D01*
X82174051Y-38674500D01*
X82125809Y-38686390D01*
X82026568Y-38710851D01*
X81892068Y-38781441D01*
X81790782Y-38871172D01*
X81746286Y-38886526D01*
X81709218Y-38871172D01*
X81683368Y-38848271D01*
X81607934Y-38781443D01*
X81607932Y-38781442D01*
X81607931Y-38781441D01*
X81550704Y-38751406D01*
X81473434Y-38710852D01*
X81473431Y-38710851D01*
X81397641Y-38692170D01*
X81325949Y-38674500D01*
X81174051Y-38674500D01*
X81125809Y-38686390D01*
X81026568Y-38710851D01*
X80892068Y-38781441D01*
X80790782Y-38871172D01*
X80746286Y-38886526D01*
X80709218Y-38871172D01*
X80683368Y-38848271D01*
X80607934Y-38781443D01*
X80607932Y-38781442D01*
X80607931Y-38781441D01*
X80550704Y-38751406D01*
X80473434Y-38710852D01*
X80473431Y-38710851D01*
X80397641Y-38692170D01*
X80325949Y-38674500D01*
X80174051Y-38674500D01*
X80125809Y-38686390D01*
X80026568Y-38710851D01*
X79892068Y-38781441D01*
X79790782Y-38871172D01*
X79746286Y-38886526D01*
X79709218Y-38871172D01*
X79683368Y-38848271D01*
X79607934Y-38781443D01*
X79607932Y-38781442D01*
X79607931Y-38781441D01*
X79550704Y-38751406D01*
X79473434Y-38710852D01*
X79473431Y-38710851D01*
X79397641Y-38692170D01*
X79325949Y-38674500D01*
X79174051Y-38674500D01*
X79125809Y-38686390D01*
X79026568Y-38710851D01*
X78892068Y-38781441D01*
X78790782Y-38871172D01*
X78746286Y-38886526D01*
X78709218Y-38871172D01*
X78683368Y-38848271D01*
X78607934Y-38781443D01*
X78607932Y-38781442D01*
X78607931Y-38781441D01*
X78550704Y-38751406D01*
X78473434Y-38710852D01*
X78473431Y-38710851D01*
X78397641Y-38692170D01*
X78325949Y-38674500D01*
X78174051Y-38674500D01*
X78125809Y-38686390D01*
X78026568Y-38710851D01*
X77892068Y-38781441D01*
X77790782Y-38871172D01*
X77746286Y-38886526D01*
X77709218Y-38871172D01*
X77683368Y-38848271D01*
X77607934Y-38781443D01*
X77607932Y-38781442D01*
X77607931Y-38781441D01*
X77550704Y-38751406D01*
X77473434Y-38710852D01*
X77473431Y-38710851D01*
X77397641Y-38692170D01*
X77325949Y-38674500D01*
X77174051Y-38674500D01*
X77125809Y-38686390D01*
X77026568Y-38710851D01*
X76892068Y-38781441D01*
X76790782Y-38871172D01*
X76746286Y-38886526D01*
X76709218Y-38871172D01*
X76683368Y-38848271D01*
X76607934Y-38781443D01*
X76607932Y-38781442D01*
X76607931Y-38781441D01*
X76550704Y-38751406D01*
X76473434Y-38710852D01*
X76473431Y-38710851D01*
X76397641Y-38692170D01*
X76325949Y-38674500D01*
X76174051Y-38674500D01*
X76125809Y-38686390D01*
X76026568Y-38710851D01*
X75892068Y-38781441D01*
X75790782Y-38871172D01*
X75746286Y-38886526D01*
X75709218Y-38871172D01*
X75683368Y-38848271D01*
X75607934Y-38781443D01*
X75607932Y-38781442D01*
X75607931Y-38781441D01*
X75550704Y-38751406D01*
X75473434Y-38710852D01*
X75473431Y-38710851D01*
X75397641Y-38692170D01*
X75325949Y-38674500D01*
X75174051Y-38674500D01*
X75125809Y-38686390D01*
X75026568Y-38710851D01*
X74892068Y-38781441D01*
X74790782Y-38871172D01*
X74746286Y-38886526D01*
X74709218Y-38871172D01*
X74683368Y-38848271D01*
X74607934Y-38781443D01*
X74607932Y-38781442D01*
X74607931Y-38781441D01*
X74550704Y-38751406D01*
X74473434Y-38710852D01*
X74473431Y-38710851D01*
X74397641Y-38692170D01*
X74325949Y-38674500D01*
X74174051Y-38674500D01*
X74125809Y-38686390D01*
X74026568Y-38710851D01*
X73892068Y-38781441D01*
X73790782Y-38871172D01*
X73746286Y-38886526D01*
X73709218Y-38871172D01*
X73683368Y-38848271D01*
X73607934Y-38781443D01*
X73607932Y-38781442D01*
X73607931Y-38781441D01*
X73550704Y-38751406D01*
X73473434Y-38710852D01*
X73473431Y-38710851D01*
X73397641Y-38692170D01*
X73325949Y-38674500D01*
X73174051Y-38674500D01*
X73125809Y-38686390D01*
X73026568Y-38710851D01*
X72892068Y-38781441D01*
X72790782Y-38871172D01*
X72746286Y-38886526D01*
X72709218Y-38871172D01*
X72683368Y-38848271D01*
X72607934Y-38781443D01*
X72607932Y-38781442D01*
X72607931Y-38781441D01*
X72550704Y-38751406D01*
X72473434Y-38710852D01*
X72473431Y-38710851D01*
X72397641Y-38692170D01*
X72325949Y-38674500D01*
X72174051Y-38674500D01*
X72125809Y-38686390D01*
X72026568Y-38710851D01*
X71892069Y-38781441D01*
X71892067Y-38781442D01*
X71892066Y-38781443D01*
X71835217Y-38831806D01*
X71778365Y-38882172D01*
X71729176Y-38953436D01*
X71689649Y-38978993D01*
X71678563Y-38980000D01*
X71625000Y-38980000D01*
X71627357Y-39234309D01*
X71626912Y-39242291D01*
X71619906Y-39299999D01*
X71628219Y-39368475D01*
X71628664Y-39375317D01*
X71630530Y-39576473D01*
X71612922Y-39620125D01*
X71583752Y-39636756D01*
X71526567Y-39650851D01*
X71392069Y-39721441D01*
X71392067Y-39721442D01*
X71392066Y-39721443D01*
X71377328Y-39734500D01*
X71278365Y-39822172D01*
X71192081Y-39947176D01*
X71192076Y-39947185D01*
X71138216Y-40089201D01*
X71138216Y-40089204D01*
X71138215Y-40089207D01*
X71138215Y-40089209D01*
X71119906Y-40240000D01*
X71138215Y-40390791D01*
X71138215Y-40390792D01*
X71138216Y-40390795D01*
X71138216Y-40390798D01*
X71192077Y-40532815D01*
X71192079Y-40532819D01*
X71241194Y-40603975D01*
X71264710Y-40638044D01*
X71267413Y-40642737D01*
X71267559Y-40642653D01*
X71268828Y-40644853D01*
X71319867Y-40718556D01*
X71326060Y-40727498D01*
X71337000Y-40762511D01*
X71337000Y-50534375D01*
X71365142Y-50639405D01*
X71365144Y-50639409D01*
X71365145Y-50639412D01*
X71419517Y-50733588D01*
X71419519Y-50733590D01*
X71419520Y-50733591D01*
X71697130Y-51011200D01*
X71715143Y-51054595D01*
X71716963Y-52270236D01*
X71699015Y-52313750D01*
X71655555Y-52331828D01*
X71612041Y-52313880D01*
X71598331Y-52293092D01*
X71522119Y-52101816D01*
X71353236Y-51783267D01*
X71150901Y-51484844D01*
X71150893Y-51484834D01*
X70959588Y-51259613D01*
X69737715Y-52481486D01*
X69720412Y-52457670D01*
X69542330Y-52279588D01*
X69518511Y-52262283D01*
X70739422Y-51041373D01*
X70655725Y-50962092D01*
X70368690Y-50743893D01*
X70059747Y-50558008D01*
X69732514Y-50406614D01*
X69732510Y-50406612D01*
X69390844Y-50291492D01*
X69390828Y-50291487D01*
X69038711Y-50213981D01*
X69038714Y-50213981D01*
X68680285Y-50175000D01*
X68319714Y-50175000D01*
X67961287Y-50213981D01*
X67609171Y-50291487D01*
X67609155Y-50291492D01*
X67267489Y-50406612D01*
X67267485Y-50406614D01*
X66940252Y-50558008D01*
X66631309Y-50743893D01*
X66344274Y-50962092D01*
X66260576Y-51041373D01*
X67481486Y-52262283D01*
X67457670Y-52279588D01*
X67279588Y-52457670D01*
X67262283Y-52481486D01*
X66040410Y-51259613D01*
X65849106Y-51484834D01*
X65849098Y-51484844D01*
X65646763Y-51783267D01*
X65477880Y-52101816D01*
X65344424Y-52436764D01*
X65344423Y-52436767D01*
X65247968Y-52784165D01*
X65189635Y-53139982D01*
X65170116Y-53500000D01*
X64000500Y-53500000D01*
X64000500Y-36062000D01*
X64018513Y-36018513D01*
X64062000Y-36000500D01*
X112938000Y-36000500D01*
X112981487Y-36018513D01*
G37*
G04 #@! TD.AperFunction*
G04 #@! TA.AperFunction,Conductor*
G36*
X79258251Y-39307293D02*
G01*
X79376796Y-39426448D01*
X79437583Y-39487548D01*
X79440989Y-39495830D01*
X79438908Y-39502461D01*
X79315990Y-39679961D01*
X79308462Y-39684812D01*
X79306371Y-39685000D01*
X79193629Y-39685000D01*
X79185356Y-39681573D01*
X79184010Y-39679961D01*
X79061091Y-39502461D01*
X79059198Y-39493709D01*
X79062415Y-39487549D01*
X79241707Y-39307335D01*
X79249970Y-39303888D01*
X79258251Y-39307293D01*
G37*
G04 #@! TD.AperFunction*
G04 #@! TA.AperFunction,Conductor*
G36*
X87764644Y-137918427D02*
G01*
X87765990Y-137920039D01*
X87888908Y-138097538D01*
X87890801Y-138106290D01*
X87887583Y-138112451D01*
X87708294Y-138292663D01*
X87700030Y-138296111D01*
X87691748Y-138292705D01*
X87691706Y-138292663D01*
X87512416Y-138112451D01*
X87509010Y-138104169D01*
X87511090Y-138097539D01*
X87634010Y-137920038D01*
X87641538Y-137915188D01*
X87643629Y-137915000D01*
X87756371Y-137915000D01*
X87764644Y-137918427D01*
G37*
G04 #@! TD.AperFunction*
G04 #@! TA.AperFunction,Conductor*
G36*
X78164644Y-137918427D02*
G01*
X78165990Y-137920039D01*
X78288908Y-138097538D01*
X78290801Y-138106290D01*
X78287583Y-138112451D01*
X78108294Y-138292663D01*
X78100030Y-138296111D01*
X78091748Y-138292705D01*
X78091706Y-138292663D01*
X77912416Y-138112451D01*
X77909010Y-138104169D01*
X77911090Y-138097539D01*
X78034010Y-137920038D01*
X78041538Y-137915188D01*
X78043629Y-137915000D01*
X78156371Y-137915000D01*
X78164644Y-137918427D01*
G37*
G04 #@! TD.AperFunction*
G04 #@! TA.AperFunction,Conductor*
G36*
X73258251Y-39307293D02*
G01*
X73376796Y-39426448D01*
X73437583Y-39487548D01*
X73440989Y-39495830D01*
X73438908Y-39502461D01*
X73315990Y-39679961D01*
X73308462Y-39684812D01*
X73306371Y-39685000D01*
X73193629Y-39685000D01*
X73185356Y-39681573D01*
X73184010Y-39679961D01*
X73061091Y-39502461D01*
X73059198Y-39493709D01*
X73062415Y-39487549D01*
X73241707Y-39307335D01*
X73249970Y-39303888D01*
X73258251Y-39307293D01*
G37*
G04 #@! TD.AperFunction*
G04 #@! TA.AperFunction,Conductor*
G36*
X83258251Y-39307293D02*
G01*
X83376796Y-39426448D01*
X83437583Y-39487548D01*
X83440989Y-39495830D01*
X83438908Y-39502461D01*
X83315990Y-39679961D01*
X83308462Y-39684812D01*
X83306371Y-39685000D01*
X83193629Y-39685000D01*
X83185356Y-39681573D01*
X83184010Y-39679961D01*
X83061091Y-39502461D01*
X83059198Y-39493709D01*
X83062415Y-39487549D01*
X83241707Y-39307335D01*
X83249970Y-39303888D01*
X83258251Y-39307293D01*
G37*
G04 #@! TD.AperFunction*
G04 #@! TA.AperFunction,Conductor*
G36*
X94164644Y-137918427D02*
G01*
X94165990Y-137920039D01*
X94288908Y-138097538D01*
X94290801Y-138106290D01*
X94287583Y-138112451D01*
X94108294Y-138292663D01*
X94100030Y-138296111D01*
X94091748Y-138292705D01*
X94091706Y-138292663D01*
X93912416Y-138112451D01*
X93909010Y-138104169D01*
X93911090Y-138097539D01*
X94034010Y-137920038D01*
X94041538Y-137915188D01*
X94043629Y-137915000D01*
X94156371Y-137915000D01*
X94164644Y-137918427D01*
G37*
G04 #@! TD.AperFunction*
G04 #@! TA.AperFunction,Conductor*
G36*
X77364644Y-137118427D02*
G01*
X77365990Y-137120039D01*
X77488908Y-137297538D01*
X77490801Y-137306290D01*
X77487583Y-137312451D01*
X77308294Y-137492663D01*
X77300030Y-137496111D01*
X77291748Y-137492705D01*
X77291706Y-137492663D01*
X77112416Y-137312451D01*
X77109010Y-137304169D01*
X77111090Y-137297539D01*
X77234010Y-137120038D01*
X77241538Y-137115188D01*
X77243629Y-137115000D01*
X77356371Y-137115000D01*
X77364644Y-137118427D01*
G37*
G04 #@! TD.AperFunction*
G04 #@! TA.AperFunction,Conductor*
G36*
X72755548Y-40244577D02*
G01*
X72935853Y-40425809D01*
X72939259Y-40434091D01*
X72935811Y-40442355D01*
X72935462Y-40442689D01*
X72772320Y-40592123D01*
X72753742Y-40609141D01*
X72753354Y-40609496D01*
X72745451Y-40612568D01*
X72632343Y-40612568D01*
X72624070Y-40609141D01*
X72621807Y-40605955D01*
X72542821Y-40442355D01*
X72501299Y-40356354D01*
X72500789Y-40347416D01*
X72506749Y-40340733D01*
X72507300Y-40340484D01*
X72742741Y-40242034D01*
X72751695Y-40242005D01*
X72755548Y-40244577D01*
G37*
G04 #@! TD.AperFunction*
G04 #@! TA.AperFunction,Conductor*
G36*
X74758251Y-40237293D02*
G01*
X74876796Y-40356448D01*
X74937583Y-40417548D01*
X74940989Y-40425830D01*
X74938908Y-40432461D01*
X74815990Y-40609961D01*
X74808462Y-40614812D01*
X74806371Y-40615000D01*
X74693629Y-40615000D01*
X74685356Y-40611573D01*
X74684010Y-40609961D01*
X74561091Y-40432461D01*
X74559198Y-40423709D01*
X74562415Y-40417549D01*
X74741707Y-40237335D01*
X74749970Y-40233888D01*
X74758251Y-40237293D01*
G37*
G04 #@! TD.AperFunction*
G04 #@! TA.AperFunction,Conductor*
G36*
X80564644Y-137118427D02*
G01*
X80565990Y-137120039D01*
X80688908Y-137297538D01*
X80690801Y-137306290D01*
X80687583Y-137312451D01*
X80508294Y-137492663D01*
X80500030Y-137496111D01*
X80491748Y-137492705D01*
X80491706Y-137492663D01*
X80312416Y-137312451D01*
X80309010Y-137304169D01*
X80311090Y-137297539D01*
X80434010Y-137120038D01*
X80441538Y-137115188D01*
X80443629Y-137115000D01*
X80556371Y-137115000D01*
X80564644Y-137118427D01*
G37*
G04 #@! TD.AperFunction*
G04 #@! TA.AperFunction,Conductor*
G36*
X84564644Y-137918428D02*
G01*
X84565990Y-137920040D01*
X84688908Y-138097539D01*
X84690801Y-138106291D01*
X84687583Y-138112452D01*
X84508294Y-138292664D01*
X84500030Y-138296112D01*
X84491748Y-138292706D01*
X84491706Y-138292664D01*
X84312416Y-138112452D01*
X84309010Y-138104170D01*
X84311090Y-138097540D01*
X84434010Y-137920039D01*
X84441538Y-137915189D01*
X84443629Y-137915001D01*
X84556371Y-137915001D01*
X84564644Y-137918428D01*
G37*
G04 #@! TD.AperFunction*
G04 #@! TA.AperFunction,Conductor*
G36*
X77258251Y-39307293D02*
G01*
X77376796Y-39426448D01*
X77437583Y-39487548D01*
X77440989Y-39495830D01*
X77438908Y-39502461D01*
X77315990Y-39679961D01*
X77308462Y-39684812D01*
X77306371Y-39685000D01*
X77193629Y-39685000D01*
X77185356Y-39681573D01*
X77184010Y-39679961D01*
X77061091Y-39502461D01*
X77059198Y-39493709D01*
X77062415Y-39487549D01*
X77241707Y-39307335D01*
X77249970Y-39303888D01*
X77258251Y-39307293D01*
G37*
G04 #@! TD.AperFunction*
G04 #@! TA.AperFunction,Conductor*
G36*
X78258251Y-39307293D02*
G01*
X78376796Y-39426448D01*
X78437583Y-39487548D01*
X78440989Y-39495830D01*
X78438908Y-39502461D01*
X78315990Y-39679961D01*
X78308462Y-39684812D01*
X78306371Y-39685000D01*
X78193629Y-39685000D01*
X78185356Y-39681573D01*
X78184010Y-39679961D01*
X78061091Y-39502461D01*
X78059198Y-39493709D01*
X78062415Y-39487549D01*
X78241707Y-39307335D01*
X78249970Y-39303888D01*
X78258251Y-39307293D01*
G37*
G04 #@! TD.AperFunction*
G04 #@! TA.AperFunction,Conductor*
G36*
X86154937Y-137920417D02*
G01*
X86156011Y-137921653D01*
X86288355Y-138097446D01*
X86290593Y-138106117D01*
X86287302Y-138112735D01*
X86105548Y-138295423D01*
X86097284Y-138298871D01*
X86092740Y-138297965D01*
X85858905Y-138200187D01*
X85852595Y-138193834D01*
X85852625Y-138184879D01*
X85853618Y-138183005D01*
X86024037Y-137922286D01*
X86031431Y-137917238D01*
X86033829Y-137916990D01*
X86146664Y-137916990D01*
X86154937Y-137920417D01*
G37*
G04 #@! TD.AperFunction*
G04 #@! TA.AperFunction,Conductor*
G36*
X85258251Y-39307293D02*
G01*
X85376796Y-39426448D01*
X85437583Y-39487548D01*
X85440989Y-39495830D01*
X85438908Y-39502461D01*
X85315990Y-39679961D01*
X85308462Y-39684812D01*
X85306371Y-39685000D01*
X85193629Y-39685000D01*
X85185356Y-39681573D01*
X85184010Y-39679961D01*
X85061091Y-39502461D01*
X85059198Y-39493709D01*
X85062415Y-39487549D01*
X85241707Y-39307335D01*
X85249970Y-39303888D01*
X85258251Y-39307293D01*
G37*
G04 #@! TD.AperFunction*
G04 #@! TA.AperFunction,Conductor*
G36*
X97364643Y-137918427D02*
G01*
X97365989Y-137920039D01*
X97488907Y-138097538D01*
X97490800Y-138106290D01*
X97487582Y-138112451D01*
X97308293Y-138292663D01*
X97300029Y-138296111D01*
X97291747Y-138292705D01*
X97291705Y-138292663D01*
X97112415Y-138112451D01*
X97109009Y-138104169D01*
X97111089Y-138097539D01*
X97234009Y-137920038D01*
X97241537Y-137915188D01*
X97243628Y-137915000D01*
X97356370Y-137915000D01*
X97364643Y-137918427D01*
G37*
G04 #@! TD.AperFunction*
G04 #@! TA.AperFunction,Conductor*
G36*
X80758251Y-40227293D02*
G01*
X80876796Y-40346448D01*
X80937583Y-40407548D01*
X80940989Y-40415830D01*
X80938908Y-40422461D01*
X80815990Y-40599961D01*
X80808462Y-40604812D01*
X80806371Y-40605000D01*
X80693629Y-40605000D01*
X80685356Y-40601573D01*
X80684010Y-40599961D01*
X80561091Y-40422461D01*
X80559198Y-40413709D01*
X80562415Y-40407549D01*
X80741707Y-40227335D01*
X80749970Y-40223888D01*
X80758251Y-40227293D01*
G37*
G04 #@! TD.AperFunction*
G04 #@! TA.AperFunction,Conductor*
G36*
X90164644Y-137118427D02*
G01*
X90165990Y-137120039D01*
X90288908Y-137297538D01*
X90290801Y-137306290D01*
X90287583Y-137312451D01*
X90108294Y-137492663D01*
X90100030Y-137496111D01*
X90091748Y-137492705D01*
X90091706Y-137492663D01*
X89912416Y-137312451D01*
X89909010Y-137304169D01*
X89911090Y-137297539D01*
X90034010Y-137120038D01*
X90041538Y-137115188D01*
X90043629Y-137115000D01*
X90156371Y-137115000D01*
X90164644Y-137118427D01*
G37*
G04 #@! TD.AperFunction*
G04 #@! TA.AperFunction,Conductor*
G36*
X85364644Y-137118427D02*
G01*
X85365990Y-137120039D01*
X85488908Y-137297538D01*
X85490801Y-137306290D01*
X85487583Y-137312451D01*
X85308294Y-137492663D01*
X85300030Y-137496111D01*
X85291748Y-137492705D01*
X85291706Y-137492663D01*
X85112416Y-137312451D01*
X85109010Y-137304169D01*
X85111090Y-137297539D01*
X85234010Y-137120038D01*
X85241538Y-137115188D01*
X85243629Y-137115000D01*
X85356371Y-137115000D01*
X85364644Y-137118427D01*
G37*
G04 #@! TD.AperFunction*
G04 #@! TA.AperFunction,Conductor*
G36*
X77758251Y-40237293D02*
G01*
X77876796Y-40356448D01*
X77937583Y-40417548D01*
X77940989Y-40425830D01*
X77938908Y-40432461D01*
X77815990Y-40609961D01*
X77808462Y-40614812D01*
X77806371Y-40615000D01*
X77693629Y-40615000D01*
X77685356Y-40611573D01*
X77684010Y-40609961D01*
X77561091Y-40432461D01*
X77559198Y-40423709D01*
X77562415Y-40417549D01*
X77741707Y-40237335D01*
X77749970Y-40233888D01*
X77758251Y-40237293D01*
G37*
G04 #@! TD.AperFunction*
G04 #@! TA.AperFunction,Conductor*
G36*
X79764644Y-137918427D02*
G01*
X79765990Y-137920039D01*
X79888908Y-138097538D01*
X79890801Y-138106290D01*
X79887583Y-138112451D01*
X79708294Y-138292663D01*
X79700030Y-138296111D01*
X79691748Y-138292705D01*
X79691706Y-138292663D01*
X79512416Y-138112451D01*
X79509010Y-138104169D01*
X79511090Y-138097539D01*
X79634010Y-137920038D01*
X79641538Y-137915188D01*
X79643629Y-137915000D01*
X79756371Y-137915000D01*
X79764644Y-137918427D01*
G37*
G04 #@! TD.AperFunction*
G04 #@! TA.AperFunction,Conductor*
G36*
X74258251Y-39307293D02*
G01*
X74376796Y-39426448D01*
X74437583Y-39487548D01*
X74440989Y-39495830D01*
X74438908Y-39502461D01*
X74315990Y-39679961D01*
X74308462Y-39684812D01*
X74306371Y-39685000D01*
X74193629Y-39685000D01*
X74185356Y-39681573D01*
X74184010Y-39679961D01*
X74061091Y-39502461D01*
X74059198Y-39493709D01*
X74062415Y-39487549D01*
X74241707Y-39307335D01*
X74249970Y-39303888D01*
X74258251Y-39307293D01*
G37*
G04 #@! TD.AperFunction*
G04 #@! TA.AperFunction,Conductor*
G36*
X78758251Y-40237293D02*
G01*
X78876796Y-40356448D01*
X78937583Y-40417548D01*
X78940989Y-40425830D01*
X78938908Y-40432461D01*
X78815990Y-40609961D01*
X78808462Y-40614812D01*
X78806371Y-40615000D01*
X78693629Y-40615000D01*
X78685356Y-40611573D01*
X78684010Y-40609961D01*
X78561091Y-40432461D01*
X78559198Y-40423709D01*
X78562415Y-40417549D01*
X78741707Y-40237335D01*
X78749970Y-40233888D01*
X78758251Y-40237293D01*
G37*
G04 #@! TD.AperFunction*
G04 #@! TA.AperFunction,Conductor*
G36*
X86964644Y-137118427D02*
G01*
X86965990Y-137120039D01*
X87088908Y-137297538D01*
X87090801Y-137306290D01*
X87087583Y-137312451D01*
X86908294Y-137492663D01*
X86900030Y-137496111D01*
X86891748Y-137492705D01*
X86891706Y-137492663D01*
X86712416Y-137312451D01*
X86709010Y-137304169D01*
X86711090Y-137297539D01*
X86834010Y-137120038D01*
X86841538Y-137115188D01*
X86843629Y-137115000D01*
X86956371Y-137115000D01*
X86964644Y-137118427D01*
G37*
G04 #@! TD.AperFunction*
G04 #@! TA.AperFunction,Conductor*
G36*
X90964644Y-137918427D02*
G01*
X90965990Y-137920039D01*
X91088908Y-138097538D01*
X91090801Y-138106290D01*
X91087583Y-138112451D01*
X90908294Y-138292663D01*
X90900030Y-138296111D01*
X90891748Y-138292705D01*
X90891706Y-138292663D01*
X90712416Y-138112451D01*
X90709010Y-138104169D01*
X90711090Y-138097539D01*
X90834010Y-137920038D01*
X90841538Y-137915188D01*
X90843629Y-137915000D01*
X90956371Y-137915000D01*
X90964644Y-137918427D01*
G37*
G04 #@! TD.AperFunction*
G04 #@! TA.AperFunction,Conductor*
G36*
X81258251Y-39307293D02*
G01*
X81376796Y-39426448D01*
X81437583Y-39487548D01*
X81440989Y-39495830D01*
X81438908Y-39502461D01*
X81315990Y-39679961D01*
X81308462Y-39684812D01*
X81306371Y-39685000D01*
X81193629Y-39685000D01*
X81185356Y-39681573D01*
X81184010Y-39679961D01*
X81061091Y-39502461D01*
X81059198Y-39493709D01*
X81062415Y-39487549D01*
X81241707Y-39307335D01*
X81249970Y-39303888D01*
X81258251Y-39307293D01*
G37*
G04 #@! TD.AperFunction*
G04 #@! TA.AperFunction,Conductor*
G36*
X84258251Y-39307293D02*
G01*
X84376796Y-39426448D01*
X84437583Y-39487548D01*
X84440989Y-39495830D01*
X84438908Y-39502461D01*
X84315990Y-39679961D01*
X84308462Y-39684812D01*
X84306371Y-39685000D01*
X84193629Y-39685000D01*
X84185356Y-39681573D01*
X84184010Y-39679961D01*
X84061091Y-39502461D01*
X84059198Y-39493709D01*
X84062415Y-39487549D01*
X84241707Y-39307335D01*
X84249970Y-39303888D01*
X84258251Y-39307293D01*
G37*
G04 #@! TD.AperFunction*
G04 #@! TA.AperFunction,Conductor*
G36*
X95764644Y-137918428D02*
G01*
X95765990Y-137920040D01*
X95888908Y-138097539D01*
X95890801Y-138106291D01*
X95887583Y-138112452D01*
X95708294Y-138292664D01*
X95700030Y-138296112D01*
X95691748Y-138292706D01*
X95691706Y-138292664D01*
X95512416Y-138112452D01*
X95509010Y-138104170D01*
X95511090Y-138097540D01*
X95634010Y-137920039D01*
X95641538Y-137915189D01*
X95643629Y-137915001D01*
X95756371Y-137915001D01*
X95764644Y-137918428D01*
G37*
G04 #@! TD.AperFunction*
G04 #@! TA.AperFunction,Conductor*
G36*
X78964644Y-137118427D02*
G01*
X78965990Y-137120039D01*
X79088908Y-137297538D01*
X79090801Y-137306290D01*
X79087583Y-137312451D01*
X78908294Y-137492663D01*
X78900030Y-137496111D01*
X78891748Y-137492705D01*
X78891706Y-137492663D01*
X78712416Y-137312451D01*
X78709010Y-137304169D01*
X78711090Y-137297539D01*
X78834010Y-137120038D01*
X78841538Y-137115188D01*
X78843629Y-137115000D01*
X78956371Y-137115000D01*
X78964644Y-137118427D01*
G37*
G04 #@! TD.AperFunction*
G04 #@! TA.AperFunction,Conductor*
G36*
X73785548Y-40234577D02*
G01*
X73966742Y-40416702D01*
X73970148Y-40424984D01*
X73967243Y-40432671D01*
X73815995Y-40605050D01*
X73807962Y-40609008D01*
X73807200Y-40609033D01*
X73694181Y-40609033D01*
X73685908Y-40605606D01*
X73684105Y-40603279D01*
X73532755Y-40346799D01*
X73531501Y-40337932D01*
X73536885Y-40330777D01*
X73538309Y-40330062D01*
X73772741Y-40232034D01*
X73781695Y-40232005D01*
X73785548Y-40234577D01*
G37*
G04 #@! TD.AperFunction*
G04 #@! TA.AperFunction,Conductor*
G36*
X82758251Y-40217293D02*
G01*
X82876796Y-40336448D01*
X82937583Y-40397548D01*
X82940989Y-40405830D01*
X82938908Y-40412461D01*
X82815990Y-40589961D01*
X82808462Y-40594812D01*
X82806371Y-40595000D01*
X82693629Y-40595000D01*
X82685356Y-40591573D01*
X82684010Y-40589961D01*
X82561091Y-40412461D01*
X82559198Y-40403709D01*
X82562415Y-40397549D01*
X82741707Y-40217335D01*
X82749970Y-40213888D01*
X82758251Y-40217293D01*
G37*
G04 #@! TD.AperFunction*
G04 #@! TA.AperFunction,Conductor*
G36*
X93364644Y-137118427D02*
G01*
X93365990Y-137120039D01*
X93488908Y-137297538D01*
X93490801Y-137306290D01*
X93487583Y-137312451D01*
X93308294Y-137492663D01*
X93300030Y-137496111D01*
X93291748Y-137492705D01*
X93291706Y-137492663D01*
X93112416Y-137312451D01*
X93109010Y-137304169D01*
X93111090Y-137297539D01*
X93234010Y-137120038D01*
X93241538Y-137115188D01*
X93243629Y-137115000D01*
X93356371Y-137115000D01*
X93364644Y-137118427D01*
G37*
G04 #@! TD.AperFunction*
G04 #@! TA.AperFunction,Conductor*
G36*
X87758251Y-40167293D02*
G01*
X87876796Y-40286448D01*
X87937583Y-40347548D01*
X87940989Y-40355830D01*
X87938908Y-40362461D01*
X87815990Y-40539961D01*
X87808462Y-40544812D01*
X87806371Y-40545000D01*
X87693629Y-40545000D01*
X87685356Y-40541573D01*
X87684010Y-40539961D01*
X87561091Y-40362461D01*
X87559198Y-40353709D01*
X87562415Y-40347549D01*
X87741707Y-40167335D01*
X87749970Y-40163888D01*
X87758251Y-40167293D01*
G37*
G04 #@! TD.AperFunction*
G04 #@! TA.AperFunction,Conductor*
G36*
X101530763Y-137186559D02*
G01*
X101532375Y-137187905D01*
X101612094Y-137267624D01*
X101615521Y-137275897D01*
X101615333Y-137277988D01*
X101576741Y-137490415D01*
X101571890Y-137497943D01*
X101565259Y-137500024D01*
X101311053Y-137500676D01*
X101302771Y-137497270D01*
X101299323Y-137489006D01*
X101299323Y-137488946D01*
X101299975Y-137234740D01*
X101303423Y-137226476D01*
X101309581Y-137223259D01*
X101522012Y-137184666D01*
X101530763Y-137186559D01*
G37*
G04 #@! TD.AperFunction*
G04 #@! TA.AperFunction,Conductor*
G36*
X86258251Y-39307293D02*
G01*
X86376796Y-39426448D01*
X86437583Y-39487548D01*
X86440989Y-39495830D01*
X86438908Y-39502461D01*
X86315990Y-39679961D01*
X86308462Y-39684812D01*
X86306371Y-39685000D01*
X86193629Y-39685000D01*
X86185356Y-39681573D01*
X86184010Y-39679961D01*
X86061091Y-39502461D01*
X86059198Y-39493709D01*
X86062415Y-39487549D01*
X86241707Y-39307335D01*
X86249970Y-39303888D01*
X86258251Y-39307293D01*
G37*
G04 #@! TD.AperFunction*
G04 #@! TA.AperFunction,Conductor*
G36*
X98964644Y-137918427D02*
G01*
X98965990Y-137920039D01*
X99088908Y-138097538D01*
X99090801Y-138106290D01*
X99087583Y-138112451D01*
X98908294Y-138292663D01*
X98900030Y-138296111D01*
X98891748Y-138292705D01*
X98891706Y-138292663D01*
X98712416Y-138112451D01*
X98709010Y-138104169D01*
X98711090Y-138097539D01*
X98834010Y-137920038D01*
X98841538Y-137915188D01*
X98843629Y-137915000D01*
X98956371Y-137915000D01*
X98964644Y-137918427D01*
G37*
G04 #@! TD.AperFunction*
G04 #@! TA.AperFunction,Conductor*
G36*
X86758251Y-40177293D02*
G01*
X86876796Y-40296448D01*
X86937583Y-40357548D01*
X86940989Y-40365830D01*
X86938908Y-40372461D01*
X86815990Y-40549961D01*
X86808462Y-40554812D01*
X86806371Y-40555000D01*
X86693629Y-40555000D01*
X86685356Y-40551573D01*
X86684010Y-40549961D01*
X86561091Y-40372461D01*
X86559198Y-40363709D01*
X86562415Y-40357549D01*
X86741707Y-40177335D01*
X86749970Y-40173888D01*
X86758251Y-40177293D01*
G37*
G04 #@! TD.AperFunction*
G04 #@! TA.AperFunction,Conductor*
G36*
X99764644Y-137118427D02*
G01*
X99765990Y-137120039D01*
X99888908Y-137297538D01*
X99890801Y-137306290D01*
X99887583Y-137312451D01*
X99708294Y-137492663D01*
X99700030Y-137496111D01*
X99691748Y-137492705D01*
X99691706Y-137492663D01*
X99512416Y-137312451D01*
X99509010Y-137304169D01*
X99511090Y-137297539D01*
X99634010Y-137120038D01*
X99641538Y-137115188D01*
X99643629Y-137115000D01*
X99756371Y-137115000D01*
X99764644Y-137118427D01*
G37*
G04 #@! TD.AperFunction*
G04 #@! TA.AperFunction,Conductor*
G36*
X100564644Y-137918427D02*
G01*
X100565990Y-137920039D01*
X100688908Y-138097538D01*
X100690801Y-138106290D01*
X100687583Y-138112451D01*
X100508294Y-138292663D01*
X100500030Y-138296111D01*
X100491748Y-138292705D01*
X100491706Y-138292663D01*
X100312416Y-138112451D01*
X100309010Y-138104169D01*
X100311090Y-138097539D01*
X100434010Y-137920038D01*
X100441538Y-137915188D01*
X100443629Y-137915000D01*
X100556371Y-137915000D01*
X100564644Y-137918427D01*
G37*
G04 #@! TD.AperFunction*
G04 #@! TA.AperFunction,Conductor*
G36*
X87258251Y-39307293D02*
G01*
X87376796Y-39426448D01*
X87437583Y-39487548D01*
X87440989Y-39495830D01*
X87438908Y-39502461D01*
X87315990Y-39679961D01*
X87308462Y-39684812D01*
X87306371Y-39685000D01*
X87193629Y-39685000D01*
X87185356Y-39681573D01*
X87184010Y-39679961D01*
X87061091Y-39502461D01*
X87059198Y-39493709D01*
X87062415Y-39487549D01*
X87241707Y-39307335D01*
X87249970Y-39303888D01*
X87258251Y-39307293D01*
G37*
G04 #@! TD.AperFunction*
G04 #@! TA.AperFunction,Conductor*
G36*
X76258251Y-39307293D02*
G01*
X76376796Y-39426448D01*
X76437583Y-39487548D01*
X76440989Y-39495830D01*
X76438908Y-39502461D01*
X76315990Y-39679961D01*
X76308462Y-39684812D01*
X76306371Y-39685000D01*
X76193629Y-39685000D01*
X76185356Y-39681573D01*
X76184010Y-39679961D01*
X76061091Y-39502461D01*
X76059198Y-39493709D01*
X76062415Y-39487549D01*
X76241707Y-39307335D01*
X76249970Y-39303888D01*
X76258251Y-39307293D01*
G37*
G04 #@! TD.AperFunction*
G04 #@! TA.AperFunction,Conductor*
G36*
X82954937Y-137920416D02*
G01*
X82956011Y-137921652D01*
X83088355Y-138097445D01*
X83090593Y-138106116D01*
X83087302Y-138112734D01*
X82905548Y-138295422D01*
X82897284Y-138298870D01*
X82892740Y-138297964D01*
X82658905Y-138200186D01*
X82652595Y-138193833D01*
X82652625Y-138184878D01*
X82653618Y-138183004D01*
X82824037Y-137922285D01*
X82831431Y-137917237D01*
X82833829Y-137916989D01*
X82946664Y-137916989D01*
X82954937Y-137920416D01*
G37*
G04 #@! TD.AperFunction*
G04 #@! TA.AperFunction,Conductor*
G36*
X75258251Y-39307293D02*
G01*
X75376796Y-39426448D01*
X75437583Y-39487548D01*
X75440989Y-39495830D01*
X75438908Y-39502461D01*
X75315990Y-39679961D01*
X75308462Y-39684812D01*
X75306371Y-39685000D01*
X75193629Y-39685000D01*
X75185356Y-39681573D01*
X75184010Y-39679961D01*
X75061091Y-39502461D01*
X75059198Y-39493709D01*
X75062415Y-39487549D01*
X75241707Y-39307335D01*
X75249970Y-39303888D01*
X75258251Y-39307293D01*
G37*
G04 #@! TD.AperFunction*
G04 #@! TA.AperFunction,Conductor*
G36*
X81364644Y-137918427D02*
G01*
X81365990Y-137920039D01*
X81488908Y-138097538D01*
X81490801Y-138106290D01*
X81487583Y-138112451D01*
X81308294Y-138292663D01*
X81300030Y-138296111D01*
X81291748Y-138292705D01*
X81291706Y-138292663D01*
X81112416Y-138112451D01*
X81109010Y-138104169D01*
X81111090Y-138097539D01*
X81234010Y-137920038D01*
X81241538Y-137915188D01*
X81243629Y-137915000D01*
X81356371Y-137915000D01*
X81364644Y-137918427D01*
G37*
G04 #@! TD.AperFunction*
G04 #@! TA.AperFunction,Conductor*
G36*
X94964644Y-137118427D02*
G01*
X94965990Y-137120039D01*
X95088908Y-137297538D01*
X95090801Y-137306290D01*
X95087583Y-137312451D01*
X94908294Y-137492663D01*
X94900030Y-137496111D01*
X94891748Y-137492705D01*
X94891706Y-137492663D01*
X94712416Y-137312451D01*
X94709010Y-137304169D01*
X94711090Y-137297539D01*
X94834010Y-137120038D01*
X94841538Y-137115188D01*
X94843629Y-137115000D01*
X94956371Y-137115000D01*
X94964644Y-137118427D01*
G37*
G04 #@! TD.AperFunction*
G04 #@! TA.AperFunction,Conductor*
G36*
X83758251Y-40207293D02*
G01*
X83876796Y-40326448D01*
X83937583Y-40387548D01*
X83940989Y-40395830D01*
X83938908Y-40402461D01*
X83815990Y-40579961D01*
X83808462Y-40584812D01*
X83806371Y-40585000D01*
X83693629Y-40585000D01*
X83685356Y-40581573D01*
X83684010Y-40579961D01*
X83561091Y-40402461D01*
X83559198Y-40393709D01*
X83562415Y-40387549D01*
X83741707Y-40207335D01*
X83749970Y-40203888D01*
X83758251Y-40207293D01*
G37*
G04 #@! TD.AperFunction*
G04 #@! TA.AperFunction,Conductor*
G36*
X91764644Y-137118427D02*
G01*
X91765990Y-137120039D01*
X91888908Y-137297538D01*
X91890801Y-137306290D01*
X91887583Y-137312451D01*
X91708294Y-137492663D01*
X91700030Y-137496111D01*
X91691748Y-137492705D01*
X91691706Y-137492663D01*
X91512416Y-137312451D01*
X91509010Y-137304169D01*
X91511090Y-137297539D01*
X91634010Y-137120038D01*
X91641538Y-137115188D01*
X91643629Y-137115000D01*
X91756371Y-137115000D01*
X91764644Y-137118427D01*
G37*
G04 #@! TD.AperFunction*
G04 #@! TA.AperFunction,Conductor*
G36*
X81758251Y-40217293D02*
G01*
X81876796Y-40336448D01*
X81937583Y-40397548D01*
X81940989Y-40405830D01*
X81938908Y-40412461D01*
X81815990Y-40589961D01*
X81808462Y-40594812D01*
X81806371Y-40595000D01*
X81693629Y-40595000D01*
X81685356Y-40591573D01*
X81684010Y-40589961D01*
X81561091Y-40412461D01*
X81559198Y-40403709D01*
X81562415Y-40397549D01*
X81741707Y-40217335D01*
X81749970Y-40213888D01*
X81758251Y-40217293D01*
G37*
G04 #@! TD.AperFunction*
G04 #@! TA.AperFunction,Conductor*
G36*
X76758251Y-40237293D02*
G01*
X76876796Y-40356448D01*
X76937583Y-40417548D01*
X76940989Y-40425830D01*
X76938908Y-40432461D01*
X76815990Y-40609961D01*
X76808462Y-40614812D01*
X76806371Y-40615000D01*
X76693629Y-40615000D01*
X76685356Y-40611573D01*
X76684010Y-40609961D01*
X76561091Y-40432461D01*
X76559198Y-40423709D01*
X76562415Y-40417549D01*
X76741707Y-40237335D01*
X76749970Y-40233888D01*
X76758251Y-40237293D01*
G37*
G04 #@! TD.AperFunction*
G04 #@! TA.AperFunction,Conductor*
G36*
X83764644Y-137118427D02*
G01*
X83765990Y-137120039D01*
X83888908Y-137297538D01*
X83890801Y-137306290D01*
X83887583Y-137312451D01*
X83708294Y-137492663D01*
X83700030Y-137496111D01*
X83691748Y-137492705D01*
X83691706Y-137492663D01*
X83512416Y-137312451D01*
X83509010Y-137304169D01*
X83511090Y-137297539D01*
X83634010Y-137120038D01*
X83641538Y-137115188D01*
X83643629Y-137115000D01*
X83756371Y-137115000D01*
X83764644Y-137118427D01*
G37*
G04 #@! TD.AperFunction*
G04 #@! TA.AperFunction,Conductor*
G36*
X71758251Y-40247293D02*
G01*
X71876796Y-40366448D01*
X71937583Y-40427548D01*
X71940989Y-40435830D01*
X71938908Y-40442461D01*
X71815990Y-40619961D01*
X71808462Y-40624812D01*
X71806371Y-40625000D01*
X71693629Y-40625000D01*
X71685356Y-40621573D01*
X71684010Y-40619961D01*
X71561091Y-40442461D01*
X71559198Y-40433709D01*
X71562415Y-40427549D01*
X71741707Y-40247335D01*
X71749970Y-40243888D01*
X71758251Y-40247293D01*
G37*
G04 #@! TD.AperFunction*
G04 #@! TA.AperFunction,Conductor*
G36*
X75477984Y-137184665D02*
G01*
X75690416Y-137223258D01*
X75697943Y-137228109D01*
X75700024Y-137234740D01*
X75700676Y-137488946D01*
X75697270Y-137497228D01*
X75689006Y-137500676D01*
X75688946Y-137500676D01*
X75434740Y-137500024D01*
X75426476Y-137496576D01*
X75423259Y-137490416D01*
X75384666Y-137277987D01*
X75386559Y-137269236D01*
X75387899Y-137267630D01*
X75467625Y-137187904D01*
X75475897Y-137184478D01*
X75477984Y-137184665D01*
G37*
G04 #@! TD.AperFunction*
G04 #@! TA.AperFunction,Conductor*
G36*
X98164644Y-137118427D02*
G01*
X98165990Y-137120039D01*
X98288908Y-137297538D01*
X98290801Y-137306290D01*
X98287583Y-137312451D01*
X98108294Y-137492663D01*
X98100030Y-137496111D01*
X98091748Y-137492705D01*
X98091706Y-137492663D01*
X97912416Y-137312451D01*
X97909010Y-137304169D01*
X97911090Y-137297539D01*
X98034010Y-137120038D01*
X98041538Y-137115188D01*
X98043629Y-137115000D01*
X98156371Y-137115000D01*
X98164644Y-137118427D01*
G37*
G04 #@! TD.AperFunction*
G04 #@! TA.AperFunction,Conductor*
G36*
X85758251Y-40187293D02*
G01*
X85876796Y-40306448D01*
X85937583Y-40367548D01*
X85940989Y-40375830D01*
X85938908Y-40382461D01*
X85815990Y-40559961D01*
X85808462Y-40564812D01*
X85806371Y-40565000D01*
X85693629Y-40565000D01*
X85685356Y-40561573D01*
X85684010Y-40559961D01*
X85561091Y-40382461D01*
X85559198Y-40373709D01*
X85562415Y-40367549D01*
X85741707Y-40187335D01*
X85749970Y-40183888D01*
X85758251Y-40187293D01*
G37*
G04 #@! TD.AperFunction*
G04 #@! TA.AperFunction,Conductor*
G36*
X76564644Y-137918427D02*
G01*
X76565990Y-137920039D01*
X76688908Y-138097538D01*
X76690801Y-138106290D01*
X76687583Y-138112451D01*
X76508294Y-138292663D01*
X76500030Y-138296111D01*
X76491748Y-138292705D01*
X76491706Y-138292663D01*
X76312416Y-138112451D01*
X76309010Y-138104169D01*
X76311090Y-138097539D01*
X76434010Y-137920038D01*
X76441538Y-137915188D01*
X76443629Y-137915000D01*
X76556371Y-137915000D01*
X76564644Y-137918427D01*
G37*
G04 #@! TD.AperFunction*
G04 #@! TA.AperFunction,Conductor*
G36*
X72258251Y-39307293D02*
G01*
X72376796Y-39426448D01*
X72437583Y-39487548D01*
X72440989Y-39495830D01*
X72438908Y-39502461D01*
X72315990Y-39679961D01*
X72308462Y-39684812D01*
X72306371Y-39685000D01*
X72193629Y-39685000D01*
X72185356Y-39681573D01*
X72184010Y-39679961D01*
X72061091Y-39502461D01*
X72059198Y-39493709D01*
X72062415Y-39487549D01*
X72241707Y-39307335D01*
X72249970Y-39303888D01*
X72258251Y-39307293D01*
G37*
G04 #@! TD.AperFunction*
G04 #@! TA.AperFunction,Conductor*
G36*
X75758251Y-40237293D02*
G01*
X75876796Y-40356448D01*
X75937583Y-40417548D01*
X75940989Y-40425830D01*
X75938908Y-40432461D01*
X75815990Y-40609961D01*
X75808462Y-40614812D01*
X75806371Y-40615000D01*
X75693629Y-40615000D01*
X75685356Y-40611573D01*
X75684010Y-40609961D01*
X75561091Y-40432461D01*
X75559198Y-40423709D01*
X75562415Y-40417549D01*
X75741707Y-40237335D01*
X75749970Y-40233888D01*
X75758251Y-40237293D01*
G37*
G04 #@! TD.AperFunction*
G04 #@! TA.AperFunction,Conductor*
G36*
X82164644Y-137118427D02*
G01*
X82165990Y-137120039D01*
X82288908Y-137297538D01*
X82290801Y-137306290D01*
X82287583Y-137312451D01*
X82108294Y-137492663D01*
X82100030Y-137496111D01*
X82091748Y-137492705D01*
X82091706Y-137492663D01*
X81912416Y-137312451D01*
X81909010Y-137304169D01*
X81911090Y-137297539D01*
X82034010Y-137120038D01*
X82041538Y-137115188D01*
X82043629Y-137115000D01*
X82156371Y-137115000D01*
X82164644Y-137118427D01*
G37*
G04 #@! TD.AperFunction*
G04 #@! TA.AperFunction,Conductor*
G36*
X89364644Y-137918427D02*
G01*
X89365990Y-137920039D01*
X89488908Y-138097538D01*
X89490801Y-138106290D01*
X89487583Y-138112451D01*
X89308294Y-138292663D01*
X89300030Y-138296111D01*
X89291748Y-138292705D01*
X89291706Y-138292663D01*
X89112416Y-138112451D01*
X89109010Y-138104169D01*
X89111090Y-138097539D01*
X89234010Y-137920038D01*
X89241538Y-137915188D01*
X89243629Y-137915000D01*
X89356371Y-137915000D01*
X89364644Y-137918427D01*
G37*
G04 #@! TD.AperFunction*
G04 #@! TA.AperFunction,Conductor*
G36*
X80258251Y-39307293D02*
G01*
X80376796Y-39426448D01*
X80437583Y-39487548D01*
X80440989Y-39495830D01*
X80438908Y-39502461D01*
X80315990Y-39679961D01*
X80308462Y-39684812D01*
X80306371Y-39685000D01*
X80193629Y-39685000D01*
X80185356Y-39681573D01*
X80184010Y-39679961D01*
X80061091Y-39502461D01*
X80059198Y-39493709D01*
X80062415Y-39487549D01*
X80241707Y-39307335D01*
X80249970Y-39303888D01*
X80258251Y-39307293D01*
G37*
G04 #@! TD.AperFunction*
G04 #@! TA.AperFunction,Conductor*
G36*
X92564644Y-137918427D02*
G01*
X92565990Y-137920039D01*
X92688908Y-138097538D01*
X92690801Y-138106290D01*
X92687583Y-138112451D01*
X92508294Y-138292663D01*
X92500030Y-138296111D01*
X92491748Y-138292705D01*
X92491706Y-138292663D01*
X92312416Y-138112451D01*
X92309010Y-138104169D01*
X92311090Y-138097539D01*
X92434010Y-137920038D01*
X92441538Y-137915188D01*
X92443629Y-137915000D01*
X92556371Y-137915000D01*
X92564644Y-137918427D01*
G37*
G04 #@! TD.AperFunction*
G04 #@! TA.AperFunction,Conductor*
G36*
X82258251Y-39307293D02*
G01*
X82376796Y-39426448D01*
X82437583Y-39487548D01*
X82440989Y-39495830D01*
X82438908Y-39502461D01*
X82315990Y-39679961D01*
X82308462Y-39684812D01*
X82306371Y-39685000D01*
X82193629Y-39685000D01*
X82185356Y-39681573D01*
X82184010Y-39679961D01*
X82061091Y-39502461D01*
X82059198Y-39493709D01*
X82062415Y-39487549D01*
X82241707Y-39307335D01*
X82249970Y-39303888D01*
X82258251Y-39307293D01*
G37*
G04 #@! TD.AperFunction*
G04 #@! TA.AperFunction,Conductor*
G36*
X96564643Y-137118427D02*
G01*
X96565989Y-137120039D01*
X96688908Y-137297538D01*
X96690801Y-137306290D01*
X96687583Y-137312451D01*
X96508294Y-137492663D01*
X96500030Y-137496111D01*
X96491748Y-137492705D01*
X96491706Y-137492663D01*
X96312416Y-137312451D01*
X96309010Y-137304169D01*
X96311090Y-137297539D01*
X96434009Y-137120038D01*
X96441537Y-137115188D01*
X96443628Y-137115000D01*
X96556370Y-137115000D01*
X96564643Y-137118427D01*
G37*
G04 #@! TD.AperFunction*
G04 #@! TA.AperFunction,Conductor*
G36*
X84758251Y-40197293D02*
G01*
X84876796Y-40316448D01*
X84937583Y-40377548D01*
X84940989Y-40385830D01*
X84938908Y-40392461D01*
X84815990Y-40569961D01*
X84808462Y-40574812D01*
X84806371Y-40575000D01*
X84693629Y-40575000D01*
X84685356Y-40571573D01*
X84684010Y-40569961D01*
X84561091Y-40392461D01*
X84559198Y-40383709D01*
X84562415Y-40377549D01*
X84741707Y-40197335D01*
X84749970Y-40193888D01*
X84758251Y-40197293D01*
G37*
G04 #@! TD.AperFunction*
D17*
X63500000Y-35500000D02*
X113500000Y-35500000D01*
X113500000Y-161500000D01*
X63500000Y-161500000D01*
X63500000Y-35500000D01*
M02*
