G04 #@! TF.GenerationSoftware,KiCad,Pcbnew,8.0.0*
G04 #@! TF.CreationDate,2024-05-02T10:20:31+02:00*
G04 #@! TF.ProjectId,Fx2Mec8,4678324d-6563-4382-9e6b-696361645f70,rev?*
G04 #@! TF.SameCoordinates,Original*
G04 #@! TF.FileFunction,AssemblyDrawing,Bot*
%FSLAX46Y46*%
G04 Gerber Fmt 4.6, Leading zero omitted, Abs format (unit mm)*
G04 Created by KiCad (PCBNEW 8.0.0) date 2024-05-02 10:20:31*
%MOMM*%
%LPD*%
G01*
G04 APERTURE LIST*
%ADD10C,0.150000*%
%ADD11C,0.300000*%
%ADD12C,0.100000*%
%ADD13C,0.200000*%
G04 #@! TA.AperFunction,Profile*
%ADD14C,0.010000*%
G04 #@! TD*
G04 APERTURE END LIST*
D10*
X108729411Y-45519819D02*
X109300839Y-45519819D01*
X109015125Y-45519819D02*
X109015125Y-44519819D01*
X109015125Y-44519819D02*
X109110363Y-44662676D01*
X109110363Y-44662676D02*
X109205601Y-44757914D01*
X109205601Y-44757914D02*
X109300839Y-44805533D01*
X108396077Y-44519819D02*
X107777030Y-44519819D01*
X107777030Y-44519819D02*
X108110363Y-44900771D01*
X108110363Y-44900771D02*
X107967506Y-44900771D01*
X107967506Y-44900771D02*
X107872268Y-44948390D01*
X107872268Y-44948390D02*
X107824649Y-44996009D01*
X107824649Y-44996009D02*
X107777030Y-45091247D01*
X107777030Y-45091247D02*
X107777030Y-45329342D01*
X107777030Y-45329342D02*
X107824649Y-45424580D01*
X107824649Y-45424580D02*
X107872268Y-45472200D01*
X107872268Y-45472200D02*
X107967506Y-45519819D01*
X107967506Y-45519819D02*
X108253220Y-45519819D01*
X108253220Y-45519819D02*
X108348458Y-45472200D01*
X108348458Y-45472200D02*
X108396077Y-45424580D01*
X107300839Y-45519819D02*
X107110363Y-45519819D01*
X107110363Y-45519819D02*
X107015125Y-45472200D01*
X107015125Y-45472200D02*
X106967506Y-45424580D01*
X106967506Y-45424580D02*
X106872268Y-45281723D01*
X106872268Y-45281723D02*
X106824649Y-45091247D01*
X106824649Y-45091247D02*
X106824649Y-44710295D01*
X106824649Y-44710295D02*
X106872268Y-44615057D01*
X106872268Y-44615057D02*
X106919887Y-44567438D01*
X106919887Y-44567438D02*
X107015125Y-44519819D01*
X107015125Y-44519819D02*
X107205601Y-44519819D01*
X107205601Y-44519819D02*
X107300839Y-44567438D01*
X107300839Y-44567438D02*
X107348458Y-44615057D01*
X107348458Y-44615057D02*
X107396077Y-44710295D01*
X107396077Y-44710295D02*
X107396077Y-44948390D01*
X107396077Y-44948390D02*
X107348458Y-45043628D01*
X107348458Y-45043628D02*
X107300839Y-45091247D01*
X107300839Y-45091247D02*
X107205601Y-45138866D01*
X107205601Y-45138866D02*
X107015125Y-45138866D01*
X107015125Y-45138866D02*
X106919887Y-45091247D01*
X106919887Y-45091247D02*
X106872268Y-45043628D01*
X106872268Y-45043628D02*
X106824649Y-44948390D01*
X69459411Y-45459819D02*
X70030839Y-45459819D01*
X69745125Y-45459819D02*
X69745125Y-44459819D01*
X69745125Y-44459819D02*
X69840363Y-44602676D01*
X69840363Y-44602676D02*
X69935601Y-44697914D01*
X69935601Y-44697914D02*
X70030839Y-44745533D01*
D11*
X95885001Y-25307614D02*
X95385001Y-25307614D01*
X95170715Y-26093328D02*
X95885001Y-26093328D01*
X95885001Y-26093328D02*
X95885001Y-24593328D01*
X95885001Y-24593328D02*
X95170715Y-24593328D01*
X93527858Y-26236185D02*
X93670715Y-26164757D01*
X93670715Y-26164757D02*
X93813572Y-26021900D01*
X93813572Y-26021900D02*
X94027858Y-25807614D01*
X94027858Y-25807614D02*
X94170715Y-25736185D01*
X94170715Y-25736185D02*
X94313572Y-25736185D01*
X94242143Y-26093328D02*
X94385001Y-26021900D01*
X94385001Y-26021900D02*
X94527858Y-25879042D01*
X94527858Y-25879042D02*
X94599286Y-25593328D01*
X94599286Y-25593328D02*
X94599286Y-25093328D01*
X94599286Y-25093328D02*
X94527858Y-24807614D01*
X94527858Y-24807614D02*
X94385001Y-24664757D01*
X94385001Y-24664757D02*
X94242143Y-24593328D01*
X94242143Y-24593328D02*
X93956429Y-24593328D01*
X93956429Y-24593328D02*
X93813572Y-24664757D01*
X93813572Y-24664757D02*
X93670715Y-24807614D01*
X93670715Y-24807614D02*
X93599286Y-25093328D01*
X93599286Y-25093328D02*
X93599286Y-25593328D01*
X93599286Y-25593328D02*
X93670715Y-25879042D01*
X93670715Y-25879042D02*
X93813572Y-26021900D01*
X93813572Y-26021900D02*
X93956429Y-26093328D01*
X93956429Y-26093328D02*
X94242143Y-26093328D01*
X92956429Y-24593328D02*
X92956429Y-25807614D01*
X92956429Y-25807614D02*
X92885000Y-25950471D01*
X92885000Y-25950471D02*
X92813572Y-26021900D01*
X92813572Y-26021900D02*
X92670714Y-26093328D01*
X92670714Y-26093328D02*
X92385000Y-26093328D01*
X92385000Y-26093328D02*
X92242143Y-26021900D01*
X92242143Y-26021900D02*
X92170714Y-25950471D01*
X92170714Y-25950471D02*
X92099286Y-25807614D01*
X92099286Y-25807614D02*
X92099286Y-24593328D01*
X91385000Y-26093328D02*
X91385000Y-24593328D01*
X90670714Y-26093328D02*
X90670714Y-24593328D01*
X90670714Y-24593328D02*
X90099285Y-24593328D01*
X90099285Y-24593328D02*
X89956428Y-24664757D01*
X89956428Y-24664757D02*
X89884999Y-24736185D01*
X89884999Y-24736185D02*
X89813571Y-24879042D01*
X89813571Y-24879042D02*
X89813571Y-25093328D01*
X89813571Y-25093328D02*
X89884999Y-25236185D01*
X89884999Y-25236185D02*
X89956428Y-25307614D01*
X89956428Y-25307614D02*
X90099285Y-25379042D01*
X90099285Y-25379042D02*
X90670714Y-25379042D01*
X89170714Y-25307614D02*
X88670714Y-25307614D01*
X88456428Y-26093328D02*
X89170714Y-26093328D01*
X89170714Y-26093328D02*
X89170714Y-24593328D01*
X89170714Y-24593328D02*
X88456428Y-24593328D01*
X87813571Y-26093328D02*
X87813571Y-24593328D01*
X87813571Y-24593328D02*
X87313571Y-25664757D01*
X87313571Y-25664757D02*
X86813571Y-24593328D01*
X86813571Y-24593328D02*
X86813571Y-26093328D01*
X86099285Y-25307614D02*
X85599285Y-25307614D01*
X85384999Y-26093328D02*
X86099285Y-26093328D01*
X86099285Y-26093328D02*
X86099285Y-24593328D01*
X86099285Y-24593328D02*
X85384999Y-24593328D01*
X84742142Y-26093328D02*
X84742142Y-24593328D01*
X84742142Y-24593328D02*
X83884999Y-26093328D01*
X83884999Y-26093328D02*
X83884999Y-24593328D01*
X83384998Y-24593328D02*
X82527856Y-24593328D01*
X82956427Y-26093328D02*
X82956427Y-24593328D01*
X80384999Y-25307614D02*
X80170713Y-25379042D01*
X80170713Y-25379042D02*
X80099284Y-25450471D01*
X80099284Y-25450471D02*
X80027856Y-25593328D01*
X80027856Y-25593328D02*
X80027856Y-25807614D01*
X80027856Y-25807614D02*
X80099284Y-25950471D01*
X80099284Y-25950471D02*
X80170713Y-26021900D01*
X80170713Y-26021900D02*
X80313570Y-26093328D01*
X80313570Y-26093328D02*
X80884999Y-26093328D01*
X80884999Y-26093328D02*
X80884999Y-24593328D01*
X80884999Y-24593328D02*
X80384999Y-24593328D01*
X80384999Y-24593328D02*
X80242142Y-24664757D01*
X80242142Y-24664757D02*
X80170713Y-24736185D01*
X80170713Y-24736185D02*
X80099284Y-24879042D01*
X80099284Y-24879042D02*
X80099284Y-25021900D01*
X80099284Y-25021900D02*
X80170713Y-25164757D01*
X80170713Y-25164757D02*
X80242142Y-25236185D01*
X80242142Y-25236185D02*
X80384999Y-25307614D01*
X80384999Y-25307614D02*
X80884999Y-25307614D01*
X79099284Y-24593328D02*
X78813570Y-24593328D01*
X78813570Y-24593328D02*
X78670713Y-24664757D01*
X78670713Y-24664757D02*
X78527856Y-24807614D01*
X78527856Y-24807614D02*
X78456427Y-25093328D01*
X78456427Y-25093328D02*
X78456427Y-25593328D01*
X78456427Y-25593328D02*
X78527856Y-25879042D01*
X78527856Y-25879042D02*
X78670713Y-26021900D01*
X78670713Y-26021900D02*
X78813570Y-26093328D01*
X78813570Y-26093328D02*
X79099284Y-26093328D01*
X79099284Y-26093328D02*
X79242142Y-26021900D01*
X79242142Y-26021900D02*
X79384999Y-25879042D01*
X79384999Y-25879042D02*
X79456427Y-25593328D01*
X79456427Y-25593328D02*
X79456427Y-25093328D01*
X79456427Y-25093328D02*
X79384999Y-24807614D01*
X79384999Y-24807614D02*
X79242142Y-24664757D01*
X79242142Y-24664757D02*
X79099284Y-24593328D01*
X78027855Y-24593328D02*
X77170713Y-24593328D01*
X77599284Y-26093328D02*
X77599284Y-24593328D01*
X76884998Y-24593328D02*
X76027856Y-24593328D01*
X76456427Y-26093328D02*
X76456427Y-24593328D01*
X75242141Y-24593328D02*
X74956427Y-24593328D01*
X74956427Y-24593328D02*
X74813570Y-24664757D01*
X74813570Y-24664757D02*
X74670713Y-24807614D01*
X74670713Y-24807614D02*
X74599284Y-25093328D01*
X74599284Y-25093328D02*
X74599284Y-25593328D01*
X74599284Y-25593328D02*
X74670713Y-25879042D01*
X74670713Y-25879042D02*
X74813570Y-26021900D01*
X74813570Y-26021900D02*
X74956427Y-26093328D01*
X74956427Y-26093328D02*
X75242141Y-26093328D01*
X75242141Y-26093328D02*
X75384999Y-26021900D01*
X75384999Y-26021900D02*
X75527856Y-25879042D01*
X75527856Y-25879042D02*
X75599284Y-25593328D01*
X75599284Y-25593328D02*
X75599284Y-25093328D01*
X75599284Y-25093328D02*
X75527856Y-24807614D01*
X75527856Y-24807614D02*
X75384999Y-24664757D01*
X75384999Y-24664757D02*
X75242141Y-24593328D01*
X73956427Y-26093328D02*
X73956427Y-24593328D01*
X73956427Y-24593328D02*
X73456427Y-25664757D01*
X73456427Y-25664757D02*
X72956427Y-24593328D01*
X72956427Y-24593328D02*
X72956427Y-26093328D01*
X71099284Y-26093328D02*
X71099284Y-24593328D01*
X71099284Y-24593328D02*
X70242141Y-26093328D01*
X70242141Y-26093328D02*
X70242141Y-24593328D01*
X69527855Y-25950471D02*
X69456426Y-26021900D01*
X69456426Y-26021900D02*
X69527855Y-26093328D01*
X69527855Y-26093328D02*
X69599283Y-26021900D01*
X69599283Y-26021900D02*
X69527855Y-25950471D01*
X69527855Y-25950471D02*
X69527855Y-26093328D01*
X69527855Y-25164757D02*
X69456426Y-25236185D01*
X69456426Y-25236185D02*
X69527855Y-25307614D01*
X69527855Y-25307614D02*
X69599283Y-25236185D01*
X69599283Y-25236185D02*
X69527855Y-25164757D01*
X69527855Y-25164757D02*
X69527855Y-25307614D01*
X68813569Y-26093328D02*
X68813569Y-24593328D01*
X67956426Y-26093328D02*
X68599283Y-25236185D01*
X67956426Y-24593328D02*
X68813569Y-25450471D01*
X66599283Y-24593328D02*
X67313569Y-24593328D01*
X67313569Y-24593328D02*
X67384997Y-25307614D01*
X67384997Y-25307614D02*
X67313569Y-25236185D01*
X67313569Y-25236185D02*
X67170712Y-25164757D01*
X67170712Y-25164757D02*
X66813569Y-25164757D01*
X66813569Y-25164757D02*
X66670712Y-25236185D01*
X66670712Y-25236185D02*
X66599283Y-25307614D01*
X66599283Y-25307614D02*
X66527854Y-25450471D01*
X66527854Y-25450471D02*
X66527854Y-25807614D01*
X66527854Y-25807614D02*
X66599283Y-25950471D01*
X66599283Y-25950471D02*
X66670712Y-26021900D01*
X66670712Y-26021900D02*
X66813569Y-26093328D01*
X66813569Y-26093328D02*
X67170712Y-26093328D01*
X67170712Y-26093328D02*
X67313569Y-26021900D01*
X67313569Y-26021900D02*
X67384997Y-25950471D01*
X65813569Y-26093328D02*
X65527855Y-26093328D01*
X65527855Y-26093328D02*
X65384998Y-26021900D01*
X65384998Y-26021900D02*
X65313569Y-25950471D01*
X65313569Y-25950471D02*
X65170712Y-25736185D01*
X65170712Y-25736185D02*
X65099283Y-25450471D01*
X65099283Y-25450471D02*
X65099283Y-24879042D01*
X65099283Y-24879042D02*
X65170712Y-24736185D01*
X65170712Y-24736185D02*
X65242141Y-24664757D01*
X65242141Y-24664757D02*
X65384998Y-24593328D01*
X65384998Y-24593328D02*
X65670712Y-24593328D01*
X65670712Y-24593328D02*
X65813569Y-24664757D01*
X65813569Y-24664757D02*
X65884998Y-24736185D01*
X65884998Y-24736185D02*
X65956426Y-24879042D01*
X65956426Y-24879042D02*
X65956426Y-25236185D01*
X65956426Y-25236185D02*
X65884998Y-25379042D01*
X65884998Y-25379042D02*
X65813569Y-25450471D01*
X65813569Y-25450471D02*
X65670712Y-25521900D01*
X65670712Y-25521900D02*
X65384998Y-25521900D01*
X65384998Y-25521900D02*
X65242141Y-25450471D01*
X65242141Y-25450471D02*
X65170712Y-25379042D01*
X65170712Y-25379042D02*
X65099283Y-25236185D01*
X64670712Y-24593328D02*
X64170712Y-26093328D01*
X64170712Y-26093328D02*
X63670712Y-24593328D01*
D12*
X65300000Y-37225000D02*
X111700000Y-37225000D01*
X65300000Y-45925000D02*
X65300000Y-37225000D01*
D13*
X67600000Y-45950000D02*
X65300000Y-43575000D01*
X71250000Y-47225000D02*
X71250000Y-47125000D01*
D12*
X111700000Y-37225000D02*
X111700000Y-45925000D01*
X111700000Y-45925000D02*
X65300000Y-45925000D01*
D14*
X63500000Y-35500000D02*
X113500000Y-35500000D01*
X113500000Y-161500000D01*
X63500000Y-161500000D01*
X63500000Y-35500000D01*
M02*
