G04 #@! TF.GenerationSoftware,KiCad,Pcbnew,8.0.0*
G04 #@! TF.CreationDate,2024-05-02T10:20:30+02:00*
G04 #@! TF.ProjectId,Fx2Mec8,4678324d-6563-4382-9e6b-696361645f70,rev?*
G04 #@! TF.SameCoordinates,Original*
G04 #@! TF.FileFunction,Soldermask,Top*
G04 #@! TF.FilePolarity,Negative*
%FSLAX46Y46*%
G04 Gerber Fmt 4.6, Leading zero omitted, Abs format (unit mm)*
G04 Created by KiCad (PCBNEW 8.0.0) date 2024-05-02 10:20:30*
%MOMM*%
%LPD*%
G01*
G04 APERTURE LIST*
%ADD10C,0.520000*%
%ADD11C,0.300000*%
%ADD12C,6.400000*%
%ADD13C,1.000000*%
%ADD14C,1.650000*%
%ADD15R,0.500000X2.000000*%
%ADD16C,0.550000*%
G04 #@! TA.AperFunction,Profile*
%ADD17C,0.010000*%
G04 #@! TD*
G04 APERTURE END LIST*
D10*
X63500000Y-35500000D02*
X113500000Y-35500000D01*
X113500000Y-161500000D01*
X63500000Y-161500000D01*
X63500000Y-35500000D01*
D11*
X63667857Y-24583328D02*
X64167857Y-26083328D01*
X64167857Y-26083328D02*
X64667857Y-24583328D01*
X65167856Y-25297614D02*
X65667856Y-25297614D01*
X65882142Y-26083328D02*
X65167856Y-26083328D01*
X65167856Y-26083328D02*
X65167856Y-24583328D01*
X65167856Y-24583328D02*
X65882142Y-24583328D01*
X67382142Y-26083328D02*
X66882142Y-25369042D01*
X66524999Y-26083328D02*
X66524999Y-24583328D01*
X66524999Y-24583328D02*
X67096428Y-24583328D01*
X67096428Y-24583328D02*
X67239285Y-24654757D01*
X67239285Y-24654757D02*
X67310714Y-24726185D01*
X67310714Y-24726185D02*
X67382142Y-24869042D01*
X67382142Y-24869042D02*
X67382142Y-25083328D01*
X67382142Y-25083328D02*
X67310714Y-25226185D01*
X67310714Y-25226185D02*
X67239285Y-25297614D01*
X67239285Y-25297614D02*
X67096428Y-25369042D01*
X67096428Y-25369042D02*
X66524999Y-25369042D01*
X68024999Y-26083328D02*
X68024999Y-24583328D01*
X68024999Y-24583328D02*
X68882142Y-26083328D01*
X68882142Y-26083328D02*
X68882142Y-24583328D01*
X69596428Y-26083328D02*
X69596428Y-24583328D01*
X70239286Y-26011900D02*
X70453572Y-26083328D01*
X70453572Y-26083328D02*
X70810714Y-26083328D01*
X70810714Y-26083328D02*
X70953572Y-26011900D01*
X70953572Y-26011900D02*
X71025000Y-25940471D01*
X71025000Y-25940471D02*
X71096429Y-25797614D01*
X71096429Y-25797614D02*
X71096429Y-25654757D01*
X71096429Y-25654757D02*
X71025000Y-25511900D01*
X71025000Y-25511900D02*
X70953572Y-25440471D01*
X70953572Y-25440471D02*
X70810714Y-25369042D01*
X70810714Y-25369042D02*
X70525000Y-25297614D01*
X70525000Y-25297614D02*
X70382143Y-25226185D01*
X70382143Y-25226185D02*
X70310714Y-25154757D01*
X70310714Y-25154757D02*
X70239286Y-25011900D01*
X70239286Y-25011900D02*
X70239286Y-24869042D01*
X70239286Y-24869042D02*
X70310714Y-24726185D01*
X70310714Y-24726185D02*
X70382143Y-24654757D01*
X70382143Y-24654757D02*
X70525000Y-24583328D01*
X70525000Y-24583328D02*
X70882143Y-24583328D01*
X70882143Y-24583328D02*
X71096429Y-24654757D01*
X72882142Y-25297614D02*
X73382142Y-25297614D01*
X73596428Y-26083328D02*
X72882142Y-26083328D01*
X72882142Y-26083328D02*
X72882142Y-24583328D01*
X72882142Y-24583328D02*
X73596428Y-24583328D01*
X74239285Y-26083328D02*
X74239285Y-24583328D01*
X74239285Y-24583328D02*
X74810714Y-24583328D01*
X74810714Y-24583328D02*
X74953571Y-24654757D01*
X74953571Y-24654757D02*
X75025000Y-24726185D01*
X75025000Y-24726185D02*
X75096428Y-24869042D01*
X75096428Y-24869042D02*
X75096428Y-25083328D01*
X75096428Y-25083328D02*
X75025000Y-25226185D01*
X75025000Y-25226185D02*
X74953571Y-25297614D01*
X74953571Y-25297614D02*
X74810714Y-25369042D01*
X74810714Y-25369042D02*
X74239285Y-25369042D01*
X75667857Y-25654757D02*
X76382143Y-25654757D01*
X75525000Y-26083328D02*
X76025000Y-24583328D01*
X76025000Y-24583328D02*
X76525000Y-26083328D01*
X77882142Y-26083328D02*
X77382142Y-25369042D01*
X77024999Y-26083328D02*
X77024999Y-24583328D01*
X77024999Y-24583328D02*
X77596428Y-24583328D01*
X77596428Y-24583328D02*
X77739285Y-24654757D01*
X77739285Y-24654757D02*
X77810714Y-24726185D01*
X77810714Y-24726185D02*
X77882142Y-24869042D01*
X77882142Y-24869042D02*
X77882142Y-25083328D01*
X77882142Y-25083328D02*
X77810714Y-25226185D01*
X77810714Y-25226185D02*
X77739285Y-25297614D01*
X77739285Y-25297614D02*
X77596428Y-25369042D01*
X77596428Y-25369042D02*
X77024999Y-25369042D01*
X79310714Y-24654757D02*
X79167857Y-24583328D01*
X79167857Y-24583328D02*
X78953571Y-24583328D01*
X78953571Y-24583328D02*
X78739285Y-24654757D01*
X78739285Y-24654757D02*
X78596428Y-24797614D01*
X78596428Y-24797614D02*
X78524999Y-24940471D01*
X78524999Y-24940471D02*
X78453571Y-25226185D01*
X78453571Y-25226185D02*
X78453571Y-25440471D01*
X78453571Y-25440471D02*
X78524999Y-25726185D01*
X78524999Y-25726185D02*
X78596428Y-25869042D01*
X78596428Y-25869042D02*
X78739285Y-26011900D01*
X78739285Y-26011900D02*
X78953571Y-26083328D01*
X78953571Y-26083328D02*
X79096428Y-26083328D01*
X79096428Y-26083328D02*
X79310714Y-26011900D01*
X79310714Y-26011900D02*
X79382142Y-25940471D01*
X79382142Y-25940471D02*
X79382142Y-25440471D01*
X79382142Y-25440471D02*
X79096428Y-25440471D01*
X80024999Y-26083328D02*
X80024999Y-24583328D01*
X80024999Y-24583328D02*
X80882142Y-26083328D01*
X80882142Y-26083328D02*
X80882142Y-24583328D01*
X81596428Y-25297614D02*
X82096428Y-25297614D01*
X82310714Y-26083328D02*
X81596428Y-26083328D01*
X81596428Y-26083328D02*
X81596428Y-24583328D01*
X81596428Y-24583328D02*
X82310714Y-24583328D01*
X83882143Y-24583328D02*
X84739286Y-24583328D01*
X84310714Y-26083328D02*
X84310714Y-24583328D01*
X85525000Y-24583328D02*
X85810714Y-24583328D01*
X85810714Y-24583328D02*
X85953571Y-24654757D01*
X85953571Y-24654757D02*
X86096428Y-24797614D01*
X86096428Y-24797614D02*
X86167857Y-25083328D01*
X86167857Y-25083328D02*
X86167857Y-25583328D01*
X86167857Y-25583328D02*
X86096428Y-25869042D01*
X86096428Y-25869042D02*
X85953571Y-26011900D01*
X85953571Y-26011900D02*
X85810714Y-26083328D01*
X85810714Y-26083328D02*
X85525000Y-26083328D01*
X85525000Y-26083328D02*
X85382143Y-26011900D01*
X85382143Y-26011900D02*
X85239285Y-25869042D01*
X85239285Y-25869042D02*
X85167857Y-25583328D01*
X85167857Y-25583328D02*
X85167857Y-25083328D01*
X85167857Y-25083328D02*
X85239285Y-24797614D01*
X85239285Y-24797614D02*
X85382143Y-24654757D01*
X85382143Y-24654757D02*
X85525000Y-24583328D01*
X86810714Y-26083328D02*
X86810714Y-24583328D01*
X86810714Y-24583328D02*
X87382143Y-24583328D01*
X87382143Y-24583328D02*
X87525000Y-24654757D01*
X87525000Y-24654757D02*
X87596429Y-24726185D01*
X87596429Y-24726185D02*
X87667857Y-24869042D01*
X87667857Y-24869042D02*
X87667857Y-25083328D01*
X87667857Y-25083328D02*
X87596429Y-25226185D01*
X87596429Y-25226185D02*
X87525000Y-25297614D01*
X87525000Y-25297614D02*
X87382143Y-25369042D01*
X87382143Y-25369042D02*
X86810714Y-25369042D01*
X89453571Y-26083328D02*
X89453571Y-24583328D01*
X89453571Y-24583328D02*
X90310714Y-26083328D01*
X90310714Y-26083328D02*
X90310714Y-24583328D01*
X91025000Y-25940471D02*
X91096429Y-26011900D01*
X91096429Y-26011900D02*
X91025000Y-26083328D01*
X91025000Y-26083328D02*
X90953572Y-26011900D01*
X90953572Y-26011900D02*
X91025000Y-25940471D01*
X91025000Y-25940471D02*
X91025000Y-26083328D01*
X91025000Y-25154757D02*
X91096429Y-25226185D01*
X91096429Y-25226185D02*
X91025000Y-25297614D01*
X91025000Y-25297614D02*
X90953572Y-25226185D01*
X90953572Y-25226185D02*
X91025000Y-25154757D01*
X91025000Y-25154757D02*
X91025000Y-25297614D01*
X91739286Y-26083328D02*
X91739286Y-24583328D01*
X92596429Y-26083328D02*
X91953572Y-25226185D01*
X92596429Y-24583328D02*
X91739286Y-25440471D01*
X93953572Y-24583328D02*
X93239286Y-24583328D01*
X93239286Y-24583328D02*
X93167858Y-25297614D01*
X93167858Y-25297614D02*
X93239286Y-25226185D01*
X93239286Y-25226185D02*
X93382144Y-25154757D01*
X93382144Y-25154757D02*
X93739286Y-25154757D01*
X93739286Y-25154757D02*
X93882144Y-25226185D01*
X93882144Y-25226185D02*
X93953572Y-25297614D01*
X93953572Y-25297614D02*
X94025001Y-25440471D01*
X94025001Y-25440471D02*
X94025001Y-25797614D01*
X94025001Y-25797614D02*
X93953572Y-25940471D01*
X93953572Y-25940471D02*
X93882144Y-26011900D01*
X93882144Y-26011900D02*
X93739286Y-26083328D01*
X93739286Y-26083328D02*
X93382144Y-26083328D01*
X93382144Y-26083328D02*
X93239286Y-26011900D01*
X93239286Y-26011900D02*
X93167858Y-25940471D01*
X94739286Y-26083328D02*
X95025000Y-26083328D01*
X95025000Y-26083328D02*
X95167857Y-26011900D01*
X95167857Y-26011900D02*
X95239286Y-25940471D01*
X95239286Y-25940471D02*
X95382143Y-25726185D01*
X95382143Y-25726185D02*
X95453572Y-25440471D01*
X95453572Y-25440471D02*
X95453572Y-24869042D01*
X95453572Y-24869042D02*
X95382143Y-24726185D01*
X95382143Y-24726185D02*
X95310715Y-24654757D01*
X95310715Y-24654757D02*
X95167857Y-24583328D01*
X95167857Y-24583328D02*
X94882143Y-24583328D01*
X94882143Y-24583328D02*
X94739286Y-24654757D01*
X94739286Y-24654757D02*
X94667857Y-24726185D01*
X94667857Y-24726185D02*
X94596429Y-24869042D01*
X94596429Y-24869042D02*
X94596429Y-25226185D01*
X94596429Y-25226185D02*
X94667857Y-25369042D01*
X94667857Y-25369042D02*
X94739286Y-25440471D01*
X94739286Y-25440471D02*
X94882143Y-25511900D01*
X94882143Y-25511900D02*
X95167857Y-25511900D01*
X95167857Y-25511900D02*
X95310715Y-25440471D01*
X95310715Y-25440471D02*
X95382143Y-25369042D01*
X95382143Y-25369042D02*
X95453572Y-25226185D01*
X95882143Y-24583328D02*
X96382143Y-26083328D01*
X96382143Y-26083328D02*
X96882143Y-24583328D01*
D12*
X107400000Y-145700000D03*
X108500000Y-53500000D03*
X68500000Y-156500000D03*
D13*
X108500000Y-103500000D03*
X68500000Y-58500000D03*
D12*
X108500000Y-156500000D03*
X73400000Y-145700000D03*
X107400000Y-82200000D03*
X73400000Y-82200000D03*
D13*
X68500000Y-151500000D03*
X108500000Y-151500000D03*
D12*
X68500000Y-53500000D03*
D14*
X73700000Y-132000000D03*
X103300000Y-132000000D03*
D15*
X74900000Y-136000000D03*
X74900000Y-128000000D03*
X75700000Y-136000000D03*
X75700000Y-128000000D03*
X76500000Y-136000000D03*
X76500000Y-128000000D03*
X77300000Y-136000000D03*
X77300000Y-128000000D03*
X78100000Y-136000000D03*
X78100000Y-128000000D03*
X78900000Y-136000000D03*
X78900000Y-128000000D03*
X79700000Y-136000000D03*
X79700000Y-128000000D03*
X80500000Y-136000000D03*
X80500000Y-128000000D03*
X81300000Y-136000000D03*
X81300000Y-128000000D03*
X82100000Y-136000000D03*
X82100000Y-128000000D03*
X82900000Y-136000000D03*
X82900000Y-128000000D03*
X83700000Y-136000000D03*
X83700000Y-128000000D03*
X84500000Y-136000000D03*
X84500000Y-128000000D03*
X85300000Y-136000000D03*
X85300000Y-128000000D03*
X86100000Y-136000000D03*
X86100000Y-128000000D03*
X86900000Y-136000000D03*
X86900000Y-128000000D03*
X87700000Y-136000000D03*
X87700000Y-128000000D03*
X88500000Y-136000000D03*
X88500000Y-128000000D03*
X89300000Y-136000000D03*
X89300000Y-128000000D03*
X90100000Y-136000000D03*
X90100000Y-128000000D03*
X90900000Y-136000000D03*
X90900000Y-128000000D03*
X91700000Y-136000000D03*
X91700000Y-128000000D03*
X92500000Y-136000000D03*
X92500000Y-128000000D03*
X93300000Y-136000000D03*
X93300000Y-128000000D03*
X94100000Y-136000000D03*
X94100000Y-128000000D03*
X94900000Y-136000000D03*
X94900000Y-128000000D03*
X95700000Y-136000000D03*
X95700000Y-128000000D03*
X96500000Y-136000000D03*
X96500000Y-128000000D03*
X97300000Y-136000000D03*
X97300000Y-128000000D03*
X98100000Y-136000000D03*
X98100000Y-128000000D03*
X98900000Y-136000000D03*
X98900000Y-128000000D03*
X99700000Y-136000000D03*
X99700000Y-128000000D03*
X100500000Y-136000000D03*
X100500000Y-128000000D03*
X101300000Y-136000000D03*
X101300000Y-128000000D03*
X102100000Y-136000000D03*
X102100000Y-128000000D03*
D14*
X73700000Y-68500000D03*
X103300000Y-68500000D03*
D15*
X74900000Y-72500000D03*
X74900000Y-64500000D03*
X75700000Y-72500000D03*
X75700000Y-64500000D03*
X76500000Y-72500000D03*
X76500000Y-64500000D03*
X77300000Y-72500000D03*
X77300000Y-64500000D03*
X78100000Y-72500000D03*
X78100000Y-64500000D03*
X78900000Y-72500000D03*
X78900000Y-64500000D03*
X79700000Y-72500000D03*
X79700000Y-64500000D03*
X80500000Y-72500000D03*
X80500000Y-64500000D03*
X81300000Y-72500000D03*
X81300000Y-64500000D03*
X82100000Y-72500000D03*
X82100000Y-64500000D03*
X82900000Y-72500000D03*
X82900000Y-64500000D03*
X83700000Y-72500000D03*
X83700000Y-64500000D03*
X84500000Y-72500000D03*
X84500000Y-64500000D03*
X85300000Y-72500000D03*
X85300000Y-64500000D03*
X86100000Y-72500000D03*
X86100000Y-64500000D03*
X86900000Y-72500000D03*
X86900000Y-64500000D03*
X87700000Y-72500000D03*
X87700000Y-64500000D03*
X88500000Y-72500000D03*
X88500000Y-64500000D03*
X89300000Y-72500000D03*
X89300000Y-64500000D03*
X90100000Y-72500000D03*
X90100000Y-64500000D03*
X90900000Y-72500000D03*
X90900000Y-64500000D03*
X91700000Y-72500000D03*
X91700000Y-64500000D03*
X92500000Y-72500000D03*
X92500000Y-64500000D03*
X93300000Y-72500000D03*
X93300000Y-64500000D03*
X94100000Y-72500000D03*
X94100000Y-64500000D03*
X94900000Y-72500000D03*
X94900000Y-64500000D03*
X95700000Y-72500000D03*
X95700000Y-64500000D03*
X96500000Y-72500000D03*
X96500000Y-64500000D03*
X97300000Y-72500000D03*
X97300000Y-64500000D03*
X98100000Y-72500000D03*
X98100000Y-64500000D03*
X98900000Y-72500000D03*
X98900000Y-64500000D03*
X99700000Y-72500000D03*
X99700000Y-64500000D03*
X100500000Y-72500000D03*
X100500000Y-64500000D03*
X101300000Y-72500000D03*
X101300000Y-64500000D03*
X102100000Y-72500000D03*
X102100000Y-64500000D03*
D16*
X79750000Y-47040000D03*
X79740000Y-44410000D03*
X88500000Y-68500000D03*
X98500000Y-148500000D03*
X108500000Y-123500000D03*
X103500000Y-78500000D03*
X68500000Y-108500000D03*
X73500000Y-73500000D03*
X88510000Y-66030000D03*
X68500000Y-103500000D03*
X103500000Y-88500000D03*
X73500000Y-128500000D03*
X105750000Y-44440000D03*
X83500000Y-148500000D03*
X97240000Y-44430000D03*
X108500000Y-58500000D03*
X79740000Y-38590000D03*
X68500000Y-148500000D03*
X88500000Y-74000000D03*
X108500000Y-93500000D03*
X88520000Y-44550000D03*
X68500000Y-118500000D03*
X108500000Y-108500000D03*
X93500000Y-148500000D03*
X78500000Y-158500000D03*
X103500000Y-103500000D03*
X68500000Y-143500000D03*
X88500000Y-148500000D03*
X103500000Y-93500000D03*
X73500000Y-98500000D03*
X103500000Y-138500000D03*
X73500000Y-123500000D03*
X71250000Y-44410000D03*
X108500000Y-68500000D03*
X103500000Y-148500000D03*
X108500000Y-128500000D03*
X78500000Y-148500000D03*
X73500000Y-138500000D03*
X68500000Y-133500000D03*
X108500000Y-88500000D03*
X73500000Y-103500000D03*
X68500000Y-88500000D03*
X88500000Y-158500000D03*
X108500000Y-78500000D03*
X73500000Y-78500000D03*
X88500000Y-38620000D03*
X103500000Y-133500000D03*
X108500000Y-113500000D03*
X88510000Y-63060000D03*
X108500000Y-38500000D03*
X73500000Y-153500000D03*
X68390000Y-68530000D03*
X97250000Y-39300000D03*
X68500000Y-93500000D03*
X68500000Y-38500000D03*
X68500000Y-138500000D03*
X103500000Y-158500000D03*
X88500000Y-126500000D03*
X103500000Y-98500000D03*
X68370000Y-78050000D03*
X68500000Y-113500000D03*
X88500000Y-46920000D03*
X83500000Y-158500000D03*
X103500000Y-143500000D03*
X73500000Y-133500000D03*
X68500000Y-43500000D03*
X73500000Y-158500000D03*
X108500000Y-98500000D03*
X98500000Y-143500000D03*
X73500000Y-93500000D03*
X103500000Y-123500000D03*
X108500000Y-118500000D03*
X108500000Y-73500000D03*
X68500000Y-123500000D03*
X83500000Y-153500000D03*
X108500000Y-133500000D03*
X73500000Y-113500000D03*
X108500000Y-63500000D03*
X68380000Y-83510000D03*
X68370000Y-63500000D03*
X73500000Y-108500000D03*
X103500000Y-108500000D03*
X103500000Y-63500000D03*
X98500000Y-158500000D03*
X103500000Y-128500000D03*
X68500000Y-48500000D03*
X97280000Y-47040000D03*
X88500000Y-137500000D03*
X103500000Y-83500000D03*
X78500000Y-143500000D03*
X103500000Y-73500000D03*
X73500000Y-118500000D03*
X103500000Y-113500000D03*
X93500000Y-158500000D03*
X68390000Y-73500000D03*
X103500000Y-118500000D03*
X108500000Y-138500000D03*
X68500000Y-98500000D03*
X73500000Y-88500000D03*
X68500000Y-128500000D03*
X96499999Y-130130000D03*
X73250000Y-39300000D03*
X78100000Y-138300000D03*
X100250000Y-47600000D03*
X101300000Y-126500000D03*
X91250000Y-44020000D03*
X104250000Y-44010000D03*
X105250000Y-47810000D03*
X94750000Y-44380000D03*
X94900000Y-74000000D03*
X101250000Y-39300000D03*
X76500000Y-74800000D03*
X89750000Y-40210000D03*
X98760000Y-40290000D03*
X90900000Y-74800000D03*
X83250000Y-39300000D03*
X94100000Y-138300000D03*
X93300000Y-130100000D03*
X78900000Y-126500000D03*
X75700000Y-130000000D03*
X101920000Y-42680000D03*
X77300000Y-137500000D03*
X72750000Y-40240000D03*
X82900000Y-74800000D03*
X93760000Y-40210000D03*
X101750000Y-47600000D03*
X74750000Y-40230000D03*
X80500000Y-137500000D03*
X102250000Y-39300000D03*
X96500000Y-74000000D03*
X95250000Y-47600000D03*
X97010000Y-41960000D03*
X80500000Y-130060000D03*
X85300000Y-130080000D03*
X78100000Y-74800000D03*
X90740000Y-40200000D03*
X91750000Y-47600000D03*
X90100000Y-130090000D03*
X90250000Y-47600000D03*
X77300000Y-74000000D03*
X90250000Y-39300000D03*
X104750000Y-47110000D03*
X83700000Y-126500000D03*
X99250000Y-39300000D03*
X91700000Y-74000000D03*
X77250000Y-39300000D03*
X84500000Y-138300001D03*
X92750000Y-42660000D03*
X94100000Y-74800000D03*
X100750000Y-40330000D03*
X86900000Y-130080000D03*
X96750000Y-40250000D03*
X87700000Y-74800000D03*
X83700000Y-130080000D03*
X86100000Y-138300001D03*
X78250000Y-39300000D03*
X90750000Y-48430000D03*
X75700000Y-126500000D03*
X85250000Y-39300000D03*
X97299999Y-138300000D03*
X89250000Y-39300000D03*
X75700000Y-74000000D03*
X102750000Y-40340000D03*
X97299999Y-74800000D03*
X85300000Y-126500000D03*
X99740000Y-43530000D03*
X103250000Y-39300000D03*
X98100000Y-74000000D03*
X91700000Y-130110000D03*
X81300000Y-74800000D03*
X92750000Y-40210000D03*
X80750000Y-40220000D03*
X90100000Y-137500000D03*
X98100000Y-126500000D03*
X103250000Y-43330000D03*
X85300000Y-137500000D03*
X77750000Y-40230000D03*
X98100000Y-130120000D03*
X74250000Y-39300000D03*
X79700000Y-138300000D03*
X78750000Y-40230000D03*
X86900000Y-137500000D03*
X94900000Y-130100000D03*
X94780000Y-43540000D03*
X81250000Y-39300000D03*
X90900000Y-138300000D03*
X93750000Y-47600000D03*
X91250000Y-39300000D03*
X78900000Y-74000000D03*
X95700000Y-138300001D03*
X84250000Y-39300000D03*
X82100000Y-126500000D03*
X73780000Y-40230000D03*
X78900000Y-137500000D03*
X97020000Y-42760000D03*
X92750000Y-44370000D03*
X99750000Y-44400000D03*
X82750000Y-40210000D03*
X93300000Y-137500000D03*
X99700000Y-130120000D03*
X101300000Y-137500000D03*
X87750000Y-40160000D03*
X89250000Y-48440000D03*
X86250000Y-39300000D03*
X98900000Y-138300000D03*
X86100000Y-74800001D03*
X95750000Y-40240000D03*
X93300000Y-126500000D03*
X103750000Y-47820000D03*
X99700000Y-137500000D03*
X86750000Y-40170000D03*
X91700000Y-126500000D03*
X94750000Y-40230000D03*
X84500000Y-74800001D03*
X77300000Y-126500000D03*
X100500000Y-138300000D03*
X87250000Y-39300000D03*
X82100000Y-130070000D03*
X82900000Y-138300000D03*
X76250000Y-39300000D03*
X85300000Y-74000000D03*
X95250000Y-39300000D03*
X102750000Y-44390000D03*
X88500000Y-130090000D03*
X90100000Y-74000000D03*
X98250000Y-39300000D03*
X100250000Y-39300000D03*
X93300000Y-74000000D03*
X89750000Y-44280000D03*
X75250000Y-39300000D03*
X81300000Y-138300000D03*
X99700000Y-126500000D03*
X78900000Y-130040000D03*
X83750000Y-40200000D03*
X94900000Y-137500000D03*
X87700000Y-138300000D03*
X79250000Y-39300000D03*
X92250000Y-39300000D03*
X80500000Y-74000000D03*
X81750000Y-40210000D03*
X91700000Y-137500000D03*
X83700000Y-137500000D03*
X76750000Y-40230000D03*
X104770000Y-40360000D03*
X100500000Y-74800000D03*
X86900000Y-126500000D03*
X75700000Y-137500000D03*
X71750000Y-40240000D03*
X99700000Y-74000000D03*
X104250000Y-39300000D03*
X105250000Y-39300000D03*
X101300000Y-74000000D03*
X82100000Y-74000000D03*
X93250000Y-39300000D03*
X96750000Y-48050000D03*
X94900000Y-126500000D03*
X100750000Y-44380000D03*
X83700000Y-74000000D03*
X94250000Y-39300000D03*
X85750000Y-40180000D03*
X98100000Y-137500000D03*
X97020000Y-43580000D03*
X101750000Y-40340000D03*
X95700000Y-74800001D03*
X72250000Y-39300000D03*
X76500000Y-138300000D03*
X75750000Y-40230000D03*
X82100000Y-137500000D03*
X77300000Y-130030000D03*
X98900000Y-74800000D03*
X103720000Y-40350000D03*
X96500000Y-126500000D03*
X92750000Y-43520000D03*
X80250000Y-39300000D03*
X89300000Y-138300000D03*
X101260000Y-43510000D03*
X90100000Y-126500000D03*
X86900000Y-74000000D03*
X96250000Y-39300000D03*
X80500000Y-126500000D03*
X89300000Y-74800000D03*
X97750000Y-40270000D03*
X92500000Y-138300000D03*
X82250000Y-39300000D03*
X84750000Y-40190000D03*
X96500000Y-137500000D03*
X91750000Y-40190000D03*
X79700000Y-74800000D03*
X92500000Y-74800000D03*
X99750000Y-40310000D03*
X98750000Y-47600000D03*
X97000000Y-41140000D03*
D17*
X63500000Y-35500000D02*
X113500000Y-35500000D01*
X113500000Y-161500000D01*
X63500000Y-161500000D01*
X63500000Y-35500000D01*
M02*
