G04 #@! TF.GenerationSoftware,KiCad,Pcbnew,8.0.0*
G04 #@! TF.CreationDate,2024-05-02T10:20:30+02:00*
G04 #@! TF.ProjectId,Fx2Mec8,4678324d-6563-4382-9e6b-696361645f70,rev?*
G04 #@! TF.SameCoordinates,Original*
G04 #@! TF.FileFunction,Paste,Bot*
G04 #@! TF.FilePolarity,Positive*
%FSLAX46Y46*%
G04 Gerber Fmt 4.6, Leading zero omitted, Abs format (unit mm)*
G04 Created by KiCad (PCBNEW 8.0.0) date 2024-05-02 10:20:30*
%MOMM*%
%LPD*%
G01*
G04 APERTURE LIST*
%ADD10C,0.300000*%
%ADD11R,0.300000X1.800000*%
%ADD12R,3.000000X3.200000*%
G04 #@! TA.AperFunction,Profile*
%ADD13C,0.010000*%
G04 #@! TD*
G04 APERTURE END LIST*
D10*
X63569285Y-26053328D02*
X63569285Y-24553328D01*
X63569285Y-24553328D02*
X64069285Y-25624757D01*
X64069285Y-25624757D02*
X64569285Y-24553328D01*
X64569285Y-24553328D02*
X64569285Y-26053328D01*
X65212143Y-25624757D02*
X65926429Y-25624757D01*
X65069286Y-26053328D02*
X65569286Y-24553328D01*
X65569286Y-24553328D02*
X66069286Y-26053328D01*
X66497857Y-25981900D02*
X66712143Y-26053328D01*
X66712143Y-26053328D02*
X67069285Y-26053328D01*
X67069285Y-26053328D02*
X67212143Y-25981900D01*
X67212143Y-25981900D02*
X67283571Y-25910471D01*
X67283571Y-25910471D02*
X67355000Y-25767614D01*
X67355000Y-25767614D02*
X67355000Y-25624757D01*
X67355000Y-25624757D02*
X67283571Y-25481900D01*
X67283571Y-25481900D02*
X67212143Y-25410471D01*
X67212143Y-25410471D02*
X67069285Y-25339042D01*
X67069285Y-25339042D02*
X66783571Y-25267614D01*
X66783571Y-25267614D02*
X66640714Y-25196185D01*
X66640714Y-25196185D02*
X66569285Y-25124757D01*
X66569285Y-25124757D02*
X66497857Y-24981900D01*
X66497857Y-24981900D02*
X66497857Y-24839042D01*
X66497857Y-24839042D02*
X66569285Y-24696185D01*
X66569285Y-24696185D02*
X66640714Y-24624757D01*
X66640714Y-24624757D02*
X66783571Y-24553328D01*
X66783571Y-24553328D02*
X67140714Y-24553328D01*
X67140714Y-24553328D02*
X67355000Y-24624757D01*
X68997856Y-26196185D02*
X68854999Y-26124757D01*
X68854999Y-26124757D02*
X68712142Y-25981900D01*
X68712142Y-25981900D02*
X68497856Y-25767614D01*
X68497856Y-25767614D02*
X68354999Y-25696185D01*
X68354999Y-25696185D02*
X68212142Y-25696185D01*
X68283571Y-26053328D02*
X68140714Y-25981900D01*
X68140714Y-25981900D02*
X67997856Y-25839042D01*
X67997856Y-25839042D02*
X67926428Y-25553328D01*
X67926428Y-25553328D02*
X67926428Y-25053328D01*
X67926428Y-25053328D02*
X67997856Y-24767614D01*
X67997856Y-24767614D02*
X68140714Y-24624757D01*
X68140714Y-24624757D02*
X68283571Y-24553328D01*
X68283571Y-24553328D02*
X68569285Y-24553328D01*
X68569285Y-24553328D02*
X68712142Y-24624757D01*
X68712142Y-24624757D02*
X68854999Y-24767614D01*
X68854999Y-24767614D02*
X68926428Y-25053328D01*
X68926428Y-25053328D02*
X68926428Y-25553328D01*
X68926428Y-25553328D02*
X68854999Y-25839042D01*
X68854999Y-25839042D02*
X68712142Y-25981900D01*
X68712142Y-25981900D02*
X68569285Y-26053328D01*
X68569285Y-26053328D02*
X68283571Y-26053328D01*
X69569285Y-24553328D02*
X69569285Y-25767614D01*
X69569285Y-25767614D02*
X69640714Y-25910471D01*
X69640714Y-25910471D02*
X69712143Y-25981900D01*
X69712143Y-25981900D02*
X69855000Y-26053328D01*
X69855000Y-26053328D02*
X70140714Y-26053328D01*
X70140714Y-26053328D02*
X70283571Y-25981900D01*
X70283571Y-25981900D02*
X70355000Y-25910471D01*
X70355000Y-25910471D02*
X70426428Y-25767614D01*
X70426428Y-25767614D02*
X70426428Y-24553328D01*
X71140714Y-25267614D02*
X71640714Y-25267614D01*
X71855000Y-26053328D02*
X71140714Y-26053328D01*
X71140714Y-26053328D02*
X71140714Y-24553328D01*
X71140714Y-24553328D02*
X71855000Y-24553328D01*
X74140714Y-25267614D02*
X74355000Y-25339042D01*
X74355000Y-25339042D02*
X74426429Y-25410471D01*
X74426429Y-25410471D02*
X74497857Y-25553328D01*
X74497857Y-25553328D02*
X74497857Y-25767614D01*
X74497857Y-25767614D02*
X74426429Y-25910471D01*
X74426429Y-25910471D02*
X74355000Y-25981900D01*
X74355000Y-25981900D02*
X74212143Y-26053328D01*
X74212143Y-26053328D02*
X73640714Y-26053328D01*
X73640714Y-26053328D02*
X73640714Y-24553328D01*
X73640714Y-24553328D02*
X74140714Y-24553328D01*
X74140714Y-24553328D02*
X74283572Y-24624757D01*
X74283572Y-24624757D02*
X74355000Y-24696185D01*
X74355000Y-24696185D02*
X74426429Y-24839042D01*
X74426429Y-24839042D02*
X74426429Y-24981900D01*
X74426429Y-24981900D02*
X74355000Y-25124757D01*
X74355000Y-25124757D02*
X74283572Y-25196185D01*
X74283572Y-25196185D02*
X74140714Y-25267614D01*
X74140714Y-25267614D02*
X73640714Y-25267614D01*
X75997857Y-26053328D02*
X75497857Y-25339042D01*
X75140714Y-26053328D02*
X75140714Y-24553328D01*
X75140714Y-24553328D02*
X75712143Y-24553328D01*
X75712143Y-24553328D02*
X75855000Y-24624757D01*
X75855000Y-24624757D02*
X75926429Y-24696185D01*
X75926429Y-24696185D02*
X75997857Y-24839042D01*
X75997857Y-24839042D02*
X75997857Y-25053328D01*
X75997857Y-25053328D02*
X75926429Y-25196185D01*
X75926429Y-25196185D02*
X75855000Y-25267614D01*
X75855000Y-25267614D02*
X75712143Y-25339042D01*
X75712143Y-25339042D02*
X75140714Y-25339042D01*
X76569286Y-25624757D02*
X77283572Y-25624757D01*
X76426429Y-26053328D02*
X76926429Y-24553328D01*
X76926429Y-24553328D02*
X77426429Y-26053328D01*
X77855000Y-25981900D02*
X78069286Y-26053328D01*
X78069286Y-26053328D02*
X78426428Y-26053328D01*
X78426428Y-26053328D02*
X78569286Y-25981900D01*
X78569286Y-25981900D02*
X78640714Y-25910471D01*
X78640714Y-25910471D02*
X78712143Y-25767614D01*
X78712143Y-25767614D02*
X78712143Y-25624757D01*
X78712143Y-25624757D02*
X78640714Y-25481900D01*
X78640714Y-25481900D02*
X78569286Y-25410471D01*
X78569286Y-25410471D02*
X78426428Y-25339042D01*
X78426428Y-25339042D02*
X78140714Y-25267614D01*
X78140714Y-25267614D02*
X77997857Y-25196185D01*
X77997857Y-25196185D02*
X77926428Y-25124757D01*
X77926428Y-25124757D02*
X77855000Y-24981900D01*
X77855000Y-24981900D02*
X77855000Y-24839042D01*
X77855000Y-24839042D02*
X77926428Y-24696185D01*
X77926428Y-24696185D02*
X77997857Y-24624757D01*
X77997857Y-24624757D02*
X78140714Y-24553328D01*
X78140714Y-24553328D02*
X78497857Y-24553328D01*
X78497857Y-24553328D02*
X78712143Y-24624757D01*
X79283571Y-25624757D02*
X79997857Y-25624757D01*
X79140714Y-26053328D02*
X79640714Y-24553328D01*
X79640714Y-24553328D02*
X80140714Y-26053328D01*
X81426428Y-24624757D02*
X81283571Y-24553328D01*
X81283571Y-24553328D02*
X81069285Y-24553328D01*
X81069285Y-24553328D02*
X80854999Y-24624757D01*
X80854999Y-24624757D02*
X80712142Y-24767614D01*
X80712142Y-24767614D02*
X80640713Y-24910471D01*
X80640713Y-24910471D02*
X80569285Y-25196185D01*
X80569285Y-25196185D02*
X80569285Y-25410471D01*
X80569285Y-25410471D02*
X80640713Y-25696185D01*
X80640713Y-25696185D02*
X80712142Y-25839042D01*
X80712142Y-25839042D02*
X80854999Y-25981900D01*
X80854999Y-25981900D02*
X81069285Y-26053328D01*
X81069285Y-26053328D02*
X81212142Y-26053328D01*
X81212142Y-26053328D02*
X81426428Y-25981900D01*
X81426428Y-25981900D02*
X81497856Y-25910471D01*
X81497856Y-25910471D02*
X81497856Y-25410471D01*
X81497856Y-25410471D02*
X81212142Y-25410471D01*
X82140713Y-25267614D02*
X82640713Y-25267614D01*
X82854999Y-26053328D02*
X82140713Y-26053328D01*
X82140713Y-26053328D02*
X82140713Y-24553328D01*
X82140713Y-24553328D02*
X82854999Y-24553328D01*
X85140713Y-25267614D02*
X85354999Y-25339042D01*
X85354999Y-25339042D02*
X85426428Y-25410471D01*
X85426428Y-25410471D02*
X85497856Y-25553328D01*
X85497856Y-25553328D02*
X85497856Y-25767614D01*
X85497856Y-25767614D02*
X85426428Y-25910471D01*
X85426428Y-25910471D02*
X85354999Y-25981900D01*
X85354999Y-25981900D02*
X85212142Y-26053328D01*
X85212142Y-26053328D02*
X84640713Y-26053328D01*
X84640713Y-26053328D02*
X84640713Y-24553328D01*
X84640713Y-24553328D02*
X85140713Y-24553328D01*
X85140713Y-24553328D02*
X85283571Y-24624757D01*
X85283571Y-24624757D02*
X85354999Y-24696185D01*
X85354999Y-24696185D02*
X85426428Y-24839042D01*
X85426428Y-24839042D02*
X85426428Y-24981900D01*
X85426428Y-24981900D02*
X85354999Y-25124757D01*
X85354999Y-25124757D02*
X85283571Y-25196185D01*
X85283571Y-25196185D02*
X85140713Y-25267614D01*
X85140713Y-25267614D02*
X84640713Y-25267614D01*
X86426428Y-24553328D02*
X86712142Y-24553328D01*
X86712142Y-24553328D02*
X86854999Y-24624757D01*
X86854999Y-24624757D02*
X86997856Y-24767614D01*
X86997856Y-24767614D02*
X87069285Y-25053328D01*
X87069285Y-25053328D02*
X87069285Y-25553328D01*
X87069285Y-25553328D02*
X86997856Y-25839042D01*
X86997856Y-25839042D02*
X86854999Y-25981900D01*
X86854999Y-25981900D02*
X86712142Y-26053328D01*
X86712142Y-26053328D02*
X86426428Y-26053328D01*
X86426428Y-26053328D02*
X86283571Y-25981900D01*
X86283571Y-25981900D02*
X86140713Y-25839042D01*
X86140713Y-25839042D02*
X86069285Y-25553328D01*
X86069285Y-25553328D02*
X86069285Y-25053328D01*
X86069285Y-25053328D02*
X86140713Y-24767614D01*
X86140713Y-24767614D02*
X86283571Y-24624757D01*
X86283571Y-24624757D02*
X86426428Y-24553328D01*
X87497857Y-24553328D02*
X88355000Y-24553328D01*
X87926428Y-26053328D02*
X87926428Y-24553328D01*
X88640714Y-24553328D02*
X89497857Y-24553328D01*
X89069285Y-26053328D02*
X89069285Y-24553328D01*
X90283571Y-24553328D02*
X90569285Y-24553328D01*
X90569285Y-24553328D02*
X90712142Y-24624757D01*
X90712142Y-24624757D02*
X90854999Y-24767614D01*
X90854999Y-24767614D02*
X90926428Y-25053328D01*
X90926428Y-25053328D02*
X90926428Y-25553328D01*
X90926428Y-25553328D02*
X90854999Y-25839042D01*
X90854999Y-25839042D02*
X90712142Y-25981900D01*
X90712142Y-25981900D02*
X90569285Y-26053328D01*
X90569285Y-26053328D02*
X90283571Y-26053328D01*
X90283571Y-26053328D02*
X90140714Y-25981900D01*
X90140714Y-25981900D02*
X89997856Y-25839042D01*
X89997856Y-25839042D02*
X89926428Y-25553328D01*
X89926428Y-25553328D02*
X89926428Y-25053328D01*
X89926428Y-25053328D02*
X89997856Y-24767614D01*
X89997856Y-24767614D02*
X90140714Y-24624757D01*
X90140714Y-24624757D02*
X90283571Y-24553328D01*
X91569285Y-26053328D02*
X91569285Y-24553328D01*
X91569285Y-24553328D02*
X92069285Y-25624757D01*
X92069285Y-25624757D02*
X92569285Y-24553328D01*
X92569285Y-24553328D02*
X92569285Y-26053328D01*
X94426428Y-26053328D02*
X94426428Y-24553328D01*
X94426428Y-24553328D02*
X95283571Y-26053328D01*
X95283571Y-26053328D02*
X95283571Y-24553328D01*
X95997857Y-25910471D02*
X96069286Y-25981900D01*
X96069286Y-25981900D02*
X95997857Y-26053328D01*
X95997857Y-26053328D02*
X95926429Y-25981900D01*
X95926429Y-25981900D02*
X95997857Y-25910471D01*
X95997857Y-25910471D02*
X95997857Y-26053328D01*
X95997857Y-25124757D02*
X96069286Y-25196185D01*
X96069286Y-25196185D02*
X95997857Y-25267614D01*
X95997857Y-25267614D02*
X95926429Y-25196185D01*
X95926429Y-25196185D02*
X95997857Y-25124757D01*
X95997857Y-25124757D02*
X95997857Y-25267614D01*
X96712143Y-26053328D02*
X96712143Y-24553328D01*
X97569286Y-26053328D02*
X96926429Y-25196185D01*
X97569286Y-24553328D02*
X96712143Y-25410471D01*
X98926429Y-24553328D02*
X98212143Y-24553328D01*
X98212143Y-24553328D02*
X98140715Y-25267614D01*
X98140715Y-25267614D02*
X98212143Y-25196185D01*
X98212143Y-25196185D02*
X98355001Y-25124757D01*
X98355001Y-25124757D02*
X98712143Y-25124757D01*
X98712143Y-25124757D02*
X98855001Y-25196185D01*
X98855001Y-25196185D02*
X98926429Y-25267614D01*
X98926429Y-25267614D02*
X98997858Y-25410471D01*
X98997858Y-25410471D02*
X98997858Y-25767614D01*
X98997858Y-25767614D02*
X98926429Y-25910471D01*
X98926429Y-25910471D02*
X98855001Y-25981900D01*
X98855001Y-25981900D02*
X98712143Y-26053328D01*
X98712143Y-26053328D02*
X98355001Y-26053328D01*
X98355001Y-26053328D02*
X98212143Y-25981900D01*
X98212143Y-25981900D02*
X98140715Y-25910471D01*
X99712143Y-26053328D02*
X99997857Y-26053328D01*
X99997857Y-26053328D02*
X100140714Y-25981900D01*
X100140714Y-25981900D02*
X100212143Y-25910471D01*
X100212143Y-25910471D02*
X100355000Y-25696185D01*
X100355000Y-25696185D02*
X100426429Y-25410471D01*
X100426429Y-25410471D02*
X100426429Y-24839042D01*
X100426429Y-24839042D02*
X100355000Y-24696185D01*
X100355000Y-24696185D02*
X100283572Y-24624757D01*
X100283572Y-24624757D02*
X100140714Y-24553328D01*
X100140714Y-24553328D02*
X99855000Y-24553328D01*
X99855000Y-24553328D02*
X99712143Y-24624757D01*
X99712143Y-24624757D02*
X99640714Y-24696185D01*
X99640714Y-24696185D02*
X99569286Y-24839042D01*
X99569286Y-24839042D02*
X99569286Y-25196185D01*
X99569286Y-25196185D02*
X99640714Y-25339042D01*
X99640714Y-25339042D02*
X99712143Y-25410471D01*
X99712143Y-25410471D02*
X99855000Y-25481900D01*
X99855000Y-25481900D02*
X100140714Y-25481900D01*
X100140714Y-25481900D02*
X100283572Y-25410471D01*
X100283572Y-25410471D02*
X100355000Y-25339042D01*
X100355000Y-25339042D02*
X100426429Y-25196185D01*
X100855000Y-24553328D02*
X101355000Y-26053328D01*
X101355000Y-26053328D02*
X101855000Y-24553328D01*
D11*
X71250000Y-45725000D03*
X71250000Y-37425000D03*
X71750000Y-45725000D03*
X71750000Y-37425000D03*
X72250000Y-45725000D03*
X72250000Y-37425000D03*
X72750000Y-45725000D03*
X72750000Y-37425000D03*
X73250000Y-45725000D03*
X73250000Y-37425000D03*
X73750000Y-45725000D03*
X73750000Y-37425000D03*
X74250000Y-45725000D03*
X74250000Y-37425000D03*
X74750000Y-45725000D03*
X74750000Y-37425000D03*
X75250000Y-45725000D03*
X75250000Y-37425000D03*
X75750000Y-45725000D03*
X75750000Y-37425000D03*
X76250000Y-45725000D03*
X76250000Y-37425000D03*
X76750000Y-45725000D03*
X76750000Y-37425000D03*
X77250000Y-45725000D03*
X77250000Y-37425000D03*
X77750000Y-45725000D03*
X77750000Y-37425000D03*
X78250000Y-45725000D03*
X78250000Y-37425000D03*
X78750000Y-45725000D03*
X78750000Y-37425000D03*
X79250000Y-45725000D03*
X79250000Y-37425000D03*
X79750000Y-45725000D03*
X79750000Y-37425000D03*
X80250000Y-45725000D03*
X80250000Y-37425000D03*
X80750000Y-45725000D03*
X80750000Y-37425000D03*
X81250000Y-45725000D03*
X81250000Y-37425000D03*
X81750000Y-45725000D03*
X81750000Y-37425000D03*
X82250000Y-45725000D03*
X82250000Y-37425000D03*
X82750000Y-45725000D03*
X82750000Y-37425000D03*
X83250000Y-45725000D03*
X83250000Y-37425000D03*
X83750000Y-45725000D03*
X83750000Y-37425000D03*
X84250000Y-45725000D03*
X84250000Y-37425000D03*
X84750000Y-45725000D03*
X84750000Y-37425000D03*
X85250000Y-45725000D03*
X85250000Y-37425000D03*
X85750000Y-45725000D03*
X85750000Y-37425000D03*
X86250000Y-45725000D03*
X86250000Y-37425000D03*
X86750000Y-45725000D03*
X86750000Y-37425000D03*
X87250000Y-45725000D03*
X87250000Y-37425000D03*
X87750000Y-45725000D03*
X87750000Y-37425000D03*
X88250000Y-45725000D03*
X88250000Y-37425000D03*
X88750000Y-45725000D03*
X88750000Y-37425000D03*
X89250000Y-45725000D03*
X89250000Y-37425000D03*
X89750000Y-45725000D03*
X89750000Y-37425000D03*
X90250000Y-45725000D03*
X90250000Y-37425000D03*
X90750000Y-45725000D03*
X90750000Y-37425000D03*
X91250000Y-45725000D03*
X91250000Y-37425000D03*
X91750000Y-45725000D03*
X91750000Y-37425000D03*
X92250000Y-45725000D03*
X92250000Y-37425000D03*
X92750000Y-45725000D03*
X92750000Y-37425000D03*
X93250000Y-45725000D03*
X93250000Y-37425000D03*
X93750000Y-45725000D03*
X93750000Y-37425000D03*
X94250000Y-45725000D03*
X94250000Y-37425000D03*
X94750000Y-45725000D03*
X94750000Y-37425000D03*
X95250000Y-45725000D03*
X95250000Y-37425000D03*
X95750000Y-45725000D03*
X95750000Y-37425000D03*
X96250000Y-45725000D03*
X96250000Y-37425000D03*
X96750000Y-45725000D03*
X96750000Y-37425000D03*
X97250000Y-45725000D03*
X97250000Y-37425000D03*
X97750000Y-45725000D03*
X97750000Y-37425000D03*
X98250000Y-45725000D03*
X98250000Y-37425000D03*
X98750000Y-45725000D03*
X98750000Y-37425000D03*
X99250000Y-45725000D03*
X99250000Y-37425000D03*
X99750000Y-45725000D03*
X99750000Y-37425000D03*
X100250000Y-45725000D03*
X100250000Y-37425000D03*
X100750000Y-45725000D03*
X100750000Y-37425000D03*
X101250000Y-45725000D03*
X101250000Y-37425000D03*
X101750000Y-45725000D03*
X101750000Y-37425000D03*
X102250000Y-45725000D03*
X102250000Y-37425000D03*
X102750000Y-45725000D03*
X102750000Y-37425000D03*
X103250000Y-45725000D03*
X103250000Y-37425000D03*
X103750000Y-45725000D03*
X103750000Y-37425000D03*
X104250000Y-45725000D03*
X104250000Y-37425000D03*
X104750000Y-45725000D03*
X104750000Y-37425000D03*
X105250000Y-45725000D03*
X105250000Y-37425000D03*
X105750000Y-45725000D03*
X105750000Y-37425000D03*
D12*
X65500000Y-39875000D03*
X111500000Y-39875000D03*
D13*
X63500000Y-35500000D02*
X113500000Y-35500000D01*
X113500000Y-161500000D01*
X63500000Y-161500000D01*
X63500000Y-35500000D01*
M02*
