G04 #@! TF.GenerationSoftware,KiCad,Pcbnew,8.0.0*
G04 #@! TF.CreationDate,2024-05-02T10:20:30+02:00*
G04 #@! TF.ProjectId,Fx2Mec8,4678324d-6563-4382-9e6b-696361645f70,rev?*
G04 #@! TF.SameCoordinates,Original*
G04 #@! TF.FileFunction,Paste,Top*
G04 #@! TF.FilePolarity,Positive*
%FSLAX46Y46*%
G04 Gerber Fmt 4.6, Leading zero omitted, Abs format (unit mm)*
G04 Created by KiCad (PCBNEW 8.0.0) date 2024-05-02 10:20:30*
%MOMM*%
%LPD*%
G01*
G04 APERTURE LIST*
%ADD10C,0.300000*%
%ADD11R,0.500000X2.000000*%
G04 #@! TA.AperFunction,Profile*
%ADD12C,0.010000*%
G04 #@! TD*
G04 APERTURE END LIST*
D10*
X63583571Y-26063328D02*
X63583571Y-24563328D01*
X63583571Y-24563328D02*
X64083571Y-25634757D01*
X64083571Y-25634757D02*
X64583571Y-24563328D01*
X64583571Y-24563328D02*
X64583571Y-26063328D01*
X65226429Y-25634757D02*
X65940715Y-25634757D01*
X65083572Y-26063328D02*
X65583572Y-24563328D01*
X65583572Y-24563328D02*
X66083572Y-26063328D01*
X66512143Y-25991900D02*
X66726429Y-26063328D01*
X66726429Y-26063328D02*
X67083571Y-26063328D01*
X67083571Y-26063328D02*
X67226429Y-25991900D01*
X67226429Y-25991900D02*
X67297857Y-25920471D01*
X67297857Y-25920471D02*
X67369286Y-25777614D01*
X67369286Y-25777614D02*
X67369286Y-25634757D01*
X67369286Y-25634757D02*
X67297857Y-25491900D01*
X67297857Y-25491900D02*
X67226429Y-25420471D01*
X67226429Y-25420471D02*
X67083571Y-25349042D01*
X67083571Y-25349042D02*
X66797857Y-25277614D01*
X66797857Y-25277614D02*
X66655000Y-25206185D01*
X66655000Y-25206185D02*
X66583571Y-25134757D01*
X66583571Y-25134757D02*
X66512143Y-24991900D01*
X66512143Y-24991900D02*
X66512143Y-24849042D01*
X66512143Y-24849042D02*
X66583571Y-24706185D01*
X66583571Y-24706185D02*
X66655000Y-24634757D01*
X66655000Y-24634757D02*
X66797857Y-24563328D01*
X66797857Y-24563328D02*
X67155000Y-24563328D01*
X67155000Y-24563328D02*
X67369286Y-24634757D01*
X69012142Y-26206185D02*
X68869285Y-26134757D01*
X68869285Y-26134757D02*
X68726428Y-25991900D01*
X68726428Y-25991900D02*
X68512142Y-25777614D01*
X68512142Y-25777614D02*
X68369285Y-25706185D01*
X68369285Y-25706185D02*
X68226428Y-25706185D01*
X68297857Y-26063328D02*
X68155000Y-25991900D01*
X68155000Y-25991900D02*
X68012142Y-25849042D01*
X68012142Y-25849042D02*
X67940714Y-25563328D01*
X67940714Y-25563328D02*
X67940714Y-25063328D01*
X67940714Y-25063328D02*
X68012142Y-24777614D01*
X68012142Y-24777614D02*
X68155000Y-24634757D01*
X68155000Y-24634757D02*
X68297857Y-24563328D01*
X68297857Y-24563328D02*
X68583571Y-24563328D01*
X68583571Y-24563328D02*
X68726428Y-24634757D01*
X68726428Y-24634757D02*
X68869285Y-24777614D01*
X68869285Y-24777614D02*
X68940714Y-25063328D01*
X68940714Y-25063328D02*
X68940714Y-25563328D01*
X68940714Y-25563328D02*
X68869285Y-25849042D01*
X68869285Y-25849042D02*
X68726428Y-25991900D01*
X68726428Y-25991900D02*
X68583571Y-26063328D01*
X68583571Y-26063328D02*
X68297857Y-26063328D01*
X69583571Y-24563328D02*
X69583571Y-25777614D01*
X69583571Y-25777614D02*
X69655000Y-25920471D01*
X69655000Y-25920471D02*
X69726429Y-25991900D01*
X69726429Y-25991900D02*
X69869286Y-26063328D01*
X69869286Y-26063328D02*
X70155000Y-26063328D01*
X70155000Y-26063328D02*
X70297857Y-25991900D01*
X70297857Y-25991900D02*
X70369286Y-25920471D01*
X70369286Y-25920471D02*
X70440714Y-25777614D01*
X70440714Y-25777614D02*
X70440714Y-24563328D01*
X71155000Y-25277614D02*
X71655000Y-25277614D01*
X71869286Y-26063328D02*
X71155000Y-26063328D01*
X71155000Y-26063328D02*
X71155000Y-24563328D01*
X71155000Y-24563328D02*
X71869286Y-24563328D01*
X74155000Y-25277614D02*
X74369286Y-25349042D01*
X74369286Y-25349042D02*
X74440715Y-25420471D01*
X74440715Y-25420471D02*
X74512143Y-25563328D01*
X74512143Y-25563328D02*
X74512143Y-25777614D01*
X74512143Y-25777614D02*
X74440715Y-25920471D01*
X74440715Y-25920471D02*
X74369286Y-25991900D01*
X74369286Y-25991900D02*
X74226429Y-26063328D01*
X74226429Y-26063328D02*
X73655000Y-26063328D01*
X73655000Y-26063328D02*
X73655000Y-24563328D01*
X73655000Y-24563328D02*
X74155000Y-24563328D01*
X74155000Y-24563328D02*
X74297858Y-24634757D01*
X74297858Y-24634757D02*
X74369286Y-24706185D01*
X74369286Y-24706185D02*
X74440715Y-24849042D01*
X74440715Y-24849042D02*
X74440715Y-24991900D01*
X74440715Y-24991900D02*
X74369286Y-25134757D01*
X74369286Y-25134757D02*
X74297858Y-25206185D01*
X74297858Y-25206185D02*
X74155000Y-25277614D01*
X74155000Y-25277614D02*
X73655000Y-25277614D01*
X76012143Y-26063328D02*
X75512143Y-25349042D01*
X75155000Y-26063328D02*
X75155000Y-24563328D01*
X75155000Y-24563328D02*
X75726429Y-24563328D01*
X75726429Y-24563328D02*
X75869286Y-24634757D01*
X75869286Y-24634757D02*
X75940715Y-24706185D01*
X75940715Y-24706185D02*
X76012143Y-24849042D01*
X76012143Y-24849042D02*
X76012143Y-25063328D01*
X76012143Y-25063328D02*
X75940715Y-25206185D01*
X75940715Y-25206185D02*
X75869286Y-25277614D01*
X75869286Y-25277614D02*
X75726429Y-25349042D01*
X75726429Y-25349042D02*
X75155000Y-25349042D01*
X76583572Y-25634757D02*
X77297858Y-25634757D01*
X76440715Y-26063328D02*
X76940715Y-24563328D01*
X76940715Y-24563328D02*
X77440715Y-26063328D01*
X77869286Y-25991900D02*
X78083572Y-26063328D01*
X78083572Y-26063328D02*
X78440714Y-26063328D01*
X78440714Y-26063328D02*
X78583572Y-25991900D01*
X78583572Y-25991900D02*
X78655000Y-25920471D01*
X78655000Y-25920471D02*
X78726429Y-25777614D01*
X78726429Y-25777614D02*
X78726429Y-25634757D01*
X78726429Y-25634757D02*
X78655000Y-25491900D01*
X78655000Y-25491900D02*
X78583572Y-25420471D01*
X78583572Y-25420471D02*
X78440714Y-25349042D01*
X78440714Y-25349042D02*
X78155000Y-25277614D01*
X78155000Y-25277614D02*
X78012143Y-25206185D01*
X78012143Y-25206185D02*
X77940714Y-25134757D01*
X77940714Y-25134757D02*
X77869286Y-24991900D01*
X77869286Y-24991900D02*
X77869286Y-24849042D01*
X77869286Y-24849042D02*
X77940714Y-24706185D01*
X77940714Y-24706185D02*
X78012143Y-24634757D01*
X78012143Y-24634757D02*
X78155000Y-24563328D01*
X78155000Y-24563328D02*
X78512143Y-24563328D01*
X78512143Y-24563328D02*
X78726429Y-24634757D01*
X79297857Y-25634757D02*
X80012143Y-25634757D01*
X79155000Y-26063328D02*
X79655000Y-24563328D01*
X79655000Y-24563328D02*
X80155000Y-26063328D01*
X81440714Y-24634757D02*
X81297857Y-24563328D01*
X81297857Y-24563328D02*
X81083571Y-24563328D01*
X81083571Y-24563328D02*
X80869285Y-24634757D01*
X80869285Y-24634757D02*
X80726428Y-24777614D01*
X80726428Y-24777614D02*
X80654999Y-24920471D01*
X80654999Y-24920471D02*
X80583571Y-25206185D01*
X80583571Y-25206185D02*
X80583571Y-25420471D01*
X80583571Y-25420471D02*
X80654999Y-25706185D01*
X80654999Y-25706185D02*
X80726428Y-25849042D01*
X80726428Y-25849042D02*
X80869285Y-25991900D01*
X80869285Y-25991900D02*
X81083571Y-26063328D01*
X81083571Y-26063328D02*
X81226428Y-26063328D01*
X81226428Y-26063328D02*
X81440714Y-25991900D01*
X81440714Y-25991900D02*
X81512142Y-25920471D01*
X81512142Y-25920471D02*
X81512142Y-25420471D01*
X81512142Y-25420471D02*
X81226428Y-25420471D01*
X82154999Y-25277614D02*
X82654999Y-25277614D01*
X82869285Y-26063328D02*
X82154999Y-26063328D01*
X82154999Y-26063328D02*
X82154999Y-24563328D01*
X82154999Y-24563328D02*
X82869285Y-24563328D01*
X84440714Y-24563328D02*
X85297857Y-24563328D01*
X84869285Y-26063328D02*
X84869285Y-24563328D01*
X86083571Y-24563328D02*
X86369285Y-24563328D01*
X86369285Y-24563328D02*
X86512142Y-24634757D01*
X86512142Y-24634757D02*
X86654999Y-24777614D01*
X86654999Y-24777614D02*
X86726428Y-25063328D01*
X86726428Y-25063328D02*
X86726428Y-25563328D01*
X86726428Y-25563328D02*
X86654999Y-25849042D01*
X86654999Y-25849042D02*
X86512142Y-25991900D01*
X86512142Y-25991900D02*
X86369285Y-26063328D01*
X86369285Y-26063328D02*
X86083571Y-26063328D01*
X86083571Y-26063328D02*
X85940714Y-25991900D01*
X85940714Y-25991900D02*
X85797856Y-25849042D01*
X85797856Y-25849042D02*
X85726428Y-25563328D01*
X85726428Y-25563328D02*
X85726428Y-25063328D01*
X85726428Y-25063328D02*
X85797856Y-24777614D01*
X85797856Y-24777614D02*
X85940714Y-24634757D01*
X85940714Y-24634757D02*
X86083571Y-24563328D01*
X87369285Y-26063328D02*
X87369285Y-24563328D01*
X87369285Y-24563328D02*
X87940714Y-24563328D01*
X87940714Y-24563328D02*
X88083571Y-24634757D01*
X88083571Y-24634757D02*
X88155000Y-24706185D01*
X88155000Y-24706185D02*
X88226428Y-24849042D01*
X88226428Y-24849042D02*
X88226428Y-25063328D01*
X88226428Y-25063328D02*
X88155000Y-25206185D01*
X88155000Y-25206185D02*
X88083571Y-25277614D01*
X88083571Y-25277614D02*
X87940714Y-25349042D01*
X87940714Y-25349042D02*
X87369285Y-25349042D01*
X90012142Y-26063328D02*
X90012142Y-24563328D01*
X90012142Y-24563328D02*
X90869285Y-26063328D01*
X90869285Y-26063328D02*
X90869285Y-24563328D01*
X91583571Y-25920471D02*
X91655000Y-25991900D01*
X91655000Y-25991900D02*
X91583571Y-26063328D01*
X91583571Y-26063328D02*
X91512143Y-25991900D01*
X91512143Y-25991900D02*
X91583571Y-25920471D01*
X91583571Y-25920471D02*
X91583571Y-26063328D01*
X91583571Y-25134757D02*
X91655000Y-25206185D01*
X91655000Y-25206185D02*
X91583571Y-25277614D01*
X91583571Y-25277614D02*
X91512143Y-25206185D01*
X91512143Y-25206185D02*
X91583571Y-25134757D01*
X91583571Y-25134757D02*
X91583571Y-25277614D01*
X92297857Y-26063328D02*
X92297857Y-24563328D01*
X93155000Y-26063328D02*
X92512143Y-25206185D01*
X93155000Y-24563328D02*
X92297857Y-25420471D01*
X94512143Y-24563328D02*
X93797857Y-24563328D01*
X93797857Y-24563328D02*
X93726429Y-25277614D01*
X93726429Y-25277614D02*
X93797857Y-25206185D01*
X93797857Y-25206185D02*
X93940715Y-25134757D01*
X93940715Y-25134757D02*
X94297857Y-25134757D01*
X94297857Y-25134757D02*
X94440715Y-25206185D01*
X94440715Y-25206185D02*
X94512143Y-25277614D01*
X94512143Y-25277614D02*
X94583572Y-25420471D01*
X94583572Y-25420471D02*
X94583572Y-25777614D01*
X94583572Y-25777614D02*
X94512143Y-25920471D01*
X94512143Y-25920471D02*
X94440715Y-25991900D01*
X94440715Y-25991900D02*
X94297857Y-26063328D01*
X94297857Y-26063328D02*
X93940715Y-26063328D01*
X93940715Y-26063328D02*
X93797857Y-25991900D01*
X93797857Y-25991900D02*
X93726429Y-25920471D01*
X95297857Y-26063328D02*
X95583571Y-26063328D01*
X95583571Y-26063328D02*
X95726428Y-25991900D01*
X95726428Y-25991900D02*
X95797857Y-25920471D01*
X95797857Y-25920471D02*
X95940714Y-25706185D01*
X95940714Y-25706185D02*
X96012143Y-25420471D01*
X96012143Y-25420471D02*
X96012143Y-24849042D01*
X96012143Y-24849042D02*
X95940714Y-24706185D01*
X95940714Y-24706185D02*
X95869286Y-24634757D01*
X95869286Y-24634757D02*
X95726428Y-24563328D01*
X95726428Y-24563328D02*
X95440714Y-24563328D01*
X95440714Y-24563328D02*
X95297857Y-24634757D01*
X95297857Y-24634757D02*
X95226428Y-24706185D01*
X95226428Y-24706185D02*
X95155000Y-24849042D01*
X95155000Y-24849042D02*
X95155000Y-25206185D01*
X95155000Y-25206185D02*
X95226428Y-25349042D01*
X95226428Y-25349042D02*
X95297857Y-25420471D01*
X95297857Y-25420471D02*
X95440714Y-25491900D01*
X95440714Y-25491900D02*
X95726428Y-25491900D01*
X95726428Y-25491900D02*
X95869286Y-25420471D01*
X95869286Y-25420471D02*
X95940714Y-25349042D01*
X95940714Y-25349042D02*
X96012143Y-25206185D01*
X96440714Y-24563328D02*
X96940714Y-26063328D01*
X96940714Y-26063328D02*
X97440714Y-24563328D01*
D11*
X74900000Y-136000000D03*
X74900000Y-128000000D03*
X75700000Y-136000000D03*
X75700000Y-128000000D03*
X76500000Y-136000000D03*
X76500000Y-128000000D03*
X77300000Y-136000000D03*
X77300000Y-128000000D03*
X78100000Y-136000000D03*
X78100000Y-128000000D03*
X78900000Y-136000000D03*
X78900000Y-128000000D03*
X79700000Y-136000000D03*
X79700000Y-128000000D03*
X80500000Y-136000000D03*
X80500000Y-128000000D03*
X81300000Y-136000000D03*
X81300000Y-128000000D03*
X82100000Y-136000000D03*
X82100000Y-128000000D03*
X82900000Y-136000000D03*
X82900000Y-128000000D03*
X83700000Y-136000000D03*
X83700000Y-128000000D03*
X84500000Y-136000000D03*
X84500000Y-128000000D03*
X85300000Y-136000000D03*
X85300000Y-128000000D03*
X86100000Y-136000000D03*
X86100000Y-128000000D03*
X86900000Y-136000000D03*
X86900000Y-128000000D03*
X87700000Y-136000000D03*
X87700000Y-128000000D03*
X88500000Y-136000000D03*
X88500000Y-128000000D03*
X89300000Y-136000000D03*
X89300000Y-128000000D03*
X90100000Y-136000000D03*
X90100000Y-128000000D03*
X90900000Y-136000000D03*
X90900000Y-128000000D03*
X91700000Y-136000000D03*
X91700000Y-128000000D03*
X92500000Y-136000000D03*
X92500000Y-128000000D03*
X93300000Y-136000000D03*
X93300000Y-128000000D03*
X94100000Y-136000000D03*
X94100000Y-128000000D03*
X94900000Y-136000000D03*
X94900000Y-128000000D03*
X95700000Y-136000000D03*
X95700000Y-128000000D03*
X96500000Y-136000000D03*
X96500000Y-128000000D03*
X97300000Y-136000000D03*
X97300000Y-128000000D03*
X98100000Y-136000000D03*
X98100000Y-128000000D03*
X98900000Y-136000000D03*
X98900000Y-128000000D03*
X99700000Y-136000000D03*
X99700000Y-128000000D03*
X100500000Y-136000000D03*
X100500000Y-128000000D03*
X101300000Y-136000000D03*
X101300000Y-128000000D03*
X102100000Y-136000000D03*
X102100000Y-128000000D03*
X74900000Y-72500000D03*
X74900000Y-64500000D03*
X75700000Y-72500000D03*
X75700000Y-64500000D03*
X76500000Y-72500000D03*
X76500000Y-64500000D03*
X77300000Y-72500000D03*
X77300000Y-64500000D03*
X78100000Y-72500000D03*
X78100000Y-64500000D03*
X78900000Y-72500000D03*
X78900000Y-64500000D03*
X79700000Y-72500000D03*
X79700000Y-64500000D03*
X80500000Y-72500000D03*
X80500000Y-64500000D03*
X81300000Y-72500000D03*
X81300000Y-64500000D03*
X82100000Y-72500000D03*
X82100000Y-64500000D03*
X82900000Y-72500000D03*
X82900000Y-64500000D03*
X83700000Y-72500000D03*
X83700000Y-64500000D03*
X84500000Y-72500000D03*
X84500000Y-64500000D03*
X85300000Y-72500000D03*
X85300000Y-64500000D03*
X86100000Y-72500000D03*
X86100000Y-64500000D03*
X86900000Y-72500000D03*
X86900000Y-64500000D03*
X87700000Y-72500000D03*
X87700000Y-64500000D03*
X88500000Y-72500000D03*
X88500000Y-64500000D03*
X89300000Y-72500000D03*
X89300000Y-64500000D03*
X90100000Y-72500000D03*
X90100000Y-64500000D03*
X90900000Y-72500000D03*
X90900000Y-64500000D03*
X91700000Y-72500000D03*
X91700000Y-64500000D03*
X92500000Y-72500000D03*
X92500000Y-64500000D03*
X93300000Y-72500000D03*
X93300000Y-64500000D03*
X94100000Y-72500000D03*
X94100000Y-64500000D03*
X94900000Y-72500000D03*
X94900000Y-64500000D03*
X95700000Y-72500000D03*
X95700000Y-64500000D03*
X96500000Y-72500000D03*
X96500000Y-64500000D03*
X97300000Y-72500000D03*
X97300000Y-64500000D03*
X98100000Y-72500000D03*
X98100000Y-64500000D03*
X98900000Y-72500000D03*
X98900000Y-64500000D03*
X99700000Y-72500000D03*
X99700000Y-64500000D03*
X100500000Y-72500000D03*
X100500000Y-64500000D03*
X101300000Y-72500000D03*
X101300000Y-64500000D03*
X102100000Y-72500000D03*
X102100000Y-64500000D03*
D12*
X63500000Y-35500000D02*
X113500000Y-35500000D01*
X113500000Y-161500000D01*
X63500000Y-161500000D01*
X63500000Y-35500000D01*
M02*
