%TF.GenerationSoftware,KiCad,Pcbnew,9.0.2*%
%TF.CreationDate,2026-01-20T10:10:25+01:00*%
%TF.ProjectId,P2_BASKET,50325f42-4153-44b4-9554-2e6b69636164,V0*%
%TF.SameCoordinates,PXdca9420PY27f752c0*%
%TF.FileFunction,Profile,NP*%
%FSLAX46Y46*%
G04 Gerber Fmt 4.6, Leading zero omitted, Abs format (unit mm)*
G04 Created by KiCad (PCBNEW 9.0.2) date 2026-01-20 10:10:25*
%MOMM*%
%LPD*%
G01*
G04 APERTURE LIST*
%TA.AperFunction,Profile*%
%ADD10C,0.100000*%
%TD*%
G04 APERTURE END LIST*
D10*
X377465319Y531805271D02*
G75*
G02*
X376665319Y531805271I-400000J0D01*
G01*
X376665319Y531805271D02*
G75*
G02*
X377465319Y531805271I400000J0D01*
G01*
X61127000Y72729000D02*
G75*
G02*
X59777522Y71226987I-654600J-769100D01*
G01*
X295748000Y534999000D02*
G75*
G02*
X294948000Y534999000I-400000J0D01*
G01*
X294948000Y534999000D02*
G75*
G02*
X295748000Y534999000I400000J0D01*
G01*
X118077000Y-9996000D02*
X184480000Y-9996000D01*
X174846000Y322843000D02*
G75*
G02*
X173081764Y323785133I-882100J471100D01*
G01*
X648594000Y570004000D02*
X648595000Y66055000D01*
X487930000Y-12002000D02*
G75*
G02*
X487130000Y-12002000I-400000J0D01*
G01*
X487130000Y-12002000D02*
G75*
G02*
X487930000Y-12002000I400000J0D01*
G01*
X488948552Y431629043D02*
G75*
G02*
X488148552Y431629043I-400000J0D01*
G01*
X488148552Y431629043D02*
G75*
G02*
X488948552Y431629043I400000J0D01*
G01*
X189180000Y-12002000D02*
G75*
G02*
X188380000Y-12002000I-400000J0D01*
G01*
X188380000Y-12002000D02*
G75*
G02*
X189180000Y-12002000I400000J0D01*
G01*
X574988326Y303146654D02*
G75*
G02*
X576820389Y303952817I1013074J182546D01*
G01*
X59149000Y125210000D02*
G75*
G02*
X58349000Y125210000I-400000J0D01*
G01*
X58349000Y125210000D02*
G75*
G02*
X59149000Y125210000I400000J0D01*
G01*
X490603735Y426383175D02*
G75*
G02*
X531819998Y373719998I-490462135J-426315175D01*
G01*
X294692000Y530419000D02*
X255711987Y462903637D01*
X337930000Y542000000D02*
G75*
G02*
X337130000Y542000000I-400000J0D01*
G01*
X337130000Y542000000D02*
G75*
G02*
X337930000Y542000000I400000J0D01*
G01*
X373748000Y531788000D02*
X361787100Y540005757D01*
X38594000Y-39996000D02*
X38594000Y84660459D01*
X438337858Y479949936D02*
G75*
G02*
X485127847Y432611673I-438237058J-479954536D01*
G01*
X632123772Y14835714D02*
X648570486Y43361413D01*
X253702000Y462196000D02*
G75*
G02*
X252902000Y462196000I-400000J0D01*
G01*
X252902000Y462196000D02*
G75*
G02*
X253702000Y462196000I400000J0D01*
G01*
X538033863Y368224253D02*
G75*
G02*
X572784979Y311465046I-537710763J-368234053D01*
G01*
X109476364Y-9995341D02*
G75*
G02*
X109476364Y-11995259I36J-999959D01*
G01*
X489180000Y-12002000D02*
G75*
G02*
X488380000Y-12002000I-400000J0D01*
G01*
X488380000Y-12002000D02*
G75*
G02*
X489180000Y-12002000I400000J0D01*
G01*
X562930000Y-12002000D02*
G75*
G02*
X562130000Y-12002000I-400000J0D01*
G01*
X562130000Y-12002000D02*
G75*
G02*
X562930000Y-12002000I400000J0D01*
G01*
X631234000Y8779000D02*
G75*
G02*
X630434000Y8779000I-400000J0D01*
G01*
X630434000Y8779000D02*
G75*
G02*
X631234000Y8779000I400000J0D01*
G01*
X251405173Y455454960D02*
X212402986Y387894706D01*
X537507000Y369482000D02*
G75*
G02*
X536707000Y369482000I-400000J0D01*
G01*
X536707000Y369482000D02*
G75*
G02*
X537507000Y369482000I400000J0D01*
G01*
X115427000Y-11996000D02*
G75*
G02*
X114627000Y-11996000I-400000J0D01*
G01*
X114627000Y-11996000D02*
G75*
G02*
X115427000Y-11996000I400000J0D01*
G01*
X575518000Y306433000D02*
G75*
G02*
X574718000Y306433000I-400000J0D01*
G01*
X574718000Y306433000D02*
G75*
G02*
X575518000Y306433000I400000J0D01*
G01*
X608668252Y228094316D02*
G75*
G02*
X610578454Y228669685I931848J364884D01*
G01*
X112927000Y-11996000D02*
G75*
G02*
X112127000Y-11996000I-400000J0D01*
G01*
X112127000Y-11996000D02*
G75*
G02*
X112927000Y-11996000I400000J0D01*
G01*
X573746000Y309743000D02*
G75*
G02*
X572946000Y309743000I-400000J0D01*
G01*
X572946000Y309743000D02*
G75*
G02*
X573746000Y309743000I400000J0D01*
G01*
X436984279Y484186565D02*
G75*
G02*
X436184279Y484186565I-400000J0D01*
G01*
X436184279Y484186565D02*
G75*
G02*
X436984279Y484186565I400000J0D01*
G01*
X292887684Y531292650D02*
G75*
G02*
X294691952Y530419023I902116J-436850D01*
G01*
X343079998Y-12001999D02*
X409482998Y-12001999D01*
X249594827Y456305041D02*
G75*
G02*
X251405173Y455454960I905173J-425041D01*
G01*
X341768000Y540008959D02*
G75*
G02*
X341768000Y542007041I0J999041D01*
G01*
X566680000Y-12002000D02*
G75*
G02*
X565880000Y-12002000I-400000J0D01*
G01*
X565880000Y-12002000D02*
G75*
G02*
X566680000Y-12002000I400000J0D01*
G01*
X610578509Y228669697D02*
G75*
G02*
X630737460Y165160280I-610276909J-228666197D01*
G01*
X251199000Y457858000D02*
G75*
G02*
X250399000Y457858000I-400000J0D01*
G01*
X250399000Y457858000D02*
G75*
G02*
X251199000Y457858000I400000J0D01*
G01*
X171027000Y318999000D02*
G75*
G02*
X170227000Y318999000I-400000J0D01*
G01*
X170227000Y318999000D02*
G75*
G02*
X171027000Y318999000I400000J0D01*
G01*
X186680000Y-12002000D02*
G75*
G02*
X185880000Y-12002000I-400000J0D01*
G01*
X185880000Y-12002000D02*
G75*
G02*
X186680000Y-12002000I400000J0D01*
G01*
X608350000Y234859000D02*
G75*
G02*
X607550000Y234859000I-400000J0D01*
G01*
X607550000Y234859000D02*
G75*
G02*
X608350000Y234859000I400000J0D01*
G01*
X568080998Y-12001999D02*
X618621002Y-12001999D01*
X92923824Y-4322000D02*
G75*
G02*
X92486459Y-10004360I-93072824J4305700D01*
G01*
X632483000Y10946000D02*
G75*
G02*
X631683000Y10946000I-400000J0D01*
G01*
X631683000Y10946000D02*
G75*
G02*
X632483000Y10946000I400000J0D01*
G01*
X212402986Y387894706D02*
G75*
G02*
X210674154Y388892459I-895686J444694D01*
G01*
X98125671Y193950526D02*
X131312826Y251451026D01*
X296368000Y536085000D02*
G75*
G02*
X295568000Y536085000I-400000J0D01*
G01*
X295568000Y536085000D02*
G75*
G02*
X296368000Y536085000I400000J0D01*
G01*
X559482999Y-10002000D02*
G75*
G02*
X559482999Y-12002000I1J-1000000D01*
G01*
X435138279Y485874565D02*
G75*
G02*
X434338279Y485874565I-400000J0D01*
G01*
X434338279Y485874565D02*
G75*
G02*
X435138279Y485874565I400000J0D01*
G01*
X618621002Y-12001999D02*
X629259635Y6424654D01*
X574988327Y303146654D02*
G75*
G02*
X605744997Y235744999I-574997927J-303100854D01*
G01*
X57896000Y123039000D02*
G75*
G02*
X57096000Y123039000I-400000J0D01*
G01*
X57096000Y123039000D02*
G75*
G02*
X57896000Y123039000I400000J0D01*
G01*
X418079998Y-12001999D02*
X484482998Y-12001999D01*
X134775000Y256197000D02*
G75*
G02*
X133975000Y256197000I-400000J0D01*
G01*
X133975000Y256197000D02*
G75*
G02*
X134775000Y256197000I400000J0D01*
G01*
X132902000Y252940000D02*
G75*
G02*
X132102000Y252940000I-400000J0D01*
G01*
X132102000Y252940000D02*
G75*
G02*
X132902000Y252940000I400000J0D01*
G01*
X646653155Y66055004D02*
G75*
G02*
X648570496Y43361416I-646671455J-66063904D01*
G01*
X118076999Y-11995999D02*
X184479999Y-11995999D01*
X490605552Y429757043D02*
G75*
G02*
X489805552Y429757043I-400000J0D01*
G01*
X489805552Y429757043D02*
G75*
G02*
X490605552Y429757043I400000J0D01*
G01*
X268079999Y-10002000D02*
X334482999Y-10002000D01*
X172906000Y322247000D02*
G75*
G02*
X172106000Y322247000I-400000J0D01*
G01*
X172106000Y322247000D02*
G75*
G02*
X172906000Y322247000I400000J0D01*
G01*
X193080000Y-10003000D02*
X259483000Y-10003000D01*
X379505319Y530351271D02*
G75*
G02*
X378705319Y530351271I-400000J0D01*
G01*
X378705319Y530351271D02*
G75*
G02*
X379505319Y530351271I400000J0D01*
G01*
X63535000Y68526000D02*
G75*
G02*
X62735000Y68526000I-400000J0D01*
G01*
X62735000Y68526000D02*
G75*
G02*
X63535000Y68526000I400000J0D01*
G01*
X114177000Y-11996000D02*
G75*
G02*
X113377000Y-11996000I-400000J0D01*
G01*
X113377000Y-11996000D02*
G75*
G02*
X114177000Y-11996000I400000J0D01*
G01*
X436069279Y485037565D02*
G75*
G02*
X435269279Y485037565I-400000J0D01*
G01*
X435269279Y485037565D02*
G75*
G02*
X436069279Y485037565I400000J0D01*
G01*
X536069000Y371531000D02*
G75*
G02*
X535269000Y371531000I-400000J0D01*
G01*
X535269000Y371531000D02*
G75*
G02*
X536069000Y371531000I400000J0D01*
G01*
X93545000Y-2688000D02*
G75*
G02*
X92745000Y-2688000I-400000J0D01*
G01*
X92745000Y-2688000D02*
G75*
G02*
X93545000Y-2688000I400000J0D01*
G01*
X300228324Y540008191D02*
X298725000Y537403000D01*
X259483000Y-10003000D02*
G75*
G02*
X259483000Y-12003000I0J-1000000D01*
G01*
X62314105Y127921506D02*
G75*
G02*
X60482811Y128740212I-904005J435394D01*
G01*
X93550000Y2308000D02*
G75*
G02*
X92750000Y2308000I-400000J0D01*
G01*
X92750000Y2308000D02*
G75*
G02*
X93550000Y2308000I400000J0D01*
G01*
X59769000Y126296000D02*
G75*
G02*
X58969000Y126296000I-400000J0D01*
G01*
X58969000Y126296000D02*
G75*
G02*
X59769000Y126296000I400000J0D01*
G01*
X137347508Y257885534D02*
G75*
G02*
X135622504Y258897486I-862508J505966D01*
G01*
X210411000Y387196000D02*
G75*
G02*
X209611000Y387196000I-400000J0D01*
G01*
X209611000Y387196000D02*
G75*
G02*
X210411000Y387196000I400000J0D01*
G01*
X380207092Y527196922D02*
G75*
G02*
X381378585Y528817187I604908J796278D01*
G01*
X646892000Y81561185D02*
X648595000Y66055000D01*
X208532000Y383948000D02*
G75*
G02*
X207732000Y383948000I-400000J0D01*
G01*
X207732000Y383948000D02*
G75*
G02*
X208532000Y383948000I400000J0D01*
G01*
X564180000Y-12002000D02*
G75*
G02*
X563380000Y-12002000I-400000J0D01*
G01*
X563380000Y-12002000D02*
G75*
G02*
X564180000Y-12002000I400000J0D01*
G01*
X38594000Y570004000D02*
X648594000Y570004000D01*
X96653000Y190160000D02*
G75*
G02*
X95853000Y190160000I-400000J0D01*
G01*
X95853000Y190160000D02*
G75*
G02*
X96653000Y190160000I400000J0D01*
G01*
X133143582Y250609000D02*
X99902409Y193033602D01*
X190430000Y-12002000D02*
G75*
G02*
X189630000Y-12002000I-400000J0D01*
G01*
X189630000Y-12002000D02*
G75*
G02*
X190430000Y-12002000I400000J0D01*
G01*
X610118000Y230173000D02*
G75*
G02*
X609318000Y230173000I-400000J0D01*
G01*
X609318000Y230173000D02*
G75*
G02*
X610118000Y230173000I400000J0D01*
G01*
X261680000Y-12002000D02*
G75*
G02*
X260880000Y-12002000I-400000J0D01*
G01*
X260880000Y-12002000D02*
G75*
G02*
X261680000Y-12002000I400000J0D01*
G01*
X633113000Y12027000D02*
G75*
G02*
X632313000Y12027000I-400000J0D01*
G01*
X632313000Y12027000D02*
G75*
G02*
X633113000Y12027000I400000J0D01*
G01*
X486737167Y433817385D02*
G75*
G02*
X485127834Y432611666I-809667J-596185D01*
G01*
X609234000Y232515000D02*
G75*
G02*
X608434000Y232515000I-400000J0D01*
G01*
X608434000Y232515000D02*
G75*
G02*
X609234000Y232515000I400000J0D01*
G01*
X333231007Y542006120D02*
G75*
G02*
X333231000Y540008080I-7J-999020D01*
G01*
X208093518Y380430017D02*
X174846000Y322843000D01*
X438337858Y479949936D02*
G75*
G02*
X439649937Y481466051I737842J687264D01*
G01*
X133526000Y254030000D02*
G75*
G02*
X132726000Y254030000I-400000J0D01*
G01*
X132726000Y254030000D02*
G75*
G02*
X133526000Y254030000I400000J0D01*
G01*
X646251000Y87470000D02*
G75*
G02*
X645451000Y87470000I-400000J0D01*
G01*
X645451000Y87470000D02*
G75*
G02*
X646251000Y87470000I400000J0D01*
G01*
X341680000Y-12002000D02*
G75*
G02*
X340880000Y-12002000I-400000J0D01*
G01*
X340880000Y-12002000D02*
G75*
G02*
X341680000Y-12002000I400000J0D01*
G01*
X99902409Y193033602D02*
G75*
G02*
X98124960Y193950537I-888709J458498D01*
G01*
X93577000Y1058000D02*
G75*
G02*
X92777000Y1058000I-400000J0D01*
G01*
X92777000Y1058000D02*
G75*
G02*
X93577000Y1058000I400000J0D01*
G01*
X437925279Y483358565D02*
G75*
G02*
X437125279Y483358565I-400000J0D01*
G01*
X437125279Y483358565D02*
G75*
G02*
X437925279Y483358565I400000J0D01*
G01*
X439649920Y481466062D02*
G75*
G02*
X486736071Y433812496I-439611520J-481466562D01*
G01*
X93824503Y186495768D02*
X60482708Y128738973D01*
X343079999Y-12002000D02*
G75*
G02*
X343079999Y-10002000I1J1000000D01*
G01*
X65353000Y66809000D02*
G75*
G02*
X64553000Y66809000I-400000J0D01*
G01*
X64553000Y66809000D02*
G75*
G02*
X65353000Y66809000I400000J0D01*
G01*
X411680000Y-12002000D02*
G75*
G02*
X410880000Y-12002000I-400000J0D01*
G01*
X410880000Y-12002000D02*
G75*
G02*
X411680000Y-12002000I400000J0D01*
G01*
X561680000Y-12002000D02*
G75*
G02*
X560880000Y-12002000I-400000J0D01*
G01*
X560880000Y-12002000D02*
G75*
G02*
X561680000Y-12002000I400000J0D01*
G01*
X92923824Y-4322000D02*
G75*
G02*
X94920168Y-4318004I998176J0D01*
G01*
X490430000Y-12002000D02*
G75*
G02*
X489630000Y-12002000I-400000J0D01*
G01*
X489630000Y-12002000D02*
G75*
G02*
X490430000Y-12002000I400000J0D01*
G01*
X96024000Y189079000D02*
G75*
G02*
X95224000Y189079000I-400000J0D01*
G01*
X95224000Y189079000D02*
G75*
G02*
X96024000Y189079000I400000J0D01*
G01*
X266680000Y-12002000D02*
G75*
G02*
X265880000Y-12002000I-400000J0D01*
G01*
X265880000Y-12002000D02*
G75*
G02*
X266680000Y-12002000I400000J0D01*
G01*
X264180000Y-12002000D02*
G75*
G02*
X263380000Y-12002000I-400000J0D01*
G01*
X263380000Y-12002000D02*
G75*
G02*
X264180000Y-12002000I400000J0D01*
G01*
X137347508Y257884926D02*
X170608307Y315494319D01*
X116677000Y-11996000D02*
G75*
G02*
X115877000Y-11996000I-400000J0D01*
G01*
X115877000Y-11996000D02*
G75*
G02*
X116677000Y-11996000I400000J0D01*
G01*
X92249034Y-11995039D02*
X109476364Y-11995341D01*
X608670000Y228095003D02*
G75*
G02*
X628775129Y164767513I-608666600J-228093903D01*
G01*
X493079998Y-12001999D02*
X559482998Y-12001999D01*
X418079999Y-12002000D02*
G75*
G02*
X418079999Y-10002000I1J1000000D01*
G01*
X412930000Y-12002000D02*
G75*
G02*
X412130000Y-12002000I-400000J0D01*
G01*
X412130000Y-12002000D02*
G75*
G02*
X412930000Y-12002000I400000J0D01*
G01*
X630740842Y165160819D02*
G75*
G02*
X628775211Y164767538I-987942J-171019D01*
G01*
X631601000Y162293000D02*
G75*
G02*
X630801000Y162293000I-400000J0D01*
G01*
X630801000Y162293000D02*
G75*
G02*
X631601000Y162293000I400000J0D01*
G01*
X630911001Y156392000D02*
G75*
G02*
X643718474Y90190781I-630929601J-156400900D01*
G01*
X340430000Y-12002000D02*
G75*
G02*
X339630000Y-12002000I-400000J0D01*
G01*
X339630000Y-12002000D02*
G75*
G02*
X340430000Y-12002000I400000J0D01*
G01*
X297350000Y538467000D02*
X299379652Y542002422D01*
X209161000Y385029000D02*
G75*
G02*
X208361000Y385029000I-400000J0D01*
G01*
X208361000Y385029000D02*
G75*
G02*
X209161000Y385029000I400000J0D01*
G01*
X339180000Y-12002000D02*
G75*
G02*
X338380000Y-12002000I-400000J0D01*
G01*
X338380000Y-12002000D02*
G75*
G02*
X339180000Y-12002000I400000J0D01*
G01*
X58520000Y124129000D02*
G75*
G02*
X57720000Y124129000I-400000J0D01*
G01*
X57720000Y124129000D02*
G75*
G02*
X58520000Y124129000I400000J0D01*
G01*
X609681000Y231346000D02*
G75*
G02*
X608881000Y231346000I-400000J0D01*
G01*
X608881000Y231346000D02*
G75*
G02*
X609681000Y231346000I400000J0D01*
G01*
X648594000Y-39996000D02*
X38594000Y-39996000D01*
X418079999Y-10002000D02*
X484482999Y-10002000D01*
X341777000Y542007000D02*
X362347719Y542011000D01*
X630911001Y156392000D02*
G75*
G02*
X632858588Y156841237I971399J235000D01*
G01*
X333231000Y540008000D02*
X300228324Y540008191D01*
X568080999Y-12002000D02*
G75*
G02*
X568080999Y-10002000I1J1000000D01*
G01*
X644895647Y81449054D02*
G75*
G02*
X646891946Y81561183I996853J79146D01*
G01*
X644894999Y81449002D02*
G75*
G02*
X646653154Y66055000I-644891299J-81450702D01*
G01*
X94938253Y3985910D02*
G75*
G02*
X92870007Y3985910I-1034123J0D01*
G01*
X131312826Y251451028D02*
G75*
G02*
X133143586Y250608998I915374J-421028D01*
G01*
X38593996Y86810000D02*
X58224365Y120810797D01*
X97903000Y192327000D02*
G75*
G02*
X97103000Y192327000I-400000J0D01*
G01*
X97103000Y192327000D02*
G75*
G02*
X97903000Y192327000I400000J0D01*
G01*
X62312635Y127923000D02*
X95610735Y185597000D01*
X646409000Y86220000D02*
G75*
G02*
X645609000Y86220000I-400000J0D01*
G01*
X645609000Y86220000D02*
G75*
G02*
X646409000Y86220000I400000J0D01*
G01*
X533569184Y374712902D02*
G75*
G02*
X531819992Y373719996I-1137384J-33502D01*
G01*
X576108000Y305332000D02*
G75*
G02*
X575308000Y305332000I-400000J0D01*
G01*
X575308000Y305332000D02*
G75*
G02*
X576108000Y305332000I400000J0D01*
G01*
X193079999Y-12002999D02*
X259482999Y-12002999D01*
X95400000Y187989000D02*
G75*
G02*
X94600000Y187989000I-400000J0D01*
G01*
X94600000Y187989000D02*
G75*
G02*
X95400000Y187989000I400000J0D01*
G01*
X339180000Y542000000D02*
G75*
G02*
X338380000Y542000000I-400000J0D01*
G01*
X338380000Y542000000D02*
G75*
G02*
X339180000Y542000000I400000J0D01*
G01*
X335430000Y542000000D02*
G75*
G02*
X334630000Y542000000I-400000J0D01*
G01*
X334630000Y542000000D02*
G75*
G02*
X335430000Y542000000I400000J0D01*
G01*
X375045406Y533370052D02*
G75*
G02*
X373748014Y531788025I-786806J-677752D01*
G01*
X265430000Y-12002000D02*
G75*
G02*
X264630000Y-12002000I-400000J0D01*
G01*
X264630000Y-12002000D02*
G75*
G02*
X265430000Y-12002000I400000J0D01*
G01*
X633603000Y13922000D02*
G75*
G02*
X632123775Y14835729I-629700J634800D01*
G01*
X336680000Y-12002000D02*
G75*
G02*
X335880000Y-12002000I-400000J0D01*
G01*
X335880000Y-12002000D02*
G75*
G02*
X336680000Y-12002000I400000J0D01*
G01*
X168804899Y316365681D02*
X135622466Y258897508D01*
X61679000Y70201000D02*
G75*
G02*
X60879000Y70201000I-400000J0D01*
G01*
X60879000Y70201000D02*
G75*
G02*
X61679000Y70201000I400000J0D01*
G01*
X60399000Y127377000D02*
G75*
G02*
X59599000Y127377000I-400000J0D01*
G01*
X59599000Y127377000D02*
G75*
G02*
X60399000Y127377000I400000J0D01*
G01*
X111677000Y-11996000D02*
G75*
G02*
X110877000Y-11996000I-400000J0D01*
G01*
X110877000Y-11996000D02*
G75*
G02*
X111677000Y-11996000I400000J0D01*
G01*
X534656000Y373598000D02*
G75*
G02*
X533856000Y373598000I-400000J0D01*
G01*
X533856000Y373598000D02*
G75*
G02*
X534656000Y373598000I400000J0D01*
G01*
X646092000Y88720000D02*
G75*
G02*
X645292000Y88720000I-400000J0D01*
G01*
X645292000Y88720000D02*
G75*
G02*
X646092000Y88720000I400000J0D01*
G01*
X535369000Y372569000D02*
G75*
G02*
X534569000Y372569000I-400000J0D01*
G01*
X534569000Y372569000D02*
G75*
G02*
X535369000Y372569000I400000J0D01*
G01*
X38594234Y86810535D02*
G75*
G02*
X61127000Y72729000I-38590234J-86819535D01*
G01*
X568080999Y-10002000D02*
X617780999Y-10002000D01*
X631863000Y9860000D02*
G75*
G02*
X631063000Y9860000I-400000J0D01*
G01*
X631063000Y9860000D02*
G75*
G02*
X631863000Y9860000I400000J0D01*
G01*
X255711987Y462903637D02*
G75*
G02*
X254029348Y463993810I-845287J538963D01*
G01*
X490603735Y426383175D02*
G75*
G02*
X492178400Y427619118I784465J621625D01*
G01*
X381378429Y528817293D02*
G75*
G02*
X433440208Y487073777I-381299529J-528887093D01*
G01*
X438856279Y482518565D02*
G75*
G02*
X438056279Y482518565I-400000J0D01*
G01*
X438056279Y482518565D02*
G75*
G02*
X438856279Y482518565I400000J0D01*
G01*
X632216000Y159830000D02*
G75*
G02*
X631416000Y159830000I-400000J0D01*
G01*
X631416000Y159830000D02*
G75*
G02*
X632216000Y159830000I400000J0D01*
G01*
X645720056Y90411449D02*
G75*
G02*
X643718494Y90190788I-1023456J95351D01*
G01*
X380207094Y527196922D02*
G75*
G02*
X432026999Y485644999I-380217194J-527262022D01*
G01*
X574337000Y308639000D02*
G75*
G02*
X573537000Y308639000I-400000J0D01*
G01*
X573537000Y308639000D02*
G75*
G02*
X574337000Y308639000I400000J0D01*
G01*
X173081796Y323785190D02*
X206327441Y381368615D01*
X251823000Y458948000D02*
G75*
G02*
X251023000Y458948000I-400000J0D01*
G01*
X251023000Y458948000D02*
G75*
G02*
X251823000Y458948000I400000J0D01*
G01*
X65932800Y65608610D02*
G75*
G02*
X92868992Y3985804I-66159200J-65617610D01*
G01*
X254030489Y463993770D02*
X292886321Y531294045D01*
X492178342Y427619190D02*
G75*
G02*
X533569087Y374715983I-492014242J-427588590D01*
G01*
X56391339Y121627948D02*
G75*
G02*
X58224416Y120810774I918161J-404948D01*
G01*
X295119000Y533918000D02*
G75*
G02*
X294319000Y533918000I-400000J0D01*
G01*
X294319000Y533918000D02*
G75*
G02*
X295119000Y533918000I400000J0D01*
G01*
X632519000Y158616000D02*
G75*
G02*
X631719000Y158616000I-400000J0D01*
G01*
X631719000Y158616000D02*
G75*
G02*
X632519000Y158616000I400000J0D01*
G01*
X341768000Y540007004D02*
X361787100Y540005757D01*
X67216451Y66963975D02*
G75*
G02*
X94938255Y3985907I-66996451J-67080975D01*
G01*
X209781000Y386115000D02*
G75*
G02*
X208981000Y386115000I-400000J0D01*
G01*
X208981000Y386115000D02*
G75*
G02*
X209781000Y386115000I400000J0D01*
G01*
X336680000Y542000000D02*
G75*
G02*
X335880000Y542000000I-400000J0D01*
G01*
X335880000Y542000000D02*
G75*
G02*
X336680000Y542000000I400000J0D01*
G01*
X340430000Y542000000D02*
G75*
G02*
X339630000Y542000000I-400000J0D01*
G01*
X339630000Y542000000D02*
G75*
G02*
X340430000Y542000000I400000J0D01*
G01*
X268079999Y-12002000D02*
G75*
G02*
X268079999Y-10002000I1J1000000D01*
G01*
X486680000Y-12002000D02*
G75*
G02*
X485880000Y-12002000I-400000J0D01*
G01*
X485880000Y-12002000D02*
G75*
G02*
X486680000Y-12002000I400000J0D01*
G01*
X65932800Y65608610D02*
G75*
G02*
X67216456Y66961459I640600J677590D01*
G01*
X171656000Y320080000D02*
G75*
G02*
X170856000Y320080000I-400000J0D01*
G01*
X170856000Y320080000D02*
G75*
G02*
X171656000Y320080000I400000J0D01*
G01*
X608786000Y233682000D02*
G75*
G02*
X607986000Y233682000I-400000J0D01*
G01*
X607986000Y233682000D02*
G75*
G02*
X608786000Y233682000I400000J0D01*
G01*
X168804899Y316365681D02*
G75*
G02*
X170605101Y315494319I900101J-435681D01*
G01*
X294495000Y532828000D02*
G75*
G02*
X293695000Y532828000I-400000J0D01*
G01*
X293695000Y532828000D02*
G75*
G02*
X294495000Y532828000I400000J0D01*
G01*
X572784976Y311465044D02*
G75*
G02*
X570928410Y310701989I-928276J-381544D01*
G01*
X64449000Y67673000D02*
G75*
G02*
X63649000Y67673000I-400000J0D01*
G01*
X63649000Y67673000D02*
G75*
G02*
X64449000Y67673000I400000J0D01*
G01*
X630610000Y7689000D02*
G75*
G02*
X629810000Y7689000I-400000J0D01*
G01*
X629810000Y7689000D02*
G75*
G02*
X630610000Y7689000I400000J0D01*
G01*
X488132552Y432578043D02*
G75*
G02*
X487332552Y432578043I-400000J0D01*
G01*
X487332552Y432578043D02*
G75*
G02*
X488132552Y432578043I400000J0D01*
G01*
X62609000Y69366000D02*
G75*
G02*
X61809000Y69366000I-400000J0D01*
G01*
X61809000Y69366000D02*
G75*
G02*
X62609000Y69366000I400000J0D01*
G01*
X491680000Y-12002000D02*
G75*
G02*
X490880000Y-12002000I-400000J0D01*
G01*
X490880000Y-12002000D02*
G75*
G02*
X491680000Y-12002000I400000J0D01*
G01*
X94920168Y-4326074D02*
G75*
G02*
X94491867Y-9996979I-94916868J4317074D01*
G01*
X414180000Y-12002000D02*
G75*
G02*
X413380000Y-12002000I-400000J0D01*
G01*
X413380000Y-12002000D02*
G75*
G02*
X414180000Y-12002000I400000J0D01*
G01*
X617780999Y-10002000D02*
X627780999Y7318507D01*
X262930000Y-12002000D02*
G75*
G02*
X262130000Y-12002000I-400000J0D01*
G01*
X262130000Y-12002000D02*
G75*
G02*
X262930000Y-12002000I400000J0D01*
G01*
X296998000Y537166000D02*
G75*
G02*
X296198000Y537166000I-400000J0D01*
G01*
X296198000Y537166000D02*
G75*
G02*
X296998000Y537166000I400000J0D01*
G01*
X118077000Y-11996000D02*
G75*
G02*
X118077000Y-9996000I0J1000000D01*
G01*
X134155000Y255111000D02*
G75*
G02*
X133355000Y255111000I-400000J0D01*
G01*
X133355000Y255111000D02*
G75*
G02*
X134155000Y255111000I400000J0D01*
G01*
X135405000Y257278000D02*
G75*
G02*
X134605000Y257278000I-400000J0D01*
G01*
X134605000Y257278000D02*
G75*
G02*
X135405000Y257278000I400000J0D01*
G01*
X191680000Y-12002000D02*
G75*
G02*
X190880000Y-12002000I-400000J0D01*
G01*
X190880000Y-12002000D02*
G75*
G02*
X191680000Y-12002000I400000J0D01*
G01*
X343079999Y-10002000D02*
X409482999Y-10002000D01*
X627781058Y7318474D02*
G75*
G02*
X629265323Y6422829I629442J-634574D01*
G01*
X631266000Y163543000D02*
G75*
G02*
X630466000Y163543000I-400000J0D01*
G01*
X630466000Y163543000D02*
G75*
G02*
X631266000Y163543000I400000J0D01*
G01*
X184480000Y-9996000D02*
G75*
G02*
X184480000Y-11996000I0J-1000000D01*
G01*
X193080000Y-12003000D02*
G75*
G02*
X193080000Y-10003000I0J1000000D01*
G01*
X491419552Y428807043D02*
G75*
G02*
X490619552Y428807043I-400000J0D01*
G01*
X490619552Y428807043D02*
G75*
G02*
X491419552Y428807043I400000J0D01*
G01*
X337930000Y-12002000D02*
G75*
G02*
X337130000Y-12002000I-400000J0D01*
G01*
X337130000Y-12002000D02*
G75*
G02*
X337930000Y-12002000I400000J0D01*
G01*
X94491863Y-9996981D02*
X109476364Y-9995341D01*
X536330072Y367219595D02*
G75*
G02*
X570928430Y310701999I-536297172J-367153695D01*
G01*
X170403000Y317909000D02*
G75*
G02*
X169603000Y317909000I-400000J0D01*
G01*
X169603000Y317909000D02*
G75*
G02*
X170403000Y317909000I400000J0D01*
G01*
X206327440Y381368615D02*
G75*
G02*
X208093560Y380429985I883060J-469315D01*
G01*
X252452000Y460029000D02*
G75*
G02*
X251652000Y460029000I-400000J0D01*
G01*
X251652000Y460029000D02*
G75*
G02*
X252452000Y460029000I400000J0D01*
G01*
X632858587Y156841244D02*
G75*
G02*
X645716167Y90410338I-632553687J-156889344D01*
G01*
X493079999Y-10002000D02*
X559482999Y-10002000D01*
X574930000Y307537000D02*
G75*
G02*
X574130000Y307537000I-400000J0D01*
G01*
X574130000Y307537000D02*
G75*
G02*
X574930000Y307537000I400000J0D01*
G01*
X489786552Y430700043D02*
G75*
G02*
X488986552Y430700043I-400000J0D01*
G01*
X488986552Y430700043D02*
G75*
G02*
X489786552Y430700043I400000J0D01*
G01*
X172276000Y321166000D02*
G75*
G02*
X171476000Y321166000I-400000J0D01*
G01*
X171476000Y321166000D02*
G75*
G02*
X172276000Y321166000I400000J0D01*
G01*
X565430000Y-12002000D02*
G75*
G02*
X564630000Y-12002000I-400000J0D01*
G01*
X564630000Y-12002000D02*
G75*
G02*
X565430000Y-12002000I400000J0D01*
G01*
X646721000Y83717000D02*
G75*
G02*
X645921000Y83717000I-400000J0D01*
G01*
X645921000Y83717000D02*
G75*
G02*
X646721000Y83717000I400000J0D01*
G01*
X92486459Y-10004360D02*
G75*
G02*
X92249963Y-11995158I-92595259J9990360D01*
G01*
X299380993Y542002422D02*
X333232000Y542008000D01*
X210674489Y388893039D02*
X249594826Y456305041D01*
X607608995Y236595000D02*
G75*
G02*
X605745003Y235745004I-931995J-425000D01*
G01*
X536782000Y370502000D02*
G75*
G02*
X535982000Y370502000I-400000J0D01*
G01*
X535982000Y370502000D02*
G75*
G02*
X536782000Y370502000I400000J0D01*
G01*
X38594000Y84660459D02*
G75*
G02*
X59777275Y71226702I-38862300J-84699259D01*
G01*
X409482999Y-10002000D02*
G75*
G02*
X409482999Y-12002000I1J-1000000D01*
G01*
X646572000Y84970000D02*
G75*
G02*
X645772000Y84970000I-400000J0D01*
G01*
X645772000Y84970000D02*
G75*
G02*
X646572000Y84970000I400000J0D01*
G01*
X576820742Y303944315D02*
G75*
G02*
X607608992Y236594999I-576474542J-304243115D01*
G01*
X484482999Y-10002000D02*
G75*
G02*
X484482999Y-12002000I1J-1000000D01*
G01*
X97273000Y191246000D02*
G75*
G02*
X96473000Y191246000I-400000J0D01*
G01*
X96473000Y191246000D02*
G75*
G02*
X97273000Y191246000I400000J0D01*
G01*
X334482999Y-10002000D02*
G75*
G02*
X334482999Y-12002000I1J-1000000D01*
G01*
X416680000Y-12002000D02*
G75*
G02*
X415880000Y-12002000I-400000J0D01*
G01*
X415880000Y-12002000D02*
G75*
G02*
X416680000Y-12002000I400000J0D01*
G01*
X378495319Y531093271D02*
G75*
G02*
X377695319Y531093271I-400000J0D01*
G01*
X377695319Y531093271D02*
G75*
G02*
X378495319Y531093271I400000J0D01*
G01*
X93583000Y-192000D02*
G75*
G02*
X92783000Y-192000I-400000J0D01*
G01*
X92783000Y-192000D02*
G75*
G02*
X93583000Y-192000I400000J0D01*
G01*
X93575000Y-1442000D02*
G75*
G02*
X92775000Y-1442000I-400000J0D01*
G01*
X92775000Y-1442000D02*
G75*
G02*
X93575000Y-1442000I400000J0D01*
G01*
X362347719Y542011000D02*
X375043000Y533372000D01*
X631911000Y161042000D02*
G75*
G02*
X631111000Y161042000I-400000J0D01*
G01*
X631111000Y161042000D02*
G75*
G02*
X631911000Y161042000I400000J0D01*
G01*
X38594000Y90802000D02*
X38594000Y570004000D01*
X56391874Y121627955D02*
X38594000Y90801134D01*
X93824503Y186495768D02*
G75*
G02*
X95610782Y185596977I884197J-467168D01*
G01*
X380529319Y529633271D02*
G75*
G02*
X379729319Y529633271I-400000J0D01*
G01*
X379729319Y529633271D02*
G75*
G02*
X380529319Y529633271I400000J0D01*
G01*
X648595000Y66055000D02*
G75*
G02*
X646654000Y66054987I-970500J0D01*
G01*
X633602998Y13922000D02*
X648593000Y39886000D01*
X253072000Y461115000D02*
G75*
G02*
X252272000Y461115000I-400000J0D01*
G01*
X252272000Y461115000D02*
G75*
G02*
X253072000Y461115000I400000J0D01*
G01*
X648593000Y39886000D02*
X648594000Y-39996000D01*
X268079998Y-12001999D02*
X334482998Y-12001999D01*
X376453319Y532539271D02*
G75*
G02*
X375653319Y532539271I-400000J0D01*
G01*
X375653319Y532539271D02*
G75*
G02*
X376453319Y532539271I400000J0D01*
G01*
X415430000Y-12002000D02*
G75*
G02*
X414630000Y-12002000I-400000J0D01*
G01*
X414630000Y-12002000D02*
G75*
G02*
X415430000Y-12002000I400000J0D01*
G01*
X433443081Y487072506D02*
G75*
G02*
X432026962Y485644967I-652781J-768606D01*
G01*
X207908000Y382858000D02*
G75*
G02*
X207108000Y382858000I-400000J0D01*
G01*
X207108000Y382858000D02*
G75*
G02*
X207908000Y382858000I400000J0D01*
G01*
X536330663Y367219999D02*
G75*
G02*
X538032170Y368222946I850737J501501D01*
G01*
X493079999Y-12002000D02*
G75*
G02*
X493079999Y-10002000I1J1000000D01*
G01*
X298724999Y537403000D02*
G75*
G02*
X297350197Y538463690I-594699J650500D01*
G01*
X187930000Y-12002000D02*
G75*
G02*
X187130000Y-12002000I-400000J0D01*
G01*
X187130000Y-12002000D02*
G75*
G02*
X187930000Y-12002000I400000J0D01*
G01*
M02*
