M48
; DRILL file {KiCad 7.0.7} date Tue Mar 26 17:45:32 2024
; FORMAT={-:-/ absolute / metric / decimal}
; #@! TF.CreationDate,2024-03-26T17:45:32+01:00
; #@! TF.GenerationSoftware,Kicad,Pcbnew,7.0.7
; #@! TF.FileFunction,MixedPlating,1,2
FMAT,2
METRIC
; #@! TA.AperFunction,Plated,PTH,ViaDrill
T1C0.400
; #@! TA.AperFunction,Plated,PTH,ComponentDrill
T2C0.400
; #@! TA.AperFunction,Plated,PTH,ComponentDrill
T3C3.500
; #@! TA.AperFunction,NonPlated,NPTH,ComponentDrill
T4C2.200
; #@! TA.AperFunction,NonPlated,NPTH,ComponentDrill
T5C3.200
; #@! TA.AperFunction,NonPlated,NPTH,ComponentDrill
T6C3.500
%
G90
G05
T1
X353.161Y-45.148
X353.191Y-46.571
X354.536Y-46.105
X354.566Y-47.527
X355.911Y-47.062
X355.941Y-48.484
X357.285Y-48.018
X357.316Y-49.441
X358.66Y-48.975
X358.691Y-50.397
X360.035Y-49.932
X360.066Y-51.354
X361.41Y-50.888
X361.441Y-52.311
X362.785Y-51.845
X362.816Y-53.267
X364.16Y-52.802
X364.191Y-54.224
X365.535Y-53.758
X365.566Y-55.181
X366.91Y-54.715
X366.941Y-56.137
X368.285Y-55.672
X368.316Y-57.094
X369.66Y-56.628
X369.691Y-58.051
X370.469Y-35.166
X370.644Y-33.886
X371.035Y-57.585
X371.065Y-59.007
X371.434Y-35.837
X371.609Y-34.557
X372.398Y-36.508
X372.41Y-58.542
X372.44Y-59.964
X372.573Y-35.228
X373.363Y-37.179
X373.538Y-35.9
X373.785Y-59.498
X373.815Y-60.921
X374.327Y-37.85
X374.502Y-36.571
X375.16Y-60.455
X375.19Y-61.877
X375.292Y-38.521
X375.467Y-37.242
X376.257Y-39.192
X376.431Y-37.913
X376.535Y-61.412
X376.565Y-62.834
X377.221Y-39.863
X377.396Y-38.584
X377.909Y-62.368
X377.94Y-63.791
X378.186Y-40.535
X378.36Y-39.255
X379.15Y-41.206
X379.284Y-63.325
X379.315Y-64.747
X379.325Y-39.926
X380.115Y-41.877
X380.289Y-40.597
X380.659Y-64.282
X380.69Y-65.704
X381.079Y-42.548
X381.254Y-41.268
X382.034Y-65.238
X382.044Y-43.219
X382.065Y-66.661
X382.218Y-41.939
X383.008Y-43.89
X383.183Y-42.61
X383.409Y-66.195
X383.44Y-67.617
X383.973Y-44.561
X384.147Y-43.282
X384.784Y-67.152
X384.815Y-68.574
X384.937Y-45.232
X385.112Y-43.953
X385.902Y-45.903
X386.076Y-44.624
X386.159Y-68.108
X386.19Y-69.531
X386.866Y-46.574
X387.041Y-45.295
X387.534Y-69.065
X387.565Y-70.487
X387.831Y-47.245
X388.005Y-45.966
X388.795Y-47.916
X388.909Y-70.022
X388.94Y-71.444
X388.97Y-46.637
X389.76Y-48.588
X389.934Y-47.308
X390.284Y-70.978
X390.314Y-72.401
X390.724Y-49.259
X390.899Y-47.979
X391.659Y-71.935
X391.689Y-49.93
X391.689Y-73.357
X391.863Y-48.65
X392.653Y-50.601
X392.828Y-49.321
X393.034Y-72.892
X393.064Y-74.314
X393.618Y-51.272
X393.792Y-49.992
X394.409Y-73.848
X394.439Y-75.27
X394.582Y-51.943
X394.757Y-50.663
X395.547Y-52.614
X395.721Y-51.335
X395.784Y-74.805
X395.814Y-76.227
X396.511Y-53.285
X396.686Y-52.006
X397.476Y-53.956
X397.65Y-52.677
X398.44Y-54.627
X398.615Y-53.348
X399.405Y-55.298
X399.579Y-54.019
X400.369Y-55.97
X400.544Y-54.69
X402.676Y-81.576
X402.785Y-80.157
X403.951Y-82.662
X404.059Y-81.244
X405.226Y-83.749
X405.334Y-82.33
X406.5Y-84.835
X406.609Y-83.417
X407.775Y-85.922
X407.884Y-84.503
X409.05Y-87.008
X409.159Y-85.59
X410.325Y-88.095
X410.433Y-86.676
X411.599Y-89.181
X411.708Y-87.763
X412.874Y-90.268
X412.983Y-88.85
X414.149Y-91.355
X414.258Y-89.936
X415.424Y-92.441
X415.532Y-91.023
X416.699Y-93.528
X416.807Y-92.109
X417.973Y-94.614
X418.082Y-93.196
X419.248Y-95.701
X419.357Y-94.282
X420.523Y-96.787
X420.631Y-95.369
X420.987Y-71.915
X421.286Y-70.659
X421.798Y-97.874
X421.881Y-72.677
X421.906Y-96.455
X422.18Y-71.421
X422.775Y-73.44
X423.072Y-98.96
X423.074Y-72.183
X423.181Y-97.542
X423.67Y-74.202
X423.968Y-72.946
X424.347Y-100.047
X424.456Y-98.628
X424.564Y-74.964
X424.863Y-73.708
X425.458Y-75.726
X425.622Y-101.134
X425.731Y-99.715
X425.757Y-74.47
X426.352Y-76.489
X426.651Y-75.232
X426.897Y-102.22
X427.005Y-100.802
X427.247Y-77.251
X427.545Y-75.994
X428.141Y-78.013
X428.171Y-103.307
X428.28Y-101.888
X428.44Y-76.757
X429.035Y-78.775
X429.334Y-77.519
X429.446Y-104.393
X429.555Y-102.975
X429.929Y-79.537
X430.228Y-78.281
X430.721Y-105.48
X430.824Y-80.3
X430.83Y-104.061
X431.122Y-79.043
X431.718Y-81.062
X431.996Y-106.566
X432.017Y-79.805
X432.104Y-105.148
X432.612Y-81.824
X432.911Y-80.568
X433.271Y-107.653
X433.379Y-106.234
X433.506Y-82.586
X433.805Y-81.33
X434.4Y-83.348
X434.545Y-108.739
X434.654Y-107.321
X434.699Y-82.092
X435.295Y-84.111
X435.594Y-82.854
X435.82Y-109.826
X435.929Y-108.407
X436.189Y-84.873
X436.488Y-83.616
X437.083Y-85.635
X437.095Y-110.912
X437.203Y-109.494
X437.382Y-84.379
X437.977Y-86.397
X438.276Y-85.141
X438.37Y-111.999
X438.478Y-110.581
X438.872Y-87.159
X439.171Y-85.903
X439.644Y-113.086
X439.753Y-111.667
X439.766Y-87.922
X440.065Y-86.665
X440.66Y-88.684
X440.919Y-114.172
X440.959Y-87.427
X441.028Y-112.754
X441.554Y-89.446
X441.853Y-88.19
X442.194Y-115.259
X442.303Y-113.84
X442.449Y-90.208
X442.748Y-88.952
X443.343Y-90.97
X443.642Y-89.714
X444.237Y-91.733
X444.536Y-90.476
X445.131Y-92.495
X445.43Y-91.239
X446.026Y-93.257
X446.324Y-92.001
X446.92Y-94.019
X447.219Y-92.763
X447.814Y-94.781
X448.113Y-93.525
X448.508Y-121.246
X448.708Y-95.544
X448.755Y-119.845
X449.007Y-94.287
X449.671Y-122.452
X449.917Y-121.051
X450.834Y-123.657
X451.08Y-122.256
X451.997Y-124.863
X452.243Y-123.462
X453.16Y-126.068
X453.406Y-124.667
X454.322Y-127.274
X454.569Y-125.873
X455.485Y-128.48
X455.732Y-127.079
X456.648Y-129.685
X456.894Y-128.284
X457.811Y-130.891
X458.057Y-129.49
X458.974Y-132.096
X459.22Y-130.695
X460.136Y-133.302
X460.383Y-131.901
X461.299Y-134.508
X461.546Y-133.107
X462.462Y-135.713
X462.708Y-134.312
X463.625Y-136.919
X463.871Y-135.518
X464.788Y-138.124
X465.034Y-136.723
X465.951Y-139.33
X466.197Y-137.929
X467.113Y-140.536
X467.36Y-139.135
X467.673Y-113.416
X468.093Y-112.195
X468.276Y-141.741
X468.489Y-114.262
X468.523Y-140.34
X468.909Y-113.041
X469.305Y-115.107
X469.439Y-142.947
X469.685Y-141.546
X469.725Y-113.886
X470.12Y-115.953
X470.54Y-114.732
X470.602Y-144.152
X470.848Y-142.751
X470.936Y-116.799
X471.356Y-115.578
X471.752Y-117.645
X471.765Y-145.358
X472.011Y-143.957
X472.172Y-116.423
X472.568Y-118.49
X472.928Y-146.564
X472.987Y-117.269
X473.174Y-145.163
X473.383Y-119.336
X473.803Y-118.115
X474.09Y-147.769
X474.199Y-120.182
X474.337Y-146.368
X474.619Y-118.961
X475.015Y-121.028
X475.253Y-148.975
X475.435Y-119.806
X475.499Y-147.574
X475.83Y-121.873
X476.25Y-120.652
X476.416Y-150.18
X476.646Y-122.719
X476.662Y-148.779
X477.066Y-121.498
X477.462Y-123.565
X477.579Y-151.386
X477.825Y-149.985
X477.882Y-122.343
X478.277Y-124.41
X478.697Y-123.189
X478.742Y-152.592
X478.988Y-151.191
X479.093Y-125.256
X479.513Y-124.035
X479.904Y-153.797
X479.909Y-126.102
X480.151Y-152.396
X480.329Y-124.881
X480.725Y-126.948
X481.067Y-155.003
X481.144Y-125.726
X481.314Y-153.602
X481.54Y-127.793
X481.96Y-126.572
X482.23Y-156.208
X482.356Y-128.639
X482.476Y-154.807
X482.776Y-127.418
X483.172Y-129.485
X483.393Y-157.414
X483.592Y-128.263
X483.639Y-156.013
X483.987Y-130.33
X484.407Y-129.109
X484.556Y-158.62
X484.802Y-157.219
X484.803Y-131.176
X485.223Y-129.955
X485.619Y-132.022
X486.039Y-130.801
X486.435Y-132.868
X486.854Y-131.646
X487.25Y-133.713
X487.67Y-132.492
X488.066Y-134.559
X488.486Y-133.338
X488.882Y-135.405
X489.302Y-134.184
X489.697Y-136.25
X490.117Y-135.029
X490.249Y-165.202
X490.513Y-137.096
X490.631Y-163.832
X490.933Y-135.875
X491.288Y-166.516
X491.329Y-137.942
X491.67Y-165.145
X491.749Y-136.721
X492.145Y-138.788
X492.328Y-167.829
X492.564Y-137.566
X492.71Y-166.459
X492.96Y-139.633
X493.368Y-169.143
X493.38Y-138.412
X493.75Y-167.772
X494.407Y-170.456
X494.789Y-169.085
X495.447Y-171.769
X495.829Y-170.399
X496.486Y-173.083
X496.868Y-171.712
X497.526Y-174.396
X497.908Y-173.026
X498.565Y-175.709
X498.947Y-174.339
X499.605Y-177.023
X499.987Y-175.652
X500.645Y-178.336
X501.027Y-176.966
X501.684Y-179.649
X502.066Y-178.279
X502.724Y-180.963
X503.106Y-179.592
X503.763Y-182.276
X504.145Y-180.906
X504.803Y-183.59
X505.185Y-182.219
X505.842Y-184.903
X506.224Y-183.532
X506.882Y-186.216
X507.264Y-184.846
X507.922Y-187.53
X508.304Y-186.159
X508.961Y-188.843
X509.343Y-187.473
X510.001Y-190.156
X510.087Y-159.281
X510.383Y-188.786
X510.624Y-158.106
X510.816Y-160.202
X511.04Y-191.47
X511.353Y-159.028
X511.422Y-190.099
X511.545Y-161.123
X512.08Y-192.783
X512.082Y-159.949
X512.275Y-162.045
X512.462Y-191.413
X512.812Y-160.87
X513.004Y-162.966
X513.119Y-194.096
X513.501Y-192.726
X513.541Y-161.792
X513.733Y-163.887
X514.159Y-195.41
X514.27Y-162.713
X514.462Y-164.809
X514.541Y-194.039
X514.999Y-163.634
X515.192Y-165.73
X515.199Y-196.723
X515.58Y-195.353
X515.729Y-164.556
X515.921Y-166.651
X516.238Y-198.037
X516.458Y-165.477
X516.62Y-196.666
X516.65Y-167.573
X517.187Y-166.398
X517.278Y-199.35
X517.379Y-168.494
X517.66Y-197.979
X517.916Y-167.32
X518.109Y-169.415
X518.317Y-200.663
X518.646Y-168.241
X518.699Y-199.293
X518.838Y-170.337
X519.357Y-201.977
X519.375Y-169.162
X519.567Y-171.258
X519.739Y-200.606
X520.104Y-170.084
X520.296Y-172.179
X520.396Y-203.29
X520.778Y-201.92
X520.833Y-171.005
X521.026Y-173.101
X521.436Y-204.603
X521.563Y-171.926
X521.755Y-174.022
X521.818Y-203.233
X522.292Y-172.847
X522.476Y-205.917
X522.484Y-174.943
X522.857Y-204.546
X523.021Y-173.769
X523.213Y-175.865
X523.75Y-174.69
X523.943Y-176.786
X524.48Y-175.611
X524.672Y-177.707
X525.209Y-176.533
X525.401Y-178.628
X525.938Y-177.454
X526.13Y-179.55
X526.667Y-178.375
X526.86Y-180.471
X527.397Y-179.297
X527.505Y-213.015
X527.589Y-181.392
X528.019Y-211.688
X528.126Y-180.218
X528.318Y-182.314
X528.412Y-214.424
X528.855Y-181.139
X528.926Y-213.097
X529.047Y-183.235
X529.318Y-215.832
X529.584Y-182.061
X529.777Y-184.156
X529.832Y-214.506
X530.225Y-217.241
X530.314Y-182.982
X530.506Y-185.078
X530.739Y-215.914
X531.043Y-183.903
X531.131Y-218.649
X531.235Y-185.999
X531.645Y-217.323
X531.772Y-184.825
X531.964Y-186.92
X532.038Y-220.058
X532.501Y-185.746
X532.551Y-218.731
X532.694Y-187.842
X532.944Y-221.466
X533.231Y-186.667
X533.458Y-220.14
X533.851Y-222.875
X534.364Y-221.548
X534.757Y-224.283
X535.271Y-222.957
X535.663Y-225.692
X536.177Y-224.365
X536.57Y-227.1
X537.084Y-225.774
X537.476Y-228.509
X537.99Y-227.182
X538.383Y-229.917
X538.897Y-228.591
X539.289Y-231.326
X539.803Y-229.999
X540.196Y-232.735
X540.71Y-231.408
X541.102Y-234.143
X541.616Y-232.816
X542.009Y-235.552
X542.522Y-234.225
X542.915Y-236.96
X543.429Y-235.634
X543.822Y-238.369
X544.335Y-237.042
X544.728Y-239.777
X545.242Y-238.451
X545.634Y-241.186
X546.148Y-239.859
X546.541Y-242.594
X547.055Y-241.268
X547.447Y-244.003
X547.826Y-209.057
X547.961Y-242.676
X548.354Y-245.411
X548.462Y-210.046
X548.476Y-207.941
X548.868Y-244.085
X549.098Y-211.034
X549.111Y-208.929
X549.26Y-246.82
X549.734Y-212.022
X549.747Y-209.917
X549.774Y-245.493
X550.167Y-248.228
X550.37Y-213.01
X550.383Y-210.905
X550.681Y-246.902
X551.006Y-213.998
X551.019Y-211.893
X551.073Y-249.637
X551.587Y-248.31
X551.642Y-214.986
X551.655Y-212.881
X551.98Y-251.045
X552.278Y-215.974
X552.291Y-213.87
X552.493Y-249.719
X552.886Y-252.454
X552.913Y-216.962
X552.927Y-214.858
X553.4Y-251.127
X553.549Y-217.95
X553.563Y-215.846
X553.793Y-253.863
X554.185Y-218.938
X554.198Y-216.834
X554.306Y-252.536
X554.699Y-255.271
X554.821Y-219.926
X554.834Y-217.822
X555.213Y-253.944
X555.457Y-220.914
X555.47Y-218.81
X555.605Y-256.68
X556.093Y-221.902
X556.106Y-219.798
X556.119Y-255.353
X556.729Y-222.891
X556.742Y-220.786
X557.364Y-223.879
X557.378Y-221.774
X558.0Y-224.867
X558.014Y-222.762
X558.636Y-225.855
X558.649Y-223.75
X559.272Y-226.843
X559.285Y-224.738
X559.531Y-263.552
X559.908Y-227.831
X559.921Y-225.726
X560.17Y-262.281
X560.297Y-265.041
X560.544Y-228.819
X560.557Y-226.715
X560.936Y-263.77
X561.063Y-266.53
X561.18Y-229.807
X561.193Y-227.703
X561.703Y-265.26
X561.816Y-230.795
X561.829Y-228.691
X561.83Y-268.02
X562.451Y-231.783
X562.465Y-229.679
X562.469Y-266.749
X562.596Y-269.509
X563.087Y-232.771
X563.101Y-230.667
X563.235Y-268.238
X563.363Y-270.999
X563.723Y-233.759
X563.736Y-231.655
X564.002Y-269.728
X564.129Y-272.488
X564.359Y-234.747
X564.372Y-232.643
X564.768Y-271.217
X564.895Y-273.977
X564.995Y-235.735
X565.008Y-233.631
X565.535Y-272.706
X565.631Y-236.724
X565.644Y-234.619
X565.662Y-275.467
X566.267Y-237.712
X566.28Y-235.607
X566.301Y-274.196
X566.428Y-276.956
X566.903Y-238.7
X566.916Y-236.595
X567.068Y-275.685
X567.195Y-278.445
X567.538Y-239.688
X567.552Y-237.583
X567.834Y-277.175
X567.961Y-279.935
X568.187Y-238.571
X568.6Y-278.664
X568.727Y-281.424
X569.367Y-280.153
X569.494Y-282.914
X570.133Y-281.643
X570.26Y-284.403
X570.9Y-283.132
X571.027Y-285.892
X571.666Y-284.621
X571.793Y-287.382
X572.432Y-286.111
X572.559Y-288.871
X573.199Y-287.6
X573.326Y-290.36
X573.965Y-289.09
X574.092Y-291.85
X574.732Y-290.579
X574.859Y-293.339
X575.498Y-292.068
X575.625Y-294.829
X576.264Y-293.558
X576.391Y-296.318
X577.031Y-295.047
X577.158Y-297.807
X577.797Y-296.536
X577.924Y-299.297
X578.564Y-298.026
X578.691Y-300.786
X579.33Y-299.515
X579.457Y-302.275
X580.096Y-301.005
X580.138Y-261.572
X580.224Y-303.765
X580.676Y-262.617
X580.863Y-302.494
X580.892Y-260.523
X580.99Y-305.254
X581.214Y-263.662
X581.43Y-261.568
X581.629Y-303.983
X581.751Y-264.706
X581.756Y-306.744
X581.967Y-262.613
X582.289Y-265.751
X582.396Y-305.473
X582.505Y-263.658
X582.523Y-308.233
X582.827Y-266.796
X583.043Y-264.703
X583.162Y-306.962
X583.289Y-309.722
X583.364Y-267.841
X583.58Y-265.747
X583.902Y-268.885
X583.929Y-308.451
X584.118Y-266.792
X584.439Y-269.93
X584.656Y-267.837
X584.977Y-270.975
X585.193Y-268.882
X585.515Y-272.02
X585.731Y-269.926
X586.052Y-273.065
X586.268Y-270.971
X586.59Y-274.109
X586.806Y-272.016
X586.853Y-317.668
X587.128Y-275.154
X587.344Y-273.061
X587.471Y-319.225
X587.613Y-316.465
X587.665Y-276.199
X587.881Y-274.106
X588.088Y-320.782
X588.203Y-277.244
X588.231Y-318.022
X588.419Y-275.15
X588.706Y-322.339
X588.741Y-278.289
X588.848Y-319.579
X588.957Y-276.195
X589.278Y-279.333
X589.324Y-323.896
X589.466Y-321.136
X589.494Y-277.24
X589.816Y-280.378
X589.941Y-325.452
X590.032Y-278.285
X590.084Y-322.693
X590.353Y-281.423
X590.559Y-327.009
X590.57Y-279.33
X590.701Y-324.25
X590.891Y-282.468
X591.107Y-280.374
X591.177Y-328.566
X591.319Y-325.807
X591.429Y-283.512
X591.645Y-281.419
X591.795Y-330.123
X591.937Y-327.364
X591.966Y-284.557
X592.182Y-282.464
X592.412Y-331.68
X592.504Y-285.602
X592.555Y-328.921
X592.72Y-283.509
X593.03Y-333.237
X593.042Y-286.647
X593.172Y-330.478
X593.258Y-284.553
X593.579Y-287.692
X593.648Y-334.794
X593.79Y-332.035
X593.795Y-285.598
X594.117Y-288.736
X594.265Y-336.351
X594.333Y-286.643
X594.408Y-333.592
X594.654Y-289.781
X594.871Y-287.688
X594.883Y-337.908
X595.025Y-335.149
X595.192Y-290.826
X595.408Y-288.733
X595.501Y-339.465
X595.643Y-336.705
X595.73Y-291.871
X595.946Y-289.777
X596.118Y-341.022
X596.261Y-338.262
X596.267Y-292.916
X596.483Y-290.822
X596.736Y-342.579
X596.805Y-293.96
X596.879Y-339.819
X597.021Y-291.867
X597.354Y-344.136
X597.496Y-341.376
X597.559Y-292.912
X597.972Y-345.693
X598.114Y-342.933
X598.589Y-347.25
X598.732Y-344.49
X599.207Y-348.807
X599.349Y-346.047
X599.825Y-350.364
X599.967Y-347.604
X600.442Y-351.92
X600.585Y-349.161
X601.06Y-353.477
X601.203Y-350.718
X601.678Y-355.034
X601.82Y-352.275
X602.296Y-356.591
X602.438Y-353.832
X602.913Y-358.148
X603.056Y-355.389
X603.531Y-359.705
X603.673Y-356.946
X604.149Y-361.262
X604.291Y-358.503
X604.766Y-362.819
X604.909Y-360.06
X605.384Y-364.376
X605.526Y-361.616
X606.002Y-365.933
X606.144Y-363.173
X606.762Y-364.73
X607.556Y-317.705
X607.989Y-318.797
X608.408Y-316.734
X608.422Y-319.889
X608.772Y-374.173
X608.841Y-317.827
X608.856Y-320.981
X609.235Y-375.783
X609.275Y-318.919
X609.289Y-322.073
X609.646Y-373.05
X609.698Y-377.393
X609.708Y-320.011
X609.722Y-323.166
X610.109Y-374.66
X610.141Y-321.103
X610.156Y-324.258
X610.16Y-379.003
X610.572Y-376.27
X610.575Y-322.195
X610.589Y-325.35
X610.623Y-380.612
X611.008Y-323.288
X611.022Y-326.442
X611.034Y-377.88
X611.086Y-382.222
X611.441Y-324.38
X611.455Y-327.534
X611.497Y-379.49
X611.548Y-383.832
X611.874Y-325.472
X611.889Y-328.626
X611.96Y-381.1
X612.011Y-385.442
X612.308Y-326.564
X612.322Y-329.719
X612.422Y-382.709
X612.474Y-387.052
X612.741Y-327.656
X612.755Y-330.811
X612.885Y-384.319
X612.936Y-388.662
X613.174Y-328.748
X613.189Y-331.903
X613.348Y-385.929
X613.399Y-390.271
X613.608Y-329.841
X613.622Y-332.995
X613.81Y-387.539
X613.862Y-391.881
X614.041Y-330.933
X614.055Y-334.087
X614.273Y-389.149
X614.324Y-393.491
X614.474Y-332.025
X614.489Y-335.18
X614.736Y-390.759
X614.787Y-395.101
X614.908Y-333.117
X614.922Y-336.272
X615.198Y-392.368
X615.25Y-396.711
X615.341Y-334.209
X615.355Y-337.364
X615.661Y-393.978
X615.712Y-398.321
X615.774Y-335.302
X615.789Y-338.456
X616.124Y-395.588
X616.175Y-399.93
X616.208Y-336.394
X616.222Y-339.548
X616.586Y-397.198
X616.638Y-401.54
X616.641Y-337.486
X616.655Y-340.64
X617.049Y-398.808
X617.074Y-338.578
X617.089Y-341.733
X617.1Y-403.15
X617.508Y-339.67
X617.512Y-400.418
X617.522Y-342.825
X617.563Y-404.76
X617.941Y-340.762
X617.955Y-343.917
X617.974Y-402.027
X618.026Y-406.37
X618.374Y-341.855
X618.389Y-345.009
X618.437Y-403.637
X618.488Y-407.98
X618.808Y-342.947
X618.822Y-346.101
X618.9Y-405.247
X618.951Y-409.589
X619.241Y-344.039
X619.255Y-347.194
X619.362Y-406.857
X619.414Y-411.199
X619.674Y-345.131
X619.689Y-348.286
X619.825Y-408.467
X619.877Y-412.809
X620.107Y-346.223
X620.122Y-349.378
X620.288Y-410.077
X620.339Y-414.419
X620.541Y-347.316
X620.555Y-350.47
X620.75Y-411.686
X620.802Y-416.029
X620.974Y-348.408
X620.988Y-351.562
X621.213Y-413.296
X621.265Y-417.638
X621.407Y-349.5
X621.676Y-414.906
X621.727Y-419.248
X621.841Y-350.592
X622.138Y-416.516
X622.19Y-420.858
X622.601Y-418.126
X622.653Y-422.468
X623.064Y-419.736
X623.115Y-424.078
X623.527Y-421.345
X623.989Y-422.955
X625.072Y-432.558
X625.376Y-434.205
X625.679Y-435.852
X625.982Y-437.5
X626.052Y-431.526
X626.286Y-439.147
X626.355Y-433.173
X626.589Y-440.794
X626.658Y-434.82
X626.893Y-442.442
X626.962Y-436.468
X627.196Y-444.089
X627.265Y-438.115
X627.499Y-445.736
X627.568Y-439.762
X627.803Y-447.383
X627.872Y-441.41
X628.106Y-449.031
X628.175Y-443.057
X628.41Y-450.678
X628.479Y-444.704
X628.713Y-452.325
X628.782Y-446.351
X629.016Y-453.973
X629.085Y-447.999
X629.32Y-455.62
X629.372Y-376.232
X629.389Y-449.646
X629.623Y-457.267
X629.692Y-451.293
X629.697Y-377.361
X629.927Y-458.914
X629.996Y-452.941
X630.022Y-378.49
X630.23Y-460.562
X630.299Y-454.588
X630.315Y-375.35
X630.346Y-379.62
X630.533Y-462.209
X630.602Y-456.235
X630.64Y-376.479
X630.671Y-380.749
X630.837Y-463.856
X630.906Y-457.883
X630.965Y-377.608
X630.995Y-381.878
X631.14Y-465.504
X631.209Y-459.53
X631.289Y-378.737
X631.32Y-383.008
X631.444Y-467.151
X631.513Y-461.177
X631.614Y-379.867
X631.644Y-384.137
X631.747Y-468.798
X631.816Y-462.824
X631.938Y-380.996
X631.969Y-385.266
X632.05Y-470.446
X632.119Y-464.472
X632.263Y-382.125
X632.294Y-386.395
X632.354Y-472.093
X632.423Y-466.119
X632.587Y-383.255
X632.618Y-387.525
X632.657Y-473.74
X632.726Y-467.766
X632.912Y-384.384
X632.943Y-388.654
X632.961Y-475.387
X633.03Y-469.414
X633.236Y-385.513
X633.264Y-477.035
X633.267Y-389.783
X633.333Y-471.061
X633.561Y-386.642
X633.567Y-478.682
X633.592Y-390.913
X633.636Y-472.708
X633.871Y-480.329
X633.886Y-387.772
X633.916Y-392.042
X633.94Y-474.355
X634.174Y-481.977
X634.21Y-388.901
X634.241Y-393.171
X634.243Y-476.003
X634.478Y-483.624
X634.535Y-390.03
X634.547Y-477.65
X634.565Y-394.3
X634.85Y-479.297
X634.859Y-391.16
X634.89Y-395.43
X635.153Y-480.945
X635.184Y-392.289
X635.215Y-396.559
X635.457Y-482.592
X635.508Y-393.418
X635.539Y-397.688
X635.595Y-492.256
X635.736Y-493.925
X635.833Y-394.547
X635.864Y-398.818
X635.877Y-495.594
X636.018Y-497.263
X636.158Y-395.677
X636.159Y-498.932
X636.188Y-399.947
X636.301Y-500.601
X636.442Y-502.27
X636.482Y-396.806
X636.513Y-401.076
X636.583Y-503.94
X636.67Y-491.325
X636.724Y-505.609
X636.807Y-397.935
X636.811Y-492.994
X636.837Y-402.205
X636.865Y-507.278
X636.952Y-494.663
X637.007Y-508.947
X637.093Y-496.332
X637.131Y-399.065
X637.148Y-510.616
X637.162Y-403.335
X637.235Y-498.001
X637.289Y-512.285
X637.376Y-499.67
X637.43Y-513.954
X637.456Y-400.194
X637.487Y-404.464
X637.517Y-501.339
X637.571Y-515.623
X637.658Y-503.008
X637.713Y-517.292
X637.78Y-401.323
X637.799Y-504.677
X637.811Y-405.593
X637.854Y-518.961
X637.941Y-506.346
X637.995Y-520.63
X638.082Y-508.015
X638.105Y-402.452
X638.136Y-406.723
X638.136Y-522.299
X638.223Y-509.684
X638.277Y-523.968
X638.364Y-511.353
X638.419Y-525.637
X638.43Y-403.582
X638.46Y-407.852
X638.505Y-513.022
X638.56Y-527.306
X638.647Y-514.691
X638.701Y-528.975
X638.754Y-404.711
X638.785Y-408.981
X638.788Y-516.36
X638.842Y-530.644
X638.929Y-518.029
X638.983Y-532.313
X639.07Y-519.698
X639.079Y-405.84
X639.109Y-410.11
X639.125Y-533.982
X639.211Y-521.367
X639.266Y-535.651
X639.353Y-523.037
X639.403Y-406.97
X639.407Y-537.32
X639.434Y-411.24
X639.494Y-524.706
X639.548Y-538.989
X639.635Y-526.375
X639.689Y-540.658
X639.728Y-408.099
X639.776Y-528.044
X639.831Y-542.327
X639.917Y-529.713
X639.972Y-543.996
X640.052Y-409.228
X640.059Y-531.382
X640.2Y-533.051
X640.341Y-534.72
X640.377Y-410.357
X640.482Y-536.389
X640.623Y-538.058
X640.765Y-539.727
X640.906Y-541.396
X641.047Y-543.065
X645.373Y-436.617
X645.586Y-437.772
X645.799Y-438.928
X646.012Y-440.083
X646.225Y-441.239
X646.398Y-435.831
X646.437Y-442.395
X646.611Y-436.986
X646.65Y-443.55
X646.823Y-438.142
X646.863Y-444.706
X647.036Y-439.297
X647.076Y-445.861
X647.249Y-440.453
X647.289Y-447.017
X647.462Y-441.608
X647.502Y-448.172
X647.675Y-442.764
X647.714Y-449.328
X647.888Y-443.92
X647.927Y-450.484
X648.1Y-445.075
X648.14Y-451.639
X648.313Y-446.231
X648.353Y-452.795
X648.526Y-447.386
X648.566Y-453.95
X648.739Y-448.542
X648.779Y-455.106
X648.952Y-449.697
X648.991Y-456.261
X649.165Y-450.853
X649.204Y-457.417
X649.377Y-452.009
X649.417Y-458.572
X649.59Y-453.164
X649.63Y-459.728
X649.803Y-454.32
X649.843Y-460.884
X650.016Y-455.475
X650.056Y-462.039
X650.229Y-456.631
X650.268Y-463.195
X650.442Y-457.786
X650.481Y-464.35
X650.654Y-458.942
X650.694Y-465.506
X650.867Y-460.098
X650.907Y-466.661
X651.08Y-461.253
X651.12Y-467.817
X651.293Y-462.409
X651.332Y-468.973
X651.506Y-463.564
X651.545Y-470.128
X651.719Y-464.72
X651.758Y-471.284
X651.931Y-465.875
X651.971Y-472.439
X652.144Y-467.031
X652.357Y-468.186
X652.57Y-469.342
X652.783Y-470.498
X652.996Y-471.653
X655.403Y-498.277
X655.502Y-499.448
X655.601Y-500.619
X655.7Y-501.789
X655.799Y-502.96
X655.898Y-504.131
X655.997Y-505.302
X656.096Y-506.473
X656.195Y-507.643
X656.294Y-508.814
X656.393Y-509.985
X656.492Y-511.156
X656.499Y-497.595
X656.591Y-512.327
X656.598Y-498.765
X656.69Y-513.498
X656.697Y-499.936
X656.789Y-514.668
X656.796Y-501.107
X656.888Y-515.839
X656.895Y-502.278
X656.987Y-517.01
X656.994Y-503.449
X657.086Y-518.181
X657.093Y-504.619
X657.185Y-519.352
X657.192Y-505.79
X657.285Y-520.522
X657.291Y-506.961
X657.384Y-521.693
X657.39Y-508.132
X657.483Y-522.864
X657.489Y-509.303
X657.582Y-524.035
X657.589Y-510.474
X657.681Y-525.206
X657.688Y-511.644
X657.78Y-526.377
X657.787Y-512.815
X657.879Y-527.547
X657.886Y-513.986
X657.978Y-528.718
X657.985Y-515.157
X658.077Y-529.889
X658.084Y-516.328
X658.176Y-531.06
X658.183Y-517.498
X658.275Y-532.231
X658.282Y-518.669
X658.374Y-533.401
X658.381Y-519.84
X658.473Y-534.572
X658.48Y-521.011
X658.579Y-522.182
X658.678Y-523.353
X658.777Y-524.523
X658.876Y-525.694
X658.975Y-526.865
X659.074Y-528.036
X659.173Y-529.207
X659.272Y-530.377
X659.371Y-531.548
X659.47Y-532.719
X659.57Y-533.89
T2
X90.181Y-471.783
X95.392Y-461.474
X100.241Y-479.815
X101.123Y-451.544
X104.639Y-468.521
X106.852Y-441.619
X109.389Y-488.873
X110.466Y-458.516
X112.579Y-431.697
X113.231Y-476.353
X116.276Y-448.526
X117.52Y-498.853
X118.304Y-421.779
X119.213Y-466.224
X121.101Y-484.91
X122.072Y-438.548
X124.027Y-411.863
X124.542Y-509.643
X125.153Y-456.124
X127.306Y-474.615
X127.857Y-428.578
X128.189Y-494.126
X129.75Y-401.949
X130.375Y-521.119
X131.06Y-446.048
X133.433Y-464.369
X133.632Y-418.617
X134.439Y-503.929
X134.691Y-483.636
X134.952Y-533.151
X135.471Y-392.036
X136.941Y-435.993
X138.223Y-545.602
X139.401Y-408.663
X139.499Y-454.162
X139.804Y-514.243
X140.149Y-558.33
X141.068Y-473.213
X141.192Y-382.126
X141.32Y-493.225
X142.8Y-425.954
X144.241Y-524.989
X145.163Y-398.714
X145.517Y-443.989
X146.911Y-372.216
X147.148Y-503.321
X147.347Y-462.849
X147.716Y-536.083
X148.015Y-482.608
X148.642Y-415.93
X150.203Y-547.44
X150.92Y-388.77
X151.496Y-433.846
X151.682Y-558.972
X152.139Y-513.857
X152.631Y-362.308
X153.547Y-452.534
X154.234Y-492.5
X154.469Y-405.919
X154.564Y-472.066
X156.258Y-524.763
X156.672Y-378.831
X157.442Y-423.727
X158.35Y-352.4
X159.479Y-535.967
X159.685Y-442.261
X159.691Y-502.832
X160.284Y-395.918
X160.997Y-461.589
X161.116Y-481.768
X161.781Y-547.396
X162.421Y-368.895
X163.147Y-558.973
X163.362Y-413.629
X164.068Y-342.494
X164.353Y-513.546
X165.771Y-432.025
X166.089Y-385.927
X166.969Y-491.906
X167.337Y-451.168
X167.834Y-471.115
X168.167Y-358.962
X168.196Y-524.58
X169.259Y-403.549
X169.786Y-332.588
X171.196Y-535.873
X171.813Y-421.82
X171.885Y-375.943
X172.095Y-502.431
X173.338Y-547.359
X173.599Y-440.796
X173.909Y-349.032
X174.029Y-481.071
X174.421Y-460.532
X174.607Y-558.974
X175.138Y-393.486
X175.504Y-322.683
X176.469Y-513.29
X177.673Y-365.967
X177.82Y-411.643
X179.554Y-491.414
X179.65Y-339.105
X179.797Y-430.467
X180.068Y-524.43
X180.9Y-450.011
X180.912Y-470.318
X181.0Y-383.436
X181.222Y-312.778
X182.876Y-535.795
X183.454Y-355.997
X183.796Y-401.489
X184.385Y-502.098
X184.877Y-547.329
X185.388Y-329.18
X185.942Y-420.176
X186.063Y-558.976
X186.783Y-480.487
X186.848Y-373.399
X186.939Y-302.874
X187.29Y-439.544
X187.65Y-459.638
X188.502Y-513.078
X189.23Y-346.032
X189.746Y-391.357
X191.125Y-319.257
X191.887Y-524.304
X192.012Y-491.001
X192.042Y-409.917
X192.656Y-292.97
X192.685Y-363.373
X193.604Y-429.125
X193.824Y-469.643
X194.267Y-449.022
X194.524Y-535.73
X195.001Y-336.072
X195.674Y-381.244
X196.403Y-547.304
X196.58Y-501.819
X196.859Y-309.336
X197.515Y-558.977
X198.103Y-399.688
X198.373Y-283.067
X198.51Y-353.356
X199.401Y-479.992
X199.855Y-418.748
X200.468Y-512.899
X200.708Y-458.873
X200.767Y-326.117
X200.784Y-438.465
X201.583Y-371.147
X202.592Y-299.416
X203.661Y-524.199
X204.089Y-273.164
X204.131Y-389.484
X204.327Y-343.348
X204.364Y-490.651
X206.052Y-408.409
X206.147Y-535.675
X206.53Y-316.166
X206.593Y-469.066
X207.215Y-427.96
X207.461Y-448.171
X207.474Y-361.065
X207.918Y-547.283
X208.324Y-289.498
X208.693Y-501.581
X208.965Y-558.978
X209.806Y-263.261
X210.131Y-379.304
X210.135Y-333.348
X211.903Y-479.569
X212.203Y-398.103
X212.289Y-306.218
X212.375Y-512.747
X213.351Y-350.996
X213.574Y-417.5
X213.619Y-458.214
X214.055Y-279.581
X214.104Y-437.529
X215.397Y-524.108
X215.522Y-253.359
X215.937Y-323.355
X216.105Y-369.144
X216.623Y-490.351
X217.749Y-535.627
X218.044Y-296.274
X218.313Y-387.828
X219.215Y-340.939
X219.238Y-468.568
X219.422Y-547.265
X219.785Y-269.665
X219.871Y-407.083
X220.412Y-558.98
X220.504Y-447.431
X220.652Y-426.942
X220.738Y-501.378
X221.238Y-243.457
X221.732Y-313.368
X222.058Y-359.002
X223.797Y-286.333
X224.234Y-512.616
X224.304Y-479.204
X224.388Y-377.579
X225.067Y-330.892
X225.513Y-259.751
X226.113Y-396.702
X226.4Y-457.643
X226.955Y-233.556
X227.102Y-524.031
X227.12Y-416.404
X227.27Y-436.711
X227.521Y-303.387
X227.991Y-348.877
X228.804Y-490.092
X229.333Y-535.587
X229.547Y-276.394
X230.433Y-367.354
X230.909Y-320.855
X230.919Y-547.249
X231.241Y-249.837
X231.775Y-468.137
X231.856Y-558.981
X232.309Y-386.355
X232.671Y-223.654
X232.723Y-501.202
X233.305Y-293.411
X233.413Y-446.786
X233.517Y-405.911
X233.907Y-338.767
X233.934Y-426.047
X235.295Y-266.457
X236.051Y-512.503
X236.452Y-357.152
X236.618Y-478.887
X236.742Y-310.827
X236.968Y-239.924
X238.386Y-213.753
X238.464Y-376.039
X238.78Y-523.963
X239.067Y-457.143
X239.084Y-283.439
X239.809Y-328.671
X239.853Y-395.458
X240.3Y-435.992
X240.509Y-415.435
X240.901Y-535.551
X240.916Y-489.867
X241.041Y-256.523
X242.409Y-547.235
X242.446Y-346.969
X242.566Y-300.807
X242.694Y-230.012
X243.3Y-558.982
X244.102Y-203.852
X244.218Y-467.759
X244.583Y-365.75
X244.657Y-501.049
X244.859Y-273.472
X245.696Y-318.587
X246.137Y-385.041
X246.204Y-446.218
X246.785Y-246.591
X247.008Y-404.87
X247.077Y-425.257
X247.833Y-512.404
X248.384Y-290.795
X248.419Y-336.804
X248.42Y-220.101
X248.856Y-478.61
X249.818Y-193.951
X250.435Y-523.904
X250.63Y-263.509
X250.67Y-355.486
X251.572Y-308.514
X251.634Y-456.704
X252.373Y-374.658
X252.457Y-535.52
X252.528Y-236.661
X252.968Y-489.67
X253.208Y-435.357
X253.438Y-394.347
X253.759Y-414.574
X253.894Y-547.223
X254.145Y-210.191
X254.194Y-280.788
X254.373Y-326.655
X254.742Y-558.983
X255.534Y-184.05
X256.398Y-253.55
X256.546Y-500.914
X256.578Y-467.427
X256.729Y-345.244
X257.437Y-298.451
X258.268Y-226.732
X258.568Y-364.306
X258.89Y-445.717
X259.582Y-512.317
X259.81Y-383.864
X259.869Y-200.281
X259.999Y-270.788
X260.096Y-424.555
X260.311Y-316.522
X260.358Y-403.941
X261.026Y-478.366
X261.249Y-174.15
X262.069Y-523.852
X262.163Y-243.593
X262.762Y-335.023
X263.291Y-288.398
X264.001Y-535.492
X264.008Y-216.805
X264.112Y-456.316
X264.727Y-353.98
X264.968Y-489.496
X265.373Y-547.212
X265.593Y-190.372
X265.798Y-260.794
X266.007Y-434.793
X266.129Y-373.416
X266.182Y-558.984
X266.233Y-306.402
X266.883Y-393.352
X266.883Y-413.807
X266.965Y-164.25
X267.925Y-233.64
X268.397Y-500.795
X268.773Y-324.821
X268.864Y-467.134
X269.137Y-278.354
X269.746Y-206.88
X270.852Y-343.68
X271.305Y-512.24
X271.316Y-180.463
X271.482Y-445.271
X271.592Y-250.804
X272.142Y-296.294
X272.402Y-363.001
X272.68Y-154.349
X273.003Y-423.929
X273.137Y-478.149
X273.343Y-382.804
X273.58Y-403.109
X273.684Y-223.69
X273.686Y-523.805
X274.763Y-314.637
X274.975Y-268.317
X275.482Y-196.956
X275.534Y-535.468
X276.511Y-455.971
X276.847Y-547.203
X276.922Y-489.342
X276.949Y-333.403
X277.039Y-170.555
X277.381Y-240.82
X277.622Y-558.985
X278.038Y-286.198
X278.396Y-144.449
X278.634Y-352.616
X278.709Y-434.29
X279.441Y-213.742
X279.746Y-372.294
X279.892Y-413.119
X280.199Y-392.457
X280.213Y-500.69
X280.736Y-304.468
X280.806Y-258.288
X281.085Y-466.872
X281.218Y-187.033
X282.761Y-160.648
X283.003Y-512.171
X283.019Y-323.148
X283.166Y-230.84
X283.923Y-276.113
X283.99Y-444.874
X284.111Y-134.549
X284.828Y-342.258
X285.195Y-203.797
X285.195Y-477.957
X285.287Y-523.764
X285.809Y-423.367
X286.097Y-361.818
X286.63Y-248.265
X286.687Y-402.36
X286.691Y-294.314
X286.747Y-381.847
X286.952Y-177.111
X287.06Y-535.446
X288.318Y-547.194
X288.484Y-150.741
X288.836Y-489.205
X288.839Y-455.663
X288.948Y-220.864
X289.06Y-558.986
X289.065Y-312.912
X289.797Y-266.037
X289.826Y-124.649
X290.948Y-193.854
X290.99Y-331.925
X291.322Y-433.839
X291.999Y-500.596
X292.403Y-351.375
X292.447Y-238.249
X292.632Y-284.173
X292.686Y-167.191
X292.798Y-412.5
X293.234Y-371.277
X293.247Y-466.639
X293.398Y-391.648
X294.205Y-140.834
X294.68Y-512.11
X294.725Y-210.891
X295.09Y-302.694
X295.542Y-114.75
X295.663Y-255.97
X296.423Y-444.517
X296.698Y-183.913
X296.874Y-523.727
X297.121Y-321.616
X297.207Y-477.785
X298.259Y-228.238
X298.418Y-157.271
X298.524Y-422.863
X298.559Y-274.045
X298.577Y-535.426
X298.668Y-340.96
X299.664Y-360.743
X299.688Y-401.684
X299.786Y-547.187
X299.927Y-130.928
X300.034Y-380.98
X300.498Y-558.987
X300.5Y-200.922
X300.713Y-489.082
X301.095Y-292.492
X301.104Y-455.387
X301.257Y-104.85
X301.519Y-245.912
X302.447Y-173.974
X303.225Y-311.329
X303.758Y-500.512
X303.856Y-433.433
X304.066Y-218.233
X304.15Y-147.353
X304.473Y-263.929
X304.895Y-330.574
X305.357Y-466.43
X305.61Y-411.941
X305.648Y-121.022
X306.045Y-350.243
X306.271Y-190.957
X306.339Y-512.055
X306.489Y-390.916
X306.603Y-370.353
X306.972Y-94.95
X307.083Y-282.306
X307.368Y-235.861
X308.194Y-164.037
X308.45Y-523.694
X308.788Y-444.197
X309.177Y-477.631
X309.305Y-301.062
X309.868Y-208.233
X309.881Y-137.435
X310.088Y-535.408
X310.376Y-253.823
X311.089Y-320.212
X311.156Y-422.407
X311.25Y-547.18
X311.368Y-111.116
X311.935Y-558.988
X312.04Y-180.994
X312.38Y-339.774
X312.558Y-488.972
X312.593Y-401.071
X312.687Y-85.051
X313.054Y-272.135
X313.113Y-359.763
X313.21Y-225.818
X313.212Y-380.192
X313.312Y-455.138
X313.94Y-154.102
X315.362Y-290.813
X315.494Y-500.436
X315.611Y-127.518
X315.665Y-198.238
X316.269Y-243.727
X316.319Y-433.067
X317.089Y-101.211
X317.253Y-309.874
X317.421Y-466.241
X317.806Y-171.035
X317.98Y-512.006
X318.336Y-411.435
X318.402Y-75.151
X318.675Y-329.334
X319.011Y-261.976
X319.045Y-215.782
X319.484Y-390.25
X319.568Y-349.208
X319.684Y-144.168
X319.864Y-369.51
X320.014Y-523.664
X321.092Y-443.907
X321.11Y-477.491
X321.341Y-117.602
X321.399Y-280.581
X321.458Y-188.247
X321.592Y-535.392
X322.152Y-233.641
X322.712Y-547.173
X322.809Y-91.306
X323.372Y-558.989
X323.389Y-299.557
X323.57Y-161.078
X323.713Y-421.994
X324.117Y-65.252
X324.373Y-488.872
X324.874Y-205.751
X324.933Y-318.92
X324.954Y-251.83
X325.41Y-400.515
X325.427Y-134.236
X325.468Y-454.913
X325.975Y-338.686
X326.291Y-379.473
X326.452Y-358.866
X327.07Y-107.687
X327.207Y-500.367
X327.248Y-178.26
X327.417Y-270.365
X328.026Y-223.563
X328.529Y-81.401
X328.716Y-432.734
X329.331Y-151.123
X329.442Y-466.07
X329.5Y-289.261
X329.607Y-511.961
X330.697Y-195.727
X330.885Y-241.696
X330.985Y-410.975
X331.157Y-308.532
X331.169Y-124.305
X331.569Y-523.636
X332.338Y-328.194
X332.388Y-389.643
X332.798Y-97.772
X332.982Y-348.259
X333.009Y-477.365
X333.025Y-368.739
X333.034Y-168.276
X333.091Y-535.377
X333.339Y-443.644
X333.418Y-260.164
X333.891Y-213.493
X334.171Y-547.168
X334.249Y-71.497
X334.808Y-558.99
X335.09Y-141.171
X335.587Y-278.983
X336.163Y-488.781
X336.201Y-421.618
X336.514Y-185.708
X336.804Y-231.572
X336.909Y-114.375
X337.351Y-298.167
X337.577Y-454.709
X338.147Y-400.007
X338.525Y-87.858
X338.66Y-317.73
X338.816Y-158.297
X338.902Y-500.305
X339.279Y-378.816
X339.403Y-249.977
X339.461Y-337.686
X339.69Y-358.045
X339.749Y-203.431
X340.847Y-131.221
X341.054Y-432.432
X341.22Y-511.92
X341.425Y-465.915
X341.654Y-268.723
X342.327Y-175.694
X342.648Y-104.447
X342.713Y-221.458
X343.116Y-523.611
X343.516Y-287.824
X343.562Y-410.555
X344.253Y-77.945
X344.586Y-535.364
X344.596Y-148.321
X344.877Y-477.25
X344.946Y-307.293
X345.209Y-389.088
X345.374Y-239.803
X345.537Y-443.405
X345.601Y-193.375
X345.629Y-547.162
X345.891Y-327.144
X346.092Y-368.033
X346.243Y-558.991
X346.295Y-347.387
X346.603Y-121.273
X347.701Y-258.479
X347.929Y-488.699
X348.135Y-165.685
X348.387Y-94.52
X348.611Y-211.353
X348.627Y-421.276
X349.645Y-454.523
X349.656Y-277.501
X350.373Y-138.348
X350.578Y-500.248
X350.809Y-399.543
X351.198Y-296.881
X351.332Y-229.641
X351.445Y-183.327
X352.183Y-378.214
X352.278Y-316.631
X352.356Y-111.327
X352.821Y-511.882
X352.835Y-357.289
X352.844Y-336.764
X353.338Y-432.157
X353.373Y-465.774
X353.731Y-248.251
X353.939Y-155.681
X354.124Y-84.594
X354.501Y-201.258
X354.654Y-523.588
X355.773Y-267.197
X356.073Y-410.172
X356.076Y-535.352
X356.147Y-128.377
X356.717Y-477.146
X357.084Y-547.157
X357.277Y-219.49
X357.283Y-173.284
X357.419Y-286.491
X357.678Y-558.991
X357.688Y-443.186
X357.955Y-388.579
X358.109Y-101.383
X358.626Y-306.147
X359.075Y-367.384
X359.343Y-326.174
X359.513Y-346.584
X359.674Y-488.624
X359.739Y-145.681
X359.743Y-238.037
X360.382Y-191.17
X360.996Y-420.962
X361.673Y-454.353
X361.868Y-256.911
X361.918Y-118.41
X362.24Y-500.196
X363.116Y-163.248
X363.211Y-209.35
X363.404Y-399.118
X363.613Y-276.124
X363.859Y-91.441
X364.411Y-511.848
X364.937Y-295.688
X365.008Y-377.661
X365.29Y-465.645
X365.536Y-135.684
X365.572Y-431.904
X365.741Y-227.836
X365.795Y-315.614
X365.893Y-356.594
X366.133Y-335.913
X366.186Y-523.567
X366.256Y-181.091
X367.562Y-535.34
X367.687Y-108.445
X367.942Y-246.641
X368.524Y-409.82
X368.533Y-477.05
X368.538Y-547.153
X368.944Y-153.217
X369.112Y-558.992
X369.134Y-199.22
X369.78Y-265.776
X369.797Y-442.987
X370.63Y-388.112
X371.215Y-285.253
X371.329Y-125.692
X371.399Y-488.555
X371.725Y-217.649
X371.977Y-366.786
X372.122Y-171.018
X372.205Y-305.083
X372.644Y-345.842
X372.699Y-325.277
X373.312Y-420.675
X373.454Y-98.483
X373.667Y-454.198
X373.886Y-500.148
X373.999Y-236.387
X374.766Y-143.191
X375.047Y-189.1
X375.924Y-255.447
X375.936Y-398.727
X375.991Y-511.817
X377.118Y-115.703
X377.177Y-465.527
X377.463Y-274.841
X377.695Y-207.472
X377.711Y-523.548
X377.761Y-431.673
X377.762Y-377.151
X377.981Y-160.953
X378.576Y-294.579
X378.87Y-355.951
X379.044Y-535.33
X379.216Y-314.671
X379.333Y-335.126
X379.99Y-547.149
X380.038Y-226.148
X380.325Y-476.962
X380.546Y-558.993
X380.584Y-133.17
X380.92Y-409.496
X380.951Y-178.988
X381.867Y-442.803
X382.045Y-245.137
X382.905Y-105.718
X383.107Y-488.492
X383.241Y-387.681
X383.653Y-197.307
X383.682Y-264.451
X383.834Y-150.894
X384.807Y-366.234
X384.911Y-284.1
X385.52Y-500.104
X385.579Y-420.411
X385.628Y-454.055
X385.688Y-304.095
X385.693Y-345.156
X385.967Y-324.445
X386.061Y-215.922
X386.398Y-123.154
X386.846Y-168.885
X387.562Y-511.788
X388.146Y-234.843
X388.41Y-398.366
X389.039Y-465.418
X389.23Y-523.53
X389.6Y-187.153
X389.681Y-140.841
X389.875Y-254.081
X389.908Y-431.46
X390.449Y-376.68
X390.523Y-535.32
X391.213Y-273.645
X391.44Y-547.145
X391.772Y-355.357
X391.98Y-558.993
X392.07Y-205.71
X392.097Y-476.882
X392.119Y-293.547
X392.207Y-113.142
X392.451Y-334.396
X392.548Y-313.795
X392.734Y-158.789
X393.265Y-409.198
X393.902Y-442.635
X394.228Y-224.565
X394.799Y-488.434
X395.522Y-130.794
X395.536Y-177.009
X395.791Y-387.283
X396.044Y-243.729
X397.142Y-500.064
X397.484Y-263.213
X397.56Y-453.924
X397.567Y-365.723
X397.802Y-420.167
X398.065Y-195.509
X398.511Y-283.026
X398.614Y-148.701
X398.666Y-344.519
X399.082Y-303.176
X399.124Y-511.761
X399.151Y-323.672
X400.292Y-214.302
X400.744Y-523.514
X400.831Y-398.034
X400.876Y-465.318
X401.358Y-120.752
X401.463Y-166.873
X402.0Y-535.311
X402.016Y-431.264
X402.191Y-233.396
X402.89Y-547.141
X403.073Y-376.245
X403.413Y-558.994
X403.728Y-252.802
X403.849Y-476.807
X404.046Y-185.321
X404.487Y-138.62
X404.605Y-354.806
X404.868Y-272.529
X405.492Y-333.719
X405.563Y-408.923
X405.572Y-292.585
X405.797Y-312.98
X405.905Y-442.479
X406.34Y-204.053
X406.475Y-488.38
X407.38Y-156.747
X408.286Y-386.915
X408.316Y-223.08
X408.753Y-500.026
X409.464Y-453.803
X409.945Y-242.411
X409.984Y-419.942
X410.016Y-175.143
X410.264Y-365.249
X410.353Y-128.545
X410.679Y-511.736
X411.193Y-262.055
X411.567Y-343.929
X412.022Y-282.022
X412.253Y-523.498
X412.258Y-322.953
X412.373Y-193.817
X412.392Y-302.319
X412.691Y-465.226
X413.202Y-397.726
X413.289Y-146.629
X413.473Y-535.303
X414.089Y-431.083
X414.338Y-547.138
X414.423Y-212.779
X414.847Y-558.994
X415.584Y-476.738
X415.641Y-375.841
X415.975Y-164.975
X416.138Y-232.038
X417.372Y-354.295
X417.487Y-251.604
X417.817Y-408.668
X417.877Y-442.335
X418.138Y-488.33
X418.391Y-183.594
X418.434Y-271.484
X418.461Y-333.088
X418.942Y-291.687
X418.967Y-312.22
X419.189Y-136.519
X420.354Y-499.992
X420.511Y-202.494
X420.729Y-386.574
X421.344Y-453.691
X421.924Y-154.818
X422.127Y-419.734
X422.227Y-511.713
X422.308Y-221.684
X422.902Y-364.81
X423.753Y-241.173
X423.758Y-523.484
X424.396Y-173.383
X424.402Y-343.379
X424.486Y-465.14
X424.812Y-260.97
X424.944Y-535.295
X425.291Y-322.282
X425.449Y-281.083
X425.527Y-397.44
X425.624Y-301.519
X425.785Y-547.135
X426.13Y-430.915
X426.28Y-558.995
X426.582Y-192.222
X427.302Y-476.674
X427.862Y-144.669
X428.154Y-375.466
X428.457Y-211.346
X429.789Y-488.284
X429.822Y-442.202
X429.993Y-230.762
X430.03Y-408.432
X430.078Y-353.818
X430.388Y-163.183
X431.157Y-250.48
X431.362Y-332.5
X431.916Y-270.506
X431.945Y-499.959
X432.063Y-311.51
X432.232Y-290.847
X432.638Y-181.965
X433.124Y-386.257
X433.2Y-453.587
X433.769Y-511.692
X434.235Y-419.541
X434.587Y-201.025
X435.258Y-523.471
X435.484Y-364.4
X436.208Y-220.371
X436.262Y-465.061
X436.369Y-152.993
X436.413Y-535.287
X437.175Y-342.866
X437.231Y-547.132
X437.472Y-240.011
X437.712Y-558.995
X437.809Y-397.175
X438.14Y-430.759
X438.256Y-321.657
X438.347Y-259.953
X438.679Y-171.72
X438.781Y-300.77
X438.796Y-280.204
X439.005Y-476.615
X440.618Y-375.117
X440.698Y-190.718
X441.428Y-488.241
X441.74Y-442.078
X442.206Y-408.212
X442.401Y-209.996
X442.727Y-353.375
X443.528Y-499.929
X443.759Y-229.562
X444.2Y-331.951
X444.706Y-161.487
X444.743Y-249.424
X445.035Y-453.49
X445.09Y-310.847
X445.305Y-511.672
X445.319Y-269.588
X445.448Y-290.06
X445.474Y-385.962
X446.311Y-419.361
X446.755Y-523.458
X446.792Y-180.426
X447.879Y-535.281
X448.015Y-364.019
X448.02Y-464.987
X448.572Y-199.639
X448.676Y-547.129
X449.145Y-558.996
X449.89Y-342.388
X450.021Y-219.134
X450.052Y-396.928
X450.122Y-430.614
X450.695Y-476.56
X451.108Y-238.917
X451.157Y-321.071
X451.802Y-258.997
X451.867Y-300.069
X452.068Y-279.379
X452.869Y-170.148
X453.034Y-374.792
X453.057Y-488.201
X453.635Y-441.963
X454.347Y-408.007
X454.724Y-189.298
X455.104Y-499.901
X455.323Y-352.96
X456.257Y-208.723
X456.835Y-511.653
X456.85Y-453.4
X456.978Y-331.438
X457.443Y-228.432
X457.783Y-385.687
X458.052Y-310.226
X458.249Y-523.447
X458.25Y-248.431
X458.356Y-419.193
X458.593Y-289.323
X458.645Y-268.726
X459.344Y-535.274
X459.762Y-464.918
X460.12Y-547.127
X460.497Y-363.662
X460.577Y-558.996
X460.857Y-178.972
X462.077Y-430.479
X462.257Y-396.698
X462.371Y-476.509
X462.471Y-198.331
X462.55Y-341.94
X463.75Y-217.967
X463.997Y-320.523
X464.664Y-237.887
X464.675Y-488.164
X464.888Y-299.412
X465.182Y-258.098
X465.269Y-278.605
X465.407Y-374.488
X465.508Y-441.855
X466.454Y-407.817
X466.672Y-499.875
X467.87Y-352.573
X468.36Y-511.635
X468.646Y-453.316
X468.664Y-187.955
X469.7Y-330.957
X469.739Y-523.436
X470.031Y-207.521
X470.052Y-385.43
X470.372Y-419.037
X470.807Y-535.268
X470.952Y-309.643
X471.047Y-227.366
X471.489Y-464.854
X471.564Y-547.124
X471.671Y-288.63
X471.681Y-247.495
X471.901Y-267.915
X472.009Y-558.997
X472.934Y-363.329
X474.008Y-430.352
X474.036Y-476.461
X474.428Y-396.482
X475.159Y-341.521
X476.285Y-488.129
X476.288Y-197.094
X476.78Y-320.009
X477.36Y-441.755
X477.4Y-216.866
X477.74Y-374.204
X477.847Y-298.795
X478.145Y-236.916
X478.233Y-499.851
X478.403Y-277.876
X478.49Y-257.252
X478.532Y-407.638
X479.881Y-511.619
X480.369Y-352.21
X480.425Y-453.238
X481.226Y-523.425
X482.268Y-535.262
X482.284Y-385.19
X482.362Y-418.891
X482.37Y-330.506
X483.007Y-547.122
X483.203Y-464.794
X483.441Y-558.997
X483.726Y-206.385
X483.794Y-309.096
X484.575Y-226.36
X484.686Y-287.978
X485.04Y-246.613
X485.089Y-267.151
X485.328Y-363.017
X485.69Y-476.416
X485.917Y-430.235
X486.566Y-396.281
X487.719Y-341.128
X487.885Y-488.096
X489.193Y-441.661
X489.509Y-319.527
X489.788Y-499.828
X490.033Y-373.937
X490.581Y-407.472
X490.747Y-298.214
X490.975Y-215.825
X491.397Y-511.603
X491.474Y-277.191
X491.553Y-236.0
X491.731Y-256.453
X492.189Y-453.165
X492.71Y-523.416
X492.824Y-351.869
X493.728Y-535.257
X494.328Y-418.755
X494.449Y-547.12
X494.483Y-384.965
X494.873Y-558.997
X494.903Y-464.738
X494.99Y-330.083
X496.582Y-308.581
X497.333Y-476.374
X497.642Y-287.364
X497.682Y-362.725
X497.804Y-430.124
X498.032Y-225.409
X498.213Y-266.432
X498.331Y-245.781
X498.673Y-396.092
X499.478Y-488.065
X500.234Y-340.759
X501.008Y-441.573
X501.337Y-499.806
X502.188Y-319.073
X502.291Y-373.688
X502.603Y-407.315
X502.909Y-511.589
X503.591Y-297.668
X503.937Y-453.096
X504.192Y-523.406
X504.484Y-276.544
X504.894Y-235.133
X504.907Y-255.7
X505.186Y-535.252
X505.238Y-351.55
X505.89Y-547.118
X506.27Y-418.627
X506.304Y-558.998
X506.591Y-464.685
X506.649Y-384.753
X507.564Y-329.685
X508.967Y-476.334
X509.317Y-308.096
X509.671Y-430.021
X509.999Y-362.45
X510.542Y-286.786
X510.752Y-395.915
X511.064Y-488.037
X511.276Y-265.752
X511.558Y-244.995
X512.706Y-340.412
X512.806Y-441.491
X512.881Y-499.786
X514.417Y-511.575
X514.515Y-373.453
X514.6Y-407.168
X514.819Y-318.645
X515.671Y-453.031
X515.671Y-523.398
X516.382Y-297.152
X516.643Y-535.247
X517.331Y-547.116
X517.437Y-275.934
X517.612Y-351.249
X517.736Y-558.998
X518.021Y-254.988
X518.19Y-418.506
X518.267Y-464.635
X518.785Y-384.555
X520.093Y-329.31
X520.591Y-476.297
X521.52Y-429.923
X522.004Y-307.64
X522.28Y-362.191
X522.642Y-488.009
X522.805Y-395.749
X523.388Y-286.24
X524.282Y-265.111
X524.42Y-499.767
X524.588Y-441.413
X525.138Y-340.085
X525.922Y-511.562
X526.574Y-407.03
X526.707Y-373.232
X527.148Y-523.39
X527.393Y-452.97
X527.405Y-318.243
X528.098Y-535.243
X528.771Y-547.114
X529.124Y-296.666
X529.167Y-558.999
X529.933Y-464.589
X529.95Y-350.966
X530.09Y-418.393
X530.336Y-275.357
X530.892Y-384.368
X532.207Y-476.262
X532.581Y-328.957
X533.351Y-429.832
X534.215Y-487.984
X534.528Y-361.947
X534.645Y-307.208
X534.832Y-395.593
X535.954Y-499.749
X536.183Y-285.724
X536.355Y-441.34
X537.423Y-511.55
X537.531Y-339.777
X538.525Y-406.901
X538.623Y-523.382
X538.87Y-373.024
X539.102Y-452.913
X539.553Y-535.238
X539.948Y-317.862
X540.211Y-547.113
X540.598Y-558.999
X541.589Y-464.545
X541.819Y-296.207
X541.97Y-418.287
X542.253Y-350.699
X542.973Y-384.192
X543.816Y-476.229
X545.03Y-328.623
X545.165Y-429.746
X545.781Y-487.96
X546.745Y-361.718
X546.835Y-395.445
X547.242Y-306.801
X547.483Y-499.731
X548.109Y-441.272
X548.922Y-511.538
X549.889Y-339.486
X550.096Y-523.375
X550.456Y-406.778
X550.799Y-452.859
X551.003Y-372.828
X551.006Y-535.234
X551.65Y-547.111
X552.029Y-558.999
X552.45Y-317.503
X553.236Y-464.503
X553.833Y-418.186
X554.523Y-350.447
X555.028Y-384.026
X555.417Y-476.197
X556.965Y-429.664
X557.341Y-487.937
X557.441Y-328.308
X558.817Y-395.306
X558.931Y-361.501
X559.008Y-499.715
X559.849Y-441.207
X560.417Y-511.527
X561.567Y-523.368
X562.212Y-339.211
X562.367Y-406.663
X562.458Y-535.23
X562.486Y-452.808
X563.089Y-547.109
X563.111Y-372.643
X563.46Y-559.0
X564.874Y-464.464
X565.679Y-418.092
X566.763Y-350.209
X567.011Y-476.168
X567.06Y-383.869
X568.749Y-429.588
X568.896Y-487.915
X570.53Y-499.7
X570.777Y-395.174
X571.09Y-361.296
X571.578Y-441.146
X571.91Y-511.517
X573.037Y-523.361
X573.91Y-535.226
X574.163Y-452.76
X574.26Y-406.554
X574.528Y-547.108
X574.891Y-559.0
X575.193Y-372.468
X576.503Y-464.427
X577.508Y-418.002
X578.598Y-476.14
X579.069Y-383.721
X580.446Y-487.895
X580.52Y-429.515
X582.047Y-499.685
X582.717Y-395.05
X583.294Y-441.088
X583.4Y-511.507
X584.505Y-523.355
X585.36Y-535.223
X585.83Y-452.715
X585.966Y-547.106
X586.135Y-406.45
X586.322Y-559.0
X588.125Y-464.392
X589.323Y-417.917
X590.179Y-476.114
X591.992Y-487.875
X592.278Y-429.446
X593.561Y-499.671
X594.888Y-511.498
X595.0Y-441.033
X595.971Y-523.349
X596.809Y-535.22
X597.403Y-547.105
X597.487Y-452.672
X597.752Y-559.0
X599.739Y-464.358
X601.754Y-476.088
X603.532Y-487.857
X605.072Y-499.658
X606.374Y-511.489
X607.436Y-523.343
X608.258Y-535.216
X608.841Y-547.104
X609.183Y-559.001
T3
X72.19Y-464.63
X75.44Y-487.38
X99.67Y-417.03
X106.17Y-520.25
X119.27Y-563.31
X136.16Y-353.81
X137.3Y-577.5
X172.66Y-290.58
X192.31Y-577.5
X209.16Y-227.37
X245.66Y-164.15
X265.31Y-577.5
X282.17Y-100.93
X309.67Y-53.3
X337.71Y-48.71
X338.29Y-577.5
X392.81Y-86.56
X411.31Y-577.5
X479.59Y-168.17
X484.31Y-577.5
X548.71Y-264.75
X557.3Y-577.5
X597.78Y-372.89
X612.34Y-577.5
X625.08Y-488.86
X630.3Y-555.5
T4
X330.73Y-33.63
X356.88Y-33.6
X360.139Y-36.75
X401.913Y-65.814
X410.551Y-72.481
X449.281Y-105.492
X457.232Y-112.963
X492.562Y-149.59
X499.74Y-157.81
X531.324Y-197.712
X537.672Y-206.584
X565.212Y-249.378
X570.27Y-258.131
X593.556Y-303.381
X598.069Y-313.319
X616.837Y-360.622
X620.36Y-370.94
X634.418Y-419.85
X636.919Y-430.471
X640.18Y-569.24
X646.139Y-480.519
X647.589Y-491.336
X651.88Y-542.044
X653.03Y-546.58
T5
X378.06Y-32.78
X398.64Y-47.04
X428.84Y-70.25
X447.82Y-86.48
X475.64Y-112.48
X493.0Y-130.58
X518.07Y-159.19
X533.59Y-178.84
X555.77Y-209.74
X569.34Y-230.76
X587.96Y-263.04
X599.44Y-285.3
X615.2Y-319.94
X624.44Y-343.18
X636.79Y-379.18
X643.7Y-403.23
X652.43Y-440.32
X656.99Y-464.86
X662.1Y-502.63
X664.19Y-527.51
T6
X64.46Y-480.99
X117.91Y-385.42
X119.31Y-576.01
X190.91Y-258.98
X228.8Y-577.5
X263.91Y-132.54
X317.52Y-42.67
X374.81Y-577.5
X438.21Y-125.24
X516.63Y-214.93
X520.81Y-577.5
X575.82Y-317.44
X614.28Y-430.2
X630.43Y-576.0
T0
M30
