M48
; DRILL file {KiCad (6.0.1)} date Fri Oct 21 10:45:30 2022
; FORMAT={-:-/ absolute / metric / decimal}
; #@! TF.CreationDate,2022-10-21T10:45:30+02:00
; #@! TF.GenerationSoftware,Kicad,Pcbnew,(6.0.1)
; #@! TF.FileFunction,NonPlated,1,4,NPTH
FMAT,2
METRIC
; #@! TA.AperFunction,NonPlated,NPTH,ComponentDrill
T1C1.000
; #@! TA.AperFunction,NonPlated,NPTH,ComponentDrill
T2C1.190
; #@! TA.AperFunction,NonPlated,NPTH,ComponentDrill
T3C1.650
; #@! TA.AperFunction,NonPlated,NPTH,ComponentDrill
T4C2.540
; #@! TA.AperFunction,NonPlated,NPTH,ComponentDrill
T5C3.200
; #@! TA.AperFunction,NonPlated,NPTH,ComponentDrill
T6C3.500
%
G90
G05
T3
X-96.8Y-136.5
X-67.2Y-136.5
X136.5Y96.8
X136.5Y67.2
T4
X79.56Y-29.28
X79.56Y-101.28
X96.8Y-29.28
X96.8Y-101.28
T5
X98.0Y-47.0
X98.0Y-59.4
X98.0Y-71.8
T6
X-140.0Y140.0
X-140.0Y95.0
X-140.0Y50.0
X-140.0Y5.0
X-140.0Y-40.0
X-95.0Y140.0
X-95.0Y-40.0
X-50.0Y140.0
X-50.0Y-40.0
X-5.0Y140.0
X-5.0Y-40.0
X40.0Y140.0
X40.0Y95.0
X40.0Y50.0
X40.0Y5.0
X40.0Y-40.0
T1
G00X101.55Y-44.4
M15
G01X102.05Y-44.4
M16
G05
G00X101.55Y-49.6
M15
G01X102.05Y-49.6
M16
G05
G00X101.55Y-56.8
M15
G01X102.05Y-56.8
M16
G05
G00X101.55Y-62.0
M15
G01X102.05Y-62.0
M16
G05
G00X101.55Y-69.2
M15
G01X102.05Y-69.2
M16
G05
G00X101.55Y-74.4
M15
G01X102.05Y-74.4
M16
G05
T2
G00X83.68Y-29.18
M15
G01X83.68Y-29.38
M16
G05
G00X83.68Y-101.18
M15
G01X83.68Y-101.38
M16
G05
G00X92.68Y-29.18
M15
G01X92.68Y-29.38
M16
G05
G00X92.68Y-101.18
M15
G01X92.68Y-101.38
M16
G05
T0
M30
