M48
; DRILL file {KiCad (6.0.1)} date Fri Oct 21 10:45:30 2022
; FORMAT={-:-/ absolute / metric / decimal}
; #@! TF.CreationDate,2022-10-21T10:45:30+02:00
; #@! TF.GenerationSoftware,Kicad,Pcbnew,(6.0.1)
; #@! TF.FileFunction,Plated,1,4,PTH
FMAT,2
METRIC
; #@! TA.AperFunction,Plated,PTH,ViaDrill
T1C0.150
; #@! TA.AperFunction,Plated,PTH,ComponentDrill
T2C0.200
; #@! TA.AperFunction,Plated,PTH,ViaDrill
T3C0.400
%
G90
G05
T1
X-95.05Y95.05
X-95.05Y85.05
X-95.05Y75.05
X-95.05Y65.05
X-95.05Y55.05
X-94.8Y-142.5
X-94.0Y-142.5
X-93.2Y-142.5
X-92.4Y-142.5
X-91.6Y-142.5
X-90.8Y-142.5
X-90.0Y-142.5
X-89.202Y-2.42
X-89.2Y-142.5
X-88.4Y-142.5
X-88.316Y-2.42
X-87.6Y-142.5
X-86.8Y-142.5
X-86.0Y-142.5
X-85.2Y-142.5
X-85.05Y95.05
X-85.05Y85.05
X-85.05Y75.05
X-85.05Y65.05
X-85.05Y55.05
X-84.4Y-142.5
X-83.6Y-142.5
X-82.8Y-142.5
X-76.702Y-2.42
X-75.816Y-2.42
X-75.05Y95.05
X-75.05Y85.05
X-75.05Y75.05
X-75.05Y65.05
X-75.05Y55.05
X-65.05Y95.05
X-65.05Y85.05
X-65.05Y75.05
X-65.05Y65.05
X-65.05Y55.05
X-64.202Y-2.42
X-63.316Y-2.42
X-55.05Y95.05
X-55.05Y85.05
X-55.05Y75.05
X-55.05Y65.05
X-55.05Y55.05
X-51.702Y-2.42
X-50.816Y-2.42
X-45.05Y95.05
X-45.05Y85.05
X-45.05Y75.05
X-45.05Y65.05
X-45.05Y55.05
X-39.202Y-2.42
X-38.316Y-2.42
X-35.05Y95.05
X-35.05Y85.05
X-35.05Y75.05
X-35.05Y65.05
X-35.05Y55.05
X-26.702Y-2.42
X-25.816Y-2.42
X-25.05Y95.05
X-25.05Y85.05
X-25.05Y75.05
X-25.05Y65.05
X-25.05Y55.05
X-15.05Y95.05
X-15.05Y85.05
X-15.05Y75.05
X-15.05Y65.05
X-15.05Y55.05
X-14.202Y-2.42
X-13.316Y-2.42
X-5.05Y95.05
X-5.05Y85.05
X-5.05Y75.05
X-5.05Y65.05
X-5.05Y55.05
X-1.702Y-2.42
X-0.816Y-2.42
X1.707Y94.676
X1.707Y93.778
X1.707Y92.889
X1.707Y92.008
X1.707Y91.124
X1.707Y84.676
X1.707Y83.778
X1.707Y82.889
X1.707Y82.008
X1.707Y81.124
X1.707Y74.676
X1.707Y73.778
X1.707Y72.889
X1.707Y72.008
X1.707Y71.124
X1.707Y64.676
X1.707Y63.778
X1.707Y62.889
X1.707Y62.008
X1.707Y61.124
X1.707Y54.676
X1.707Y53.778
X1.707Y52.889
X1.707Y52.008
X1.707Y51.124
X142.433Y94.786
X142.433Y93.986
X142.433Y93.186
X142.433Y92.386
X142.433Y91.586
X142.433Y90.786
X142.433Y89.986
X142.433Y89.186
X142.433Y88.386
X142.433Y87.586
X142.433Y86.786
X142.433Y85.986
X142.433Y85.186
X142.433Y84.386
X142.433Y83.586
X142.433Y82.786
X142.433Y81.186
X142.433Y80.386
X142.433Y79.586
X142.433Y78.786
X142.433Y77.986
X142.433Y77.186
X142.433Y76.386
X142.433Y75.586
X142.433Y74.786
T2
X-113.962Y-136.5
X-49.962Y-136.5
X13.962Y-136.5
X136.5Y114.038
X136.5Y50.038
X136.5Y-13.962
T3
X-93.8Y43.8
X-93.8Y31.3
X-93.8Y18.8
X-93.8Y6.3
X-81.3Y43.8
X-81.3Y31.3
X-81.3Y18.8
X-81.3Y6.3
X-68.8Y43.8
X-68.8Y31.3
X-68.8Y18.8
X-68.8Y6.3
X-56.3Y43.8
X-56.3Y31.3
X-56.3Y18.8
X-56.3Y6.3
X-43.8Y43.8
X-43.8Y31.3
X-43.8Y18.8
X-43.8Y6.3
X-31.3Y43.8
X-31.3Y31.3
X-31.3Y18.8
X-31.3Y6.3
X-18.8Y43.8
X-18.8Y31.3
X-18.8Y18.8
X-18.8Y6.3
X-6.3Y43.8
X-6.3Y31.3
X-6.3Y18.8
X-6.3Y6.3
T0
M30
